<?xml version="1.0" encoding="utf-8"?>
<!-- Generator: Adobe Illustrator 27.5.0, SVG Export Plug-In . SVG Version: 6.00 Build 0)  -->
<svg version="1.1" xmlns="http://www.w3.org/2000/svg" xmlns:xlink="http://www.w3.org/1999/xlink" x="0px" y="0px"
	 viewBox="0 0 500 500" style="enable-background:new 0 0 500 500;" xml:space="preserve">
<g id="Background_Complete">
	<g>
		<g>
			<g>
				<g>
					<g>
						
							<rect x="382.191" y="162.826" transform="matrix(0.4742 -0.8804 0.8804 0.4742 59.7915 433.9964)" style="fill:#E0E0E0;" width="22.109" height="8.227"/>
					</g>
				</g>
			</g>
			<g>
				<g>
					<g>
						
							<rect x="384.148" y="163.88" transform="matrix(0.4742 -0.8804 0.8804 0.4742 59.8935 436.2746)" style="fill:#EBEBEB;" width="22.109" height="8.227"/>
					</g>
				</g>
			</g>
			<g>
				<g>
					<g>
						<path style="fill:#FFFFFF;" d="M396.459,162.194c-0.486,0.902-0.149,2.028,0.754,2.514s2.028,0.149,2.514-0.754
							c0.486-0.903,0.148-2.028-0.754-2.514C398.071,160.954,396.945,161.292,396.459,162.194z"/>
					</g>
				</g>
			</g>
			<g>
				<g>
					<g>
						<g>
							<path style="fill:#EBEBEB;" d="M393.301,158.191c0.091-0.01,0.263,0.845,0.384,1.91c0.121,1.065,0.145,1.937,0.054,1.948
								c-0.091,0.01-0.263-0.845-0.384-1.91C393.234,159.074,393.21,158.202,393.301,158.191z"/>
						</g>
					</g>
				</g>
			</g>
			<g>
				<g>
					<g>
						<g>
							<path style="fill:#EBEBEB;" d="M392.141,160.345c0.091-0.01,0.263,0.845,0.384,1.91c0.121,1.065,0.145,1.937,0.055,1.947
								c-0.091,0.01-0.263-0.845-0.384-1.91C392.075,161.227,392.05,160.355,392.141,160.345z"/>
						</g>
					</g>
				</g>
			</g>
			<g>
				<g>
					<g>
						<g>
							<path style="fill:#EBEBEB;" d="M390.981,162.498c0.091-0.01,0.263,0.845,0.384,1.91c0.121,1.066,0.145,1.937,0.054,1.948
								c-0.091,0.01-0.263-0.845-0.384-1.91C390.915,163.38,390.891,162.508,390.981,162.498z"/>
						</g>
					</g>
				</g>
			</g>
			<g>
				<g>
					<g>
						<g>
							<path style="fill:#EBEBEB;" d="M389.822,164.652c0.091-0.01,0.263,0.845,0.383,1.91c0.121,1.065,0.145,1.937,0.055,1.947
								s-0.263-0.845-0.384-1.91C389.755,165.534,389.731,164.662,389.822,164.652z"/>
						</g>
					</g>
				</g>
			</g>
			<g>
				<g>
					<g>
						<g>
							<path style="fill:#EBEBEB;" d="M388.662,166.805c0.091-0.01,0.263,0.845,0.383,1.91c0.121,1.065,0.145,1.937,0.055,1.948
								c-0.091,0.01-0.263-0.845-0.384-1.91C388.595,167.687,388.571,166.815,388.662,166.805z"/>
						</g>
					</g>
				</g>
			</g>
			<g>
				<g>
					<g>
						<g>
							<path style="fill:#EBEBEB;" d="M387.502,168.958c0.091-0.01,0.263,0.845,0.384,1.91c0.121,1.065,0.145,1.937,0.054,1.947
								c-0.091,0.01-0.263-0.845-0.384-1.91C387.435,169.841,387.411,168.969,387.502,168.958z"/>
						</g>
					</g>
				</g>
			</g>
			<g>
				<g>
					<g>
						<g>
							<path style="fill:#EBEBEB;" d="M386.342,171.112c0.091-0.01,0.263,0.845,0.384,1.91c0.121,1.066,0.145,1.937,0.054,1.948
								c-0.091,0.01-0.263-0.845-0.384-1.91C386.275,171.994,386.251,171.122,386.342,171.112z"/>
						</g>
					</g>
				</g>
			</g>
			<g>
				<g>
					<g>
						<g>
							<path style="fill:#EBEBEB;" d="M394.344,156.303c0.091-0.01,0.263,0.845,0.384,1.91c0.121,1.065,0.145,1.937,0.054,1.947
								c-0.091,0.01-0.263-0.845-0.384-1.91C394.277,157.185,394.253,156.313,394.344,156.303z"/>
						</g>
					</g>
				</g>
			</g>
			<g>
				<g>
					<g>
						<g>
							<path style="fill:#EBEBEB;" d="M395.636,155.671c0.091-0.01,0.223,0.492,0.294,1.123c0.072,0.631,0.056,1.15-0.035,1.16
								c-0.091,0.01-0.223-0.492-0.294-1.123C395.53,156.201,395.545,155.682,395.636,155.671z"/>
						</g>
					</g>
				</g>
			</g>
		</g>
		<g>
			<g>
				<g>
					<g>
						<path style="fill:#E0E0E0;" d="M381.546,171.224l8.872-17.412c0,0-3.429-2.807-4.038-9.85
							c-0.403-4.661,2.396-7.863,2.776-9.609c0.233-1.067-2.048-2.056-3.063-2.459c-0.962-0.382-2.729-0.684-4.129,0.409
							c-2.595,2.027-4.385,9.256-4.385,9.256s0.015,1.676-1.796,0.701l-6.458-3.479c-0.837-0.451-1.81-0.62-2.739-0.416
							c-0.816,0.179-1.681,0.653-2.175,1.774c-1.13,2.562-0.428,4.358-0.707,4.875c-0.279,0.517-1.478,1.04-1.761,2.806
							c-0.284,1.766,0.109,1.811-0.274,2.522c-0.383,0.711-1.229,2.592-1.368,3.935c-0.139,1.343,0.099,2.139,0.099,2.139
							s-1.547,2.221-1.533,3.93c0.019,2.24,3.665,5.684,5.859,5.825c1.026,0.066,5.363,1.22,7.418,1.743
							C374.198,168.436,380.253,169.443,381.546,171.224z"/>
					</g>
				</g>
			</g>
			<g>
				<g>
					<g>
						<path style="fill:#EBEBEB;" d="M383.753,172.665l9.369-17.396c0,0-3.43-2.807-4.038-9.851
							c-0.403-4.661,0.078-7.992,0.458-9.738c0.233-1.067-0.315-2.169-1.331-2.573c-0.962-0.382-2.242-0.613-3.641,0.48
							c-2.595,2.027-4.286,9.428-4.286,9.428s0.015,1.677-1.796,0.701l-6.458-3.479c-0.837-0.451-1.81-0.619-2.739-0.416
							c-0.816,0.179-1.681,0.653-2.175,1.774c-1.129,2.562-0.428,4.358-0.707,4.875c-0.279,0.517-1.478,1.04-1.761,2.806
							c-0.284,1.766,0.109,1.811-0.274,2.522c-0.383,0.711-1.229,2.592-1.369,3.935c-0.139,1.343,0.099,2.139,0.099,2.139
							s-1.448,2.224-1.533,3.93s2.248,3.881,3.154,4.368c0.905,0.488,8.069,2.677,10.123,3.2S382.46,170.884,383.753,172.665z"/>
					</g>
				</g>
			</g>
			<g>
				<g>
					<g>
						<g>
							<path style="fill:#EBEBEB;" d="M378.848,137.76c0.091-0.021,0.418,1.074,0.823,2.42c0.403,1.347,0.733,2.441,0.645,2.474
								c-0.084,0.032-0.556-1.02-0.962-2.379C378.945,138.918,378.76,137.78,378.848,137.76z"/>
						</g>
					</g>
				</g>
			</g>
			<g>
				<g>
					<g>
						<g>
							<path style="fill:#EBEBEB;" d="M379.753,135.247c0.09-0.019,0.39,0.969,0.853,2.158c0.467,1.191,0.773,2.198,0.681,2.229
								c-0.081,0.027-0.52-0.911-0.99-2.112C379.825,136.315,379.663,135.264,379.753,135.247z"/>
						</g>
					</g>
				</g>
			</g>
			<g>
				<g>
					<g>
						<g>
							<path style="fill:#EBEBEB;" d="M381.059,133.245c0.099-0.022,0.323,0.79,0.765,1.717c0.464,0.937,0.69,1.78,0.6,1.807
								c-0.086,0.026-0.436-0.729-0.9-1.668C381.064,134.133,380.978,133.257,381.059,133.245z"/>
						</g>
					</g>
				</g>
			</g>
			<g>
				<g>
					<g>
						<g>
							<path style="fill:#EBEBEB;" d="M382.713,131.878c0.085-0.033,0.379,0.52,0.656,1.236c0.277,0.716,0.432,1.322,0.347,1.355
								c-0.085,0.033-0.379-0.52-0.656-1.236C382.783,132.518,382.628,131.911,382.713,131.878z"/>
						</g>
					</g>
				</g>
			</g>
			<g>
				<g>
					<g>
						<g>
							<path style="fill:#EBEBEB;" d="M384.58,131.553c0.079-0.047,0.318,0.241,0.533,0.643c0.216,0.402,0.324,0.76,0.241,0.799
								c-0.082,0.04-0.321-0.248-0.533-0.643C384.61,131.957,384.502,131.599,384.58,131.553z"/>
						</g>
					</g>
				</g>
			</g>
			<g>
				<g>
					<g>
						<g>
							<path style="fill:#EBEBEB;" d="M377.7,141.098c0.085-0.033,0.392,0.555,0.684,1.313c0.292,0.758,0.46,1.399,0.375,1.432
								c-0.085,0.033-0.391-0.555-0.684-1.313C377.783,141.772,377.615,141.131,377.7,141.098z"/>
						</g>
					</g>
				</g>
			</g>
			<g>
				<g>
					<g>
						<g>
							<path style="fill:#EBEBEB;" d="M363.922,141.502c0.081-0.042,0.706,1.008,1.396,2.345c0.69,1.337,1.183,2.455,1.101,2.497
								c-0.081,0.042-0.706-1.008-1.396-2.345C364.334,142.661,363.841,141.544,363.922,141.502z"/>
						</g>
					</g>
				</g>
			</g>
			<g>
				<g>
					<g>
						<g>
							<path style="fill:#EBEBEB;" d="M365.612,138.607c0.082-0.042,0.479,0.572,0.889,1.37c0.41,0.798,0.676,1.479,0.594,1.521
								c-0.081,0.042-0.479-0.571-0.889-1.37C365.797,139.33,365.531,138.649,365.612,138.607z"/>
						</g>
					</g>
				</g>
			</g>
			<g>
				<g>
					<g>
						<g>
							<path style="fill:#EBEBEB;" d="M362.636,146.255c0.074-0.049,0.635,0.671,1.149,1.666c0.517,0.994,0.782,1.867,0.699,1.9
								c-0.087,0.035-0.485-0.77-0.993-1.747C362.985,147.095,362.558,146.306,362.636,146.255z"/>
						</g>
					</g>
				</g>
			</g>
			<g>
				<g>
					<g>
						<g>
							<path style="fill:#EBEBEB;" d="M361.774,150.115c0.083-0.038,0.525,0.74,0.986,1.739c0.462,0.999,0.769,1.839,0.686,1.878
								c-0.083,0.038-0.525-0.74-0.987-1.739C361.998,150.994,361.691,150.153,361.774,150.115z"/>
						</g>
					</g>
				</g>
			</g>
			<g>
				<g>
					<g>
						<g>
							<path style="fill:#EBEBEB;" d="M360.392,154.486c0.088-0.033,0.519,0.909,1.079,2.052c0.557,1.145,1.035,2.064,0.955,2.113
								c-0.075,0.047-0.687-0.807-1.253-1.968C360.606,155.524,360.309,154.516,360.392,154.486z"/>
						</g>
					</g>
				</g>
			</g>
			<g>
				<g>
					<g>
						<g>
							<path style="fill:#EBEBEB;" d="M359.425,158.268c0.084-0.031,0.591,1.064,1.249,2.399c0.649,1.341,1.201,2.413,1.124,2.46
								c-0.079,0.049-0.768-0.963-1.422-2.315C359.713,159.465,359.338,158.299,359.425,158.268z"/>
						</g>
					</g>
				</g>
			</g>
		</g>
	</g>
	<g>
		<g>
			<g>
				<g>
					<g>
						
							<rect x="123.537" y="48.035" transform="matrix(0.9234 -0.3839 0.3839 0.9234 -14.3639 54.44)" style="fill:#E0E0E0;" width="11.285" height="30.328"/>
					</g>
				</g>
			</g>
			<g>
				<g>
					<g>
						
							<rect x="120.722" y="49.205" transform="matrix(0.9234 -0.3839 0.3839 0.9234 -15.0291 53.4489)" style="fill:#EBEBEB;" width="11.285" height="30.328"/>
					</g>
				</g>
			</g>
			<g>
				<g>
					<g>
						<path style="fill:#FFFFFF;" d="M131.449,70.726c-0.54-1.299-2.03-1.913-3.329-1.374c-1.299,0.54-1.913,2.03-1.374,3.329
							c0.54,1.299,2.03,1.913,3.329,1.374C131.374,73.515,131.989,72.024,131.449,70.726z"/>
					</g>
				</g>
			</g>
			<g>
				<g>
					<g>
						<g>
							<path style="fill:#EBEBEB;" d="M138.443,70.829c-0.068,0.106-1.127-0.452-2.365-1.245c-1.239-0.793-2.188-1.522-2.12-1.627
								c0.068-0.106,1.126,0.452,2.365,1.245C137.561,69.995,138.51,70.723,138.443,70.829z"/>
						</g>
					</g>
				</g>
			</g>
			<g>
				<g>
					<g>
						<g>
							<path style="fill:#EBEBEB;" d="M137.154,67.731c-0.068,0.106-1.126-0.452-2.365-1.245c-1.239-0.793-2.188-1.522-2.12-1.627
								c0.068-0.106,1.126,0.452,2.365,1.245C136.273,66.897,137.222,67.625,137.154,67.731z"/>
						</g>
					</g>
				</g>
			</g>
			<g>
				<g>
					<g>
						<g>
							<path style="fill:#EBEBEB;" d="M135.866,64.633c-0.068,0.106-1.127-0.452-2.365-1.245c-1.239-0.793-2.188-1.522-2.12-1.628
								c0.068-0.106,1.126,0.452,2.365,1.245C134.985,63.799,135.934,64.527,135.866,64.633z"/>
						</g>
					</g>
				</g>
			</g>
			<g>
				<g>
					<g>
						<g>
							<path style="fill:#EBEBEB;" d="M134.578,61.535c-0.068,0.106-1.127-0.452-2.365-1.245c-1.239-0.793-2.188-1.522-2.12-1.628
								c0.068-0.106,1.126,0.452,2.365,1.245C133.697,60.7,134.646,61.429,134.578,61.535z"/>
						</g>
					</g>
				</g>
			</g>
			<g>
				<g>
					<g>
						<g>
							<path style="fill:#EBEBEB;" d="M133.29,58.437c-0.068,0.106-1.126-0.452-2.365-1.245c-1.239-0.793-2.188-1.522-2.12-1.627
								s1.126,0.452,2.365,1.245C132.408,57.602,133.357,58.331,133.29,58.437z"/>
						</g>
					</g>
				</g>
			</g>
			<g>
				<g>
					<g>
						<g>
							<path style="fill:#EBEBEB;" d="M132.002,55.338c-0.068,0.106-1.127-0.452-2.365-1.245c-1.239-0.793-2.188-1.522-2.12-1.628
								c0.068-0.106,1.126,0.452,2.365,1.245C131.12,54.504,132.069,55.233,132.002,55.338z"/>
						</g>
					</g>
				</g>
			</g>
			<g>
				<g>
					<g>
						<g>
							<path style="fill:#EBEBEB;" d="M130.714,52.24c-0.068,0.106-1.127-0.452-2.365-1.245c-1.239-0.793-2.188-1.522-2.12-1.628
								c0.068-0.106,1.126,0.451,2.365,1.245C129.832,51.406,130.781,52.135,130.714,52.24z"/>
						</g>
					</g>
				</g>
			</g>
			<g>
				<g>
					<g>
						<g>
							<path style="fill:#EBEBEB;" d="M139.55,73.573c-0.068,0.106-1.127-0.452-2.365-1.245c-1.239-0.793-2.188-1.522-2.12-1.627
								c0.068-0.106,1.126,0.452,2.365,1.245C138.669,72.739,139.618,73.468,139.55,73.573z"/>
						</g>
					</g>
				</g>
			</g>
			<g>
				<g>
					<g>
						<g>
							<path style="fill:#EBEBEB;" d="M139.104,75.495c-0.068,0.106-0.717-0.189-1.45-0.659c-0.733-0.47-1.273-0.936-1.205-1.041
								c0.068-0.106,0.717,0.189,1.45,0.659C138.632,74.923,139.171,75.389,139.104,75.495z"/>
						</g>
					</g>
				</g>
			</g>
		</g>
		<g>
			<g>
				<g>
					<g>
						<path style="fill:#E0E0E0;" d="M134.745,47.039l10.854,24.511c0,0,5.955-1.221,13.979,4.227
							c5.31,3.605,6.295,9.354,7.824,11.271c0.935,1.171,3.96-0.4,5.268-1.131c1.24-0.693,3.091-2.313,3.138-4.748
							c0.088-4.516-6.056-12.677-6.056-12.677s-1.797-1.435,0.808-2.518l9.292-3.863c1.205-0.501,2.225-1.39,2.813-2.555
							c0.516-1.023,0.759-2.354-0.006-3.85c-1.749-3.419-4.267-4.227-4.577-4.972c-0.309-0.744,0.172-2.472-1.462-4.303
							c-1.634-1.83-2.022-1.451-2.447-2.474c-0.426-1.023-1.695-3.551-3.004-4.862c-1.309-1.311-2.363-1.746-2.363-1.746
							s-1.025-3.569-2.856-5.032c-2.4-1.918-9.222-1.018-11.27,1.194c-0.958,1.035-5.941,4.653-8.275,6.387
							C144.071,41.631,137.759,47.204,134.745,47.039z"/>
					</g>
				</g>
			</g>
			<g>
				<g>
					<g>
						<path style="fill:#EBEBEB;" d="M131.301,48.141l10.406,25.027c0,0,5.955-1.221,13.979,4.227
							c5.31,3.605,8.439,6.999,9.969,8.916c0.935,1.171,2.582,1.542,3.89,0.81c1.239-0.693,2.593-1.855,2.641-4.291
							c0.088-4.516-6.325-12.721-6.325-12.721s-1.797-1.435,0.808-2.518l9.292-3.863c1.205-0.501,2.225-1.39,2.813-2.555
							c0.516-1.023,0.759-2.354-0.006-3.85c-1.749-3.419-4.268-4.227-4.577-4.972c-0.309-0.744,0.172-2.472-1.462-4.303
							c-1.634-1.83-2.022-1.451-2.447-2.474c-0.425-1.023-1.695-3.551-3.004-4.862c-1.309-1.311-2.363-1.746-2.363-1.746
							s-1.114-3.465-2.856-5.032c-1.743-1.567-6.076-0.965-7.378-0.424s-9.832,6.271-12.167,8.005
							C140.179,43.249,134.316,48.306,131.301,48.141z"/>
					</g>
				</g>
			</g>
			<g>
				<g>
					<g>
						<g>
							<path style="fill:#EBEBEB;" d="M172.696,73.127c-0.056,0.115-1.505-0.484-3.288-1.218c-1.783-0.737-3.232-1.333-3.191-1.454
								c0.039-0.116,1.566,0.291,3.365,1.034C171.38,72.229,172.751,73.017,172.696,73.127z"/>
						</g>
					</g>
				</g>
			</g>
			<g>
				<g>
					<g>
						<g>
							<path style="fill:#EBEBEB;" d="M174.588,76.266c-0.058,0.113-1.368-0.424-3.035-0.959c-1.672-0.534-3.008-1.079-2.962-1.205
								c0.041-0.11,1.419,0.235,3.105,0.773C173.388,75.419,174.647,76.156,174.588,76.266z"/>
						</g>
					</g>
				</g>
			</g>
			<g>
				<g>
					<g>
						<g>
							<path style="fill:#EBEBEB;" d="M175.588,79.389c-0.062,0.124-1.121-0.34-2.49-0.672c-1.399-0.317-2.492-0.806-2.442-0.925
								c0.047-0.114,1.153,0.166,2.554,0.485C174.639,78.625,175.645,79.292,175.588,79.389z"/>
						</g>
					</g>
				</g>
			</g>
			<g>
				<g>
					<g>
						<g>
							<path style="fill:#EBEBEB;" d="M175.612,82.332c-0.039,0.119-0.882-0.047-1.883-0.371c-1.002-0.325-1.782-0.684-1.743-0.804
								c0.039-0.119,0.882,0.047,1.883,0.372C174.87,81.853,175.65,82.213,175.612,82.332z"/>
						</g>
					</g>
				</g>
			</g>
			<g>
				<g>
					<g>
						<g>
							<path style="fill:#EBEBEB;" d="M174.342,84.601c-0.018,0.124-0.531,0.13-1.145,0.012c-0.614-0.118-1.089-0.313-1.06-0.435
								c0.029-0.122,0.542-0.127,1.145-0.012C173.886,84.282,174.36,84.477,174.342,84.601z"/>
						</g>
					</g>
				</g>
			</g>
			<g>
				<g>
					<g>
						<g>
							<path style="fill:#EBEBEB;" d="M170.137,69.018c-0.039,0.119-0.929-0.063-1.989-0.408c-1.06-0.345-1.887-0.721-1.848-0.84
								c0.039-0.119,0.929,0.064,1.989,0.408C169.348,68.522,170.175,68.898,170.137,69.018z"/>
						</g>
					</g>
				</g>
			</g>
			<g>
				<g>
					<g>
						<g>
							<path style="fill:#EBEBEB;" d="M181.631,54.004c-0.026,0.123-1.684-0.121-3.703-0.544c-2.02-0.423-3.636-0.866-3.61-0.988
								c0.026-0.123,1.684,0.121,3.704,0.544C180.04,53.438,181.657,53.881,181.631,54.004z"/>
						</g>
					</g>
				</g>
			</g>
			<g>
				<g>
					<g>
						<g>
							<path style="fill:#EBEBEB;" d="M183.249,58.307c-0.026,0.123-1.023,0.016-2.227-0.239c-1.204-0.255-2.159-0.561-2.133-0.684
								c0.026-0.123,1.023-0.016,2.227,0.239C182.32,57.878,183.275,58.185,183.249,58.307z"/>
						</g>
					</g>
				</g>
			</g>
			<g>
				<g>
					<g>
						<g>
							<path style="fill:#EBEBEB;" d="M177.684,48.521c-0.012,0.122-1.263,0.095-2.767-0.219c-1.506-0.311-2.664-0.784-2.626-0.9
								c0.038-0.123,1.239,0.15,2.719,0.455C176.488,48.166,177.698,48.393,177.684,48.521z"/>
						</g>
					</g>
				</g>
			</g>
			<g>
				<g>
					<g>
						<g>
							<path style="fill:#EBEBEB;" d="M174.323,44.264c-0.031,0.122-1.242-0.082-2.704-0.455c-1.463-0.373-2.623-0.774-2.592-0.895
								c0.031-0.122,1.241,0.082,2.704,0.455C173.194,43.741,174.354,44.142,174.323,44.264z"/>
						</g>
					</g>
				</g>
			</g>
			<g>
				<g>
					<g>
						<g>
							<path style="fill:#EBEBEB;" d="M170.866,39.01c-0.041,0.122-1.417-0.234-3.118-0.628c-1.701-0.398-3.093-0.685-3.076-0.813
								c0.015-0.121,1.454-0.033,3.179,0.37C169.576,38.339,170.906,38.895,170.866,39.01z"/>
						</g>
					</g>
				</g>
			</g>
			<g>
				<g>
					<g>
						<g>
							<path style="fill:#EBEBEB;" d="M167.678,34.708c-0.04,0.117-1.643-0.292-3.634-0.748c-1.988-0.47-3.608-0.81-3.591-0.932
								c0.016-0.127,1.689,0.016,3.694,0.49C166.155,33.977,167.72,34.587,167.678,34.708z"/>
						</g>
					</g>
				</g>
			</g>
		</g>
	</g>
	<g>
		<g>
			<g>
				<g>
					<g>
						<path style="fill:#EBEBEB;" d="M79.47,345.269c-6.124-3.16-13.336-3.571-20.135-2.447c-3.653,0.604-7.461,1.697-9.947,4.44
							c-2.486,2.744-2.956,7.572-0.103,9.93c1.699,1.403,4.068,1.616,6.272,1.591c5.322-0.062,11.228-0.999,15.481,2.203
							c2.426,1.827,4.041,4.865,6.942,5.763c2.838,0.879,6.04-0.796,7.545-3.357c1.505-2.561,1.555-5.763,0.853-8.649
							C86.378,354.744,85.639,348.452,79.47,345.269z"/>
					</g>
				</g>
			</g>
			<g>
				<g>
					<g>
						<path style="fill:#EBEBEB;" d="M93.501,318.183c-3.745,5.348-11.024,3.578-14.398,0.313c-3.375-3.265-4.801-7.996-6.1-12.509
							c-2.967-10.31-5.958-21.125-3.752-31.624c0.66-3.139,1.833-6.269,4.039-8.598c2.205-2.328,5.597-3.714,8.698-2.895
							c3.67,0.969,5.951,4.564,7.599,7.983c4.846,10.05,7.412,21.193,7.449,32.351C97.055,308.416,96.441,313.88,93.501,318.183"/>
					</g>
				</g>
			</g>
			<g>
				<g>
					<g>
						<path style="fill:#EBEBEB;" d="M103.785,325.857c-4.066-4.826-4.838-11.864-3.029-17.91
							c1.81-6.046,5.897-11.188,10.608-15.387c5.523-4.923,12.016-8.753,18.995-11.208c2.747-0.966,5.644-1.728,8.543-1.451
							c2.899,0.276,5.817,1.759,7.169,4.337c1.999,3.813,0.082,8.437-1.991,12.21c-3.652,6.647-7.828,13.006-12.476,18.999
							c-3.739,4.821-8.023,9.577-13.722,11.756c-5.699,2.179-11.619,1.922-14.64-2.03"/>
					</g>
				</g>
			</g>
			<g>
				<g>
					<g>
						<g>
							<path style="fill:#E0E0E0;" d="M93.755,398.866c-0.07,0.004-0.184-0.862-0.339-2.43c-0.172-1.769-0.388-3.99-0.646-6.633
								c-0.309-2.791-0.717-6.112-1.492-9.729c-0.773-3.608-1.982-7.518-3.536-11.483c-1.609-3.942-3.571-7.524-5.864-10.39
								c-2.277-2.878-4.924-4.961-7.413-6.163c-2.48-1.225-4.705-1.723-6.243-1.944c-1.551-0.159-2.419-0.281-2.42-0.35
								c-0.001-0.069,0.869-0.08,2.463-0.038c1.578,0.105,3.895,0.505,6.51,1.694c2.623,1.163,5.432,3.279,7.82,6.217
								c2.407,2.925,4.441,6.587,6.078,10.599c1.581,4.035,2.772,7.985,3.511,11.671c0.736,3.68,1.073,7.038,1.294,9.852
								c0.211,2.817,0.29,5.097,0.329,6.674C93.841,397.988,93.823,398.862,93.755,398.866z"/>
						</g>
					</g>
				</g>
			</g>
			<g>
				<g>
					<g>
						<g>
							<path style="fill:#E0E0E0;" d="M93.297,393.763c-0.035-0.002-0.056-0.39-0.065-1.128c0.002-0.847,0.005-1.915,0.009-3.225
								c0.008-2.798,0.006-6.849-0.144-11.85c-0.248-10.003-1.109-20.767-2.772-35.944c-1.575-14.271-3.69-30.879-5.921-41.677
								c-0.479-2.456-0.96-4.666-1.414-6.601c-0.433-1.94-0.802-3.612-1.158-4.965c-0.306-1.274-0.555-2.311-0.754-3.135
								c-0.162-0.72-0.23-1.103-0.197-1.113c0.033-0.009,0.167,0.355,0.392,1.057c0.246,0.812,0.556,1.834,0.936,3.09
								c0.415,1.341,0.841,3.002,1.327,4.934c0.506,1.927,1.038,4.132,1.562,6.584c2.208,9.784,4.545,23.459,6.224,38.672
								c1.667,15.208,2.418,29.056,2.484,39.084c0.06,5.014-0.047,9.072-0.175,11.873c-0.08,1.31-0.145,2.376-0.197,3.223
								C93.378,393.379,93.332,393.764,93.297,393.763z"/>
						</g>
					</g>
				</g>
			</g>
			<g>
				<g>
					<g>
						<g>
							<path style="fill:#E0E0E0;" d="M93.231,367.054c-0.07-0.002-0.058-1.199,0.024-3.369c0.124-2.165,0.422-5.294,1.032-9.127
								c0.646-3.824,1.55-8.364,2.968-13.298c0.615-2.255,2.06-7.66,5.561-15.735c4.612-10.942,10.879-19.887,16.33-25.428
								c1.279-1.47,2.703-2.531,3.842-3.571c0.589-0.498,1.11-0.995,1.641-1.389c0.534-0.368,1.03-0.71,1.49-1.027
								c1.794-1.227,2.799-1.874,2.836-1.816c0.161,0.219-4.018,2.679-9.296,8.293c-5.256,5.603-11.348,14.487-15.922,25.336
								c-2.551,5.885-4.33,11.134-5.592,15.59c-1.458,4.886-2.427,9.38-3.159,13.165c-0.695,3.794-1.098,6.892-1.341,9.037
								C93.443,365.865,93.299,367.056,93.231,367.054z"/>
						</g>
					</g>
				</g>
			</g>
		</g>
		<g>
			<g>
				<g>
					<polygon style="fill:#E0E0E0;" points="119.046,414.168 116.369,450.833 69.267,450.833 66.59,414.168 					"/>
				</g>
			</g>
		</g>
		<g>
			<g>
				<g>
					<rect x="60.97" y="399.716" style="fill:#E0E0E0;" width="62.625" height="14.452"/>
				</g>
			</g>
		</g>
		<g>
			<g>
				<g>
					<polygon style="fill:#EBEBEB;" points="123.595,449.43 123.595,453.436 120.653,453.436 62.005,453.436 62.005,449.43 					"/>
				</g>
			</g>
		</g>
		<g>
			<g>
				<g>
					<polygon style="fill:#E0E0E0;" points="117.768,460.486 120.653,453.436 64.249,453.436 67.614,460.486 					"/>
				</g>
			</g>
		</g>
		<g>
			<g>
				<g>
					<g>
						<path style="fill:#F5F5F5;" d="M67.465,426.151c-0.011,0.009,0.064,0.123,0.22,0.337c0.187,0.248,0.418,0.555,0.704,0.934
							c0.669,0.856,1.588,2.032,2.744,3.511l0.122,0.156l0.118-0.163c1.725-2.385,4.029-5.572,6.741-9.324h-0.388
							c2.005,2.839,4.239,6.002,6.637,9.398l0.208,0.295l0.233-0.277c2.449-2.914,5.11-6.079,7.871-9.365l-0.454-0.006
							c0.137,0.172,0.284,0.358,0.433,0.544c2.441,3.06,4.804,6.022,7.038,8.824l0.235,0.294l0.217-0.306
							c2.389-3.381,4.622-6.54,6.64-9.395l-0.386,0.018c3.272,3.728,6.048,6.891,8.178,9.317l0.145,0.166l0.111-0.186
							c1.078-1.811,1.937-3.255,2.561-4.302c0.268-0.467,0.484-0.845,0.657-1.146c0.145-0.262,0.213-0.401,0.201-0.408
							c-0.013-0.008-0.106,0.116-0.274,0.363c-0.191,0.29-0.431,0.653-0.727,1.102c-0.654,1.028-1.556,2.445-2.688,4.223
							l0.256-0.021c-2.096-2.456-4.827-5.657-8.047-9.431l-0.203-0.238l-0.184,0.256c-2.037,2.843-4.289,5.988-6.7,9.353
							l0.451-0.012c-2.229-2.805-4.586-5.772-7.021-8.837c-0.148-0.187-0.296-0.372-0.433-0.544L92.456,421l-0.23,0.275
							c-2.754,3.292-5.407,6.463-7.849,9.383l0.441,0.017c-2.422-3.379-4.678-6.525-6.703-9.35l-0.197-0.274l-0.192,0.274
							c-2.655,3.792-4.91,7.014-6.599,9.425l0.24-0.007c-1.203-1.442-2.159-2.588-2.854-3.422c-0.31-0.359-0.561-0.65-0.765-0.885
							C67.572,426.24,67.476,426.142,67.465,426.151z"/>
					</g>
				</g>
			</g>
		</g>
		<g>
			<g>
				<g>
					<g>
						<path style="fill:#F5F5F5;" d="M65.935,413.926c0,0.162,11.802,0.293,26.358,0.293c14.561,0,26.361-0.131,26.361-0.293
							c0-0.162-11.8-0.293-26.361-0.293C77.737,413.633,65.935,413.764,65.935,413.926z"/>
					</g>
				</g>
			</g>
		</g>
		<g>
			<g>
				<g>
					<g>
						<path style="fill:#F5F5F5;" d="M63.555,453.831c0,0.162,12.827,0.293,28.646,0.293c15.825,0,28.649-0.131,28.649-0.293
							c0-0.162-12.824-0.293-28.649-0.293C76.382,453.538,63.555,453.669,63.555,453.831z"/>
					</g>
				</g>
			</g>
		</g>
	</g>
	<g>
		<g>
			<g>
				<g>
					<g>
						<circle style="fill:#EBEBEB;" cx="342.46" cy="242.459" r="31.909"/>
					</g>
				</g>
			</g>
			<g>
				<g>
					<g>
						<path style="fill:#E0E0E0;" d="M371.89,237.006c0.544-0.029,1.14,0.808,1.582,2.457c0.447,1.644,0.642,4.107,0.254,7.132
							c-0.38,3.02-1.443,6.578-3.445,10.159c-1.988,3.575-4.989,7.135-8.927,9.941c-3.969,2.764-8.333,4.39-12.369,5.058
							c-4.047,0.679-7.755,0.481-10.726-0.178c-2.978-0.654-5.232-1.668-6.629-2.642c-1.403-0.972-1.991-1.815-1.78-2.317
							c0.463-1.1,3.864-0.483,8.93-0.75c5.021-0.212,11.938-1.614,17.906-5.799c5.948-4.209,9.599-10.248,11.489-14.904
							C370.133,240.482,370.698,237.071,371.89,237.006z"/>
					</g>
				</g>
			</g>
			<g>
				<g>
					<path style="fill:#FFFFFF;" d="M343.922,250.196c3.318-0.298,6.657-1.605,8.798-3.941c1.276-1.393,2.449-3.505,2.302-5.388
						c-0.147-1.883-1.573-3.718-3.451-3.922c-1.333-0.144-2.618,0.502-3.75,1.221c-1.131,0.719-2.241,1.549-3.548,1.845
						c-1.873,0.424-3.792-0.319-5.561-1.065c-1.769-0.747-3.66-1.53-5.549-1.187c-1.056,0.191-2.473,0.612-3.039,2.074
						c0,0-0.954,2.08,0.964,4.86C332.809,247.188,337.365,250.786,343.922,250.196z"/>
				</g>
			</g>
		</g>
		<g>
			<g>
				<path style="fill:#FFFFFF;" d="M329.423,232.044c-0.527-1.063-1.749-1.668-2.9-1.525c-0.363,0.016-0.696,0.136-0.987,0.333
					c-0.01,0.006-0.02,0.01-0.029,0.016l0.013-0.004c-0.876,0.606-1.371,1.892-1.167,2.996c0.281,1.524,2.099,2.543,3.556,2.014
					C329.365,235.346,330.112,233.433,329.423,232.044z"/>
			</g>
		</g>
		<g>
			<g>
				<path style="fill:#FFFFFF;" d="M359.782,232.144c-0.527-1.063-1.749-1.668-2.9-1.525c-0.363,0.016-0.696,0.136-0.987,0.333
					c-0.01,0.006-0.02,0.01-0.029,0.016l0.013-0.004c-0.876,0.606-1.371,1.892-1.167,2.996c0.281,1.524,2.099,2.543,3.555,2.014
					S360.47,233.532,359.782,232.144z"/>
			</g>
		</g>
	</g>
	<g>
		<g>
			<g>
				<g>
					<g>
						<circle style="fill:#EBEBEB;" cx="347.642" cy="67.944" r="23.841"/>
					</g>
				</g>
			</g>
			<g>
				<g>
					<g>
						<path style="fill:#E0E0E0;" d="M369.629,63.87c0.406-0.022,0.852,0.604,1.182,1.835c0.334,1.228,0.48,3.069,0.19,5.329
							c-0.284,2.256-1.078,4.915-2.574,7.59c-1.486,2.671-3.727,5.331-6.669,7.427c-2.966,2.065-6.226,3.28-9.242,3.779
							c-3.023,0.507-5.794,0.359-8.014-0.133c-2.225-0.489-3.909-1.246-4.953-1.974c-1.048-0.726-1.487-1.356-1.33-1.731
							c0.346-0.822,2.887-0.361,6.672-0.561c3.751-0.158,8.919-1.206,13.378-4.332c4.444-3.144,7.172-7.657,8.584-11.135
							C368.317,66.467,368.739,63.918,369.629,63.87z"/>
					</g>
				</g>
			</g>
			<g>
				<g>
					<path style="fill:#FFFFFF;" d="M346.549,63.857c-2.479,0.223-4.974,1.199-6.573,2.945c-0.953,1.041-1.829,2.619-1.72,4.026
						c0.11,1.407,1.175,2.778,2.579,2.93c0.996,0.108,1.956-0.375,2.801-0.912c0.845-0.538,1.674-1.158,2.651-1.379
						c1.399-0.316,2.833,0.238,4.155,0.796c1.322,0.558,2.734,1.143,4.146,0.887c0.789-0.143,1.848-0.457,2.271-1.55
						c0,0,0.713-1.554-0.72-3.631C354.853,66.105,351.448,63.417,346.549,63.857z"/>
				</g>
			</g>
		</g>
		<g>
			<g>
				<path style="fill:#FFFFFF;" d="M337.901,60.163c-0.394-0.794-1.306-1.246-2.167-1.139c-0.271,0.012-0.52,0.101-0.737,0.249
					c-0.007,0.004-0.015,0.007-0.022,0.012l0.01-0.003c-0.654,0.453-1.024,1.414-0.872,2.238c0.21,1.139,1.568,1.9,2.657,1.505
					C337.857,62.63,338.415,61.2,337.901,60.163z"/>
			</g>
		</g>
		<g>
			<g>
				<path style="fill:#FFFFFF;" d="M360.583,60.237c-0.394-0.794-1.307-1.246-2.167-1.139c-0.271,0.012-0.52,0.102-0.737,0.249
					c-0.007,0.004-0.015,0.007-0.022,0.012l0.009-0.003c-0.654,0.453-1.024,1.414-0.872,2.238c0.21,1.138,1.568,1.9,2.656,1.505
					C360.54,62.704,361.098,61.274,360.583,60.237z"/>
			</g>
		</g>
	</g>
	<g>
		<g>
			<g>
				<g>
					<g>
						<circle style="fill:#EBEBEB;" cx="55.7" cy="224.008" r="21.243"/>
					</g>
				</g>
			</g>
			<g>
				<g>
					<g>
						<path style="fill:#E0E0E0;" d="M75.291,220.377c0.362-0.02,0.759,0.538,1.053,1.635c0.297,1.095,0.427,2.734,0.169,4.748
							c-0.253,2.01-0.96,4.379-2.293,6.763c-1.324,2.38-3.321,4.75-5.943,6.618c-2.642,1.84-5.548,2.923-8.235,3.367
							c-2.694,0.452-5.163,0.32-7.141-0.119c-1.983-0.435-3.483-1.11-4.413-1.759c-0.934-0.647-1.325-1.208-1.185-1.543
							c0.308-0.732,2.572-0.322,5.945-0.499c3.342-0.141,7.947-1.075,11.92-3.86c3.96-2.802,6.39-6.822,7.649-9.922
							C74.122,222.691,74.498,220.421,75.291,220.377z"/>
					</g>
				</g>
			</g>
			<g>
				<g>
					<path style="fill:#FFFFFF;" d="M56.673,229.158c2.209-0.199,4.432-1.068,5.857-2.624c0.85-0.927,1.63-2.333,1.532-3.587
						c-0.098-1.254-1.047-2.475-2.298-2.611c-0.887-0.096-1.743,0.334-2.496,0.813c-0.753,0.479-1.492,1.032-2.362,1.228
						c-1.247,0.282-2.525-0.212-3.702-0.709c-1.178-0.497-2.436-1.018-3.694-0.79c-0.703,0.127-1.646,0.407-2.023,1.381
						c0,0-0.635,1.384,0.642,3.236C49.275,227.156,52.308,229.551,56.673,229.158z"/>
				</g>
			</g>
		</g>
		<g>
			<g>
				<path style="fill:#FFFFFF;" d="M47.021,217.074c-0.351-0.707-1.164-1.111-1.931-1.015c-0.242,0.01-0.463,0.09-0.657,0.222
					c-0.006,0.004-0.013,0.007-0.019,0.01l0.009-0.003c-0.583,0.404-0.913,1.26-0.777,1.994c0.187,1.014,1.397,1.693,2.367,1.341
					C46.982,219.273,47.479,217.999,47.021,217.074z"/>
			</g>
		</g>
		<g>
			<g>
				<path style="fill:#FFFFFF;" d="M67.231,217.14c-0.351-0.708-1.164-1.111-1.931-1.015c-0.242,0.01-0.463,0.09-0.657,0.222
					c-0.006,0.004-0.013,0.007-0.019,0.01l0.009-0.003c-0.583,0.404-0.913,1.26-0.777,1.994c0.187,1.014,1.397,1.693,2.367,1.341
					C67.192,219.339,67.689,218.064,67.231,217.14z"/>
			</g>
		</g>
	</g>
	<g>
		<g>
			<g>
				<g>
					<g>
						<g>
							<g>
								<g>
									<g>
										
											<rect x="365.03" y="392.211" transform="matrix(1 -0.0053 0.0053 1 -2.1928 2.0531)" style="fill:#EBEBEB;" width="35.606" height="37.77"/>
									</g>
								</g>
							</g>
						</g>
					</g>
				</g>
			</g>
			<g>
				<g>
					<g>
						<g>
							<g>
								<g>
									<g>
										
											<rect x="400.466" y="392.021" transform="matrix(1 -0.0054 0.0054 1 -2.1936 2.2449)" style="fill:#F5F5F5;" width="35.606" height="37.77"/>
									</g>
								</g>
							</g>
						</g>
					</g>
				</g>
			</g>
			<g>
				<g>
					<g>
						<g>
							<g>
								<g>
									<g>
										<g>
											<path style="fill:#E0E0E0;" d="M364.984,402.737c23.662,0.196,47.383,0.057,71.043-0.327
												c0.487-0.007,0.484-0.754-0.004-0.756c-23.662-0.131-47.383-0.015-71.041,0.435
												C364.564,402.097,364.567,402.734,364.984,402.737L364.984,402.737z"/>
										</g>
									</g>
								</g>
							</g>
						</g>
					</g>
				</g>
			</g>
		</g>
		<g>
			<g>
				<g>
					<g>
						<g>
							<g>
								<g>
									<g>
										
											<rect x="342.811" y="429.429" transform="matrix(1 -0.0054 0.0054 1 -2.3779 2.0164)" style="fill:#EBEBEB;" width="64.69" height="30.78"/>
									</g>
								</g>
							</g>
						</g>
					</g>
				</g>
			</g>
			<g>
				<g>
					<g>
						<g>
							<g>
								<g>
									<g>
										
											<rect x="407.195" y="429.084" transform="matrix(1 -0.0054 0.0054 1 -2.3744 2.3607)" style="fill:#F5F5F5;" width="64.69" height="30.78"/>
									</g>
								</g>
							</g>
						</g>
					</g>
				</g>
			</g>
			<g>
				<g>
					<g>
						<g>
							<g>
								<g>
									<g>
										<g>
											<path style="fill:#E0E0E0;" d="M342.775,438.163c42.975,0.486,86.1,0.05,129.073-0.637
												c0.487-0.008,0.484-0.755-0.004-0.757c-42.978-0.227-86.105-0.202-129.072,0.745
												C342.355,437.523,342.357,438.158,342.775,438.163L342.775,438.163z"/>
										</g>
									</g>
								</g>
							</g>
						</g>
					</g>
				</g>
			</g>
		</g>
	</g>
</g>
<g id="Background_Simple" style="display:none;">
	<g style="display:inline;">
		<path style="fill:#F5F5F5;" d="M422.642,127.149l-2.211-3.644c-18.642-30.72-52.347-49.239-87.884-46.992
			c-4.568,0.289-9.117,0.907-13.604,1.868c-32.31,6.916-60.423,31.349-72.076,62.641c-6.853,18.403-8.768,39.592-21.773,54.2
			c-16.926,19.011-45.662,19.608-70.926,18.82s-54.019-0.116-70.863,18.97c-10.549,11.953-13.901,28.951-13.051,44.959
			c2.252,42.381,31.784,80.276,69.341,99.112c37.557,18.836,81.777,20.523,122.881,12.237
			c57.582-11.608,112.342-43.484,145.257-92.719S448.977,180.289,422.642,127.149z"/>
	</g>
	<g style="display:inline;">
		<circle style="fill:#F5F5F5;" cx="72.079" cy="374.491" r="21.545"/>
	</g>
	<g style="display:inline;">
		<circle style="fill:#F5F5F5;" cx="412.732" cy="54.784" r="21.546"/>
	</g>
</g>
<g id="Character">
	<g>
		<g>
			<g>
				<path style="fill:#FF725E;" d="M338.671,261.501l-50.793-16.294l-60.788-0.225c0,0-46.913,14.628-52.607,17.652l-2.62,126.432
					l-2.037,72.096l165.679-0.885v-87.324L338.671,261.501z"/>
			</g>
			<g>
				<path style="fill:#FF725E;" d="M174.483,262.634c0,0-18.931,15.576-28.787,41.635c-6.755,17.861-22.116,57.491-22.116,57.491
					l48.127,17.064l10.885-76.852L174.483,262.634z"/>
			</g>
			<g>
				<path style="fill:#FF725E;" d="M332.776,259.61c0,0,12.536,1.065,24.822,20.763c8.666,13.893,29.774,74.705,29.774,74.705
					l-55.554,19.413l-13.41-10.326L332.776,259.61z"/>
			</g>
			<g>
				<g>
					<path style="fill:#263238;" d="M171.863,293.901c0.144,0,0.26,21.305,0.26,47.58c0,26.284-0.117,47.585-0.26,47.585
						c-0.144,0-0.26-21.301-0.26-47.585C171.602,315.206,171.719,293.901,171.863,293.901z"/>
				</g>
			</g>
			<g>
				<g>
					<path style="fill:#FFFFFF;" d="M169.476,298.461c-0.018,0.055-1-0.191-2.482-0.873c-1.481-0.677-3.437-1.847-5.297-3.513
						c-1.856-1.673-3.228-3.493-4.059-4.893c-0.835-1.402-1.185-2.351-1.132-2.375c0.149-0.099,1.858,3.614,5.539,6.881
						C165.684,296.998,169.558,298.302,169.476,298.461z"/>
				</g>
			</g>
			<g>
				<g>
					<path style="fill:#FFFFFF;" d="M333.222,302.68c0.004,0.008-0.122,0.077-0.371,0.204c-0.272,0.135-0.641,0.318-1.112,0.552
						c-1.008,0.487-2.452,1.185-4.301,2.079c-0.938,0.449-1.978,0.947-3.115,1.491c-1.153,0.513-2.437,0.998-3.8,1.557
						c-2.744,1.074-5.813,2.452-9.366,3.536c-1.762,0.585-3.607,1.198-5.528,1.837c-1.927,0.626-3.984,1.095-6.086,1.681
						c-1.054,0.281-2.127,0.567-3.216,0.858c-0.546,0.14-1.091,0.303-1.65,0.428c-0.561,0.115-1.126,0.23-1.696,0.347
						c-2.278,0.466-4.623,0.945-7.026,1.436c-9.669,1.67-20.43,2.81-31.765,2.868c-11.339-0.061-22.102-1.205-31.772-2.879
						c-2.404-0.492-4.749-0.972-7.027-1.439c-0.569-0.117-1.135-0.233-1.696-0.348c-0.559-0.126-1.104-0.288-1.65-0.428
						c-1.089-0.291-2.162-0.577-3.216-0.859c-2.102-0.586-4.16-1.056-6.086-1.683c-1.922-0.639-3.766-1.253-5.528-1.839
						c-3.553-1.085-6.621-2.465-9.364-3.539c-1.363-0.56-2.647-1.045-3.799-1.559c-1.136-0.545-2.176-1.043-3.114-1.492
						c-1.848-0.894-3.292-1.592-4.299-2.08c-0.471-0.234-0.84-0.417-1.112-0.552c-0.249-0.127-0.375-0.196-0.371-0.204
						c0.004-0.008,0.138,0.045,0.395,0.156c0.278,0.124,0.654,0.292,1.134,0.506c1.016,0.466,2.473,1.134,4.338,1.99
						c0.942,0.436,1.987,0.92,3.128,1.449c1.157,0.5,2.444,0.97,3.81,1.516c2.749,1.047,5.821,2.4,9.373,3.46
						c1.761,0.574,3.605,1.176,5.525,1.803c1.925,0.615,3.981,1.074,6.079,1.65c1.053,0.276,2.123,0.558,3.211,0.844
						c0.545,0.138,1.09,0.298,1.647,0.421c0.56,0.113,1.124,0.226,1.693,0.341c2.274,0.458,4.613,0.93,7.012,1.414
						c9.649,1.643,20.381,2.769,31.687,2.83c11.303-0.057,22.033-1.18,31.68-2.819c2.399-0.483,4.739-0.954,7.012-1.411
						c0.568-0.114,1.133-0.228,1.693-0.34c0.558-0.123,1.102-0.283,1.647-0.421c1.088-0.285,2.159-0.566,3.212-0.842
						c2.099-0.575,4.155-1.034,6.079-1.648c1.921-0.626,3.765-1.227,5.526-1.801c3.553-1.059,6.625-2.411,9.375-3.457
						c1.366-0.546,2.654-1.016,3.811-1.515c1.142-0.528,2.187-1.012,3.129-1.448c1.865-0.855,3.322-1.523,4.339-1.988
						c0.481-0.214,0.857-0.382,1.135-0.506C333.084,302.725,333.218,302.672,333.222,302.68z"/>
				</g>
			</g>
			<g>
				<g>
					<path style="fill:#FFFFFF;" d="M357.514,285.167c0.024,0.027-0.204,0.275-0.638,0.701c-0.432,0.429-1.082,1.022-1.905,1.734
						c-1.645,1.423-4.017,3.282-6.792,5.11c-2.779,1.825-5.425,3.267-7.383,4.214c-0.979,0.474-1.782,0.836-2.346,1.063
						c-0.563,0.23-0.881,0.341-0.896,0.309c-0.033-0.072,1.168-0.672,3.075-1.699c1.907-1.026,4.505-2.508,7.265-4.321
						c2.757-1.816,5.146-3.614,6.844-4.959C356.434,285.974,357.461,285.108,357.514,285.167z"/>
				</g>
			</g>
			<g>
				<g>
					<path style="fill:#FFFFFF;" d="M171.056,309.754c-0.009,0.035-0.338-0.025-0.928-0.164c-0.591-0.131-1.432-0.385-2.451-0.755
						c-2.038-0.733-4.765-2.049-7.438-4.019c-2.668-1.978-4.728-4.199-6.026-5.932c-0.652-0.866-1.141-1.594-1.441-2.121
						c-0.306-0.523-0.46-0.819-0.429-0.838c0.076-0.048,0.796,1.076,2.159,2.731c1.358,1.655,3.423,3.796,6.047,5.742
						c2.63,1.937,5.282,3.283,7.263,4.094C169.793,309.308,171.08,309.666,171.056,309.754z"/>
				</g>
			</g>
			<g>
				<g>
					<path style="fill:#FFFFFF;" d="M330.357,320.049c0.004,0.008-0.121,0.074-0.369,0.195c-0.271,0.129-0.638,0.303-1.107,0.525
						c-1.004,0.463-2.441,1.126-4.28,1.975c-0.934,0.427-1.969,0.9-3.1,1.416c-1.147,0.485-2.424,0.936-3.78,1.461
						c-2.729,1.003-5.783,2.307-9.314,3.294c-1.751,0.538-3.585,1.102-5.495,1.69c-1.915,0.574-3.957,0.985-6.045,1.512
						c-1.047,0.252-2.112,0.508-3.194,0.768c-0.542,0.125-1.084,0.272-1.638,0.382c-0.556,0.099-1.117,0.198-1.682,0.298
						c-2.26,0.4-4.585,0.811-6.97,1.232c-9.584,1.384-20.234,2.192-31.417,1.879c-11.183-0.434-21.758-1.95-31.229-3.97
						c-2.351-0.58-4.644-1.145-6.873-1.694c-0.557-0.138-1.11-0.274-1.658-0.409c-0.546-0.146-1.077-0.329-1.609-0.49
						c-1.062-0.332-2.108-0.658-3.136-0.979c-2.048-0.665-4.058-1.211-5.931-1.912c-1.867-0.713-3.659-1.398-5.37-2.052
						c-3.457-1.22-6.417-2.725-9.073-3.908c-1.318-0.615-2.562-1.149-3.674-1.71c-1.094-0.591-2.095-1.132-2.998-1.62
						c-1.778-0.969-3.168-1.727-4.138-2.256c-0.453-0.253-0.807-0.451-1.069-0.598c-0.239-0.137-0.36-0.211-0.355-0.219
						c0.004-0.008,0.134,0.051,0.382,0.173c0.268,0.135,0.631,0.318,1.094,0.552c0.98,0.508,2.384,1.236,4.181,2.168
						c0.908,0.475,1.914,1.001,3.014,1.577c1.117,0.546,2.365,1.067,3.686,1.668c2.663,1.156,5.627,2.633,9.085,3.829
						c1.711,0.642,3.503,1.315,5.369,2.016c1.871,0.689,3.88,1.224,5.925,1.879c1.027,0.316,2.071,0.637,3.131,0.964
						c0.532,0.158,1.062,0.339,1.607,0.483c0.548,0.133,1.1,0.267,1.656,0.402c2.224,0.541,4.512,1.098,6.859,1.669
						c9.451,1.988,19.995,3.486,31.143,3.918c11.149,0.311,21.767-0.48,31.328-1.833c2.379-0.413,4.699-0.816,6.954-1.207
						c0.564-0.098,1.123-0.195,1.679-0.291c0.553-0.107,1.094-0.252,1.635-0.374c1.08-0.255,2.143-0.506,3.188-0.753
						c2.084-0.517,4.124-0.917,6.037-1.479c1.909-0.575,3.742-1.127,5.492-1.654c3.53-0.962,6.586-2.239,9.32-3.214
						c1.358-0.512,2.639-0.948,3.79-1.419c1.136-0.501,2.175-0.959,3.113-1.373c1.855-0.81,3.305-1.443,4.317-1.884
						c0.478-0.203,0.852-0.361,1.129-0.478C330.22,320.091,330.353,320.041,330.357,320.049z"/>
				</g>
			</g>
			<g>
				<g>
					<path style="fill:#FFFFFF;" d="M363.171,291.843c0.024,0.026-0.286,0.356-0.868,0.93c-0.58,0.575-1.443,1.384-2.526,2.365
						c-2.166,1.961-5.244,4.579-8.786,7.29c-3.545,2.71-6.877,4.996-9.337,6.573c-1.229,0.789-2.236,1.41-2.943,1.819
						c-0.706,0.412-1.105,0.625-1.124,0.594c-0.019-0.031,0.343-0.302,1.015-0.765c0.76-0.521,1.713-1.176,2.848-1.955
						c2.402-1.652,5.69-3.979,9.225-6.68c3.531-2.703,6.637-5.267,8.86-7.154c1.049-0.891,1.93-1.641,2.632-2.237
						C362.79,292.095,363.147,291.816,363.171,291.843z"/>
				</g>
			</g>
			<g>
				<g>
					<path style="fill:#FFFFFF;" d="M245.397,402.632c0.001,0.018-0.251,0.045-0.731,0.081c-0.532,0.033-1.23,0.077-2.102,0.131
						c-0.913,0.061-2.031,0.102-3.33,0.127c-1.299,0.035-2.778,0.072-4.414,0.055c-3.272,0.026-7.166-0.12-11.485-0.348
						c-4.317-0.275-9.056-0.688-14.012-1.292c-4.954-0.626-9.652-1.384-13.906-2.172c-4.245-0.835-8.057-1.645-11.223-2.47
						c-1.59-0.383-3.016-0.78-4.267-1.132c-1.254-0.341-2.328-0.655-3.198-0.937c-0.832-0.266-1.499-0.479-2.006-0.641
						c-0.457-0.152-0.694-0.24-0.689-0.257c0.005-0.017,0.253,0.037,0.719,0.157c0.514,0.138,1.189,0.32,2.032,0.547
						c0.878,0.252,1.958,0.536,3.217,0.85c1.256,0.325,2.685,0.696,4.278,1.055c3.171,0.777,6.984,1.548,11.224,2.356
						c4.25,0.76,8.938,1.503,13.882,2.127c4.945,0.602,9.672,1.029,13.978,1.33c4.308,0.254,8.193,0.438,11.458,0.459
						c1.632,0.041,3.109,0.03,4.407,0.022c1.298,0.003,2.415-0.009,3.328-0.038c0.873-0.014,1.572-0.025,2.104-0.034
						C245.142,402.606,245.396,402.614,245.397,402.632z"/>
				</g>
			</g>
			<g>
				<g>
					<path style="fill:#FFFFFF;" d="M232.746,413.883c0,0.018-0.215,0.037-0.624,0.057c-0.465,0.016-1.06,0.037-1.794,0.063
						c-0.779,0.031-1.733,0.04-2.84,0.02c-1.107-0.01-2.369-0.015-3.761-0.085c-2.788-0.08-6.099-0.335-9.769-0.679
						c-3.666-0.379-7.688-0.889-11.89-1.54c-8.406-1.324-15.945-2.896-21.384-4.098c-2.72-0.6-4.915-1.11-6.43-1.477
						c-0.712-0.178-1.289-0.322-1.74-0.434c-0.397-0.105-0.603-0.168-0.599-0.186c0.004-0.018,0.218,0.012,0.622,0.083
						c0.457,0.088,1.041,0.2,1.761,0.339c1.591,0.324,3.783,0.769,6.462,1.314c5.456,1.11,12.998,2.622,21.388,3.944
						c4.195,0.649,8.204,1.172,11.859,1.577c3.658,0.369,6.958,0.662,9.737,0.788c1.388,0.093,2.646,0.124,3.75,0.161
						c1.104,0.047,2.056,0.068,2.834,0.068c0.733,0.014,1.327,0.026,1.793,0.035C232.53,413.849,232.745,413.865,232.746,413.883z"
						/>
				</g>
			</g>
			<g>
				<g>
					<path style="fill:#FFFFFF;" d="M335.505,391.675c0.002,0.009-0.072,0.034-0.218,0.074c-0.177,0.045-0.391,0.099-0.651,0.166
						c-0.619,0.145-1.458,0.341-2.516,0.588c-2.186,0.508-5.365,1.175-9.304,1.938c-7.878,1.529-18.833,3.309-31.017,4.575
						c-12.19,1.255-23.278,1.754-31.303,1.869c-4.012,0.06-7.26,0.057-9.503,0.007c-1.086-0.025-1.948-0.046-2.583-0.061
						c-0.269-0.012-0.489-0.021-0.671-0.029c-0.151-0.009-0.229-0.019-0.229-0.028c0-0.009,0.078-0.018,0.229-0.026
						c0.183-0.006,0.403-0.014,0.672-0.023c0.635-0.009,1.497-0.022,2.583-0.037c2.242-0.012,5.487-0.066,9.495-0.173
						c8.015-0.209,19.084-0.766,31.257-2.019c12.167-1.264,23.115-2.984,31.004-4.419c3.945-0.715,7.132-1.327,9.33-1.774
						c1.066-0.207,1.912-0.371,2.536-0.492c0.265-0.046,0.482-0.084,0.662-0.115C335.425,391.674,335.503,391.666,335.505,391.675z"
						/>
				</g>
			</g>
			<g>
				<g>
					<path style="fill:#FFFFFF;" d="M335.505,405.525c0.002,0.009-0.083,0.033-0.249,0.07c-0.197,0.041-0.44,0.092-0.74,0.155
						c-0.693,0.133-1.647,0.315-2.855,0.546c-2.482,0.461-6.079,1.101-10.537,1.813c-4.454,0.736-9.776,1.499-15.695,2.278
						c-5.924,0.736-12.451,1.45-19.321,1.981c-6.875,0.504-13.44,0.762-19.413,0.815c-5.973-0.034-11.355-0.164-15.856-0.578
						c-1.126-0.094-2.199-0.16-3.211-0.266c-1.009-0.121-1.961-0.235-2.854-0.341c-0.888-0.108-1.717-0.208-2.482-0.301
						c-0.761-0.106-1.451-0.238-2.075-0.339c-1.212-0.212-2.169-0.379-2.864-0.501c-0.301-0.058-0.545-0.105-0.742-0.143
						c-0.167-0.035-0.251-0.057-0.25-0.066c0.002-0.009,0.089-0.004,0.259,0.014c0.199,0.025,0.446,0.055,0.751,0.092
						c0.698,0.098,1.659,0.233,2.876,0.404c0.625,0.086,1.316,0.203,2.077,0.294c0.766,0.079,1.594,0.165,2.483,0.258
						c0.892,0.094,1.844,0.194,2.852,0.301c1.011,0.093,2.083,0.147,3.207,0.229c4.494,0.366,9.866,0.458,15.826,0.465
						c5.962-0.079,12.513-0.351,19.377-0.854c6.86-0.531,13.38-1.229,19.301-1.938c5.916-0.753,11.239-1.476,15.698-2.166
						c4.462-0.666,8.067-1.25,10.559-1.649c1.215-0.19,2.174-0.34,2.872-0.449c0.304-0.042,0.55-0.076,0.749-0.104
						C335.416,405.522,335.504,405.516,335.505,405.525z"/>
				</g>
			</g>
			<g>
				<g>
					<path style="fill:#263238;" d="M304.591,352.699c0.006,0.007-0.074,0.083-0.236,0.225c-0.185,0.158-0.424,0.363-0.725,0.621
						c-0.671,0.559-1.615,1.346-2.818,2.348c-2.48,2.054-6.022,4.989-10.388,8.606c-8.762,7.278-20.805,17.406-33.939,28.786
						c-13.135,11.389-24.871,21.873-33.319,29.513c-4.2,3.809-7.608,6.898-9.993,9.061c-1.163,1.049-2.076,1.871-2.724,2.456
						c-0.298,0.261-0.535,0.469-0.717,0.629c-0.164,0.14-0.25,0.208-0.257,0.201s0.069-0.088,0.22-0.24
						c0.174-0.17,0.399-0.39,0.682-0.667c0.633-0.602,1.523-1.449,2.658-2.528c2.314-2.19,5.689-5.329,9.883-9.184
						c8.386-7.711,20.087-18.242,33.226-29.634c13.137-11.384,25.222-21.47,34.046-28.677c4.411-3.604,7.999-6.5,10.495-8.479
						c1.23-0.97,2.195-1.732,2.88-2.273c0.315-0.241,0.564-0.433,0.757-0.581C304.495,352.754,304.586,352.692,304.591,352.699z"/>
				</g>
			</g>
			<g style="opacity:0.3;">
				<g>
					<path d="M255.147,394.41l-34.423,30.365c29.646-13.433,54.969-33.876,71.439-61.949L255.147,394.41z"/>
				</g>
			</g>
			<g style="opacity:0.3;">
				<g>
					<path d="M335.505,372.953c7.443-15.089,7.611-44.67,0.097-60.98C336.05,330.314,336.009,354.655,335.505,372.953"/>
				</g>
			</g>
			<g>
				<g>
					<path style="fill:#263238;" d="M335.505,297.371c0.144,0,0.26,36.471,0.26,81.449c0,44.994-0.117,81.457-0.26,81.457
						c-0.144,0-0.26-36.463-0.26-81.457C335.245,333.841,335.361,297.371,335.505,297.371z"/>
				</g>
			</g>
		</g>
		<g>
			<g>
				<g>
					<g>
						<g>
							<g>
								<path style="fill:#263238;" d="M323.278,171.174c2.462-5.406,4.967-10.976,5.32-16.932
									c0.354-5.955-1.943-12.467-7.028-15.288c-4.699-2.607-10.569-1.566-15.576-3.475c-6.176-2.355-9.967-8.721-12.591-14.951
									c-2.624-6.23,1.267-8.393-3.295-13.285c-6.053-6.491-10.063-7.496-17.995-3.791c-5.554-4.126-24.994-11.81-30.646-12.111
									c-8.383-0.446-17.946,0.007-23.937,5.887c-4.649,4.562-7.666,10.429-13.32,13.663c-7.776,4.449-17.467,0.299-26.425,0.425
									c-1.827,0.026-3.964,0.443-4.754,2.091c-0.684,1.425-0.031,3.1,0.619,4.539c2.197,4.865,4.393,9.729,6.59,14.593
									c-3.792,1.656-8.35,1.442-11.971-0.561c0.188,9.434,3.818,18.762,10.056,25.841c-1.563-1.161-3.98-0.053-4.81,1.707
									c-0.831,1.76-0.514,3.833-0.049,5.723c2.857,11.597,10.929,21.803,21.557,27.255c10.627,5.451,23.626,6.053,34.712,1.609
									l49.25,4.827c1.278,3.878,4.499,7.008,8.328,8.093c5.618-3.965,6.552-6.241,6.552-6.241
									c3.343,2.606,0.701,1.272,3.343,2.606c6.051,3.055,15.176-0.204,16.707-6.986c0.641-2.837,1.495-5.552,3.45-7.448
									c2.001-1.939,4.805-2.64,7.296-3.826c3.926-1.868,7.23-5.103,9.244-9.051C329.912,176.034,325.971,174.212,323.278,171.174z
									"/>
							</g>
						</g>
					</g>
				</g>
				<g>
					<g>
						<g>
							<g>
								<path style="fill:#FFBE9D;" d="M248.183,99.326l-2.479,0.125c-24.939,1.258-44.762,21.444-45.513,46.404
									c-0.7,23.241-1.175,48.936-0.395,61.348c1.614,25.684,27.52,28.385,27.52,28.385c0.015,0.268-0.085,4.121-0.225,9.394
									c-0.452,16.961,13.174,30.961,30.141,30.961h0c16.475,0,29.899-13.223,30.148-29.696l1.466-97.011
									C289.8,122.434,275,99.539,248.183,99.326z"/>
							</g>
							<g>
								<g>
									<g>
										<g>
											<g>
												<g>
													<g>
														<g>
															<g>
																<g>
																	<g>
																		<g>
																			<g>
																				<g>
																					<g>
																						<g>
																							<g>
																								<g>
																									<g>
																										<path style="fill:#EB996E;" d="M227.315,235.588c0,0,16.247,0.133,32.963-11.58
																											c0,0-7.216,19.183-32.977,18.162L227.315,235.588z"/>
																									</g>
																								</g>
																							</g>
																						</g>
																					</g>
																				</g>
																			</g>
																		</g>
																	</g>
																</g>
															</g>
														</g>
													</g>
												</g>
											</g>
										</g>
									</g>
								</g>
							</g>
						</g>
					</g>
				</g>
				<g>
					<g>
						<g>
							<g>
								<g>
									<g>
										<g>
											<g>
												<g>
													<g>
														<g>
															<g>
																<g>
																	<g>
																		<g>
																			<g>
																				<g>
																					<g>
																						<g>
																							<g>
																								<g>
																									<g>
																										<g>
																											<g>
																												<g>
																													<g>
																														<path style="fill:#263238;" d="M243.78,157.347c0.498,0.53,3.511-1.786,7.809-1.805
																															c4.293-0.083,7.457,2.16,7.92,1.618c0.228-0.241-0.281-1.201-1.659-2.215
																															c-1.357-1.011-3.668-1.986-6.344-1.955c-2.677,0.035-4.923,1.059-6.212,2.103
																															C243.978,156.141,243.535,157.11,243.78,157.347z"/>
																													</g>
																												</g>
																											</g>
																										</g>
																									</g>
																								</g>
																							</g>
																						</g>
																					</g>
																				</g>
																			</g>
																		</g>
																	</g>
																</g>
															</g>
														</g>
													</g>
												</g>
											</g>
										</g>
									</g>
									<g>
										<g>
											<g>
												<g>
													<g>
														<g>
															<g>
																<g>
																	<g>
																		<g>
																			<g>
																				<g>
																					<g>
																						<g>
																							<g>
																								<g>
																									<g>
																										<g>
																											<g>
																												<g>
																													<path style="fill:#263238;" d="M247.617,165.356c0.028,1.837,1.606,3.327,3.525,3.334
																														c1.914,0.006,3.448-1.474,3.42-3.311c-0.027-1.836-1.606-3.329-3.521-3.336
																														C249.123,162.037,247.59,163.52,247.617,165.356z"/>
																												</g>
																											</g>
																										</g>
																									</g>
																								</g>
																							</g>
																						</g>
																					</g>
																				</g>
																			</g>
																		</g>
																	</g>
																</g>
															</g>
														</g>
													</g>
												</g>
											</g>
										</g>
									</g>
									<g>
										<g>
											<g>
												<g>
													<g>
														<g>
															<g>
																<g>
																	<g>
																		<g>
																			<g>
																				<g>
																					<g>
																						<g>
																							<g>
																								<g>
																									<g>
																										<g>
																											<g>
																												<g>
																													<path style="fill:#263238;" d="M232.349,186.981c0.008-0.225-2.469-0.526-6.473-0.834
																														c-1.014-0.053-1.978-0.205-2.183-0.885c-0.275-0.717,0.093-1.825,0.522-3.023
																														c0.826-2.488,1.688-5.096,2.595-7.83c3.59-11.143,6.135-20.284,5.685-20.424
																														c-0.451-0.141-3.725,8.777-7.316,19.919c-0.861,2.746-1.685,5.365-2.468,7.869
																														c-0.323,1.165-0.914,2.499-0.323,3.985c0.309,0.739,1.077,1.249,1.732,1.39
																														c0.657,0.165,1.225,0.147,1.725,0.152C229.862,187.313,232.346,187.206,232.349,186.981z"/>
																												</g>
																											</g>
																										</g>
																									</g>
																								</g>
																							</g>
																						</g>
																					</g>
																				</g>
																			</g>
																		</g>
																	</g>
																</g>
															</g>
														</g>
													</g>
												</g>
											</g>
										</g>
									</g>
								</g>
							</g>
						</g>
						<g>
							<g>
								<g>
									<g>
										<g>
											<g>
												<g>
													<g>
														<g>
															<g>
																<g>
																	<g>
																		<g>
																			<g>
																				<g>
																					<g>
																						<g>
																							<g>
																								<g>
																									<path style="fill:#263238;" d="M244.774,140.479c0.393,0.962,3.848,0.322,7.96,0.626
																										c4.118,0.217,7.477,1.288,7.974,0.383c0.221-0.433-0.4-1.325-1.78-2.206
																										c-1.369-0.879-3.522-1.673-5.99-1.831c-2.467-0.154-4.693,0.363-6.15,1.063
																										C245.319,139.214,244.603,140.021,244.774,140.479z"/>
																								</g>
																							</g>
																						</g>
																					</g>
																				</g>
																			</g>
																		</g>
																	</g>
																</g>
															</g>
														</g>
													</g>
												</g>
											</g>
										</g>
									</g>
								</g>
							</g>
						</g>
						<g>
							<g>
								<g>
									<g>
										<g>
											<g>
												<g>
													<g>
														<g>
															<g>
																<g>
																	<g>
																		<g>
																			<g>
																				<g>
																					<g>
																						<g>
																							<g>
																								<g>
																									<path style="fill:#263238;" d="M205.002,148.281c0.433,0.787,3.804,0,7.868-0.034
																										c4.066-0.107,7.423,0.562,7.871-0.24c0.197-0.383-0.457-1.094-1.859-1.743
																										c-1.389-0.648-3.548-1.168-5.985-1.128c-2.437,0.045-4.604,0.64-6.005,1.337
																										C205.478,147.171,204.812,147.905,205.002,148.281z"/>
																								</g>
																							</g>
																						</g>
																					</g>
																				</g>
																			</g>
																		</g>
																	</g>
																</g>
															</g>
														</g>
													</g>
												</g>
											</g>
										</g>
									</g>
								</g>
							</g>
						</g>
					</g>
				</g>
				<g>
					<g>
						<g>
							<g>
								<g>
									<g>
										<g>
											<g>
												<g>
													<g>
														<g>
															<g>
																<g>
																	<g>
																		<g>
																			<g>
																				<g>
																					<path style="fill:#FFBE9D;" d="M287.706,168.371c0.429-0.212,17.395-6.113,17.72,11.485
																						c0.325,17.599-17.41,14.295-17.45,13.79C287.936,193.142,287.706,168.371,287.706,168.371z"/>
																				</g>
																			</g>
																		</g>
																	</g>
																</g>
															</g>
														</g>
													</g>
												</g>
											</g>
										</g>
									</g>
								</g>
							</g>
						</g>
					</g>
				</g>
				<g>
					<g>
						<g>
							<g>
								<g>
									<g>
										<g>
											<g>
												<g>
													<g>
														<g>
															<g>
																<g>
																	<g>
																		<g>
																			<g>
																				<g>
																					<g>
																						<path style="fill:#EB996E;" d="M293.228,186.88c0.077-0.058,0.311,0.209,0.833,0.437
																							c0.51,0.222,1.382,0.365,2.293,0.005c1.846-0.717,3.357-3.698,3.384-6.871
																							c0.015-1.602-0.349-3.121-0.939-4.373c-0.562-1.278-1.41-2.161-2.35-2.311
																							c-0.935-0.198-1.588,0.374-1.794,0.873c-0.227,0.496-0.108,0.846-0.201,0.878
																							c-0.048,0.045-0.383-0.288-0.254-1.018c0.066-0.351,0.265-0.77,0.672-1.115
																							c0.416-0.351,1.034-0.538,1.687-0.479c1.359,0.069,2.603,1.295,3.253,2.669
																							c0.724,1.38,1.171,3.086,1.154,4.886c-0.047,3.548-1.802,6.9-4.332,7.682
																							c-1.232,0.346-2.271-0.008-2.812-0.414C293.268,187.305,293.168,186.912,293.228,186.88z"/>
																					</g>
																				</g>
																			</g>
																		</g>
																	</g>
																</g>
															</g>
														</g>
													</g>
												</g>
											</g>
										</g>
									</g>
								</g>
							</g>
						</g>
					</g>
				</g>
				<g>
					<g>
						<g>
							<path style="fill:#263238;" d="M311.725,140.432c-3.524-6.284-4.212-13.702-6.058-20.666
								c-1.846-6.964-5.54-14.219-12.27-16.79l-0.154,0.063c-6.037-2.586-13.546-2.791-18.643,1.325
								c-1.034-9.166-8.881-16.582-17.749-19.123c-8.866-2.541-23.204-1.467-31.836,1.784c-6.673,2.513-13.189,7.823-21.14,15.66
								c-3.35,3.302-6.449,6.866-9.216,10.67l-8.295,23.776c-0.851,0.594-1.599,1.322-2.23,2.142
								c-3.179,4.136,2.465,9.542,6.454,6.179c0.024-0.02,0.047-0.04,0.071-0.06c0.768,1.376,1.337,2.765,1.938,4.152l-0.001,0.032
								l0.13,0.262c0.378,0.864,0.77,1.727,1.249,2.584l0.006-0.058l5.396,26.603c0.541-7.21,0.581-32.329,1.122-39.538
								c11.149-0.229,21.327-4.498,28.985-12.604c4.04-4.278,7.263-9.679,12.594-12.169c6.874-3.211,14.922-0.58,22.031,2.069
								l-0.298-0.28c3.69,1.807,7.027,4.332,9.769,7.391c-1.932,14.173-0.778,28.76,3.38,42.447c0.627,2.062,2.365,6.32,4.358,7.142
								c3.915,1.615,5.068-2.381,7.492-4.464c1.784-1.533,4.384-1.677,7.221-1.606c1.765-4.347,3.649-11.698,5.237-18.136
								c2.368,0.777,4.904,1.031,7.369,0.659c-0.716-1.829-1.432-3.658-2.148-5.487c0.97,0.645,1.978,1.305,3.126,1.5
								c1.149,0.195,2.484-0.205,3.025-1.237C313.337,143.32,312.462,141.746,311.725,140.432z"/>
						</g>
					</g>
				</g>
				<g>
					<g>
						<g>
							<g>
								<g>
									<path style="fill:#455A64;" d="M266.464,107.127c-0.052,0.065,1.059,0.702,2.519,2.41c1.446,1.7,3.046,4.638,3.744,8.603
										c0.359,1.971,0.563,4.171,0.509,6.532c-0.043,2.362-0.289,4.886-0.53,7.547c-0.233,2.661-0.487,5.472-0.382,8.405
										c0.053,1.464,0.195,2.956,0.478,4.45c0.29,1.468,0.638,3.063,1.713,4.343c0.855,1.043,2.314,1.531,3.592,1.298
										c1.286-0.198,2.442-0.855,3.298-1.766c1.694-1.889,2.16-4.322,2.618-6.465l-0.54,0.053
										c0.836,1.954,1.695,3.886,2.999,5.442c1.281,1.565,3.079,2.622,4.928,2.829c0.92,0.104,1.853-0.023,2.654-0.404
										c0.816-0.375,1.419-1.032,1.836-1.729c0.4-0.712,0.618-1.498,0.595-2.261c-0.026-0.762-0.307-1.491-0.779-2.013
										l-0.277,0.236c1.927,2.297,3.987,3.554,5.416,4.257c0.721,0.352,1.3,0.566,1.692,0.701
										c0.395,0.127,0.603,0.181,0.608,0.165c0.006-0.017-0.192-0.103-0.573-0.259c-0.378-0.165-0.94-0.407-1.638-0.782
										c-1.385-0.749-3.378-2.036-5.223-4.313l-0.277,0.237c0.842,0.934,0.856,2.54,0.084,3.814
										c-0.388,0.628-0.941,1.212-1.659,1.529c-0.715,0.33-1.564,0.441-2.405,0.336c-1.697-0.208-3.374-1.198-4.572-2.686
										c-1.229-1.486-2.061-3.367-2.886-5.325l-0.35-0.831l-0.19,0.884c-0.459,2.14-0.949,4.475-2.493,6.177
										c-0.766,0.816-1.825,1.41-2.952,1.579c-1.128,0.192-2.306-0.205-3.053-1.1c-0.939-1.109-1.299-2.619-1.58-4.064
										c-0.278-1.457-0.421-2.918-0.477-4.358c-0.112-2.883,0.128-5.676,0.345-8.335c0.225-2.661,0.455-5.197,0.477-7.589
										c0.033-2.392-0.198-4.621-0.59-6.619c-0.762-4.017-2.457-6.993-3.984-8.674
										C267.618,107.695,266.464,107.127,266.464,107.127z"/>
								</g>
							</g>
						</g>
					</g>
				</g>
				<g>
					<g>
						<g>
							<g>
								<g>
									<path style="fill:#455A64;" d="M186.573,130.293c-0.006,0.008,0.062,0.069,0.202,0.18c0.171,0.13,0.377,0.288,0.63,0.482
										c0.275,0.216,0.626,0.469,1.07,0.721c0.437,0.264,0.935,0.584,1.542,0.856c2.356,1.185,6.15,2.395,10.932,2.222
										c4.736-0.16,10.451-1.708,15.605-5.367c5.206-3.568,9.824-8.894,13.64-15.025c1.935-3.063,3.527-6.212,5.269-9.114
										c1.731-2.904,3.63-5.581,5.906-7.678c2.249-2.108,4.84-3.646,7.49-4.318c1.321-0.361,2.646-0.419,3.907-0.361
										c1.263,0.095,2.456,0.378,3.552,0.766c2.194,0.791,3.949,2.053,5.274,3.339c1.329,1.298,2.21,2.657,2.809,3.819
										c1.113,2.383,1.144,3.898,1.237,3.875c0.01-0.001,0.005-0.092-0.015-0.27c-0.028-0.213-0.062-0.472-0.104-0.788
										c-0.109-0.69-0.383-1.691-0.908-2.918c-0.577-1.198-1.447-2.606-2.783-3.957c-1.333-1.339-3.113-2.658-5.364-3.499
										c-1.125-0.412-2.354-0.718-3.664-0.829c-1.305-0.075-2.695-0.022-4.063,0.34c-2.752,0.676-5.432,2.249-7.744,4.395
										c-2.34,2.135-4.284,4.859-6.034,7.781c-1.763,2.923-3.356,6.064-5.273,9.098c-3.788,6.085-8.339,11.352-13.447,14.889
										c-5.06,3.628-10.641,5.182-15.308,5.397c-4.703,0.225-8.453-0.901-10.813-2.008
										C187.74,131.197,186.621,130.221,186.573,130.293z"/>
								</g>
							</g>
						</g>
					</g>
				</g>
				<g>
					<g>
						<g>
							<g>
								<g>
									<path style="fill:#455A64;" d="M184.493,118.972c-0.022,0.035,0.3,0.268,0.905,0.661c0.598,0.404,1.518,0.906,2.692,1.444
										c1.171,0.549,2.627,1.068,4.28,1.513c1.66,0.415,3.522,0.737,5.497,0.855c1.977,0.097,3.863-0.02,5.559-0.252
										c1.692-0.262,3.195-0.621,4.419-1.038c1.225-0.408,2.195-0.806,2.833-1.143c0.644-0.325,0.99-0.521,0.972-0.559
										c-0.047-0.102-1.48,0.594-3.928,1.296c-1.221,0.36-2.707,0.669-4.37,0.896c-1.668,0.197-3.515,0.295-5.452,0.201
										c-1.935-0.117-3.76-0.415-5.396-0.792c-1.628-0.407-3.072-0.876-4.246-1.367
										C185.9,119.724,184.551,118.876,184.493,118.972z"/>
								</g>
							</g>
						</g>
					</g>
				</g>
				<g>
					<g>
						<g>
							<g>
								<g>
									<g>
										<g>
											<g>
												<g>
													<g>
														<g>
															<g>
																<g>
																	<path style="fill:#263238;" d="M204.589,158.083c0.498,0.53,3.511-1.786,7.81-1.805
																		c4.292-0.083,7.457,2.161,7.92,1.618c0.228-0.242-0.281-1.201-1.659-2.215c-1.357-1.011-3.668-1.986-6.345-1.955
																		c-2.677,0.035-4.923,1.06-6.212,2.103C204.787,156.878,204.345,157.847,204.589,158.083z"/>
																</g>
															</g>
														</g>
													</g>
												</g>
											</g>
										</g>
									</g>
								</g>
							</g>
						</g>
					</g>
				</g>
				<g>
					<g>
						<g>
							<g>
								<g>
									<g>
										<g>
											<g>
												<g>
													<g>
														<g>
															<g>
																<path style="fill:#263238;" d="M210.659,166.028c0.028,1.837,1.606,3.327,3.525,3.334
																	c1.914,0.006,3.447-1.474,3.42-3.311c-0.027-1.836-1.606-3.329-3.521-3.336
																	C212.164,162.708,210.631,164.191,210.659,166.028z"/>
															</g>
														</g>
													</g>
												</g>
											</g>
										</g>
									</g>
								</g>
							</g>
						</g>
					</g>
				</g>
			</g>
			<g>
				<g>
					<g>
						<g>
							<g>
								<g>
									<g>
										<path style="fill:#EB996E;" d="M229.475,195.449c2.073-0.743,8.181-1.676,10.369-1.918l2.558-0.63l0,0
											c1.158,1.587,1.144,5.839,0.077,7.502c-1.103,1.718-3.082,2.753-5.105,3.029c-1.442,0.197-3.027,0.003-4.128-0.949
											C233.246,202.482,230.082,200.982,229.475,195.449"/>
									</g>
								</g>
							</g>
						</g>
					</g>
				</g>
				<g>
					<g>
						<g>
							<path style="fill:#263238;" d="M235.862,203.243c-0.028-0.161,1.71,0.161,3.808-1.233c1.02-0.685,2.031-1.821,2.604-3.347
								c0.578-1.511,0.771-3.377,0.317-5.192c-0.025-0.097-0.05-0.193-0.073-0.282l0.454,0.289
								c-3.811,0.589-7.254,1.076-9.748,1.388c-2.494,0.312-4.039,0.45-4.056,0.34c-0.017-0.11,1.497-0.447,3.969-0.905
								c2.471-0.458,5.9-1.036,9.71-1.63l0.364-0.057l0.09,0.346c0.026,0.098,0.053,0.205,0.081,0.312
								c0.5,2.004,0.262,4.03-0.41,5.67c-0.667,1.657-1.842,2.879-2.992,3.555c-1.156,0.69-2.255,0.897-2.989,0.907
								C236.249,203.415,235.855,203.288,235.862,203.243z"/>
							<path style="fill:#263238;" d="M236.902,203.529c-0.553,0-1.03-0.08-1.13-0.193l-0.038-0.043l0.003-0.04l-0.008-0.043
								l0.038-0.06c0.057-0.073,0.154-0.081,0.412-0.099c0.571-0.042,1.909-0.141,3.421-1.145c0.66-0.443,1.87-1.46,2.556-3.287
								c0.6-1.569,0.725-3.317,0.354-4.944c-3.508,0.539-6.784,1.003-9.271,1.314c-4.151,0.52-4.171,0.395-4.196,0.235
								c-0.025-0.159-0.044-0.284,4.069-1.047c2.579-0.477,6.029-1.056,9.714-1.63l0.476-0.074l0.201,0.767
								c0.473,1.9,0.326,3.941-0.416,5.749c-0.612,1.52-1.722,2.838-3.044,3.616c-1.318,0.786-2.478,0.916-3.052,0.924
								C236.962,203.529,236.932,203.529,236.902,203.529z M236.562,203.268c0.124,0.008,0.265,0.013,0.427,0.01
								c0.549-0.007,1.659-0.132,2.928-0.89c1.276-0.75,2.348-2.024,2.94-3.495c0.721-1.76,0.865-3.746,0.405-5.593l-0.143-0.546
								l-0.253,0.039c-3.683,0.573-7.13,1.152-9.707,1.629c-1.831,0.339-2.805,0.55-3.323,0.678c0.532-0.034,1.524-0.129,3.372-0.36
								c2.479-0.31,5.745-0.773,9.243-1.31l-0.134-0.518l1.002,0.637l-0.329,0.051c-0.078,0.012-0.155,0.024-0.232,0.036
								c0.376,1.671,0.247,3.463-0.368,5.071c-0.526,1.402-1.468,2.611-2.65,3.406C238.437,202.979,237.261,203.195,236.562,203.268
								z"/>
						</g>
					</g>
				</g>
			</g>
		</g>
		<g>
			<g>
				<g>
					<path style="fill:#FAFAFA;" d="M121.736,206.739c0,0-30.499,10.99-45.434,6.671c-14.935-4.319-25.431-10.365-32.917-28.059
						c-6.058-14.318-4.849-31.906,2.407-45.656c6.35-12.034,17.687-18.818,29.623-25.349c14.823-8.111,34.944-14.787,51.828-15.433
						s27.719,4.313,40.196,15.708c12.477,11.394,19.125,29.578,14.724,45.891c-4.665,17.288-20.222,29.566-36.524,36.974
						c0,0-4.594,16.037,8.341,24.905C153.98,222.391,132.894,227.617,121.736,206.739z"/>
				</g>
				<g>
					<g>
						<path style="fill:#263238;" d="M121.736,206.739c0,0,0.12,0.177,0.351,0.544c0.236,0.379,0.578,0.927,1.027,1.647
							c0.227,0.367,0.48,0.776,0.76,1.228c0.293,0.444,0.679,0.877,1.061,1.377c0.39,0.494,0.811,1.026,1.261,1.595
							c0.463,0.559,1.051,1.07,1.623,1.66c2.324,2.295,5.647,4.787,10.14,6.34c2.215,0.844,4.738,1.322,7.427,1.578
							c2.69,0.214,5.606,0.159,8.559-0.46l-0.047,0.262c-3.398-2.324-6.416-5.883-7.928-10.361c-0.794-2.219-1.19-4.638-1.277-7.12
							c-0.084-2.485,0.139-5.041,0.768-7.596l0.02-0.08l0.082-0.038c4.581-2.101,9.232-4.635,13.77-7.735
							c4.546-3.082,8.933-6.812,12.818-11.264c0.507-0.538,0.953-1.131,1.415-1.715c0.453-0.591,0.943-1.157,1.37-1.774
							c0.846-1.239,1.742-2.461,2.479-3.798c0.818-1.289,1.464-2.685,2.155-4.069c0.336-0.697,0.593-1.432,0.895-2.15l0.439-1.086
							c0.135-0.367,0.239-0.745,0.36-1.118c1.05-2.964,1.593-6.128,1.874-9.336c0.289-3.216,0.108-6.508-0.394-9.778
							c-0.964-6.561-3.517-13.016-7.22-18.872c-1.893-2.907-4.088-5.658-6.574-8.175c-2.494-2.504-5.247-4.828-8.114-7.013
							c-5.73-4.358-12.384-7.859-19.717-9.272c-7.307-1.46-14.984-1.26-22.548-0.169c-7.639,1.096-15.053,3.036-22.165,5.467
							c-7.111,2.44-13.939,5.383-20.347,8.833c-6.397,3.474-12.647,7.027-18.091,11.425c-5.451,4.361-9.968,9.703-12.788,15.762
							c-1.445,3.006-2.589,6.108-3.462,9.24c-0.842,3.142-1.402,6.31-1.715,9.456c-0.331,3.146-0.327,6.275-0.112,9.332
							c0.08,1.533,0.311,3.038,0.505,4.534c0.285,1.481,0.525,2.96,0.922,4.391c3.117,11.386,9.237,21.415,17.63,27.126
							c4.156,2.869,8.607,4.822,12.917,6.278c1.077,0.371,2.144,0.722,3.207,1.033c1.052,0.358,2.114,0.576,3.159,0.795
							c1.035,0.278,2.094,0.32,3.123,0.432c1.029,0.138,2.051,0.13,3.055,0.139c4.013,0.029,7.749-0.366,11.148-0.907
							c3.409-0.503,6.488-1.171,9.252-1.786c5.517-1.289,9.738-2.544,12.589-3.42C120.142,207.248,121.408,206.844,121.736,206.739
							c0,0-0.359,0.149-1.084,0.404c-0.722,0.253-1.798,0.623-3.22,1.079c-2.843,0.909-7.057,2.196-12.574,3.518
							c-2.764,0.632-5.846,1.316-9.26,1.834c-3.405,0.557-7.151,0.968-11.189,0.953c-1.01-0.005-2.038,0.005-3.078-0.13
							c-1.04-0.11-2.107-0.149-3.158-0.427c-1.061-0.219-2.14-0.438-3.192-0.792c-1.066-0.309-2.138-0.658-3.221-1.027
							c-4.331-1.45-8.818-3.403-13.021-6.289c-2.1-1.443-4.066-3.173-5.924-5.083c-1.835-1.937-3.477-4.12-5.002-6.441
							c-1.445-2.369-2.842-4.842-3.982-7.493c-0.627-1.299-1.124-2.672-1.658-4.042c-0.444-1.401-0.942-2.802-1.272-4.263
							c-0.403-1.443-0.647-2.934-0.937-4.428c-0.198-1.508-0.433-3.026-0.516-4.571c-0.221-3.082-0.229-6.236,0.1-9.408
							c0.312-3.171,0.872-6.366,1.718-9.535c0.876-3.16,2.027-6.29,3.483-9.325c2.843-6.125,7.417-11.544,12.907-15.94
							c5.486-4.437,11.757-8.006,18.162-11.487c6.435-3.469,13.285-6.424,20.422-8.875c7.138-2.441,14.579-4.39,22.259-5.492
							c7.606-1.096,15.335-1.301,22.725,0.177c7.416,1.431,14.155,4.981,19.921,9.372c2.891,2.206,5.64,4.528,8.164,7.064
							c2.51,2.544,4.725,5.325,6.634,8.262c3.735,5.916,6.308,12.435,7.276,19.068c0.504,3.306,0.683,6.635,0.387,9.888
							c-0.287,3.244-0.842,6.449-1.907,9.443c-0.123,0.377-0.229,0.76-0.366,1.13l-0.444,1.097
							c-0.306,0.725-0.568,1.468-0.908,2.171c-0.7,1.398-1.355,2.807-2.182,4.107c-0.747,1.348-1.652,2.58-2.508,3.829
							c-0.432,0.622-0.927,1.192-1.384,1.787c-0.467,0.588-0.918,1.184-1.429,1.726c-3.922,4.481-8.344,8.225-12.918,11.314
							c-4.567,3.107-9.242,5.642-13.845,7.74l0.101-0.117c-0.618,2.489-0.85,5.035-0.772,7.483c0.079,2.45,0.464,4.837,1.24,7.024
							c1.477,4.412,4.43,7.919,7.778,10.227l0.282,0.194l-0.329,0.068c-3.013,0.621-5.934,0.661-8.651,0.436
							c-2.71-0.269-5.251-0.762-7.481-1.624c-4.521-1.587-7.854-4.118-10.173-6.443c-0.57-0.597-1.157-1.116-1.617-1.681
							c-0.447-0.576-0.864-1.114-1.251-1.613c-0.378-0.504-0.762-0.947-1.047-1.39c-0.27-0.452-0.515-0.861-0.734-1.227
							c-0.433-0.73-0.763-1.286-0.991-1.67C121.846,206.941,121.736,206.739,121.736,206.739z"/>
					</g>
				</g>
			</g>
			<g>
				<g>
					<path style="fill:#263238;" d="M138.921,123.977c0.063,0.129-16.385,8.321-36.733,18.295
						c-20.355,9.977-36.903,17.958-36.966,17.829c-0.063-0.129,16.381-8.319,36.737-18.297
						C122.307,131.831,138.857,123.848,138.921,123.977z"/>
				</g>
			</g>
			<g>
				<g>
					<path style="fill:#263238;" d="M145.778,138.359c0.063,0.129-16.385,8.321-36.733,18.295
						c-20.355,9.977-36.903,17.958-36.966,17.829c-0.063-0.129,16.381-8.319,36.737-18.297
						C129.164,146.212,145.715,138.23,145.778,138.359z"/>
				</g>
			</g>
			<g>
				<g>
					<path style="fill:#263238;" d="M152.022,152.242c0.008,0.016-0.227,0.152-0.681,0.395c-0.5,0.261-1.165,0.607-1.998,1.041
						c-1.79,0.916-4.296,2.199-7.372,3.774c-6.225,3.186-14.793,7.647-24.252,12.586c-9.462,4.941-18.062,9.353-24.331,12.455
						c-3.134,1.552-5.679,2.792-7.448,3.626c-0.851,0.397-1.53,0.714-2.041,0.953c-0.469,0.213-0.719,0.316-0.727,0.3
						c-0.008-0.016,0.227-0.152,0.681-0.395c0.5-0.26,1.165-0.607,1.998-1.04c1.789-0.916,4.296-2.199,7.372-3.773
						c6.225-3.186,14.794-7.647,24.256-12.589c9.459-4.94,18.058-9.351,24.327-12.453c3.135-1.552,5.679-2.792,7.449-3.627
						c0.851-0.397,1.53-0.714,2.041-0.953C151.764,152.33,152.015,152.226,152.022,152.242z"/>
				</g>
			</g>
		</g>
		<g>
			<g>
				<path style="fill:#FFBE9D;" d="M147.993,263.557l4.368,93.985l7.683,8.266l9.781,11.877c0,0-9.781,39.475-24.104,42.968
					c-14.323,3.493-29.836-1.796-34.378-14.372c-4.541-12.576-2.225-34.58-0.827-48.679c1.397-14.099,8.026-91.129,8.026-91.129
					l16.699-6.864L147.993,263.557z"/>
			</g>
			<g>
				<g>
					<path style="fill:#FFBE9D;" d="M147.87,264.587c0,0,1.135-8.227,0-13.618c-1.135-5.39-8.511-16.739-8.511-16.739
						s1.135-10.781,0-12.483c-1.135-1.702-3.688-7.944-8.511-1.702c0,0-3.405-7.376-5.674-7.944s-3.404,0-3.404,0l5.958-7.944
						c0,0,0.339-1.581,0.019-3.247c-0.303-1.58-1.709-2.711-3.318-2.711l0,0c-0.987,0-1.924,0.431-2.567,1.18L107.3,216.358
						c0,0-9.079,16.455-8.795,18.441s5.39,8.511,5.39,8.511s13.05,17.873,14.185,21.278c1.135,3.405,0.567,7.376,0.567,7.376
						L147.87,264.587z"/>
				</g>
				<g>
					<g>
						<path style="fill:#EB996E;" d="M111.49,231.089c-0.066-0.014,0.106-1.252,0.501-3.237c0.408-1.976,1.036-4.734,2.343-7.568
							c1.308-2.837,3.175-5.06,4.797-6.306c0.806-0.631,1.521-1.054,2.036-1.298c0.514-0.246,0.815-0.342,0.828-0.313
							c0.046,0.087-1.117,0.588-2.63,1.895c-1.52,1.286-3.281,3.472-4.559,6.242c-1.279,2.771-1.959,5.482-2.456,7.43
							C111.865,229.89,111.565,231.105,111.49,231.089z"/>
					</g>
				</g>
				<g>
					<g>
						<path style="fill:#EB996E;" d="M124.332,231.639c-0.063-0.014,0.022-0.743,0.332-1.886c0.309-1.142,0.872-2.689,1.724-4.287
							c0.855-1.597,1.828-2.925,2.605-3.817c0.777-0.893,1.336-1.369,1.383-1.324c0.122,0.108-1.866,2.243-3.529,5.386
							C125.159,228.84,124.49,231.681,124.332,231.639z"/>
					</g>
				</g>
				<g>
					<g>
						<path style="fill:#EB996E;" d="M138.927,233.75c-0.127,0.067-0.279,0.029-0.339-0.086c-0.06-0.114-0.006-0.261,0.121-0.328
							c0.127-0.067,0.279-0.029,0.339,0.086C139.109,233.536,139.054,233.683,138.927,233.75z"/>
					</g>
				</g>
				<g>
					<g>
						<path style="fill:#EB996E;" d="M138.772,238.334c-0.143-0.017-0.053-1.727,0.201-3.818c0.116-0.96,0.247-1.833,0.367-2.485
							l0.351,0.14c-0.517,0.617-0.871,0.977-0.933,0.931c-0.063-0.046,0.179-0.49,0.619-1.164l0.396-0.606l-0.045,0.746
							c-0.04,0.662-0.122,1.541-0.238,2.501C139.236,236.669,138.915,238.351,138.772,238.334z"/>
					</g>
				</g>
			</g>
			<g>
				<g>
					<path style="fill:#EB996E;" d="M149.3,294.428c0.009-0.001,0.024,0.079,0.045,0.237c0.021,0.188,0.048,0.418,0.079,0.699
						c0.062,0.659,0.146,1.559,0.253,2.695c0.179,2.343,0.406,5.737,0.636,9.932c0.463,8.39,0.968,19.986,1.446,32.796
						c0.479,12.814,0.845,24.416,1.078,32.814c0.102,4.165,0.185,7.552,0.243,9.947c0.016,1.14,0.028,2.043,0.038,2.705
						c-0.001,0.283-0.003,0.514-0.004,0.704c-0.004,0.159-0.01,0.24-0.019,0.24s-0.02-0.081-0.034-0.239
						c-0.013-0.189-0.029-0.42-0.048-0.702c-0.033-0.661-0.078-1.563-0.135-2.702c-0.098-2.393-0.237-5.778-0.408-9.941
						c-0.316-8.435-0.751-20.013-1.23-32.807c-0.504-12.787-0.961-24.363-1.294-32.797c-0.197-4.161-0.357-7.544-0.47-9.937
						c-0.065-1.138-0.117-2.039-0.155-2.7c-0.011-0.283-0.021-0.514-0.028-0.704C149.289,294.511,149.291,294.429,149.3,294.428z"/>
				</g>
			</g>
		</g>
		<g>
			<g>
				<path style="fill:#FFBE9D;" d="M425.459,289.458c0,0-22.398,86.026-26.146,95.981c-7.411,19.688-12.47,29.052-20.857,33.965
					c-9.169,5.371-25.565,2.311-29.436-6.454c-3.543-8.023-12.936-41.433-12.936-41.433l28.762-10.373l34.309-71.889
					L425.459,289.458z"/>
			</g>
			<g>
				<g>
					<path style="fill:#FFBE9D;" d="M476.665,249.054c1.407,1.018-28.815,27.471-28.815,27.471l-22.391,12.933l-7.379,27.477
						l-23.396-14.446c0,0,8.47-27.402,12.406-29.289c6.864-3.292,8.185-14.324,10.641-13.915s3.526,0.364,2.708,4.456
						c-0.818,4.093-1.146,5.903-1.146,5.903l25.859-7.495c0,0,14.324-13.915,18.826-13.096c2.598,0.472,2.905,0.818,2.905,0.818l0,0
						C466.882,249.872,471.232,245.121,476.665,249.054z"/>
				</g>
				<g>
					<g>
						<path style="fill:#EB996E;" d="M445.151,262.15c0.01,0.034-0.424,0.2-1.217,0.47c-0.896,0.292-2.026,0.661-3.372,1.101
							c-2.961,0.925-6.859,2.143-11.169,3.489c-4.313,1.337-8.214,2.545-11.176,3.463c-1.352,0.422-2.486,0.775-3.384,1.056
							c-0.798,0.252-1.246,0.375-1.258,0.342c-0.013-0.034,0.412-0.222,1.191-0.533c0.781-0.305,1.92-0.726,3.336-1.214
							c2.832-0.982,6.77-2.259,11.137-3.611c4.367-1.35,8.335-2.524,11.216-3.344c1.44-0.41,2.609-0.732,3.421-0.943
							C444.687,262.215,445.141,262.116,445.151,262.15z"/>
					</g>
				</g>
				<g>
					<g>
						<path style="fill:#EB996E;" d="M449.554,269.399c-0.026-0.025,0.209-0.319,0.657-0.83c0.447-0.511,1.107-1.238,1.93-2.129
							c1.646-1.781,3.946-4.218,6.51-6.886c2.528-2.605,4.814-4.961,6.591-6.792c0.79-0.893,1.231-1.771,1.297-2.423
							c0.084-0.653-0.106-1.01-0.05-1.025c0.017-0.007,0.062,0.076,0.135,0.245c0.058,0.172,0.135,0.441,0.116,0.795
							c-0.007,0.715-0.436,1.691-1.217,2.643c-1.619,1.841-3.939,4.234-6.498,6.917c-2.564,2.668-4.906,5.064-6.62,6.78
							c-0.857,0.858-1.557,1.546-2.05,2.014C449.865,269.177,449.58,269.424,449.554,269.399z"/>
					</g>
				</g>
			</g>
			<g>
				<g>
					<path style="fill:#EB996E;" d="M370.589,349.109c0.132,0.058-3.626,8.903-8.392,19.753c-4.768,10.854-8.738,19.604-8.87,19.546
						c-0.132-0.058,3.625-8.901,8.393-19.755C366.486,357.802,370.457,349.051,370.589,349.109z"/>
				</g>
			</g>
		</g>
	</g>
</g>
<g id="Floor">
	<g>
		<g>
			<path style="fill:#263238;" d="M470.107,460.276c0,0.144-98.553,0.26-220.096,0.26c-121.585,0-220.117-0.117-220.117-0.26
				c0-0.144,98.532-0.26,220.117-0.26C371.554,460.016,470.107,460.133,470.107,460.276z"/>
		</g>
	</g>
</g>
<g id="Opinion">
	<g>
		<g>
			<g>
				<g>
					<g>
						
							<rect x="379.893" y="210.825" transform="matrix(0.009 -1 1 0.009 178.0171 616.1467)" style="fill:#FF725E;" width="39.956" height="14.867"/>
					</g>
				</g>
			</g>
			<g style="opacity:0.3;">
				<g>
					<g>
						<rect x="379.893" y="210.825" transform="matrix(0.009 -1 1 0.009 178.0171 616.1467)" width="39.956" height="14.867"/>
					</g>
				</g>
			</g>
			<g>
				<g>
					<g>
						
							<rect x="375.877" y="210.789" transform="matrix(0.009 -1 1 0.009 174.0721 612.094)" style="fill:#FF725E;" width="39.956" height="14.867"/>
					</g>
				</g>
			</g>
			<g>
				<g>
					<g>
						<path style="fill:#FFFFFF;" d="M398.918,207.945c-0.017,1.853-1.532,3.341-3.385,3.324c-1.853-0.017-3.341-1.532-3.324-3.385
							c0.017-1.853,1.532-3.341,3.385-3.324C397.446,204.577,398.934,206.093,398.918,207.945z"/>
					</g>
				</g>
			</g>
			<g>
				<g>
					<g>
						<g>
							<path style="fill:#FF725E;" d="M407.405,204.359c0.112,0.079-0.705,1.425-1.825,3.006c-1.12,1.582-2.118,2.799-2.23,2.72
								s0.705-1.425,1.825-3.007C406.295,205.497,407.294,204.28,407.405,204.359z"/>
						</g>
					</g>
				</g>
			</g>
			<g>
				<g>
					<g>
						<g>
							<path style="fill:#FF725E;" d="M407.365,208.779c0.112,0.079-0.705,1.425-1.825,3.006c-1.12,1.581-2.118,2.799-2.23,2.72
								c-0.112-0.079,0.705-1.425,1.825-3.006C406.255,209.918,407.254,208.7,407.365,208.779z"/>
						</g>
					</g>
				</g>
			</g>
			<g>
				<g>
					<g>
						<g>
							<path style="fill:#FF725E;" d="M407.326,213.199c0.112,0.079-0.705,1.425-1.825,3.006c-1.12,1.582-2.118,2.799-2.23,2.72
								c-0.112-0.079,0.705-1.425,1.825-3.007C406.216,214.338,407.214,213.12,407.326,213.199z"/>
						</g>
					</g>
				</g>
			</g>
			<g>
				<g>
					<g>
						<g>
							<path style="fill:#FF725E;" d="M407.286,217.619c0.112,0.079-0.705,1.425-1.825,3.006c-1.12,1.581-2.118,2.799-2.23,2.72
								c-0.112-0.079,0.705-1.425,1.825-3.006C406.176,218.758,407.174,217.54,407.286,217.619z"/>
						</g>
					</g>
				</g>
			</g>
			<g>
				<g>
					<g>
						<g>
							<path style="fill:#FF725E;" d="M407.246,222.04c0.112,0.079-0.705,1.425-1.825,3.006c-1.12,1.582-2.118,2.799-2.23,2.72
								c-0.112-0.079,0.705-1.425,1.825-3.007C406.136,223.178,407.134,221.96,407.246,222.04z"/>
						</g>
					</g>
				</g>
			</g>
			<g>
				<g>
					<g>
						<g>
							<path style="fill:#FF725E;" d="M407.206,226.46c0.112,0.079-0.705,1.425-1.825,3.006c-1.12,1.581-2.118,2.799-2.23,2.72
								c-0.112-0.079,0.705-1.425,1.825-3.006C406.096,227.598,407.094,226.381,407.206,226.46z"/>
						</g>
					</g>
				</g>
			</g>
			<g>
				<g>
					<g>
						<g>
							<path style="fill:#FF725E;" d="M407.166,230.88c0.112,0.079-0.705,1.425-1.825,3.006c-1.12,1.582-2.118,2.799-2.23,2.72
								c-0.112-0.079,0.705-1.425,1.825-3.007C406.056,232.019,407.054,230.801,407.166,230.88z"/>
						</g>
					</g>
				</g>
			</g>
			<g>
				<g>
					<g>
						<g>
							<path style="fill:#FF725E;" d="M407.4,200.46c0.112,0.079-0.705,1.425-1.825,3.006c-1.12,1.581-2.118,2.799-2.23,2.72
								c-0.112-0.079,0.705-1.425,1.825-3.007C406.29,201.599,407.288,200.381,407.4,200.46z"/>
						</g>
					</g>
				</g>
			</g>
			<g>
				<g>
					<g>
						<g>
							<path style="fill:#FF725E;" d="M405.904,198.335c0.112,0.079-0.335,0.902-0.997,1.838c-0.663,0.936-1.291,1.63-1.402,1.551
								c-0.112-0.079,0.335-0.902,0.998-1.838C405.164,198.95,405.792,198.255,405.904,198.335z"/>
						</g>
					</g>
				</g>
			</g>
		</g>
		<g>
			<g>
				<g>
					<g>
						<path style="fill:#FF725E;" d="M414.662,235.236l1.124-35.298c0,0,7.875-1.456,14.977-12.078
							c4.699-7.029,3.057-14.537,3.977-17.633c0.562-1.893,5.033-1.471,6.992-1.225c1.856,0.233,4.918,1.294,6.181,4.245
							c2.342,5.47-1.122,18.475-1.122,18.475s-1.484,2.642,2.233,2.675l13.256,0.119c1.719,0.016,3.405,0.596,4.699,1.728
							c1.137,0.994,2.092,2.499,1.898,4.704c-0.444,5.04-3.119,7.273-3.129,8.335c-0.009,1.062,1.434,2.934,0.345,5.977
							c-1.09,3.043-1.751,2.772-1.764,4.232c-0.013,1.46-0.312,5.174-1.262,7.423s-2.021,3.3-2.021,3.3s0.514,4.865-0.997,7.558
							c-1.982,3.53-10.756,5.806-14.352,4.119c-1.682-0.79-9.556-2.741-13.264-3.704
							C428.725,237.224,418.262,233.543,414.662,235.236z"/>
					</g>
				</g>
			</g>
			<g style="opacity:0.3;">
				<g>
					<g>
						<path d="M414.662,235.236l1.124-35.298c0,0,7.875-1.456,14.977-12.078c4.699-7.029,3.057-14.537,3.977-17.633
							c0.562-1.893,5.033-1.471,6.992-1.225c1.856,0.233,4.918,1.294,6.181,4.245c2.342,5.47-1.122,18.475-1.122,18.475
							s-1.484,2.642,2.233,2.675l13.256,0.119c1.719,0.016,3.405,0.596,4.699,1.728c1.137,0.994,2.092,2.499,1.898,4.704
							c-0.444,5.04-3.119,7.273-3.129,8.335c-0.009,1.062,1.434,2.934,0.345,5.977c-1.09,3.043-1.751,2.772-1.764,4.232
							c-0.013,1.46-0.312,5.174-1.262,7.423s-2.021,3.3-2.021,3.3s0.514,4.865-0.997,7.558c-1.982,3.53-10.756,5.806-14.352,4.119
							c-1.682-0.79-9.556-2.741-13.264-3.704C428.725,237.224,418.262,233.543,414.662,235.236z"/>
					</g>
				</g>
			</g>
			<g>
				<g>
					<g>
						<path style="fill:#FF725E;" d="M409.912,235.594l0.322-35.707c0,0,7.876-1.456,14.977-12.078
							c4.699-7.029,6.841-12.722,7.76-15.818c0.562-1.893,2.389-3.16,4.348-2.914c1.856,0.233,4.085,0.982,5.348,3.932
							c2.342,5.47-1.428,18.662-1.428,18.662s-1.484,2.642,2.233,2.675l13.257,0.119c1.719,0.016,3.405,0.596,4.699,1.728
							c1.137,0.994,2.092,2.498,1.898,4.704c-0.444,5.041-3.119,7.273-3.128,8.335c-0.01,1.062,1.434,2.933,0.344,5.977
							c-1.089,3.043-1.751,2.772-1.764,4.232c-0.013,1.46-0.312,5.174-1.262,7.423c-0.949,2.248-2.021,3.301-2.021,3.301
							s0.355,4.782-0.997,7.558c-1.353,2.775-6.941,4.185-8.799,4.169c-1.858-0.017-15.108-2.791-18.817-3.754
							C423.172,237.174,413.511,233.901,409.912,235.594z"/>
					</g>
				</g>
			</g>
			<g>
				<g>
					<g>
						<g>
							<path style="fill:#FF725E;" d="M448.091,184.604c0.1,0.089-1.2,1.712-3.029,3.505c-1.826,1.796-3.474,3.066-3.56,2.964
								c-0.092-0.106,1.399-1.535,3.213-3.318C446.53,185.975,447.986,184.51,448.091,184.604z"/>
						</g>
					</g>
				</g>
			</g>
			<g>
				<g>
					<g>
						<g>
							<path style="fill:#FF725E;" d="M448.848,179.835c0.105,0.086-1.081,1.59-2.876,3.09c-1.79,1.491-3.289,2.612-3.375,2.52
								c-0.1-0.109,1.275-1.417,3.053-2.897C447.422,181.067,448.743,179.745,448.848,179.835z"/>
						</g>
					</g>
				</g>
			</g>
			<g>
				<g>
					<g>
						<g>
							<path style="fill:#FF725E;" d="M448.524,175.526c0.096,0.073-0.817,1.366-2.383,2.493c-1.553,1.082-2.754,1.993-2.848,1.897
								c-0.099-0.1,1.003-1.217,2.554-2.297C447.36,176.533,448.408,175.424,448.524,175.526z"/>
						</g>
					</g>
				</g>
			</g>
			<g>
				<g>
					<g>
						<g>
							<path style="fill:#FF725E;" d="M447.096,171.922c0.088,0.105-0.701,0.913-1.763,1.804c-1.062,0.892-1.994,1.529-2.082,1.424
								c-0.088-0.105,0.701-0.913,1.763-1.804C446.076,172.455,447.008,171.817,447.096,171.922z"/>
						</g>
					</g>
				</g>
			</g>
			<g>
				<g>
					<g>
						<g>
							<path style="fill:#FF725E;" d="M444.423,169.779c0.069,0.118-0.426,0.572-1.107,1.012c-0.681,0.441-1.297,0.707-1.376,0.596
								c-0.079-0.112,0.416-0.565,1.107-1.012C443.737,169.928,444.353,169.661,444.423,169.779z"/>
						</g>
					</g>
				</g>
			</g>
			<g>
				<g>
					<g>
						<g>
							<path style="fill:#FF725E;" d="M446.999,190.888c0.088,0.105-0.751,0.956-1.874,1.901c-1.123,0.945-2.105,1.627-2.193,1.522
								c-0.088-0.105,0.751-0.956,1.874-1.902C445.929,191.464,446.911,190.783,446.999,190.888z"/>
						</g>
					</g>
				</g>
			</g>
			<g>
				<g>
					<g>
						<g>
							<path style="fill:#FF725E;" d="M468.463,203.531c0.076,0.114-1.691,1.435-3.947,2.951c-2.257,1.516-4.148,2.653-4.224,2.539
								c-0.076-0.114,1.691-1.435,3.948-2.951C466.496,204.555,468.387,203.418,468.463,203.531z"/>
						</g>
					</g>
				</g>
			</g>
			<g>
				<g>
					<g>
						<g>
							<path style="fill:#FF725E;" d="M468.309,197.477c0.077,0.114-0.951,0.941-2.295,1.848c-1.344,0.907-2.496,1.55-2.573,1.436
								c-0.077-0.113,0.951-0.941,2.295-1.848C467.081,198.006,468.232,197.363,468.309,197.477z"/>
						</g>
					</g>
				</g>
			</g>
			<g>
				<g>
					<g>
						<g>
							<path style="fill:#FF725E;" d="M466.358,212.179c0.067,0.124-1.311,0.981-2.966,2.092c-1.659,1.107-2.976,2.053-3.066,1.944
								c-0.085-0.102,1.108-1.234,2.79-2.356C464.794,212.732,466.296,212.061,466.358,212.179z"/>
						</g>
					</g>
				</g>
			</g>
			<g>
				<g>
					<g>
						<g>
							<path style="fill:#FF725E;" d="M464.36,219.04c0.081,0.11-1.151,1.156-2.752,2.334c-1.602,1.179-2.965,2.045-3.046,1.935
								c-0.081-0.11,1.151-1.155,2.752-2.334C462.915,219.796,464.279,218.93,464.36,219.04z"/>
						</g>
					</g>
				</g>
			</g>
			<g>
				<g>
					<g>
						<g>
							<path style="fill:#FF725E;" d="M462.739,227.165c0.087,0.1-1.275,1.418-3.182,2.757c-1.905,1.344-3.604,2.182-3.668,2.066
								c-0.071-0.123,1.5-1.143,3.383-2.472C461.157,228.193,462.647,227.057,462.739,227.165z"/>
						</g>
					</g>
				</g>
			</g>
			<g>
				<g>
					<g>
						<g>
							<path style="fill:#FF725E;" d="M460.975,233.996c0.092,0.105-1.53,1.605-3.752,3.159c-2.212,1.569-4.171,2.591-4.239,2.468
								c-0.066-0.117,1.756-1.315,3.953-2.874C459.145,235.206,460.888,233.894,460.975,233.996z"/>
						</g>
					</g>
				</g>
			</g>
		</g>
	</g>
	<g>
		<g>
			<g>
				<g>
					<g>
						
							<rect x="439.574" y="118.344" transform="matrix(0.1954 -0.9807 0.9807 0.1954 243.3751 543.0767)" style="fill:#263238;" width="26.179" height="9.741"/>
					</g>
				</g>
			</g>
			<g>
				<g>
					<g>
						
							<rect x="442.155" y="118.858" transform="matrix(0.1954 -0.9807 0.9807 0.1954 244.9455 546.0207)" style="fill:#455A64;" width="26.179" height="9.741"/>
					</g>
				</g>
			</g>
			<g>
				<g>
					<g>
						<path style="fill:#FFFFFF;" d="M452.016,129.97c0.237-1.191,1.395-1.963,2.585-1.726c1.19,0.237,1.963,1.395,1.726,2.585
							c-0.237,1.19-1.395,1.963-2.585,1.726C452.552,132.318,451.779,131.16,452.016,129.97z"/>
					</g>
				</g>
			</g>
			<g>
				<g>
					<g>
						<g>
							<path style="fill:#455A64;" d="M446.114,131.241c-0.062-0.065,0.628-0.831,1.542-1.712c0.914-0.881,1.706-1.543,1.768-1.478
								c0.062,0.065-0.628,0.831-1.542,1.712C446.968,130.644,446.176,131.306,446.114,131.241z"/>
						</g>
					</g>
				</g>
			</g>
			<g>
				<g>
					<g>
						<g>
							<path style="fill:#455A64;" d="M446.68,128.401c-0.062-0.065,0.628-0.831,1.542-1.712c0.914-0.881,1.705-1.543,1.768-1.478
								c0.062,0.065-0.628,0.831-1.542,1.712C447.534,127.803,446.742,128.465,446.68,128.401z"/>
						</g>
					</g>
				</g>
			</g>
			<g>
				<g>
					<g>
						<g>
							<path style="fill:#455A64;" d="M447.246,125.56c-0.062-0.065,0.628-0.831,1.542-1.712c0.914-0.881,1.706-1.543,1.768-1.478
								c0.062,0.065-0.628,0.831-1.542,1.712C448.1,124.963,447.308,125.625,447.246,125.56z"/>
						</g>
					</g>
				</g>
			</g>
			<g>
				<g>
					<g>
						<g>
							<path style="fill:#455A64;" d="M447.812,122.72c-0.062-0.065,0.628-0.831,1.542-1.712c0.914-0.881,1.705-1.543,1.768-1.478
								c0.062,0.065-0.628,0.831-1.542,1.712C448.666,122.123,447.874,122.785,447.812,122.72z"/>
						</g>
					</g>
				</g>
			</g>
			<g>
				<g>
					<g>
						<g>
							<path style="fill:#455A64;" d="M448.378,119.88c-0.062-0.065,0.628-0.831,1.542-1.712c0.914-0.881,1.705-1.543,1.768-1.478
								c0.062,0.065-0.628,0.831-1.542,1.712C449.232,119.282,448.44,119.944,448.378,119.88z"/>
						</g>
					</g>
				</g>
			</g>
			<g>
				<g>
					<g>
						<g>
							<path style="fill:#455A64;" d="M448.944,117.039c-0.062-0.065,0.628-0.831,1.542-1.712c0.914-0.881,1.706-1.543,1.768-1.478
								c0.062,0.065-0.628,0.831-1.542,1.712C449.798,116.442,449.006,117.104,448.944,117.039z"/>
						</g>
					</g>
				</g>
			</g>
			<g>
				<g>
					<g>
						<g>
							<path style="fill:#455A64;" d="M449.51,114.199c-0.062-0.065,0.628-0.831,1.542-1.712c0.914-0.881,1.705-1.543,1.768-1.478
								c0.062,0.065-0.628,0.831-1.542,1.712C450.363,113.602,449.572,114.263,449.51,114.199z"/>
						</g>
					</g>
				</g>
			</g>
			<g>
				<g>
					<g>
						<g>
							<path style="fill:#455A64;" d="M445.641,133.751c-0.062-0.065,0.628-0.831,1.542-1.712c0.914-0.881,1.705-1.543,1.768-1.478
								c0.062,0.065-0.628,0.831-1.542,1.712C446.495,133.154,445.703,133.816,445.641,133.751z"/>
						</g>
					</g>
				</g>
			</g>
			<g>
				<g>
					<g>
						<g>
							<path style="fill:#455A64;" d="M446.344,135.302c-0.062-0.065,0.326-0.54,0.867-1.061c0.541-0.521,1.03-0.892,1.092-0.827
								c0.062,0.065-0.326,0.54-0.867,1.061C446.896,134.997,446.407,135.367,446.344,135.302z"/>
						</g>
					</g>
				</g>
			</g>
		</g>
		<g>
			<g>
				<g>
					<g>
						<path style="fill:#263238;" d="M445.217,110.479l-5.038,22.584c0,0-5.247-0.025-11.117,5.944
							c-3.884,3.95-3.745,8.983-4.715,10.864c-0.593,1.15-3.419,0.331-4.65-0.066c-1.166-0.377-3.007-1.434-3.46-3.488
							c-0.839-3.807,2.98-11.755,2.98-11.755s1.278-1.519-1.11-1.995l-8.518-1.697c-1.105-0.22-2.119-0.8-2.813-1.686
							c-0.61-0.779-1.041-1.864-0.647-3.26c0.902-3.19,2.896-4.3,3.033-4.983c0.136-0.682-0.564-2.064,0.509-3.889
							c1.073-1.826,1.466-1.57,1.653-2.509c0.187-0.938,0.833-3.293,1.719-4.624c0.886-1.331,1.704-1.877,1.704-1.877
							s0.264-3.195,1.566-4.743c1.707-2.03,7.633-2.423,9.741-0.897c0.986,0.714,5.816,2.932,8.085,4.005
							C436.408,107.48,442.693,111.129,445.217,110.479z"/>
					</g>
				</g>
			</g>
			<g>
				<g>
					<g>
						<path style="fill:#455A64;" d="M448.319,110.829l-4.572,22.945c0,0-5.247-0.026-11.117,5.944
							c-3.884,3.95-5.958,7.353-6.928,9.234c-0.593,1.15-1.924,1.742-3.155,1.344c-1.166-0.377-2.509-1.132-2.962-3.185
							c-0.839-3.807,3.2-11.838,3.2-11.838s1.278-1.519-1.11-1.995l-8.518-1.697c-1.105-0.22-2.119-0.8-2.813-1.686
							c-0.61-0.779-1.041-1.864-0.647-3.26c0.902-3.19,2.897-4.3,3.033-4.983c0.136-0.682-0.564-2.063,0.509-3.889
							c1.073-1.826,1.466-1.57,1.653-2.509c0.187-0.938,0.833-3.292,1.719-4.624c0.886-1.331,1.704-1.878,1.704-1.878
							s0.356-3.122,1.566-4.743c1.21-1.621,4.979-1.846,6.173-1.608c1.194,0.238,9.384,3.643,11.653,4.716
							C439.976,108.191,445.795,111.479,448.319,110.829z"/>
					</g>
				</g>
			</g>
			<g>
				<g>
					<g>
						<g>
							<path style="fill:#455A64;" d="M417.511,138.984c-0.054-0.069,0.982-0.956,2.378-1.886c1.395-0.933,2.611-1.549,2.654-1.473
								c0.046,0.08-1.088,0.817-2.474,1.743C418.683,138.292,417.566,139.058,417.511,138.984z"/>
						</g>
					</g>
				</g>
			</g>
			<g>
				<g>
					<g>
						<g>
							<path style="fill:#455A64;" d="M416.441,141.961c-0.057-0.068,0.89-0.892,2.229-1.637c1.335-0.741,2.436-1.28,2.48-1.209
								c0.051,0.082-0.994,0.756-2.319,1.492C417.509,141.342,416.497,142.032,416.441,141.961z"/>
						</g>
					</g>
				</g>
			</g>
			<g>
				<g>
					<g>
						<g>
							<path style="fill:#455A64;" d="M416.123,144.775c-0.053-0.058,0.693-0.779,1.839-1.313c1.132-0.507,2.016-0.946,2.065-0.873
								c0.052,0.077-0.795,0.661-1.925,1.166C416.995,144.269,416.184,144.854,416.123,144.775z"/>
						</g>
					</g>
				</g>
			</g>
			<g>
				<g>
					<g>
						<g>
							<path style="fill:#455A64;" d="M416.601,147.269c-0.044-0.078,0.563-0.502,1.355-0.946c0.793-0.444,1.471-0.741,1.514-0.662
								c0.044,0.078-0.563,0.502-1.356,0.946C417.323,147.051,416.645,147.348,416.601,147.269z"/>
						</g>
					</g>
				</g>
			</g>
			<g>
				<g>
					<g>
						<g>
							<path style="fill:#455A64;" d="M418.06,148.975c-0.03-0.085,0.344-0.316,0.836-0.516c0.492-0.201,0.921-0.297,0.959-0.215
								c0.038,0.082-0.337,0.313-0.836,0.516C418.519,148.963,418.09,149.059,418.06,148.975z"/>
						</g>
					</g>
				</g>
			</g>
			<g>
				<g>
					<g>
						<g>
							<path style="fill:#455A64;" d="M418.981,135.073c-0.044-0.078,0.6-0.524,1.439-0.995c0.839-0.471,1.554-0.79,1.598-0.712
								s-0.6,0.524-1.439,0.995C419.741,134.833,419.025,135.151,418.981,135.073z"/>
						</g>
					</g>
				</g>
			</g>
			<g>
				<g>
					<g>
						<g>
							<path style="fill:#455A64;" d="M406.711,124.311c-0.035-0.082,1.264-0.717,2.901-1.417c1.638-0.7,2.994-1.201,3.03-1.118
								c0.035,0.082-1.264,0.717-2.902,1.417C408.102,123.893,406.746,124.393,406.711,124.311z"/>
						</g>
					</g>
				</g>
			</g>
			<g>
				<g>
					<g>
						<g>
							<path style="fill:#455A64;" d="M406.07,128.227c-0.036-0.082,0.727-0.489,1.703-0.909c0.976-0.42,1.796-0.693,1.832-0.61
								c0.035,0.082-0.727,0.489-1.703,0.909C406.925,128.036,406.105,128.309,406.07,128.227z"/>
						</g>
					</g>
				</g>
			</g>
			<g>
				<g>
					<g>
						<g>
							<path style="fill:#455A64;" d="M409.123,119.002c-0.028-0.088,0.964-0.471,2.165-0.984c1.203-0.509,2.167-0.958,2.211-0.876
								c0.043,0.076-0.864,0.659-2.084,1.175C410.197,118.837,409.148,119.085,409.123,119.002z"/>
						</g>
					</g>
				</g>
			</g>
			<g>
				<g>
					<g>
						<g>
							<path style="fill:#455A64;" d="M411.247,114.829c-0.039-0.081,0.882-0.603,2.057-1.166c1.175-0.563,2.159-0.954,2.197-0.873
								c0.039,0.081-0.882,0.603-2.057,1.166C412.27,114.519,411.286,114.91,411.247,114.829z"/>
						</g>
					</g>
				</g>
			</g>
			<g>
				<g>
					<g>
						<g>
							<path style="fill:#455A64;" d="M413.284,109.798c-0.044-0.075,0.994-0.757,2.385-1.386c1.39-0.633,2.586-0.964,2.614-0.882
								c0.03,0.088-1.105,0.552-2.48,1.178C414.428,109.33,413.33,109.878,413.284,109.798z"/>
						</g>
					</g>
				</g>
			</g>
			<g>
				<g>
					<g>
						<g>
							<path style="fill:#455A64;" d="M415.254,105.617c-0.046-0.079,1.181-0.846,2.801-1.575c1.616-0.74,3.001-1.158,3.03-1.071
								c0.028,0.083-1.291,0.632-2.896,1.367C416.58,105.061,415.298,105.693,415.254,105.617z"/>
						</g>
					</g>
				</g>
			</g>
		</g>
	</g>
</g>
</svg>
