<svg width="500" height="500" viewBox="0 0 500 500" fill="none" xmlns="http://www.w3.org/2000/svg">
<path d="M317.524 250.717C269.485 250.261 226.012 249.849 194.501 249.55C178.781 249.475 166.056 249.414 157.219 249.372C152.841 249.382 149.434 249.39 147.082 249.395C145.947 249.41 145.072 249.422 144.446 249.43C143.852 249.444 143.548 249.461 143.548 249.479C143.548 249.497 143.852 249.516 144.446 249.536C145.073 249.551 145.947 249.571 147.082 249.598C149.434 249.627 152.841 249.67 157.218 249.724C166.054 249.771 178.78 249.839 194.5 249.923C226.013 249.943 269.487 249.97 317.528 250C365.545 249.995 409.027 250.058 440.505 250.287C456.244 250.399 468.981 250.546 477.784 250.714C482.185 250.798 485.603 250.885 487.92 250.974C490.237 251.063 491.454 251.152 491.454 251.238C491.453 251.323 490.236 251.401 487.918 251.466C485.6 251.531 482.182 251.585 477.78 251.624C468.975 251.702 456.237 251.721 440.498 251.674C409.019 251.584 365.539 251.207 317.524 250.717Z" fill="#EBEBEB"/>
<path d="M316.567 261.407C269.184 253.591 226.305 246.518 195.225 241.391C179.708 238.909 167.146 236.9 158.423 235.505C154.097 234.845 150.73 234.332 148.405 233.978C147.281 233.82 146.415 233.698 145.795 233.611C145.206 233.535 144.903 233.505 144.899 233.523C144.896 233.541 145.193 233.608 145.777 233.719C146.394 233.83 147.254 233.985 148.37 234.186C150.689 234.576 154.047 235.141 158.363 235.867C167.085 237.269 179.645 239.287 195.16 241.78C226.287 246.626 269.23 253.312 316.684 260.7C364.119 268.048 407.064 274.769 438.124 279.819C453.654 282.341 466.214 284.44 474.883 285.956C479.218 286.714 482.58 287.326 484.854 287.77C487.129 288.214 488.316 288.49 488.302 288.576C488.288 288.662 487.073 288.553 484.773 288.263C482.473 287.974 479.087 287.504 474.732 286.868C466.022 285.598 453.435 283.665 437.895 281.207C406.812 276.296 363.92 269.255 316.567 261.407Z" fill="#EBEBEB"/>
<path d="M313.923 271.817C268.38 256.738 227.167 243.092 197.293 233.201C182.366 228.341 170.282 224.406 161.89 221.673C157.723 220.35 154.48 219.321 152.24 218.61C151.155 218.28 150.32 218.025 149.721 217.843C149.151 217.676 148.857 217.6 148.851 217.618C148.845 217.636 149.128 217.748 149.686 217.949C150.277 218.155 151.102 218.441 152.173 218.814C154.401 219.56 157.626 220.639 161.772 222.027C170.162 224.766 182.242 228.71 197.166 233.582C227.131 243.2 268.471 256.47 314.153 271.133C359.824 285.753 401.16 299.058 431.025 308.869C445.959 313.772 458.026 317.796 466.345 320.641C470.504 322.063 473.726 323.19 475.902 323.983C478.077 324.776 479.206 325.234 479.178 325.317C479.15 325.4 477.967 325.105 475.741 324.462C473.516 323.82 470.247 322.83 466.048 321.527C457.649 318.921 445.528 315.059 430.574 310.217C400.663 300.54 359.43 286.925 313.923 271.817Z" fill="#EBEBEB"/>
<path d="M309.653 281.676C267.082 259.721 228.557 239.852 200.633 225.451C186.667 218.334 175.361 212.573 167.511 208.573C163.607 206.619 160.568 205.099 158.472 204.05C157.453 203.555 156.669 203.173 156.107 202.9C155.571 202.647 155.293 202.525 155.284 202.541C155.275 202.558 155.537 202.712 156.056 202.997C156.606 203.291 157.376 203.702 158.374 204.236C160.454 205.317 163.468 206.884 167.341 208.897C175.188 212.903 186.49 218.672 200.451 225.799C228.507 239.949 267.213 259.472 309.984 281.045C352.751 302.574 391.449 322.13 419.377 336.453C433.342 343.612 444.618 349.457 452.38 353.555C456.261 355.604 459.264 357.216 461.286 358.335C463.308 359.454 464.35 360.08 464.31 360.157C464.27 360.234 463.15 359.757 461.055 358.776C458.96 357.795 455.891 356.31 451.952 354.37C444.075 350.492 432.721 344.795 418.726 337.693C390.733 323.495 352.185 303.653 309.653 281.676Z" fill="#EBEBEB"/>
<path d="M303.866 290.757C265.298 262.509 230.397 236.946 205.098 218.417C192.432 209.235 182.179 201.802 175.059 196.64C171.513 194.108 168.753 192.139 166.847 190.778C165.92 190.132 165.205 189.635 164.694 189.278C164.205 188.945 163.949 188.782 163.938 188.797C163.927 188.812 164.161 189.004 164.629 189.366C165.127 189.742 165.821 190.266 166.722 190.947C168.606 192.336 171.334 194.348 174.841 196.933C181.958 202.1 192.205 209.54 204.865 218.731C230.334 237.032 265.47 262.281 304.296 290.181C343.125 318.038 378.247 343.319 403.561 361.771C416.22 370.995 426.43 378.506 433.447 383.751C436.956 386.373 439.666 388.428 441.486 389.846C443.306 391.263 444.236 392.042 444.184 392.112C444.132 392.182 443.101 391.538 441.187 390.247C439.274 388.955 436.477 387.016 432.894 384.493C425.728 379.448 415.417 372.072 402.72 362.9C377.321 344.559 342.393 319.02 303.866 290.757Z" fill="#EBEBEB"/>
<path d="M296.717 298.834C263.073 265.015 232.628 234.41 210.559 212.226C199.496 201.213 190.539 192.297 184.32 186.106C181.216 183.061 178.801 180.692 177.133 179.056C176.319 178.275 175.692 177.674 175.242 177.244C174.812 176.84 174.584 176.64 174.571 176.653C174.557 176.666 174.759 176.892 175.164 177.321C175.596 177.769 176.2 178.393 176.983 179.203C178.625 180.864 181.003 183.27 184.059 186.361C190.274 192.556 199.224 201.478 210.28 212.498C232.552 234.483 263.278 264.814 297.232 298.331C331.195 331.805 361.901 362.166 383.997 384.276C395.048 395.329 403.949 404.315 410.053 410.572C413.105 413.7 415.459 416.146 417.033 417.825C418.608 419.504 419.403 420.416 419.341 420.477C419.279 420.538 418.362 419.744 416.675 418.174C414.989 416.604 412.532 414.259 409.391 411.218C403.108 405.135 394.086 396.267 382.99 385.259C360.794 363.248 330.317 332.662 296.717 298.834Z" fill="#EBEBEB"/>
<path d="M288.383 305.717C260.483 267.148 235.235 232.246 216.935 206.947C207.743 194.371 200.302 184.19 195.135 177.121C192.549 173.637 190.537 170.927 189.147 169.055C188.466 168.159 187.941 167.469 187.565 166.975C187.204 166.51 187.011 166.277 186.995 166.288C186.98 166.299 187.142 166.553 187.475 167.039C187.831 167.547 188.328 168.256 188.974 169.178C190.334 171.071 192.304 173.812 194.835 177.334C199.997 184.407 207.431 194.593 216.614 207.175C235.147 232.309 260.716 266.983 288.97 305.3C317.24 343.576 342.785 378.277 361.125 403.507C370.297 416.12 377.673 426.363 382.716 433.48C385.238 437.039 387.177 439.815 388.467 441.716C389.757 443.616 390.399 444.639 390.328 444.69C390.257 444.741 389.477 443.816 388.058 442.007C386.64 440.198 384.583 437.505 381.959 434.018C376.712 427.046 369.198 416.902 359.973 404.326C341.519 379.176 316.238 344.287 288.383 305.717Z" fill="#EBEBEB"/>
<path d="M279.062 311.233C257.621 268.836 238.219 230.47 224.155 202.66C217.07 188.821 211.334 177.619 207.351 169.839C205.349 166 203.791 163.012 202.715 160.949C202.184 159.959 201.775 159.197 201.482 158.651C201.198 158.136 201.044 157.877 201.027 157.885C201.01 157.894 201.13 158.17 201.382 158.701C201.653 159.258 202.032 160.035 202.523 161.045C203.566 163.124 205.077 166.135 207.018 170.005C210.995 177.787 216.722 188.994 223.797 202.838C238.118 230.52 257.876 268.71 279.709 310.911C301.564 353.074 321.295 391.287 335.409 419.035C342.469 432.908 348.13 444.161 351.982 451.969C353.908 455.873 355.383 458.914 356.356 460.99C357.329 463.066 357.801 464.176 357.722 464.215C357.643 464.254 357.019 463.221 355.904 461.215C354.789 459.21 353.185 456.233 351.146 452.385C347.068 444.69 341.255 433.512 334.137 419.668C319.895 391.984 300.458 353.625 279.062 311.233Z" fill="#EBEBEB"/>
<path d="M268.978 315.24C254.569 270.044 241.53 229.145 232.079 199.499C227.289 184.734 223.412 172.78 220.72 164.48C219.355 160.378 218.293 157.186 217.559 154.982C217.192 153.922 216.91 153.106 216.707 152.521C216.509 151.969 216.399 151.688 216.38 151.694C216.362 151.7 216.436 151.991 216.6 152.555C216.779 153.147 217.029 153.974 217.353 155.047C218.051 157.262 219.062 160.47 220.361 164.593C223.047 172.895 226.915 184.851 231.692 199.62C241.419 229.179 254.839 269.959 269.668 315.022C284.526 360.051 297.915 400.848 307.426 430.441C312.185 445.236 315.979 457.228 318.537 465.536C319.816 469.69 320.787 472.923 321.416 475.124C322.046 477.325 322.334 478.495 322.249 478.521C322.165 478.547 321.713 477.43 320.931 475.277C320.15 473.124 319.04 469.935 317.64 465.819C314.84 457.587 310.883 445.646 306.062 430.871C296.418 401.321 283.343 360.424 268.978 315.24Z" fill="#EBEBEB"/>
<path d="M258.377 317.631C251.358 270.763 245.006 228.35 240.401 197.606C238.027 182.281 236.106 169.875 234.772 161.261C234.079 156.998 233.539 153.681 233.167 151.391C232.974 150.287 232.826 149.438 232.719 148.829C232.612 148.253 232.547 147.959 232.529 147.962C232.511 147.965 232.538 148.264 232.61 148.846C232.692 149.459 232.807 150.313 232.956 151.423C233.292 153.719 233.779 157.044 234.405 161.317C235.733 169.933 237.645 182.34 240.007 197.666C244.896 228.366 251.642 270.721 259.095 317.523C266.582 364.297 273.294 406.664 277.965 437.363C280.304 452.712 282.138 465.144 283.339 473.745C283.94 478.046 284.382 481.389 284.653 483.66C284.924 485.931 285.022 487.131 284.935 487.144C284.848 487.157 284.58 485.983 284.152 483.736C283.724 481.488 283.138 478.167 282.413 473.885C280.962 465.321 278.959 452.915 276.556 437.575C271.743 406.897 265.356 364.481 258.377 317.631Z" fill="#EBEBEB"/>
<path d="M247.525 318.358C247.957 270.983 248.349 228.112 248.633 197.036C248.699 181.534 248.753 168.984 248.79 160.27C248.777 155.953 248.767 152.593 248.76 150.274C248.744 149.154 248.731 148.292 248.722 147.674C248.707 147.088 248.691 146.788 248.673 146.788C248.655 146.788 248.635 147.088 248.615 147.673C248.6 148.291 248.58 149.153 248.554 150.272C248.526 152.591 248.485 155.951 248.433 160.268C248.391 168.983 248.329 181.532 248.254 197.034C248.253 228.111 248.252 270.984 248.251 318.36C248.286 365.713 248.249 408.594 248.036 439.636C247.932 455.157 247.791 467.719 247.626 476.4C247.544 480.741 247.457 484.111 247.368 486.396C247.279 488.681 247.19 489.881 247.103 489.881C247.016 489.881 246.937 488.68 246.87 486.394C246.802 484.108 246.746 480.737 246.704 476.396C246.619 467.714 246.592 455.151 246.631 439.63C246.702 408.589 247.057 365.709 247.525 318.358Z" fill="#EBEBEB"/>
<path d="M236.685 317.421C244.581 270.689 251.726 228.399 256.905 197.744C259.412 182.44 261.441 170.051 262.85 161.448C263.516 157.181 264.034 153.86 264.392 151.568C264.552 150.459 264.674 149.606 264.763 148.994C264.84 148.413 264.87 148.114 264.852 148.111C264.833 148.108 264.766 148.401 264.653 148.976C264.541 149.584 264.384 150.432 264.181 151.534C263.787 153.821 263.216 157.133 262.483 161.389C261.068 169.991 259.029 182.379 256.51 197.681C251.615 228.38 244.863 270.733 237.401 317.535C229.98 364.319 223.192 406.674 218.09 437.307C215.542 452.624 213.422 465.011 211.89 473.561C211.124 477.836 210.506 481.152 210.057 483.396C209.608 485.64 209.329 486.811 209.242 486.797C209.155 486.783 209.265 485.585 209.557 483.316C209.849 481.047 210.324 477.708 210.965 473.413C212.248 464.823 214.199 452.409 216.683 437.082C221.644 406.428 228.756 364.124 236.685 317.421Z" fill="#EBEBEB"/>
<path d="M226.126 314.82C241.388 269.898 255.2 229.246 265.21 199.779C270.129 185.056 274.111 173.136 276.877 164.859C278.216 160.749 279.257 157.55 279.976 155.341C280.31 154.271 280.568 153.447 280.752 152.856C280.921 152.294 280.998 152.004 280.98 151.998C280.962 151.992 280.848 152.271 280.645 152.822C280.437 153.405 280.146 154.219 279.77 155.275C279.015 157.473 277.922 160.654 276.518 164.743C273.746 173.018 269.754 184.935 264.824 199.654C255.089 229.211 241.66 269.987 226.82 315.047C212.023 360.095 198.558 400.869 188.628 430.327C183.666 445.057 179.593 456.96 176.713 465.165C175.274 469.268 174.133 472.446 173.331 474.592C172.529 476.738 172.065 477.851 171.98 477.823C171.896 477.796 172.195 476.629 172.844 474.434C173.494 472.239 174.495 469.015 175.814 464.873C178.451 456.589 182.36 444.633 187.26 429.883C197.056 400.378 210.836 359.708 226.126 314.82Z" fill="#EBEBEB"/>
<path d="M216.126 310.616C238.362 268.62 258.485 230.615 273.071 203.068C280.279 189.291 286.114 178.138 290.165 170.393C292.144 166.541 293.683 163.544 294.746 161.476C295.248 160.471 295.634 159.697 295.91 159.143C296.167 158.615 296.29 158.34 296.273 158.331C296.256 158.323 296.1 158.581 295.812 159.093C295.514 159.636 295.098 160.395 294.557 161.38C293.462 163.432 291.875 166.405 289.836 170.226C285.779 177.967 279.935 189.116 272.717 202.888C258.386 230.564 238.614 268.748 216.765 310.941C194.96 353.13 175.155 391.304 160.649 418.855C153.398 432.632 147.479 443.755 143.328 451.412C141.253 455.241 139.62 458.203 138.487 460.198C137.354 462.193 136.719 463.221 136.642 463.181C136.564 463.141 137.047 462.036 138.04 459.97C139.034 457.904 140.538 454.876 142.502 450.991C146.43 443.22 152.199 432.02 159.392 418.215C173.772 390.601 193.868 352.574 216.126 310.616Z" fill="#EBEBEB"/>
<path d="M206.915 304.915C235.535 266.863 261.435 232.428 280.208 207.469C289.511 194.973 297.042 184.856 302.272 177.832C304.837 174.333 306.833 171.611 308.211 169.731C308.865 168.816 309.369 168.111 309.731 167.606C310.068 167.124 310.233 166.871 310.218 166.86C310.203 166.849 310.008 167.08 309.642 167.541C309.261 168.032 308.73 168.717 308.041 169.606C306.633 171.465 304.596 174.157 301.976 177.616C296.741 184.637 289.203 194.748 279.891 207.238C261.349 232.365 235.768 267.031 207.5 305.339C179.277 343.648 153.663 378.3 134.968 403.276C125.623 415.765 118.012 425.839 112.698 432.762C110.041 436.223 107.959 438.898 106.523 440.693C105.087 442.489 104.297 443.406 104.227 443.355C104.156 443.304 104.808 442.287 106.117 440.398C107.425 438.51 109.391 435.751 111.946 432.217C117.057 425.147 124.531 414.974 133.823 402.446C152.404 377.388 178.28 342.926 206.915 304.915Z" fill="#EBEBEB"/>
<path d="M198.72 297.87C232.993 264.671 264.008 234.627 286.489 212.85C297.65 201.933 306.685 193.095 312.959 186.958C316.045 183.895 318.446 181.512 320.104 179.866C320.895 179.063 321.504 178.444 321.94 178.001C322.349 177.576 322.553 177.352 322.539 177.339C322.526 177.326 322.297 177.524 321.862 177.924C321.408 178.351 320.776 178.946 319.954 179.719C318.271 181.339 315.833 183.686 312.7 186.702C306.422 192.835 297.381 201.667 286.212 212.576C263.932 234.553 233.195 264.874 199.229 298.378C165.306 331.892 134.539 362.192 112.132 383.996C100.931 394.9 91.8237 403.684 85.4827 409.708C82.3127 412.72 79.8337 415.042 78.1327 416.596C76.4317 418.15 75.5067 418.935 75.4447 418.874C75.3827 418.813 76.1877 417.908 77.7777 416.244C79.3677 414.58 81.7447 412.156 84.8267 409.056C90.9907 402.856 99.9777 393.953 111.133 383.004C133.443 361.1 164.438 331.026 198.72 297.87Z" fill="#EBEBEB"/>
<path d="M191.735 289.655C230.827 262.117 266.204 237.197 291.846 219.134C304.593 210.062 314.912 202.717 322.077 197.617C325.608 195.065 328.355 193.079 330.253 191.707C331.161 191.035 331.86 190.517 332.361 190.146C332.832 189.789 333.068 189.599 333.057 189.584C333.046 189.569 332.789 189.73 332.297 190.058C331.781 190.41 331.063 190.901 330.129 191.538C328.21 192.88 325.432 194.824 321.862 197.323C314.693 202.418 304.369 209.756 291.616 218.819C266.141 237.112 230.996 262.349 192.16 290.236C153.365 318.139 118.193 343.352 92.62 361.454C79.835 370.507 69.454 377.788 62.24 382.765C58.633 385.254 55.818 387.168 53.892 388.441C51.966 389.715 50.929 390.349 50.877 390.278C50.826 390.208 51.763 389.438 53.597 388.037C55.43 386.637 58.16 384.607 61.694 382.018C68.761 376.839 79.042 369.423 91.789 360.317C117.279 342.102 152.641 317.149 191.735 289.655Z" fill="#EBEBEB"/>
<path d="M186.135 280.467C229.113 259.296 268.005 240.138 296.197 226.251C310.225 219.255 321.582 213.592 329.468 209.659C333.36 207.682 336.389 206.144 338.479 205.082C339.483 204.557 340.255 204.154 340.809 203.864C341.331 203.584 341.594 203.432 341.585 203.415C341.576 203.398 341.296 203.517 340.758 203.765C340.194 204.033 339.405 204.407 338.382 204.892C336.275 205.922 333.222 207.413 329.299 209.33C321.41 213.257 310.05 218.912 296.017 225.898C267.956 240.038 229.242 259.547 186.462 281.105C143.721 302.685 104.985 322.166 76.8568 336.102C62.7938 343.073 51.3858 348.662 43.4708 352.466C39.5138 354.368 36.4298 355.824 34.3258 356.785C32.2218 357.746 31.0968 358.211 31.0568 358.134C31.0168 358.056 32.0648 357.44 34.0978 356.339C36.1308 355.238 39.1488 353.654 43.0488 351.641C50.8488 347.615 62.1798 341.875 76.2138 334.847C104.278 320.786 143.162 301.593 186.135 280.467Z" fill="#EBEBEB"/>
<path d="M182.067 270.524C227.887 256.286 269.352 243.401 299.408 234.062C314.377 229.329 326.496 225.498 334.911 222.838C339.07 221.489 342.306 220.44 344.54 219.715C345.614 219.353 346.442 219.074 347.035 218.874C347.595 218.678 347.879 218.569 347.873 218.551C347.867 218.533 347.572 218.607 347 218.768C346.4 218.945 345.562 219.192 344.474 219.512C342.228 220.202 338.976 221.201 334.796 222.485C326.379 225.139 314.257 228.961 299.284 233.682C269.316 243.293 227.973 256.553 182.287 271.205C136.636 285.886 95.2748 299.115 65.2738 308.514C50.2738 313.216 38.1168 316.966 29.6928 319.494C25.4808 320.758 22.2038 321.717 19.9728 322.339C17.7408 322.961 16.5558 323.246 16.5288 323.163C16.5018 323.08 17.6348 322.633 19.8178 321.861C22.0008 321.089 25.2338 319.993 29.4068 318.61C37.7528 315.844 49.8578 311.933 64.8378 307.17C94.7958 297.639 136.258 284.72 182.067 270.524Z" fill="#EBEBEB"/>
<path d="M179.635 260.072C227.156 253.12 270.161 246.829 301.332 242.27C316.87 239.92 329.449 238.017 338.183 236.696C342.506 236.01 345.869 235.476 348.191 235.107C349.31 234.916 350.171 234.769 350.789 234.664C351.373 234.558 351.671 234.494 351.668 234.476C351.665 234.458 351.362 234.485 350.772 234.556C350.151 234.638 349.284 234.751 348.158 234.899C345.83 235.232 342.459 235.714 338.127 236.334C329.391 237.649 316.811 239.543 301.271 241.882C270.143 246.723 227.199 253.401 179.745 260.781C132.32 268.194 89.3628 274.839 58.2358 279.465C42.6728 281.781 30.0678 283.598 21.3468 284.788C16.9858 285.383 13.5968 285.822 11.2938 286.09C8.99085 286.358 7.77485 286.456 7.76085 286.37C7.74785 286.284 8.93785 286.019 11.2168 285.596C13.4958 285.173 16.8628 284.592 21.2048 283.874C29.8878 282.438 42.4668 280.454 58.0198 278.075C89.1248 273.309 132.132 266.983 179.635 260.072Z" fill="#EBEBEB"/>
<path d="M178.891 249.372C226.931 249.769 270.404 250.128 301.915 250.389C317.635 250.445 330.361 250.49 339.198 250.521C343.576 250.506 346.982 250.493 349.334 250.485C350.469 250.468 351.344 250.455 351.97 250.446C352.564 250.431 352.868 250.415 352.868 250.397C352.868 250.379 352.564 250.36 351.97 250.341C351.344 250.327 350.469 250.307 349.334 250.282C346.982 250.256 343.575 250.218 339.198 250.168C330.361 250.132 317.635 250.079 301.915 250.014C270.403 250.033 226.928 250.058 178.887 250.087C130.87 250.151 87.387 250.141 55.909 249.95C40.17 249.858 27.432 249.726 18.629 249.569C14.227 249.491 10.81 249.407 8.49298 249.321C6.17598 249.235 4.95898 249.147 4.95898 249.062C4.95898 248.977 6.17698 248.898 8.49398 248.83C10.812 248.762 14.23 248.704 18.632 248.66C27.436 248.571 40.175 248.537 55.914 248.565C87.395 248.615 130.876 248.94 178.891 249.372Z" fill="#EBEBEB"/>
<path d="M179.834 238.68C227.227 246.437 270.115 253.456 301.202 258.544C316.722 261.006 329.286 263 338.011 264.384C342.339 265.038 345.706 265.547 348.031 265.899C349.155 266.056 350.021 266.176 350.642 266.263C351.231 266.339 351.535 266.368 351.537 266.35C351.54 266.332 351.243 266.265 350.66 266.155C350.043 266.045 349.183 265.891 348.065 265.691C345.746 265.304 342.387 264.743 338.071 264.023C329.347 262.632 316.785 260.63 301.266 258.156C270.133 253.349 227.181 246.717 179.718 239.388C132.273 232.1 89.3186 225.432 58.2536 220.421C42.7196 217.918 30.1576 215.835 21.4866 214.33C17.1506 213.578 13.7886 212.97 11.5126 212.529C9.23661 212.088 8.04961 211.813 8.06261 211.727C8.07661 211.641 9.29261 211.749 11.5926 212.035C13.8936 212.321 17.2796 212.787 21.6346 213.417C30.3456 214.676 42.9356 216.593 58.4796 219.032C89.5696 223.904 132.471 230.891 179.834 238.68Z" fill="#EBEBEB"/>
<path d="M182.465 228.266C228.027 243.288 269.258 256.882 299.145 266.736C314.078 271.578 326.167 275.497 334.563 278.219C338.732 279.536 341.976 280.561 344.216 281.269C345.301 281.598 346.137 281.851 346.736 282.033C347.306 282.199 347.601 282.275 347.607 282.257C347.613 282.239 347.33 282.127 346.772 281.927C346.18 281.722 345.355 281.436 344.284 281.065C342.055 280.322 338.828 279.246 334.681 277.864C326.288 275.136 314.202 271.207 299.273 266.354C269.295 256.773 227.938 243.555 182.237 228.95C136.547 214.387 95.1931 201.134 65.3161 191.36C50.3761 186.476 38.3041 182.467 29.9821 179.633C25.8211 178.216 22.5971 177.093 20.4211 176.303C18.2451 175.513 17.1151 175.057 17.1431 174.973C17.1711 174.89 18.3541 175.184 20.5811 175.823C22.8071 176.462 26.0771 177.448 30.2781 178.745C38.6801 181.34 50.8061 185.187 65.7671 190.01C95.6881 199.652 136.938 213.216 182.465 228.266Z" fill="#EBEBEB"/>
<path d="M186.722 218.402C229.322 240.304 267.872 260.124 295.814 274.491C309.789 281.59 321.102 287.337 328.958 291.328C332.865 293.277 335.905 294.793 338.003 295.84C339.023 296.334 339.807 296.714 340.369 296.987C340.905 297.24 341.184 297.361 341.193 297.344C341.202 297.328 340.94 297.174 340.42 296.889C339.869 296.596 339.1 296.185 338.101 295.653C336.019 294.574 333.003 293.012 329.128 291.003C321.275 287.007 309.966 281.251 295.997 274.142C267.923 260.026 229.192 240.552 186.392 219.033C143.597 197.557 104.875 178.049 76.929 163.761C62.955 156.62 51.671 150.789 43.904 146.7C40.021 144.656 37.016 143.048 34.992 141.931C32.968 140.814 31.925 140.19 31.965 140.113C32.005 140.036 33.126 140.512 35.222 141.49C37.318 142.468 40.389 143.949 44.33 145.884C52.212 149.752 63.573 155.435 77.577 162.52C105.588 176.684 144.161 196.478 186.722 218.402Z" fill="#EBEBEB"/>
<path d="M192.497 209.314C231.101 237.514 266.035 263.034 291.357 281.531C304.035 290.697 314.297 298.118 321.424 303.271C324.974 305.798 327.736 307.764 329.642 309.122C330.571 309.767 331.286 310.264 331.798 310.619C332.287 310.952 332.543 311.114 332.555 311.099C332.566 311.084 332.332 310.892 331.864 310.531C331.366 310.156 330.671 309.632 329.768 308.953C327.882 307.566 325.152 305.558 321.642 302.977C314.519 297.819 304.261 290.392 291.59 281.217C266.098 262.947 230.93 237.742 192.068 209.89C153.203 182.081 118.049 156.844 92.7119 138.423C80.0409 129.215 69.8209 121.716 62.7979 116.48C59.2859 113.862 56.5729 111.81 54.7509 110.396C52.9289 108.981 51.9979 108.203 52.0499 108.133C52.1019 108.063 53.1339 108.705 55.0489 109.994C56.9639 111.283 59.7629 113.22 63.3489 115.738C70.5209 120.774 80.8419 128.138 93.5509 137.294C118.974 155.603 153.935 181.099 192.497 209.314Z" fill="#EBEBEB"/>
<path d="M199.636 201.228C233.322 235.006 263.807 265.573 285.903 287.729C296.98 298.728 305.948 307.633 312.175 313.816C315.283 316.857 317.701 319.223 319.371 320.857C320.186 321.637 320.814 322.237 321.264 322.667C321.695 323.071 321.923 323.27 321.936 323.257C321.949 323.244 321.748 323.018 321.342 322.59C320.909 322.143 320.305 321.519 319.521 320.71C317.877 319.051 315.496 316.648 312.436 313.561C306.213 307.374 297.252 298.463 286.182 287.456C263.882 265.498 233.117 235.205 199.122 201.731C165.117 168.299 134.371 137.976 112.247 115.893C101.182 104.854 92.2699 95.8792 86.1569 89.6302C83.1009 86.5052 80.7439 84.0632 79.1679 82.3862C77.5919 80.7092 76.7949 79.7982 76.8569 79.7372C76.9189 79.6762 77.8369 80.4692 79.5249 82.0362C81.2129 83.6032 83.6729 85.9462 86.8179 88.9832C93.1089 95.0582 102.142 103.915 113.253 114.909C135.478 136.893 165.993 167.441 199.636 201.228Z" fill="#EBEBEB"/>
<path d="M207.962 194.335C235.911 232.869 261.203 267.74 279.536 293.017C288.744 305.582 296.198 315.753 301.374 322.816C303.965 326.296 305.98 329.005 307.372 330.875C308.055 331.77 308.58 332.459 308.957 332.953C309.319 333.417 309.512 333.65 309.527 333.639C309.542 333.628 309.379 333.374 309.046 332.889C308.689 332.381 308.191 331.672 307.544 330.752C306.182 328.861 304.209 326.122 301.673 322.603C296.502 315.536 289.055 305.36 279.856 292.789C261.291 267.678 235.678 233.035 207.374 194.754C179.055 156.513 153.466 121.844 135.094 96.636C125.905 84.034 118.517 73.801 113.465 66.69C110.939 63.135 108.997 60.36 107.704 58.462C106.411 56.564 105.768 55.541 105.839 55.491C105.91 55.44 106.692 56.364 108.113 58.171C109.534 59.978 111.594 62.669 114.222 66.152C119.478 73.117 127.005 83.252 136.246 95.817C154.732 120.941 180.057 155.799 207.962 194.335Z" fill="#EBEBEB"/>
<path d="M217.275 188.806C238.77 231.176 258.222 269.518 272.321 297.311C279.424 311.141 285.174 322.336 289.167 330.111C291.174 333.948 292.736 336.934 293.814 338.995C294.347 339.984 294.756 340.746 295.05 341.292C295.334 341.806 295.488 342.066 295.505 342.057C295.522 342.049 295.401 341.773 295.149 341.242C294.877 340.685 294.497 339.908 294.005 338.9C292.959 336.822 291.445 333.813 289.499 329.946C285.512 322.169 279.77 310.969 272.677 297.134C258.32 269.47 238.513 231.305 216.626 189.131C194.717 146.995 174.937 108.807 160.787 81.0771C153.71 67.2131 148.034 55.9661 144.172 48.1641C142.241 44.2631 140.762 41.2231 139.787 39.1481C138.812 37.0731 138.338 35.9641 138.417 35.9251C138.495 35.8861 139.122 36.9181 140.239 38.9221C141.356 40.9261 142.965 43.9011 145.008 47.7461C149.096 55.4361 154.923 66.6071 162.059 80.4411C176.338 108.107 195.825 146.441 217.275 188.806Z" fill="#EBEBEB"/>
<path d="M227.354 184.787C241.821 229.965 254.913 270.848 264.403 300.482C269.211 315.241 273.104 327.189 275.807 335.487C277.177 339.587 278.244 342.778 278.98 344.981C279.348 346.04 279.632 346.856 279.835 347.441C280.034 347.993 280.145 348.273 280.163 348.267C280.181 348.261 280.106 347.97 279.942 347.407C279.762 346.815 279.511 345.989 279.186 344.916C278.485 342.702 277.47 339.495 276.165 335.374C273.469 327.075 269.585 315.124 264.788 300.361C255.023 270.814 241.551 230.051 226.663 185.007C211.747 139.997 198.305 99.2162 188.756 69.6362C183.978 54.8472 180.168 42.8592 177.599 34.5552C176.314 30.4032 175.34 27.1712 174.708 24.9712C174.076 22.7712 173.786 21.6022 173.87 21.5752C173.954 21.5482 174.408 22.6652 175.192 24.8172C175.976 26.9692 177.089 30.1572 178.495 34.2712C181.305 42.4992 185.279 54.4352 190.118 69.2052C199.803 98.7412 212.931 139.621 227.354 184.787Z" fill="#EBEBEB"/>
<path d="M237.952 182.383C245.031 229.242 251.438 271.648 256.081 302.385C258.474 317.707 260.412 330.11 261.757 338.723C262.456 342.985 262.999 346.301 263.374 348.591C263.568 349.694 263.718 350.544 263.825 351.153C263.933 351.729 263.998 352.023 264.016 352.02C264.035 352.017 264.007 351.718 263.935 351.136C263.852 350.524 263.736 349.669 263.585 348.559C263.246 346.263 262.755 342.939 262.123 338.667C260.784 330.053 258.856 317.648 256.474 302.325C251.546 271.631 244.746 229.285 237.233 182.491C229.686 135.727 222.92 93.3682 218.209 62.6752C215.851 47.3292 214 34.9002 212.788 26.3002C212.182 22.0002 211.735 18.6582 211.461 16.3872C211.187 14.1162 211.087 12.9172 211.174 12.9042C211.261 12.8912 211.531 14.0642 211.961 16.3122C212.391 18.5592 212.982 21.8802 213.713 26.1612C215.175 34.7232 217.194 47.1272 219.617 62.4632C224.471 93.1342 230.913 135.542 237.952 182.383Z" fill="#EBEBEB"/>
<path d="M248.801 181.642C248.429 229.017 248.092 271.889 247.848 302.965C247.801 318.467 247.764 331.017 247.737 339.732C247.756 344.049 247.77 347.409 247.78 349.728C247.798 350.848 247.811 351.71 247.821 352.328C247.836 352.914 247.854 353.214 247.872 353.214C247.89 353.214 247.909 352.914 247.929 352.329C247.943 351.711 247.962 350.849 247.987 349.73C248.012 347.411 248.049 344.051 248.096 339.734C248.127 331.019 248.172 318.47 248.228 302.968C248.189 271.892 248.135 229.018 248.076 181.642C247.981 134.289 247.964 91.4081 248.137 60.3651C248.221 44.8431 248.347 32.2821 248.5 23.6011C248.577 19.2601 248.659 15.8901 248.745 13.6051C248.831 11.3201 248.919 10.1201 249.006 10.1201C249.092 10.1201 249.173 11.3211 249.243 13.6071C249.314 15.8931 249.374 19.2641 249.422 23.6051C249.518 32.2871 249.561 44.8491 249.542 60.3711C249.51 91.4111 249.209 134.291 248.801 181.642Z" fill="#EBEBEB"/>
<path d="M259.643 182.566C251.808 229.308 244.718 271.608 239.579 302.268C237.092 317.575 235.079 329.967 233.681 338.572C233.02 342.84 232.507 346.161 232.152 348.454C231.994 349.563 231.872 350.417 231.785 351.029C231.709 351.61 231.679 351.909 231.698 351.912C231.717 351.915 231.784 351.622 231.896 351.046C232.007 350.438 232.163 349.589 232.365 348.487C232.756 346.2 233.322 342.887 234.05 338.63C235.454 330.026 237.477 317.636 239.975 302.33C244.829 271.624 251.527 229.263 258.928 182.452C266.288 135.659 273.021 93.2952 278.083 62.6562C280.611 47.3362 282.715 34.9462 284.236 26.3942C284.996 22.1182 285.61 18.8012 286.056 16.5572C286.502 14.3132 286.78 13.1412 286.867 13.1552C286.954 13.1692 286.846 14.3672 286.557 16.6362C286.268 18.9052 285.798 22.2442 285.162 26.5402C283.891 35.1322 281.955 47.5482 279.491 62.8782C274.568 93.5402 267.511 135.853 259.643 182.566Z" fill="#EBEBEB"/>
<path d="M270.205 185.153C255.002 230.094 241.244 270.764 231.271 300.244C226.371 314.974 222.405 326.898 219.65 335.179C218.317 339.291 217.279 342.491 216.563 344.701C216.23 345.771 215.974 346.595 215.79 347.187C215.622 347.749 215.545 348.04 215.564 348.046C215.582 348.052 215.696 347.773 215.898 347.222C216.105 346.638 216.394 345.825 216.77 344.768C217.522 342.569 218.611 339.386 220.01 335.296C222.771 327.017 226.747 315.096 231.659 300.37C241.355 270.801 254.731 230.007 269.512 184.929C284.249 139.862 297.661 99.0712 307.553 69.6012C312.496 54.8652 316.553 42.9562 319.422 34.7482C320.856 30.6432 321.993 27.4642 322.792 25.3172C323.592 23.1702 324.054 22.0572 324.138 22.0842C324.223 22.1112 323.925 23.2782 323.278 25.4742C322.631 27.6702 321.634 30.8952 320.321 35.0392C317.695 43.3272 313.802 55.2882 308.921 70.0442C299.164 99.5582 285.437 140.246 270.205 185.153Z" fill="#EBEBEB"/>
<path d="M280.211 189.345C258.029 231.369 237.956 269.399 223.406 296.964C216.216 310.75 210.395 321.911 206.354 329.66C204.38 333.514 202.845 336.513 201.785 338.583C201.285 339.589 200.9 340.363 200.624 340.917C200.368 341.446 200.245 341.721 200.262 341.729C200.279 341.738 200.435 341.479 200.722 340.967C201.02 340.423 201.435 339.664 201.974 338.679C203.066 336.625 204.649 333.65 206.683 329.827C210.73 322.08 216.559 310.924 223.759 297.143C238.054 269.448 257.777 231.24 279.57 189.019C301.32 146.802 321.076 108.603 335.546 81.0341C342.779 67.2481 348.684 56.1171 352.825 48.4551C354.895 44.6241 356.524 41.6591 357.655 39.6631C358.786 37.6671 359.419 36.6381 359.497 36.6771C359.575 36.7171 359.093 37.8221 358.103 39.8901C357.112 41.9581 355.612 44.9871 353.653 48.8751C349.735 56.6511 343.981 67.8581 336.805 81.6731C322.461 109.307 302.414 147.359 280.211 189.345Z" fill="#EBEBEB"/>
<path d="M289.429 195.034C260.858 233.122 235.003 267.589 216.262 292.572C206.975 305.08 199.457 315.206 194.237 322.237C191.677 325.739 189.684 328.464 188.309 330.346C187.655 331.262 187.152 331.967 186.792 332.473C186.455 332.956 186.291 333.209 186.306 333.22C186.321 333.231 186.516 333 186.881 332.538C187.261 332.047 187.792 331.361 188.48 330.471C189.885 328.611 191.92 325.916 194.534 322.453C199.76 315.425 207.285 305.305 216.581 292.803C235.091 267.652 260.627 232.954 288.845 194.612C317.019 156.267 342.588 121.583 361.251 96.5841C370.58 84.0831 378.178 73.9991 383.482 67.0701C386.135 63.6051 388.213 60.9281 389.647 59.1311C391.081 57.3331 391.869 56.4151 391.94 56.4661C392.01 56.5171 391.36 57.5351 390.054 59.4251C388.748 61.3141 386.786 64.0761 384.235 67.6141C379.133 74.6901 371.673 84.8731 362.396 97.4121C343.847 122.494 318.016 156.988 289.429 195.034Z" fill="#EBEBEB"/>
<path d="M297.634 202.07C263.404 235.312 232.428 265.394 209.975 287.199C198.828 298.13 189.805 306.979 183.538 313.124C180.456 316.191 178.058 318.577 176.403 320.225C175.613 321.029 175.004 321.649 174.569 322.093C174.16 322.518 173.957 322.743 173.97 322.756C173.983 322.769 174.212 322.571 174.646 322.17C175.099 321.743 175.731 321.147 176.552 320.373C178.233 318.751 180.668 316.401 183.797 313.381C190.067 307.24 199.097 298.397 210.251 287.473C232.502 265.468 263.2 235.109 297.123 201.562C331.003 168.006 361.731 137.667 384.109 115.835C395.296 104.917 404.392 96.1212 410.725 90.0902C413.892 87.0742 416.367 84.7492 418.067 83.1932C419.766 81.6372 420.69 80.8512 420.751 80.9122C420.813 80.9732 420.009 81.8792 418.421 83.5452C416.833 85.2112 414.459 87.6382 411.381 90.7412C405.225 96.9482 396.249 105.863 385.108 116.826C362.83 138.758 331.873 168.87 297.634 202.07Z" fill="#EBEBEB"/>
<path d="M304.629 210.276C265.572 237.863 230.228 262.828 204.609 280.923C191.874 290.011 181.565 297.369 174.405 302.478C170.877 305.035 168.132 307.024 166.237 308.398C165.329 309.072 164.631 309.59 164.13 309.962C163.66 310.319 163.424 310.51 163.435 310.525C163.446 310.54 163.703 310.379 164.195 310.05C164.71 309.698 165.428 309.206 166.361 308.567C168.278 307.222 171.053 305.275 174.621 302.772C181.784 297.668 192.098 290.317 204.84 281.238C230.291 262.913 265.404 237.633 304.204 209.696C342.963 181.744 378.102 156.487 403.652 138.353C416.425 129.284 426.797 121.99 434.004 117.004C437.608 114.51 440.42 112.593 442.344 111.317C444.268 110.041 445.305 109.406 445.356 109.476C445.407 109.546 444.471 110.318 442.639 111.72C440.807 113.122 438.08 115.156 434.55 117.749C427.49 122.937 417.218 130.366 404.483 139.487C379.017 157.735 343.687 182.733 304.629 210.276Z" fill="#EBEBEB"/>
<path d="M310.241 219.457C267.291 240.682 228.423 259.889 200.25 273.812C186.231 280.826 174.882 286.503 167.001 290.446C163.112 292.428 160.085 293.97 157.996 295.035C156.993 295.561 156.221 295.965 155.668 296.255C155.146 296.536 154.883 296.688 154.892 296.704C154.901 296.721 155.18 296.602 155.718 296.353C156.282 296.084 157.07 295.71 158.093 295.223C160.199 294.191 163.25 292.695 167.17 290.773C175.054 286.836 186.407 281.167 200.431 274.163C228.474 259.987 267.162 240.43 309.914 218.818C352.627 197.184 391.337 177.654 419.447 163.682C433.501 156.693 444.902 151.089 452.811 147.276C456.766 145.369 459.847 143.909 461.951 142.946C464.054 141.983 465.179 141.516 465.218 141.593C465.258 141.671 464.211 142.289 462.18 143.392C460.149 144.495 457.133 146.083 453.235 148.101C445.44 152.137 434.116 157.891 420.092 164.937C392.045 179.034 353.186 198.276 310.241 219.457Z" fill="#EBEBEB"/>
<path d="M314.323 229.394C268.521 243.69 227.073 256.627 197.029 266.005C182.066 270.757 169.952 274.603 161.541 277.274C157.384 278.628 154.149 279.682 151.916 280.409C150.842 280.773 150.015 281.053 149.422 281.253C148.863 281.449 148.579 281.559 148.585 281.577C148.591 281.595 148.886 281.521 149.457 281.359C150.057 281.181 150.894 280.934 151.982 280.612C154.227 279.919 157.478 278.916 161.656 277.627C170.07 274.963 182.186 271.125 197.153 266.385C227.108 256.736 268.434 243.423 314.101 228.713C359.733 213.974 401.077 200.692 431.066 191.256C446.06 186.535 458.212 182.769 466.632 180.231C470.842 178.962 474.118 177.998 476.349 177.373C478.58 176.748 479.764 176.462 479.792 176.545C479.819 176.628 478.686 177.076 476.505 177.851C474.323 178.625 471.091 179.726 466.92 181.114C458.578 183.891 446.477 187.817 431.504 192.599C401.558 202.168 360.113 215.14 314.323 229.394Z" fill="#EBEBEB"/>
<path d="M316.768 239.843C269.256 246.855 226.26 253.2 195.094 257.799C179.559 260.169 166.983 262.088 158.25 263.42C153.929 264.112 150.566 264.65 148.244 265.022C147.125 265.214 146.264 265.362 145.647 265.469C145.063 265.576 144.765 265.64 144.768 265.658C144.771 265.677 145.074 265.649 145.664 265.577C146.285 265.495 147.152 265.38 148.277 265.231C150.604 264.895 153.975 264.408 158.307 263.783C167.041 262.457 179.619 260.547 195.155 258.189C226.277 253.309 269.212 246.576 316.657 239.137C364.072 231.664 407.021 224.965 438.142 220.299C453.702 217.963 466.304 216.131 475.024 214.93C479.384 214.329 482.773 213.886 485.076 213.615C487.379 213.344 488.594 213.244 488.608 213.33C488.622 213.416 487.432 213.683 485.153 214.108C482.875 214.534 479.508 215.119 475.167 215.842C466.486 217.289 453.909 219.288 438.359 221.687C407.26 226.492 364.261 232.872 316.768 239.843Z" fill="#EBEBEB"/>
<path d="M378.885 371.399C373.227 364.741 365.401 360.732 359.962 359.202C354.869 357.768 347.148 356.462 339.287 358.379C334.405 359.57 330.129 361.87 326.579 365.217C322.374 369.181 319.163 374.647 317.036 381.463C316.717 382.486 316.823 383.568 317.335 384.512C317.849 385.46 318.704 386.144 319.743 386.436L333.097 390.195C334.981 390.725 336.997 389.775 337.785 387.985C339.556 383.964 344.026 377.612 354.068 380.253C361.72 382.269 363.308 388.661 363.636 391.318C364.171 395.641 362.468 400.111 359.082 403.273C353.879 408.131 347.09 407.188 343.506 406.194C339.384 405.05 335.094 407.45 333.942 411.543L329.897 425.913C329.306 428.012 330.533 430.199 332.632 430.79L345.643 434.452C347.742 435.043 349.929 433.816 350.52 431.717L351.37 428.698C351.39 428.626 351.453 428.576 351.53 428.571C354.769 428.366 361.185 427.476 367.771 423.808C376.179 419.126 381.882 411.633 384.724 401.539C388.791 387.094 383.793 377.175 378.885 371.399Z" fill="#E0E0E0"/>
<path d="M338.767 436.421L337.629 436.101C332.188 434.569 326.514 437.75 324.983 443.192C323.452 448.634 326.632 454.307 332.074 455.838L333.212 456.158C338.653 457.69 344.327 454.509 345.858 449.067C347.389 443.625 344.209 437.953 338.767 436.421Z" fill="#E0E0E0"/>
<path d="M407.562 291.81C403.633 289.658 399.15 289.173 396.265 289.436C393.563 289.683 389.626 290.472 386.213 292.83C384.093 294.295 382.467 296.18 381.38 298.433C380.093 301.102 379.557 304.308 379.787 307.961C379.822 308.509 380.071 309.008 380.489 309.366C380.909 309.726 381.444 309.896 381.995 309.846L389.079 309.199C390.079 309.108 390.87 308.284 390.919 307.282C391.03 305.032 392.007 301.171 397.3 300.596C401.334 300.159 403.265 302.929 403.909 304.141C404.957 306.113 404.961 308.565 403.919 310.7C402.318 313.98 398.894 314.772 396.995 314.953C394.812 315.16 393.197 317.096 393.395 319.267L394.091 326.89C394.193 328.003 395.181 328.826 396.294 328.725L403.196 328.095C404.309 327.993 405.132 327.005 405.03 325.892L404.884 324.29C404.88 324.252 404.901 324.216 404.937 324.2C406.45 323.509 409.36 321.906 411.842 318.943C415.01 315.16 416.369 310.527 415.88 305.173C415.181 297.51 410.971 293.677 407.562 291.81Z" fill="#F5F5F5"/>
<path d="M400.265 330.298L399.661 330.353C396.775 330.617 394.641 333.179 394.904 336.066C395.168 338.953 397.73 341.086 400.617 340.823L401.221 340.768C404.107 340.504 406.241 337.942 405.978 335.055C405.714 332.168 403.151 330.034 400.265 330.298Z" fill="#F5F5F5"/>
<path d="M123.88 129.071C121.218 126.448 117.732 125.037 115.357 124.59C113.133 124.172 109.794 123.907 106.518 125.021C104.483 125.713 102.748 126.855 101.362 128.415C99.7199 130.263 98.5589 132.713 97.9109 135.697C97.8139 136.145 97.8999 136.602 98.1539 136.985C98.4089 137.37 98.7989 137.628 99.2529 137.714L105.085 138.81C105.908 138.965 106.731 138.484 106.999 137.691C107.601 135.911 109.266 133.036 113.644 133.781C116.98 134.351 117.898 137.014 118.139 138.133C118.53 139.955 117.974 141.923 116.651 143.398C114.618 145.665 111.69 145.52 110.125 145.231C108.326 144.9 106.589 146.084 106.253 147.872L105.073 154.147C104.901 155.063 105.506 155.949 106.422 156.121L112.104 157.189C113.02 157.361 113.906 156.756 114.078 155.84L114.326 154.522C114.332 154.49 114.357 154.467 114.389 154.462C115.761 154.252 118.461 153.63 121.128 151.819C124.533 149.506 126.68 146.099 127.508 141.691C128.694 135.382 126.19 131.346 123.88 129.071Z" fill="#F5F5F5"/>
<path d="M109.248 158.289L108.751 158.196C106.375 157.749 104.078 159.319 103.631 161.695C103.184 164.071 104.754 166.368 107.13 166.815L107.627 166.908C110.003 167.355 112.3 165.785 112.747 163.409C113.193 161.033 111.624 158.736 109.248 158.289Z" fill="#F5F5F5"/>
<path d="M397.009 131.075C393.088 128.908 388.608 128.405 385.722 128.657C383.019 128.893 379.079 129.666 375.657 132.011C373.531 133.467 371.898 135.346 370.802 137.595C369.504 140.259 368.955 143.462 369.171 147.117C369.203 147.665 369.451 148.165 369.867 148.525C370.286 148.887 370.82 149.059 371.371 149.011L378.457 148.392C379.457 148.305 380.251 147.484 380.305 146.482C380.425 144.232 381.417 140.376 386.712 139.821C390.748 139.4 392.668 142.178 393.307 143.393C394.347 145.369 394.341 147.822 393.291 149.952C391.677 153.226 388.25 154.004 386.35 154.177C384.166 154.376 382.543 156.305 382.733 158.477L383.399 166.102C383.496 167.216 384.481 168.042 385.595 167.945L392.499 167.342C393.613 167.245 394.439 166.26 394.342 165.146L394.202 163.544C394.199 163.506 394.22 163.47 394.256 163.454C395.772 162.769 398.688 161.178 401.182 158.225C404.365 154.455 405.742 149.827 405.274 144.471C404.606 136.806 400.41 132.955 397.009 131.075Z" fill="#EBEBEB"/>
<path d="M389.558 169.534L388.954 169.587C386.067 169.839 383.923 172.393 384.175 175.281C384.427 178.169 386.981 180.313 389.869 180.06L390.473 180.007C393.36 179.755 395.504 177.201 395.252 174.313C395 171.426 392.446 169.282 389.558 169.534Z" fill="#EBEBEB"/>
<path d="M183.956 361.509C179.049 359.198 173.596 358.942 170.13 359.473C166.883 359.97 162.184 361.214 158.233 364.316C155.779 366.242 153.953 368.64 152.806 371.443C151.447 374.763 151.035 378.677 151.583 383.075C151.665 383.735 152.003 384.32 152.535 384.722C153.069 385.126 153.728 385.293 154.39 385.191L162.903 383.887C164.104 383.703 164.999 382.649 164.986 381.435C164.955 378.708 165.851 373.97 172.205 372.885C177.048 372.06 179.586 375.265 180.454 376.683C181.866 378.989 182.051 381.952 180.949 384.609C179.256 388.691 175.176 389.901 172.895 390.259C170.272 390.671 168.463 393.128 168.862 395.738L170.265 404.898C170.47 406.236 171.725 407.157 173.063 406.953L181.357 405.683C182.695 405.478 183.616 404.223 183.412 402.885L183.117 400.96C183.11 400.914 183.133 400.869 183.175 400.847C184.953 399.9 188.351 397.749 191.132 393.985C194.682 389.18 195.982 383.481 194.997 377.046C193.584 367.837 188.213 363.514 183.956 361.509Z" fill="#EBEBEB"/>
<path d="M177.974 408.559L177.248 408.67C173.779 409.201 171.389 412.456 171.921 415.924C172.453 419.392 175.707 421.783 179.175 421.251L179.901 421.14C183.37 420.609 185.76 417.355 185.228 413.886C184.697 410.418 181.442 408.028 177.974 408.559Z" fill="#EBEBEB"/>
<path d="M109.308 188.164C102.408 184.93 94.7469 184.583 89.8769 185.338C85.3169 186.045 78.7169 187.804 73.1739 192.171C69.7309 194.884 67.1719 198.257 65.5669 202.198C63.6659 206.866 63.0979 212.366 63.8779 218.544C63.9949 219.471 64.4709 220.292 65.2189 220.855C65.9699 221.421 66.8959 221.654 67.8259 221.51L79.7829 219.657C81.4699 219.396 82.7249 217.912 82.7029 216.206C82.6519 212.374 83.8989 205.716 92.8229 204.175C99.6249 203.004 103.199 207.501 104.422 209.49C106.412 212.727 106.679 216.889 105.138 220.625C102.769 226.364 97.0409 228.074 93.8359 228.583C90.1509 229.168 87.6159 232.625 88.1839 236.291L90.1779 249.158C90.4689 251.037 92.2349 252.329 94.1139 252.038L105.764 250.233C107.643 249.942 108.935 248.176 108.644 246.297L108.225 243.594C108.215 243.529 108.247 243.467 108.306 243.435C110.802 242.1 115.57 239.07 119.468 233.775C124.444 227.015 126.256 219.005 124.856 209.967C122.851 197.03 115.294 190.97 109.308 188.164Z" fill="#EBEBEB"/>
<path d="M101.021 254.282L100.002 254.44C95.13 255.195 91.78 259.773 92.535 264.645C93.29 269.517 97.868 272.867 102.74 272.112L103.759 271.954C108.631 271.199 111.981 266.621 111.226 261.749C110.471 256.877 105.893 253.527 101.021 254.282Z" fill="#EBEBEB"/>
<path d="M277.718 106.669L286.731 108.171C291.162 113.467 297.227 117.52 304.502 119.456C321.66 124.022 339.813 114.601 345.991 97.9558C353.13 78.7228 342.228 57.4838 322.251 52.1818C305.292 47.6808 287.348 56.8158 280.986 73.1678C277.829 81.2828 277.921 89.7818 280.566 97.3158L280.555 97.2998L277.718 106.669Z" fill="white"/>
<path d="M277.718 106.669C277.718 106.669 277.764 106.473 277.878 106.073C277.999 105.652 278.171 105.056 278.394 104.282C278.867 102.668 279.558 100.314 280.451 97.2699L280.513 97.0589L280.639 97.2399L280.65 97.2559L280.463 97.3509C279.023 93.2809 277.797 87.4749 278.821 80.6259C279.318 77.2179 280.411 73.6109 282.173 70.0329C283.964 66.4729 286.516 62.9969 289.817 59.9829C293.128 56.9869 297.199 54.4819 301.805 52.8499C306.4 51.2279 311.544 50.4169 316.769 50.9759C321.984 51.4889 327.245 53.2259 331.959 56.1319C336.697 59.0109 340.742 63.2289 343.639 68.2129C345.171 70.7029 346.194 73.4329 347.068 76.1539C347.267 76.8409 347.396 77.5449 347.563 78.2369C347.699 78.9349 347.926 79.6149 347.985 80.3229C348.07 81.0259 348.155 81.7269 348.24 82.4259L348.361 83.4729L348.378 84.5239C348.582 90.1239 347.385 95.5919 345.212 100.414C343.056 105.264 339.713 109.329 335.959 112.499C332.184 115.669 327.919 117.916 323.624 119.249C319.319 120.568 315 120.994 311.004 120.721C310.009 120.605 309.031 120.491 308.069 120.379C307.111 120.244 306.19 119.991 305.275 119.808C303.45 119.412 301.746 118.812 300.148 118.167C293.731 115.532 289.379 111.519 286.651 108.238L286.713 108.273C283.81 107.763 281.554 107.367 280.003 107.094C279.261 106.96 278.691 106.857 278.285 106.784C277.902 106.712 277.718 106.669 277.718 106.669C277.718 106.669 277.933 106.693 278.33 106.752C278.744 106.815 279.325 106.904 280.08 107.02C281.621 107.263 283.862 107.616 286.747 108.07L286.784 108.076L286.809 108.106C289.557 111.339 293.904 115.285 300.274 117.859C301.86 118.489 303.55 119.075 305.359 119.458C306.266 119.634 307.178 119.881 308.126 120.01C309.078 120.117 310.046 120.225 311.03 120.336C314.982 120.589 319.248 120.152 323.496 118.836C327.734 117.506 331.939 115.276 335.656 112.139C339.353 109.003 342.642 104.99 344.759 100.207C346.894 95.4509 348.068 90.0599 347.862 84.5439L347.845 83.5079L347.725 82.4759C347.641 81.7879 347.557 81.0969 347.473 80.4049C347.415 79.7079 347.189 79.0379 347.055 78.3509C346.89 77.6699 346.763 76.9759 346.567 76.2989C345.704 73.6189 344.698 70.9299 343.187 68.4769C340.333 63.5669 336.351 59.4099 331.685 56.5709C327.043 53.7049 321.858 51.9869 316.72 51.4739C311.572 50.9149 306.498 51.7059 301.961 53.2959C297.413 54.8959 293.387 57.3579 290.108 60.3069C286.839 63.2739 284.305 66.6989 282.52 70.2109C280.763 73.7409 279.663 77.3069 279.153 80.6789C278.102 87.4549 279.274 93.2229 280.662 97.2829L280.915 98.0239L280.475 97.3779L280.464 97.3619L280.652 97.3329C279.716 100.335 278.992 102.656 278.495 104.247C278.248 105.027 278.059 105.625 277.924 106.049C277.796 106.453 277.718 106.669 277.718 106.669Z" fill="#263238"/>
<path d="M320.761 69.774C318.094 68.006 314.933 67.392 312.864 67.406C310.927 67.419 308.077 67.744 305.507 69.217C303.91 70.132 302.64 71.376 301.731 72.914C300.654 74.736 300.08 76.985 300.025 79.599C300.017 79.991 300.164 80.361 300.44 80.641C300.717 80.922 301.088 81.076 301.483 81.073L306.563 81.038C307.28 81.033 307.892 80.494 307.988 79.784C308.202 78.189 309.13 75.501 312.931 75.409C315.828 75.341 317.036 77.428 317.422 78.329C318.049 79.796 317.905 81.541 317.035 82.998C315.698 85.236 313.214 85.594 311.852 85.608C310.286 85.624 309.02 86.905 309.031 88.462L309.068 93.929C309.073 94.727 309.727 95.372 310.526 95.367L315.476 95.333C316.274 95.328 316.919 94.674 316.914 93.875L316.906 92.726C316.906 92.698 316.923 92.674 316.949 92.665C318.068 92.264 320.234 91.299 322.179 89.339C324.661 86.837 325.906 83.622 325.88 79.782C325.84 74.289 323.074 71.307 320.761 69.774Z" fill="#61BAFB"/>
<path d="M313.254 96.7259L312.821 96.7289C310.751 96.7429 309.078 98.4389 309.092 100.509C309.106 102.579 310.802 104.252 312.872 104.238L313.305 104.235C315.375 104.221 317.048 102.525 317.034 100.455C317.02 98.3849 315.324 96.7119 313.254 96.7259Z" fill="#61BAFB"/>
<path d="M327.048 151.747C303.437 135.866 275.364 130.208 256.965 130.208C239.734 130.208 214.376 132.926 191.424 145.872C177.17 153.913 165.797 164.898 157.62 178.523C147.935 194.661 142.693 214.629 142.04 237.874C141.942 241.361 143.23 244.661 145.668 247.168C148.117 249.687 151.4 251.074 154.914 251.074H200.095C206.47 251.074 211.951 246.317 212.842 240.01C214.846 225.842 223.255 201.986 257.066 201.403C282.823 200.961 293.451 219.607 296.825 227.646C302.316 240.727 300.924 256.24 293.099 269.142C281.076 288.964 258.959 291.999 246.846 292.043C232.916 292.094 221.582 303.403 221.582 317.252V365.87C221.582 372.97 227.358 378.746 234.458 378.746H278.478C285.578 378.746 291.354 372.97 291.354 365.87V355.655C291.354 355.41 291.507 355.198 291.743 355.115C301.715 351.616 321.044 343.162 338.454 325.852C360.68 303.755 371.949 275.234 371.949 241.083C371.95 192.207 347.532 165.525 327.048 151.747Z" fill="#61BAFB"/>
<path d="M255.361 401.425H258.914C276.396 401.425 290.619 415.648 290.619 433.13C290.619 450.612 276.396 464.835 258.914 464.835H255.361C237.879 464.835 223.656 450.612 223.656 433.13C223.656 415.647 237.879 401.425 255.361 401.425Z" fill="#263238"/>
<path d="M234.29 388.147H278.292C285.389 388.147 291.163 382.554 291.163 375.679V355.802C291.163 355.565 291.316 355.359 291.552 355.279C296.753 353.511 304.03 350.269 312.263 345.208C284.149 345.011 232.904 344.724 221.418 345.143V375.679C221.419 382.554 227.193 388.147 234.29 388.147Z" fill="#263238"/>
<path d="M270.531 167.901L242.294 85.9001C236.331 65.3681 219.412 51.7251 199.053 58.2551L197.207 58.9681C178.628 66.1461 168.667 86.3841 174.329 105.48C179.596 123.247 185.644 142.81 189.33 152.01C196.96 171.055 216.935 165.709 216.935 165.709C216.979 165.694 221.381 178.403 223.306 184.108L233.648 194.327L237.92 189.66L270.531 167.901Z" fill="#FFBF9D"/>
<path d="M216.934 165.709C216.934 165.709 229.269 161.757 239.004 148.716C239.004 148.716 238.568 165.419 218.807 171.073L216.934 165.709Z" fill="#FF9A6C"/>
<path d="M188.144 118.429C188.65 119.892 190.307 120.669 191.844 120.168C193.378 119.668 194.215 118.079 193.709 116.616C193.203 115.153 191.546 114.374 190.011 114.874C188.474 115.374 187.638 116.966 188.144 118.429Z" fill="#263238"/>
<path d="M181.347 111.431C181.823 111.656 183.301 109.324 186.246 108.196C189.17 107.026 191.913 107.706 192.092 107.222C192.187 107.002 191.594 106.492 190.39 106.171C189.202 105.848 187.368 105.794 185.539 106.51C183.711 107.228 182.431 108.497 181.812 109.53C181.176 110.573 181.118 111.336 181.347 111.431Z" fill="#263238"/>
<path d="M212.731 108.679C213.208 108.904 214.69 106.572 217.631 105.444C220.555 104.275 223.298 104.954 223.478 104.47C223.572 104.25 222.983 103.74 221.775 103.42C220.587 103.096 218.753 103.043 216.924 103.758C215.096 104.477 213.816 105.746 213.196 106.778C212.563 107.821 212.504 108.584 212.731 108.679Z" fill="#263238"/>
<path d="M208.619 127.648C208.568 127.476 206.618 127.866 203.51 128.631C202.729 128.844 201.961 128.97 201.636 128.506C201.25 128.032 201.251 127.101 201.277 126.086C201.281 123.996 201.284 121.805 201.288 119.51C201.227 110.177 200.873 102.621 200.497 102.626C200.121 102.633 199.866 110.201 199.927 119.534C199.961 121.829 199.99 124.016 200.022 126.108C200.068 127.071 199.953 128.228 200.771 129.206C201.19 129.689 201.899 129.883 202.43 129.827C202.969 129.788 203.394 129.633 203.774 129.512C206.818 128.521 208.672 127.82 208.619 127.648Z" fill="#263238"/>
<path d="M205.932 92.145C206.622 92.741 209.17 90.849 212.615 89.433C216.032 87.946 219.164 87.435 219.217 86.525C219.228 86.097 218.381 85.647 216.923 85.512C215.476 85.372 213.427 85.616 211.368 86.485C209.312 87.357 207.71 88.658 206.802 89.794C205.884 90.934 205.616 91.855 205.932 92.145Z" fill="#263238"/>
<path d="M177.872 102.837C178.735 103.281 180.885 101.695 183.769 100.593C186.619 99.406 189.283 99.07 189.588 98.158C189.709 97.726 189.075 97.196 187.769 96.955C186.479 96.711 184.522 96.846 182.551 97.631C180.581 98.419 179.082 99.665 178.329 100.724C177.561 101.793 177.48 102.609 177.872 102.837Z" fill="#263238"/>
<path d="M245.891 99.7462C246.162 99.4792 257.537 90.7772 262.174 104.021C266.81 117.265 252.558 119.188 252.401 118.817C252.246 118.445 245.891 99.7462 245.891 99.7462Z" fill="#FFBF9D"/>
<path d="M254.691 112.383C254.734 112.32 254.978 112.463 255.431 112.506C255.872 112.547 256.568 112.438 257.168 111.937C258.387 110.934 258.788 108.3 258.016 105.89C257.628 104.673 256.973 103.614 256.214 102.813C255.47 101.986 254.607 101.528 253.858 101.65C253.1 101.734 252.749 102.33 252.718 102.759C252.67 103.191 252.847 103.426 252.784 103.474C252.759 103.52 252.422 103.351 252.337 102.767C252.3 102.484 252.345 102.118 252.568 101.755C252.795 101.385 253.216 101.09 253.725 100.971C254.771 100.684 256.019 101.302 256.854 102.18C257.746 103.044 258.51 104.225 258.946 105.592C259.795 108.29 259.304 111.266 257.583 112.49C256.736 113.06 255.861 113.05 255.35 112.878C254.826 112.694 254.653 112.423 254.691 112.383Z" fill="#FF9A6C"/>
<path d="M218.615 126.313C218.148 126.44 219.165 129.497 217.275 132.541C215.392 135.591 212.02 136.337 212.139 136.773C212.161 136.979 213.063 137.124 214.451 136.701C215.815 136.296 217.639 135.204 218.796 133.342C219.946 131.477 220.038 129.473 219.724 128.185C219.412 126.869 218.818 126.226 218.615 126.313Z" fill="#263238"/>
<path d="M141.26 96.1791C141.196 95.3261 141.537 94.4841 142.088 93.8291C143.289 92.3991 145.077 91.9031 146.755 91.2811C150.931 89.7341 154.718 87.1921 157.793 83.9721C156.255 83.7701 154.752 83.3961 153.352 82.7271C150.461 81.3471 148.08 78.5121 148.052 75.3091C148.047 74.7081 148.161 74.0361 148.644 73.6781C149.411 73.1111 150.461 73.6901 151.296 74.1491C154.043 75.6571 156.197 75.9611 159.033 74.6281C160.794 73.8001 162.419 72.7671 163.54 71.3671C163.576 71.2871 163.604 71.2031 163.641 71.1241C164.079 70.1711 164.512 69.2561 164.943 68.3671C164.943 68.3641 164.945 68.3621 164.945 68.3591L164.944 68.3641C168.183 61.6711 171.259 56.7411 175.043 53.4131C180.588 48.5351 191.023 43.6731 198.383 43.0671C205.744 42.4611 213.72 45.7951 217.089 52.3671C219.742 47.8411 225.424 45.8701 230.678 46.0981L230.776 46.0071C236.545 46.0281 241.364 50.4171 244.718 55.1101C244.901 55.3671 245.075 55.6311 245.254 55.8911C247.955 58.0281 251.139 59.5511 254.524 60.1971C255.121 60.3111 255.813 60.4641 256.074 61.0131C256.333 61.5571 256.021 62.1931 255.675 62.6871C254.756 64.0001 253.529 65.0821 252.135 65.8721C253.041 66.9491 254.016 67.9621 255.103 68.8751C256.027 69.6511 257.127 70.5821 256.981 71.7791C256.868 72.7051 255.981 73.382 255.065 73.562C254.15 73.741 253.208 73.5311 252.299 73.3231C253.353 74.4901 254.406 75.6581 255.46 76.8251C253.72 77.8011 251.747 78.3291 249.754 78.4171C250.387 83.6881 252.758 93.028 252.667 96.784C249.176 98.0831 248.188 98.002 246.622 99.215C244.599 100.783 246.902 104.532 243.514 104.43C241.789 104.378 237.431 99.4451 236.377 98.0771C229.39 89.0021 224.397 78.4031 221.834 67.2411C218.914 65.7261 215.7 64.7801 212.425 64.4701L212.727 64.5961C206.653 64.6231 199.88 64.9311 195.641 69.2811C192.353 72.6551 191.468 77.6131 189.652 81.9601C186.211 90.1991 180.998 95.7851 172.712 99.1121C174.012 105.222 177.154 114.857 178.79 120.41L170.289 111.137L170.301 111.182C169.699 110.675 169.162 110.14 168.634 109.6L168.462 109.44L168.454 109.415C167.612 108.546 166.792 107.667 165.828 106.854C165.816 106.876 165.804 106.897 165.792 106.919C163.756 110.566 157.999 108.115 159.21 104.117C159.45 103.324 159.805 102.568 160.274 101.881C159.371 103.624 157.571 104.941 155.609 105.021C153.647 105.101 151.642 103.793 151.146 101.893C150.807 100.596 151.311 99.1531 152.273 98.2541C149.952 99.2781 147.328 99.6191 144.83 99.1651C143.191 98.8661 141.402 98.0581 141.26 96.1791Z" fill="#263238"/>
<path d="M211.777 56.738C211.756 56.802 212.769 56.964 214.346 57.83C215.91 58.694 217.94 60.442 219.585 63.214C220.412 64.588 221.187 66.178 221.814 67.962C222.45 69.743 222.98 71.704 223.553 73.765C224.132 75.824 224.737 78.001 225.646 80.168C226.1 81.249 226.629 82.326 227.264 83.365C227.896 84.382 228.608 85.478 229.776 86.134C230.712 86.673 231.942 86.626 232.833 86.09C233.741 85.578 234.42 84.759 234.803 83.834C235.537 81.941 235.198 79.986 234.934 78.252L234.545 78.444C235.724 79.671 236.915 80.875 238.331 81.672C239.733 82.482 241.379 82.764 242.822 82.396C243.541 82.213 244.204 81.855 244.696 81.343C245.201 80.831 245.467 80.169 245.582 79.528C245.68 78.882 245.621 78.231 245.388 77.666C245.153 77.103 244.736 76.636 244.235 76.379L244.094 76.635C246.187 77.81 248.086 78.169 249.355 78.291C249.995 78.351 250.488 78.347 250.821 78.338C251.153 78.321 251.323 78.303 251.323 78.29C251.322 78.275 251.15 78.267 250.821 78.257C250.491 78.241 250.002 78.218 249.372 78.135C248.123 77.967 246.266 77.567 244.24 76.383L244.099 76.638C244.994 77.099 245.459 78.298 245.242 79.471C245.129 80.052 244.881 80.645 244.432 81.086C243.99 81.536 243.385 81.859 242.726 82.019C241.397 82.344 239.86 82.076 238.541 81.301C237.2 80.535 236.044 79.362 234.872 78.13L234.375 77.607L234.483 78.323C234.746 80.056 235.039 81.943 234.364 83.655C234.022 84.484 233.396 85.227 232.601 85.673C231.81 86.136 230.815 86.172 230.003 85.713C228.986 85.149 228.289 84.119 227.669 83.117C227.049 82.104 226.528 81.051 226.079 79.988C225.18 77.86 224.568 75.7 223.979 73.647C223.395 71.59 222.849 69.626 222.188 67.828C221.536 66.028 220.732 64.422 219.873 63.037C218.165 60.244 216.054 58.494 214.435 57.668C212.801 56.836 211.777 56.738 211.777 56.738Z" fill="#455A64"/>
<path d="M158.495 96.699C158.492 96.706 158.561 96.733 158.697 96.776C158.861 96.825 159.061 96.885 159.305 96.958C159.572 97.042 159.906 97.132 160.311 97.195C160.713 97.269 161.176 97.368 161.708 97.4C163.808 97.621 166.992 97.454 170.525 95.97C174.027 94.51 177.869 91.734 180.694 87.534C183.584 83.388 185.535 78.092 186.658 72.42C187.241 69.578 187.541 66.769 188.025 64.103C188.5 61.438 189.165 58.895 190.276 56.681C191.364 54.465 192.87 52.581 194.664 51.327C195.551 50.683 196.527 50.264 197.488 49.951C198.461 49.665 199.435 49.539 200.365 49.519C202.232 49.491 203.904 49.939 205.26 50.528C206.623 51.124 207.667 51.893 208.445 52.593C209.953 54.063 210.405 55.189 210.468 55.145C210.476 55.141 210.446 55.075 210.381 54.947C210.299 54.795 210.201 54.611 210.08 54.386C209.803 53.901 209.314 53.228 208.574 52.458C207.803 51.724 206.753 50.916 205.369 50.282C203.992 49.656 202.285 49.172 200.361 49.179C199.402 49.189 198.395 49.308 197.382 49.595C196.383 49.908 195.357 50.341 194.435 51C192.565 52.285 191.003 54.222 189.879 56.483C188.73 58.745 188.046 61.335 187.562 64.019C187.069 66.707 186.765 69.51 186.187 72.326C185.073 77.956 183.154 83.188 180.329 87.283C177.566 91.433 173.825 94.176 170.392 95.658C166.933 97.158 163.805 97.375 161.724 97.214C159.625 97.045 158.51 96.631 158.495 96.699Z" fill="#455A64"/>
<path d="M153.733 88.8081C153.727 88.8411 154.034 88.9241 154.598 89.0471C155.16 89.1801 155.992 89.2961 157.023 89.3671C158.055 89.4461 159.293 89.4241 160.657 89.2891C162.018 89.1301 163.504 88.8441 165.016 88.3741C166.524 87.8871 167.903 87.2651 169.108 86.6121C170.301 85.9361 171.325 85.2431 172.124 84.5841C172.926 83.9321 173.539 83.3591 173.922 82.9261C174.313 82.5001 174.516 82.2561 174.492 82.2331C174.427 82.1691 173.551 83.0971 171.916 84.3151C171.103 84.9311 170.078 85.5821 168.896 86.2231C167.703 86.8421 166.347 87.4391 164.869 87.9161C163.387 88.3761 161.935 88.6691 160.603 88.8501C159.268 89.0061 158.054 89.0631 157.036 89.0281C154.999 88.9731 153.749 88.7191 153.733 88.8081Z" fill="#455A64"/>
<path d="M190.002 227.426C189.829 227.476 192.095 238.828 194.315 250.603H195.018C192.798 238.828 190.176 227.376 190.002 227.426Z" fill="#263238"/>
<path d="M199.582 251.172C206 251.172 211.908 246.548 212.805 240.25C214.822 226.102 222.895 202.155 256.929 201.573C282.856 201.131 293.768 219.483 296.825 227.645C301.678 240.602 301.075 256.33 293.199 269.213C281.097 289.006 258.834 292.036 246.641 292.081C232.619 292.132 221.211 303.424 221.211 317.253V370.116L291.445 368.795V355.6C291.445 355.355 291.599 355.144 291.837 355.061C300.392 352.083 313.956 346.438 329.218 334.131L324.646 273.251C324.646 273.251 338.012 247.562 337.35 241.782C331.298 188.979 313.34 159.101 306.041 156.314C297.846 153.186 266.206 154.709 266.206 154.709C266.206 154.709 252.541 180.028 233.37 182.833C222.703 184.394 218.808 171.073 218.808 171.073L194.029 185.6C176.394 194.495 172.972 229.103 172.648 251.172H199.582Z" fill="#455A64"/>
<g opacity="0.3">
<path d="M280.975 282.276C295.132 285.88 309.089 290.439 323.246 294.043C324.296 294.31 325.415 294.619 326.124 295.439C327.166 296.646 326.932 298.478 326.465 300.003C324.976 304.87 321.764 309.076 317.941 312.435C314.861 315.141 311.171 317.424 307.083 317.743C302.531 318.098 298.155 315.987 294.306 313.531C284.464 307.25 276.065 298.072 270.787 287.658C270.787 287.658 274.106 286.292 276.646 284.934C279.005 283.673 280.975 282.276 280.975 282.276Z" fill="black"/>
</g>
<path d="M296.536 228.012C302.197 241.074 300.761 256.564 292.695 269.447C288.218 276.598 282.518 281.702 276.301 285.126C282.997 292.41 289.794 298.827 296.513 303.596C303.744 308.727 320.41 307.268 326.729 296.035C334.525 282.175 335.177 246.767 335.177 246.767C336.658 225.421 336.658 225.421 336.658 225.421L293.061 218.743L292.711 219.938C294.581 222.742 295.683 226.044 296.536 228.012Z" fill="#FFBF9D"/>
<path d="M220.62 219.042L218.138 222.955C216.251 224.257 214.455 223.542 213.289 221.123L186.451 180.273L192.989 176.115L222.631 215.289C222.631 215.289 223.049 217.366 220.62 219.042Z" fill="#455A64"/>
<path d="M158.616 179.572C153.362 176.607 148.955 172.034 146.228 166.157C142.869 158.919 142.53 150.805 145.274 143.311C148.018 135.817 153.515 129.84 160.755 126.481C175.698 119.547 193.497 126.063 200.432 141.007C203.791 148.246 204.129 156.36 201.386 163.854C198.642 171.348 193.145 177.324 185.906 180.684C176.839 184.89 166.72 184.146 158.616 179.572ZM187.059 129.333C179.497 125.065 170.057 124.371 161.597 128.296C154.843 131.43 149.713 137.007 147.153 143.999C144.593 150.991 144.909 158.562 148.043 165.316C151.177 172.071 156.753 177.2 163.746 179.76C170.738 182.32 178.308 182.004 185.063 178.87C191.817 175.736 196.947 170.159 199.506 163.167C202.067 156.175 201.75 148.605 198.616 141.85C196.073 136.367 191.96 132.099 187.059 129.333Z" fill="#263238"/>
<path d="M159.889 178.319C154.635 175.354 150.228 170.781 147.501 164.904C144.142 157.666 143.803 149.552 146.547 142.058C149.291 134.564 154.788 128.587 162.028 125.228C176.971 118.294 194.77 124.81 201.705 139.755C205.064 146.994 205.402 155.108 202.659 162.602C199.916 170.096 194.418 176.073 187.179 179.432C178.111 183.637 167.992 182.893 159.889 178.319ZM188.331 128.079C180.769 123.811 171.329 123.117 162.869 127.042C156.115 130.176 150.985 135.753 148.425 142.745C145.865 149.737 146.181 157.308 149.315 164.062C152.449 170.817 158.025 175.946 165.018 178.506C172.01 181.066 179.58 180.75 186.335 177.616C193.089 174.482 198.219 168.905 200.778 161.913C203.338 154.921 203.022 147.35 199.888 140.596C197.345 135.113 193.233 130.845 188.331 128.079Z" fill="#455A64"/>
<path d="M199.452 152.748C199.441 152.748 199.431 152.578 199.421 152.257C199.397 151.936 199.435 151.462 199.364 150.856C199.296 149.641 199.024 147.888 198.374 145.814C198.055 144.775 197.602 143.672 197.066 142.512C196.486 141.375 195.848 140.163 195.023 138.985C194.218 137.797 193.293 136.599 192.217 135.465C191.149 134.327 189.966 133.213 188.631 132.231C187.303 131.242 185.906 130.418 184.495 129.748C183.076 129.093 181.646 128.606 180.261 128.233C177.475 127.532 174.866 127.339 172.697 127.466C170.526 127.586 168.787 127.928 167.614 128.255C167.019 128.389 166.578 128.566 166.267 128.647C165.959 128.739 165.795 128.783 165.791 128.772C165.787 128.762 165.943 128.698 166.245 128.586C166.55 128.485 166.987 128.288 167.58 128.135C168.748 127.77 170.494 127.391 172.684 127.24C174.872 127.083 177.511 127.253 180.334 127.947C181.738 128.317 183.189 128.804 184.628 129.464C186.059 130.139 187.478 130.973 188.824 131.975C190.175 132.969 191.371 134.098 192.447 135.252C193.532 136.401 194.462 137.615 195.269 138.821C196.096 140.015 196.732 141.244 197.307 142.398C197.838 143.574 198.283 144.693 198.592 145.747C199.22 147.85 199.46 149.625 199.49 150.849C199.543 151.46 199.484 151.937 199.487 152.259C199.474 152.58 199.463 152.748 199.452 152.748Z" fill="white"/>
<path d="M168.275 177.068C168.296 176.994 169.661 177.502 171.962 177.816C172.251 177.851 172.552 177.887 172.865 177.925C173.179 177.96 173.51 177.961 173.85 177.982C174.53 178.037 175.259 178.001 176.024 177.986C177.553 177.895 179.226 177.663 180.937 177.214C182.643 176.742 184.206 176.101 185.574 175.412C186.243 175.04 186.891 174.705 187.452 174.316C187.735 174.127 188.021 173.961 188.275 173.772C188.527 173.582 188.77 173.399 189.003 173.224C190.834 171.796 191.758 170.672 191.813 170.725C191.83 170.739 191.598 171.015 191.162 171.504C190.948 171.753 190.677 172.047 190.329 172.357C189.986 172.67 189.614 173.052 189.143 173.402C188.912 173.585 188.671 173.775 188.421 173.973C188.168 174.169 187.884 174.343 187.6 174.539C187.039 174.943 186.387 175.291 185.712 175.675C184.334 176.388 182.751 177.047 181.022 177.525C179.287 177.981 177.588 178.206 176.039 178.282C175.263 178.289 174.525 178.315 173.837 178.248C173.493 178.221 173.16 178.214 172.842 178.172C172.526 178.127 172.223 178.083 171.932 178.041C171.349 177.976 170.835 177.832 170.38 177.733C169.924 177.64 169.541 177.522 169.231 177.414C168.607 177.211 168.268 177.089 168.275 177.068Z" fill="white"/>
<path d="M188.832 157.933C188.769 157.995 184.874 154.096 180.135 149.227C175.394 144.356 171.603 140.359 171.666 140.297C171.729 140.235 175.623 144.133 180.364 149.004C185.104 153.873 188.895 157.872 188.832 157.933Z" fill="white"/>
<path d="M184.233 165.759C184.225 165.766 184.127 165.671 183.949 165.482C183.751 165.266 183.497 164.99 183.183 164.647C182.499 163.885 181.554 162.834 180.398 161.548C178.05 158.929 174.796 155.321 171.159 151.375C167.52 147.428 164.187 143.892 161.767 141.339C160.579 140.083 159.608 139.056 158.905 138.312C158.589 137.971 158.334 137.695 158.135 137.481C157.962 137.288 157.874 137.184 157.882 137.176C157.89 137.168 157.993 137.258 158.181 137.436C158.391 137.64 158.66 137.902 158.994 138.225C159.696 138.915 160.699 139.925 161.93 141.182C164.392 143.696 167.753 147.209 171.394 151.158C175.033 155.106 178.262 158.74 180.568 161.399C181.721 162.728 182.646 163.81 183.277 164.566C183.573 164.925 183.812 165.215 183.998 165.44C184.16 165.642 184.241 165.751 184.233 165.759Z" fill="white"/>
<g opacity="0.3">
<path d="M159.874 129.168L196.557 169.016C196.557 169.016 193.588 173.169 190.868 174.976L153.411 134.197C153.411 134.197 156.111 130.943 159.874 129.168Z" fill="white"/>
</g>
<g opacity="0.3">
<path d="M150.257 138.791L186.336 177.615C186.336 177.615 186.671 177.798 184.185 178.426L149.238 140.762C149.238 140.762 149.421 139.818 150.257 138.791Z" fill="white"/>
</g>
<path d="M245.229 202.847C237.523 196.659 218.638 181.524 217.775 181.121C216.689 180.613 200.068 174.708 196.884 176.605C193.7 178.502 185.164 189.217 185.164 189.217C185.164 189.217 185.975 195.881 193.42 191.112C199.101 187.474 199.982 186.909 200.082 186.845C200.076 186.849 200.071 186.852 200.071 186.852L207.986 188.701C207.986 188.701 198.332 192.733 196.29 194.853C194.248 196.973 191.019 205.09 193.033 206.959C195.047 208.828 197.386 208.988 197.386 208.988C197.386 208.988 193.401 214.648 200.47 218.065C200.47 218.065 201.502 222.823 204.989 224.688C208.476 226.552 214.973 225.893 214.973 225.893C214.973 225.893 217.986 224.111 215.748 221.157C213.51 218.203 209.381 217.794 209.381 217.794L214.498 214.809C214.498 214.809 217.16 215.624 221.104 218.671C221.104 218.671 225.776 212.69 230.441 209.309C235.677 205.515 245.229 202.847 245.229 202.847Z" fill="#FFBF9D"/>
<path d="M212.471 205.361C212.468 205.338 212.197 205.343 211.711 205.406C211.225 205.468 210.527 205.607 209.689 205.875C208.022 206.397 205.786 207.553 203.953 209.546C202.119 211.54 201.155 213.865 200.774 215.57C200.577 216.427 200.497 217.134 200.476 217.624C200.454 218.113 200.472 218.384 200.495 218.385C200.567 218.391 200.582 217.303 201.033 215.636C201.473 213.979 202.451 211.739 204.231 209.802C206.012 207.866 208.162 206.704 209.776 206.127C211.4 205.538 212.483 205.432 212.471 205.361Z" fill="#FF9A6C"/>
<path d="M212.811 196.748C212.808 196.722 212.52 196.744 211.999 196.805C211.738 196.832 211.42 196.875 211.057 196.959C210.693 197.039 210.273 197.108 209.825 197.252C208.917 197.492 207.864 197.885 206.739 198.414C205.625 198.965 204.444 199.665 203.3 200.535C202.166 201.419 201.187 202.382 200.37 203.319C199.57 204.272 198.922 205.189 198.458 206.006C198.205 206.402 198.03 206.791 197.86 207.122C197.686 207.452 197.563 207.748 197.47 207.993C197.277 208.481 197.183 208.753 197.207 208.763C197.276 208.793 197.699 207.713 198.685 206.144C199.171 205.356 199.832 204.47 200.631 203.547C201.448 202.639 202.416 201.702 203.529 200.834C204.652 199.98 205.943 199.019 207.03 198.46C208.127 197.923 209.013 197.776 209.899 197.507C211.671 196.956 212.823 196.822 212.811 196.748Z" fill="#FF9A6C"/>
<path d="M214.257 186.856C214.267 186.815 213.868 186.66 213.182 186.614C212.5 186.565 211.531 186.672 210.559 187.083C209.244 187.645 208.781 188.193 208.4 188.646C207.957 189.171 207.791 189.566 207.828 189.587C207.916 189.666 208.834 188.203 210.707 187.431C212.562 186.62 214.252 186.974 214.257 186.856Z" fill="#FF9A6C"/>
<path d="M302.967 155.517C302.967 155.517 327.357 157.857 335.1 179.047C341.245 195.866 344.584 246.253 343.044 247.28L299.982 245.903C299.415 233.616 296.107 224.143 291.469 218.013L302.967 155.517Z" fill="#455A64"/>
<path d="M300.642 245.903C300.662 245.873 300.962 246.042 301.487 246.374C302.014 246.703 302.755 247.212 303.649 247.871C305.439 249.185 307.809 251.151 310.202 253.556C312.599 255.959 314.561 258.327 315.907 260.09C316.578 260.974 317.105 261.701 317.448 262.218C317.794 262.733 317.972 263.028 317.943 263.049C317.879 263.096 317.03 262.02 315.619 260.319C314.205 258.621 312.211 256.308 309.833 253.923C307.458 251.536 305.147 249.543 303.424 248.161C301.703 246.778 300.596 245.97 300.642 245.903Z" fill="#FF9A6C"/>
<path d="M295.513 194.073C295.655 194.097 294.865 199.476 293.748 206.086C292.631 212.698 291.611 218.037 291.469 218.013C291.327 217.989 292.117 212.611 293.234 205.999C294.351 199.389 295.371 194.049 295.513 194.073Z" fill="#263238"/>
<path d="M241.317 345.176C241.316 345.158 241.562 345.121 242.032 345.068C242.554 345.015 243.238 344.946 244.091 344.86C245.938 344.685 248.511 344.442 251.665 344.143C258.059 343.529 266.884 342.607 276.605 341.38C286.329 340.148 295.107 338.843 301.452 337.846C304.581 337.35 307.133 336.945 308.965 336.654C309.812 336.525 310.492 336.422 311.01 336.343C311.479 336.278 311.726 336.252 311.729 336.269C311.732 336.287 311.491 336.347 311.028 336.446C310.514 336.549 309.84 336.685 308.999 336.854C307.236 337.2 304.677 337.665 301.51 338.21C295.177 339.301 286.401 340.665 276.669 341.898C266.94 343.127 258.101 343.991 251.696 344.511C248.493 344.772 245.9 344.959 244.105 345.063C243.249 345.109 242.562 345.145 242.038 345.173C241.567 345.192 241.318 345.194 241.317 345.176Z" fill="#263238"/>
<path d="M237.511 338.739C237.51 338.703 238.142 338.648 239.286 338.578C240.515 338.513 242.15 338.426 244.131 338.32C248.301 338.106 253.912 337.819 260.112 337.501C266.312 337.142 271.921 336.817 276.09 336.575C278.071 336.464 279.705 336.372 280.934 336.303C282.078 336.247 282.713 336.233 282.715 336.269C282.718 336.305 282.089 336.387 280.949 336.505C279.809 336.624 278.158 336.774 276.116 336.942C272.032 337.28 266.385 337.679 260.14 338.021C253.897 338.361 248.241 338.579 244.145 338.688C242.097 338.743 240.439 338.774 239.293 338.78C238.146 338.788 237.512 338.775 237.511 338.739Z" fill="#263238"/>
<path d="M168.926 247.563C169.084 246.95 169.342 246.373 169.705 245.853C170.425 244.82 171.516 244.033 172.751 243.751C174.803 243.283 177.102 244.244 178.212 246.033C178.138 244.669 179.215 243.398 180.533 243.038C181.85 242.678 182.873 243.186 183.924 244.058C184.975 244.93 185.244 245.624 185.671 246.922C186.72 244.566 192.114 244.854 192.77 246.622C192.77 246.622 197.411 241.542 199.785 244.04C200.771 245.078 200.348 246.67 199.695 248.265C198.823 250.394 198.249 251.281 197.109 253.626L192.716 253.866C192.346 255.241 191.567 260.832 191.402 262.246C191.237 263.66 190.954 265.1 190.202 266.309C189.45 267.518 188.143 268.464 186.719 268.445C185.295 268.425 183.893 267.205 183.977 265.783C183.678 266.958 183.178 268.117 182.312 268.965C181.446 269.813 180.164 270.302 178.991 269.996C177.818 269.69 176.888 268.463 177.126 267.275C175.56 268.36 173.245 267.396 172.251 265.771C171.256 264.146 171.232 262.126 171.293 260.221C171.347 258.533 171.5 256.639 170.835 255.041C170.73 254.789 170.55 254.571 170.489 254.303C170.399 253.906 170.459 253.456 170.431 253.049C170.369 252.164 170.206 251.282 169.902 250.447C169.835 250.264 169.762 250.083 169.681 249.905C169.468 249.432 169.153 249.032 168.912 248.58C168.859 248.481 168.814 248.383 168.801 248.27C168.774 248.038 168.869 247.781 168.926 247.563Z" fill="#FFBF9D"/>
<path d="M163.983 245.123C162.809 245.081 161.53 245.324 160.746 246.199C159.817 247.237 159.603 249.721 159.709 251.11C161.337 251.417 162.206 251.055 163.834 251.362C164.177 251.427 164.464 251.34 164.748 251.542C165.499 252.075 165.377 253.871 165.679 254.741C166.203 256.25 168.136 256.987 169.634 256.432C171.132 255.877 172.096 254.284 172.172 252.688C172.248 251.093 171.546 249.532 170.518 248.31C168.912 246.401 166.477 245.213 163.983 245.123Z" fill="#FFBF9D"/>
<path d="M191.709 259.914C191.543 259.879 192.213 256.899 192.637 253.192C192.841 251.338 192.888 249.651 192.815 248.435C192.752 247.219 192.609 246.471 192.69 246.452C192.749 246.435 193.022 247.164 193.182 248.402C193.352 249.637 193.362 251.367 193.155 253.248C192.953 255.13 192.601 256.804 192.311 258.003C192.015 259.202 191.777 259.929 191.709 259.914Z" fill="#FF9A6C"/>
<path d="M183.779 266.314C183.706 266.298 183.894 265.215 184.214 263.474C184.531 261.732 184.978 259.328 185.316 256.656C185.654 253.983 185.775 251.547 185.739 249.785C185.713 248.022 185.585 246.933 185.669 246.921C185.727 246.911 185.985 247.988 186.107 249.77C186.238 251.55 186.175 254.024 185.833 256.721C185.492 259.417 184.985 261.823 184.575 263.55C184.161 265.277 183.847 266.33 183.779 266.314Z" fill="#FF9A6C"/>
<path d="M177.072 267.457C176.994 267.436 177.271 266.241 177.621 264.296C177.973 262.352 178.361 259.648 178.527 256.641C178.688 253.633 178.597 250.903 178.459 248.932C178.322 246.96 178.177 245.742 178.257 245.73C178.293 245.725 178.369 246.023 178.477 246.569C178.589 247.114 178.71 247.91 178.826 248.899C179.06 250.875 179.211 253.632 179.048 256.67C178.88 259.707 178.43 262.431 177.983 264.369C177.761 265.339 177.553 266.117 177.383 266.647C177.215 267.178 177.106 267.466 177.072 267.457Z" fill="#FF9A6C"/>
<path d="M168.229 247.875C168.252 247.822 168.831 247.99 169.599 248.567C170.363 249.134 171.283 250.159 171.823 251.536C172.362 252.91 172.404 254.303 172.118 255.243C171.827 256.209 171.22 256.545 171.2 256.484C171.141 256.426 171.594 256.032 171.761 255.153C171.931 254.29 171.839 253.001 171.338 251.727C170.836 250.447 170.029 249.46 169.363 248.85C168.695 248.232 168.189 247.95 168.229 247.875Z" fill="#FF9A6C"/>
</svg>
