<svg width="500" height="500" viewBox="0 0 500 500" fill="none" xmlns="http://www.w3.org/2000/svg">
<g clip-path="url(#clip0_520_14683)">
<path d="M439.97 236.498C425.363 204.272 395.042 184.716 372.118 159.132C350.755 135.291 341.644 103.517 320.463 79.8731C293.981 50.3111 251.167 43.804 213.606 49.107C201.918 50.757 190.464 53.5421 179.708 57.2001C168.907 60.8731 158.36 65.521 148.385 71.062C115.322 89.425 90.626 115.879 75.883 150.719C63.336 180.367 58.463 213.074 63.577 244.968C72.0029 297.516 104.86 344.979 149.324 374.223C193.788 403.468 248.987 414.88 301.89 409.085C344.648 404.401 387.484 387.866 416.449 356.066C445.412 324.265 457.728 275.675 439.97 236.498Z" fill="#488974"/>
<path d="M306.473 79.644C286.61 76.809 287.513 96.53 287.513 96.53L297.555 97.653C295.399 92.167 298.679 86.389 305.134 86.709C311.589 87.029 310.437 94.987 307.011 98.246C304.008 101.103 299.412 105.034 299.412 105.034L297.114 114.84L306.434 116.714L307.329 107.4C307.329 107.4 312.377 104.992 316.605 99.568C318.677 96.91 321.841 81.838 306.473 79.644Z" fill="#F8FB61"/>
<path d="M300.956 119.85C297.82 119.219 294.904 120.567 294.443 122.859C293.982 125.152 296.151 127.521 299.287 128.152C302.423 128.783 305.339 127.435 305.8 125.143C306.26 122.851 304.092 120.481 300.956 119.85Z" fill="#F8FB61"/>
<path d="M327.585 124.223C317.207 117.098 312.224 128.437 312.224 128.437L317.557 131.864C317.872 128.179 321.325 125.844 324.865 127.821C328.405 129.798 325.541 133.952 322.708 134.83C320.224 135.6 316.546 136.53 316.546 136.53L312.524 141.403L317.242 145.052L320.338 140.065C320.338 140.065 323.846 140.117 327.734 138.244C329.639 137.329 335.614 129.736 327.585 124.223Z" fill="#F8FB61"/>
<path d="M313.287 145.291C311.699 144.063 309.685 144.009 308.787 145.169C307.89 146.33 308.449 148.266 310.036 149.493C311.624 150.721 313.638 150.775 314.536 149.615C315.434 148.455 314.874 146.519 313.287 145.291Z" fill="#F8FB61"/>
<path d="M190.417 347.861L190.115 637.169H231.665L246.784 342.845L190.417 347.861Z" fill="#C6C92F"/>
<path d="M295.572 346.631L312.865 637.169H268.352L236.194 338.155L295.572 346.631Z" fill="#C6C92F"/>
<path d="M243.483 376.545C243.311 376.545 243.169 376.48 243.164 376.396L242 358.158C241.995 358.074 242.133 358.002 242.309 358C242.5 358.003 242.633 358.064 242.638 358.149L243.802 376.387C243.807 376.471 243.669 376.543 243.493 376.545C243.49 376.545 243.487 376.545 243.483 376.545Z" fill="#383D84"/>
<path d="M242.183 371.203H237.301C237.13 371.203 236.99 371.069 236.982 370.898L235.874 344.962C235.867 344.786 236.004 344.637 236.179 344.63C236.357 344.633 236.503 344.76 236.511 344.935L237.605 370.566H242.182C242.357 370.566 242.501 370.709 242.501 370.885C242.502 371.06 242.359 371.203 242.183 371.203Z" fill="#383D84"/>
<path d="M290.997 368.644C288.287 368.644 285.83 367.753 283.67 365.985C275.58 359.362 274.264 342.845 274.212 342.145C274.198 341.97 274.33 341.816 274.506 341.804C274.673 341.77 274.833 341.922 274.847 342.098C274.859 342.267 276.196 359.044 284.074 365.493C286.516 367.492 289.369 368.3 292.542 367.908C292.736 367.891 292.877 368.011 292.898 368.184C292.92 368.36 292.796 368.518 292.622 368.54C292.071 368.609 291.528 368.644 290.997 368.644Z" fill="#383D84"/>
<path d="M192.162 369.541C192.074 369.541 191.984 369.504 191.922 369.432C191.806 369.299 191.821 369.097 191.953 368.983C192.039 368.908 200.455 361.375 198.828 343.647C198.812 343.473 198.941 343.317 199.117 343.301C199.293 343.274 199.447 343.414 199.463 343.59C201.122 361.667 192.459 369.389 192.372 369.465C192.31 369.515 192.237 369.541 192.162 369.541Z" fill="#383D84"/>
<path d="M323.292 297.513C317.43 297.513 311.966 293.81 310 287.947L279.556 197.167C277.094 189.824 281.048 181.877 288.39 179.415C295.734 176.947 303.681 180.909 306.142 188.249L336.587 279.029C339.049 286.372 335.095 294.318 327.753 296.781C326.273 297.277 324.77 297.513 323.292 297.513Z" fill="#EFAD9C"/>
<path d="M310.89 277.34L348.261 196.71C350.362 192.178 355.739 190.206 360.271 192.307C364.492 194.263 366.491 199.062 365.049 203.373L336.954 287.685C334.502 295.043 326.55 299.02 319.191 296.568C311.833 294.116 307.856 286.164 310.308 278.805C310.475 278.305 310.674 277.808 310.89 277.34Z" fill="#EFAD9C"/>
<path d="M348.027 201.346C346.481 196.671 351.865 191.138 356.258 188.721C364.109 184.402 383.448 182.103 384.385 183.681C385.322 185.259 373.958 190.381 373.958 190.381C373.958 190.381 382.531 190.146 385.651 191.407C385.651 191.407 394.182 181.443 396.002 181.994C397.823 182.545 394.265 188.743 394.265 188.743C394.265 188.743 402.573 183.22 403.737 184.332C404.901 185.444 393.135 195.769 390.419 197.429C387.703 199.089 371.672 206.21 362.836 207.007C354.001 207.802 349.513 205.839 348.027 201.346Z" fill="#EFAD9C"/>
<path d="M379.953 201.608C379.878 201.608 379.803 201.576 379.751 201.514C379.657 201.403 379.672 201.236 379.783 201.142C382.239 199.077 386.096 195.43 385.992 194.439C385.987 194.393 385.972 194.371 385.932 194.349C384.912 193.811 379.162 196.649 375.776 198.566L375.705 198.606L375.623 198.599C375.584 198.595 371.631 198.255 368.171 199.087C368.024 199.122 367.887 199.032 367.853 198.892C367.819 198.75 367.906 198.608 368.048 198.574C371.312 197.79 374.993 198.022 375.587 198.067C377.244 197.131 384.632 193.053 386.179 193.883C386.376 193.988 386.493 194.161 386.516 194.383C386.681 195.942 381.22 200.621 380.123 201.544C380.074 201.588 380.014 201.608 379.953 201.608Z" fill="#B56757"/>
<path d="M383.395 194.838C383.34 194.838 383.286 194.822 383.239 194.787C383.122 194.702 383.096 194.537 383.182 194.419L385.271 191.573C385.358 191.455 385.525 191.43 385.64 191.516C385.757 191.601 385.783 191.766 385.697 191.884L383.608 194.73C383.555 194.801 383.475 194.838 383.395 194.838Z" fill="#B56757"/>
<path d="M384.439 200.069C384.348 200.069 384.26 200.022 384.211 199.938C384.138 199.811 384.181 199.651 384.307 199.578C385.745 198.742 389.594 196.424 390.12 195.742C390.77 194.896 393.798 188.944 393.829 188.885C393.894 188.754 394.054 188.703 394.183 188.77C394.313 188.836 394.365 188.995 394.298 189.124C394.173 189.371 391.217 195.179 390.537 196.064C389.852 196.954 385.109 199.722 384.57 200.034C384.53 200.058 384.484 200.069 384.439 200.069Z" fill="#B56757"/>
<path d="M312.121 273.583C312.048 273.601 311.97 273.593 311.899 273.557C311.742 273.477 311.68 273.284 311.761 273.128L320.268 256.623C320.35 256.466 320.544 256.406 320.697 256.485C320.854 256.566 320.916 256.758 320.835 256.914L312.328 273.419C312.284 273.505 312.207 273.562 312.121 273.583Z" fill="#B56757"/>
<path d="M280.791 175.487C301.731 172.818 306.804 177.998 309.584 185.436C312.364 192.874 325.824 238.097 325.824 238.097C325.824 238.097 335.65 214.206 338.072 212.389C340.495 210.572 360.078 217.773 361.559 221.743C363.039 225.714 346.282 279.283 340.091 290.05C333.9 300.818 316.161 304.721 308.071 291.396C299.981 278.071 289.427 242.48 289.427 242.48L280.791 175.487Z" fill="#07B2F9"/>
<path d="M108.972 147.07L189.292 115.536C193.942 113.71 199.192 116 201.018 120.651C202.715 124.972 200.856 129.811 196.854 131.939L120.712 172.536C113.868 176.185 105.361 173.595 101.711 166.751C98.0617 159.906 100.652 151.399 107.496 147.75C107.977 147.494 108.478 147.266 108.972 147.07Z" fill="#EFAD9C"/>
<path d="M187.758 130.611C187.758 130.611 202.575 151.779 205.28 151.913C207.985 152.046 201.305 135.995 201.305 135.995C201.305 135.995 242.058 129.262 242.009 126.891C241.96 124.52 223.938 126.698 223.938 126.698C223.938 126.698 243.608 121.621 243.059 119.239C242.561 117.08 221.804 121.15 221.804 121.15C221.804 121.15 241.693 113.672 240.048 112.15C238.403 110.627 219.803 116.022 219.803 116.022C219.803 116.022 234.902 108.075 233.7 107.13C232.498 106.185 215.644 111.348 215.644 111.348C207.299 112.471 197.36 112.913 193.507 113.96C178.198 118.118 187.758 130.611 187.758 130.611Z" fill="#EFAD9C"/>
<path d="M99.3738 160.747C99.3068 159.024 99.5588 157.261 100.168 155.537C102.747 148.235 110.757 144.407 118.058 146.986L210.21 179.537C217.513 182.114 221.342 190.129 218.761 197.427C216.182 204.729 208.172 208.557 200.871 205.978L108.719 173.427C103.141 171.457 99.5898 166.317 99.3738 160.747Z" fill="#EFAD9C"/>
<path d="M127.029 168.044C127.025 167.951 127.063 167.856 127.14 167.789L140.583 156.26C140.717 156.146 140.918 156.161 141.033 156.295C141.145 156.428 141.132 156.63 140.998 156.745L127.555 168.273C127.421 168.387 127.22 168.372 127.105 168.238C127.057 168.183 127.032 168.114 127.029 168.044Z" fill="#B56757"/>
<path d="M211.426 174.191L155.65 157.905C155.65 157.905 183.108 144.039 184.364 141.335C185.62 138.631 177.993 121.672 172.609 120.236C167.225 118.8 112.624 140.801 101.857 148.061C91.0892 155.321 96.4732 170.753 106.972 175.487C117.471 180.221 206.303 216.158 206.303 216.158L211.426 174.191Z" fill="#07B2F9"/>
<path d="M197.907 240.441C193.852 272.531 190.179 320.492 189.039 359.536C225.55 362.7 261.587 362.318 297.106 358.082C294.124 324.198 293.202 277.06 296.285 240.134L280.79 175.487L240.622 179.296L211.425 174.191L197.907 240.441Z" fill="#F8FB61"/>
<path d="M273.869 227.172C256.112 231.553 237.463 232.388 219.394 229.51C214.216 228.685 209.092 227.558 204.04 226.157C201.421 225.431 200.303 229.498 202.919 230.224C221.097 235.264 240.277 236.659 258.987 234.227C264.376 233.526 269.715 232.541 274.991 231.239C277.624 230.589 276.508 226.521 273.869 227.172Z" fill="#BCBF25"/>
<path d="M273.869 237.868C256.112 242.249 237.463 243.084 219.394 240.206C214.216 239.381 209.092 238.254 204.04 236.853C201.421 236.127 200.303 240.194 202.919 240.92C221.097 245.96 240.277 247.355 258.987 244.923C264.376 244.222 269.715 243.237 274.991 241.935C277.624 241.285 276.508 237.217 273.869 237.868Z" fill="#BCBF25"/>
<path d="M273.869 248.563C256.112 252.944 237.463 253.779 219.394 250.901C214.216 250.076 209.092 248.949 204.04 247.548C201.421 246.822 200.303 250.889 202.919 251.615C221.097 256.655 240.277 258.05 258.987 255.617C264.376 254.917 269.715 253.931 274.991 252.63C277.624 251.98 276.508 247.912 273.869 248.563Z" fill="#BCBF25"/>
<path d="M207.514 348.959C207.514 348.959 207.94 361.14 206.976 362.127C206.011 363.114 185.979 361.992 185.104 360.781C184.229 359.57 184.768 349.307 184.768 349.307L207.514 348.959Z" fill="#0A9EE5"/>
<path d="M223.474 176.298C211.88 246.579 210.072 349.004 208.591 350.754C207.111 352.504 186.652 353.177 184.229 350.754C181.806 348.331 195.331 225.772 199.313 211.313C203.295 196.854 211.425 174.191 211.425 174.191L223.474 176.298Z" fill="#07B2F9"/>
<path d="M223.475 176.298C221.037 192.558 217.834 216.881 217.834 216.881C203.524 198.022 218.201 175.376 218.201 175.376L223.475 176.298Z" fill="#A4D8C8"/>
<path d="M304.356 348.802L264.65 350.821C264.65 350.821 265.121 361.589 266.4 362.463C267.679 363.338 302.135 363.011 303.616 361.626C305.096 360.243 304.356 348.802 304.356 348.802Z" fill="#0A9EE5"/>
<path d="M262.772 177.196C249.763 288.424 260.006 349.812 262.698 351.696C265.39 353.58 303.884 353.715 305.903 350.485C307.922 347.255 298.635 300.954 297.962 287.898C297.289 274.842 297.107 237.321 297.107 237.321L281.841 175.36L262.772 177.196Z" fill="#07B2F9"/>
<path d="M282.105 229.057C280.777 229.886 279.267 230.259 277.703 230.129C276.017 229.99 274.667 229.141 273.334 228.171C271.085 226.534 267.716 224.856 265.349 227.307C264.406 228.284 265.895 229.777 266.84 228.798C267.731 227.875 269.18 228.124 270.223 228.649C271.684 229.385 272.854 230.586 274.321 231.315C277.122 232.707 280.518 232.532 283.169 230.877C284.318 230.16 283.26 228.335 282.105 229.057Z" fill="#F8FB61"/>
<path d="M282.105 234.127C280.777 234.956 279.267 235.329 277.703 235.199C276.017 235.059 274.667 234.211 273.334 233.241C271.085 231.604 267.716 229.926 265.349 232.377C264.406 233.354 265.895 234.847 266.84 233.868C267.731 232.945 269.18 233.194 270.223 233.719C271.684 234.455 272.854 235.656 274.321 236.385C277.122 237.777 280.518 237.602 283.169 235.947C284.318 235.231 283.26 233.406 282.105 234.127Z" fill="#F8FB61"/>
<path d="M269.07 176.589L262.773 177.195C262.039 184.713 258.899 216.88 258.899 216.88C258.899 216.88 277.325 198.661 269.07 176.589Z" fill="#A4D8C8"/>
<path d="M199.035 211.668C198.892 211.668 198.775 211.555 198.771 211.411C198.47 199.327 201.738 186.968 207.973 176.611C208.049 176.485 208.21 176.447 208.335 176.521C208.46 176.596 208.5 176.758 208.425 176.882C202.242 187.155 199 199.412 199.298 211.398C199.302 211.543 199.186 211.664 199.041 211.668C199.039 211.668 199.037 211.668 199.035 211.668Z" fill="#488974"/>
<path d="M295.484 262.751C295.369 262.751 295.264 262.676 295.231 262.561C287.93 237.158 285.527 209.837 288.284 183.55C288.298 183.406 288.428 183.298 288.573 183.315C288.718 183.331 288.823 183.46 288.808 183.605C286.058 209.824 288.454 237.076 295.737 262.414C295.777 262.554 295.696 262.7 295.556 262.74C295.532 262.748 295.508 262.751 295.484 262.751Z" fill="#488974"/>
<path d="M327.923 262.992H327.922C327.776 262.991 327.659 262.873 327.659 262.727C327.691 254.914 327.044 247.048 325.736 239.346C325.712 239.202 325.808 239.066 325.952 239.042C326.094 239.015 326.232 239.113 326.256 239.257C327.569 246.989 328.218 254.886 328.187 262.728C328.186 262.875 328.068 262.992 327.923 262.992Z" fill="#488974"/>
<path d="M153.842 157.847C153.823 157.847 153.804 157.845 153.785 157.841C146.399 156.209 138.84 155.024 131.318 154.32C131.173 154.307 131.067 154.178 131.08 154.033C131.093 153.888 131.226 153.776 131.367 153.795C138.912 154.501 146.492 155.69 153.898 157.327C154.041 157.359 154.13 157.499 154.099 157.641C154.072 157.764 153.963 157.847 153.842 157.847Z" fill="#488974"/>
<path d="M144.686 155.943C144.639 155.943 144.591 155.931 144.548 155.904L137.833 151.781C137.709 151.705 137.67 151.543 137.746 151.419C137.821 151.295 137.984 151.254 138.108 151.332L144.823 155.455C144.947 155.531 144.986 155.693 144.91 155.817C144.861 155.898 144.775 155.943 144.686 155.943Z" fill="#488974"/>
<path d="M331.593 260.42C331.479 260.42 331.375 260.346 331.34 260.232C330.286 256.711 328.916 253.254 327.267 249.962C327.202 249.831 327.255 249.673 327.385 249.608C327.514 249.544 327.673 249.597 327.739 249.725C329.401 253.047 330.782 256.531 331.845 260.082C331.887 260.221 331.808 260.368 331.668 260.409C331.643 260.417 331.617 260.42 331.593 260.42Z" fill="#488974"/>
<path d="M256.206 152.699L258.272 182.264C258.272 182.264 241.402 190.668 230.228 184.123L230.619 161.686L256.206 152.699Z" fill="#EFAD9C"/>
<path d="M230.364 176.298C245.194 175.04 250.407 166.945 250.407 166.945L230.502 168.348L230.364 176.298Z" fill="#AD6253"/>
<path d="M260.881 177.376L240.625 179.297L227.574 177.015C227.26 195.928 255.095 196.373 260.881 177.376Z" fill="#EFAD9C"/>
<path d="M257.685 160.044C263.105 157.355 267.478 152.618 269.727 147.001C271.883 141.616 272.323 135.969 272.503 130.172C273.947 129.626 274.702 127.95 274.659 126.407C274.616 124.864 273.946 123.417 273.288 122.021C275.108 121.986 276.612 120.348 276.976 118.565C277.34 116.781 276.782 114.929 275.962 113.304C274.056 109.531 270.655 106.538 266.67 105.127C266.876 99.2421 264.056 93.3041 259.758 89.2781C257.872 87.5111 255.579 86.0741 253.027 85.6681C250.475 85.2621 247.65 86.0301 246 88.0191C242.496 84.8021 237.566 83.1991 232.841 83.7401C228.115 84.2811 223.675 86.9561 220.989 90.8811C218.637 90.5731 216.544 91.0651 214.343 91.9511C212.142 92.8371 210.211 94.5121 209.291 96.6991C208.371 98.8861 208.577 101.579 210.048 103.44C207.26 105.721 205.269 109.552 204.961 113.141C204.653 116.73 205.855 120.425 208.215 123.147C209.283 129.28 211.472 135.078 214.207 140.67C221.193 154.95 241.909 158.085 257.685 160.044Z" fill="#162A45"/>
<path d="M226.282 103.431C253.887 100.007 268.38 113.286 266.043 139.072C264.183 159.6 252.264 172.372 232.856 172.434C214.979 172.492 212.077 157.901 211.836 142.596C211.493 120.775 209.891 105.464 226.282 103.431Z" fill="#EFAD9C"/>
<path d="M211.666 115.374C211.836 116.092 212.466 116.631 213.161 116.878C213.856 117.125 214.612 117.122 215.348 117.085C220.14 116.843 224.854 115.201 228.759 112.411C228.046 113.529 228.682 115.113 229.781 115.855C230.88 116.597 232.278 116.704 233.604 116.723C237.839 116.785 242.084 116.19 246.139 114.966C245.449 116.399 246.474 118.189 247.909 118.873C249.345 119.557 251.022 119.423 252.598 119.213C251.818 121.832 252.228 124.83 253.274 127.355C254.32 129.88 256.256 132.026 258.659 133.326C257.934 136.048 258.343 139.054 259.769 141.484C261.195 143.914 263.619 145.737 266.349 146.433C267.139 139.135 267.87 131.777 266.297 124.607C264.725 117.437 261.072 110.508 255.145 106.178C249.917 102.359 243.325 100.821 236.858 100.507C231.438 100.244 225.842 100.82 221.001 103.271C216.163 105.722 210.418 110.094 211.666 115.374Z" fill="#162A45"/>
<path d="M213.053 133.551C213.053 133.551 219.374 130.524 223.683 130.085C220.56 127.628 215.063 130.819 213.053 133.551Z" fill="#162A45"/>
<path d="M245.36 133.739C245.36 133.739 239.157 130.477 234.868 129.876C238.081 127.539 243.455 130.934 245.36 133.739Z" fill="#162A45"/>
<path d="M221.537 142.236C221.537 143.605 220.636 144.715 219.525 144.715C218.414 144.715 217.513 143.605 217.513 142.236C217.513 140.867 218.414 139.757 219.525 139.757C220.636 139.757 221.537 140.867 221.537 142.236Z" fill="#162A45"/>
<path d="M219.525 141.335C219.525 141.776 219.242 142.134 218.893 142.134C218.544 142.134 218.261 141.776 218.261 141.335C218.261 140.894 218.544 140.537 218.893 140.537C219.243 140.536 219.525 140.894 219.525 141.335Z" fill="white"/>
<path d="M241.002 142.236C241.002 143.605 240.101 144.715 238.99 144.715C237.879 144.715 236.978 143.605 236.978 142.236C236.978 140.867 237.879 139.757 238.99 139.757C240.101 139.757 241.002 140.867 241.002 142.236Z" fill="#162A45"/>
<path d="M238.99 141.335C238.99 141.776 238.707 142.134 238.359 142.134C238.01 142.134 237.727 141.776 237.727 141.335C237.727 140.894 238.01 140.537 238.359 140.537C238.707 140.536 238.99 140.894 238.99 141.335Z" fill="white"/>
<path d="M227.137 151.365C227.097 151.365 227.059 151.361 227.019 151.354C225.837 151.135 225 150.642 224.599 149.93C224.374 149.529 224.18 148.854 224.533 147.921C224.735 147.391 225.142 146.712 225.572 145.993C225.967 145.336 226.374 144.656 226.538 144.214C226.661 143.885 227.027 143.716 227.358 143.839C227.688 143.962 227.856 144.329 227.733 144.659C227.528 145.21 227.108 145.909 226.665 146.648C226.282 147.287 225.886 147.947 225.725 148.372C225.578 148.758 225.574 149.063 225.71 149.304C225.915 149.671 226.463 149.954 227.252 150.101C227.598 150.164 227.826 150.498 227.761 150.844C227.706 151.15 227.437 151.365 227.137 151.365Z" fill="#AD6253"/>
<path d="M235.19 155.621C232.583 154.785 229.781 154.685 227.09 155.334C226.692 155.43 226.559 155.793 226.633 156.102C226.712 156.429 227.01 156.706 227.432 156.607C229.862 156.021 232.421 156.117 234.828 156.889C234.9 156.912 234.97 156.923 235.038 156.923C235.182 156.923 235.315 156.872 235.424 156.773C235.601 156.612 235.684 156.342 235.631 156.099C235.582 155.868 235.421 155.695 235.19 155.621Z" fill="#944A3B"/>
<path d="M261.454 142.893C259.818 146.937 260.994 150.839 263.922 152.025C266.85 153.211 270.55 150.893 272.186 146.849C273.822 142.805 272.775 138.565 269.847 137.379C266.919 136.193 263.09 138.849 261.454 142.893Z" fill="#EFAD9C"/>
<path d="M264.277 148.108C264.016 148.108 263.77 147.946 263.677 147.685C263.559 147.354 263.73 146.989 264.063 146.871C264.714 146.638 265.435 146.021 265.477 145.215C265.493 144.899 265.375 144.589 265.237 144.23C265.101 143.875 264.947 143.474 264.918 143.014C264.864 142.17 265.194 141.29 265.802 140.659C266.575 139.855 267.588 139.462 268.511 139.613C270.047 139.862 270.85 141.358 270.85 142.706C270.85 143.058 270.565 143.343 270.213 143.343C269.861 143.343 269.576 143.058 269.576 142.706C269.576 141.917 269.132 141.004 268.308 140.87C267.701 140.771 267.078 141.171 266.722 141.542C266.359 141.919 266.161 142.439 266.192 142.934C266.208 143.199 266.315 143.478 266.429 143.773C266.595 144.205 266.782 144.694 266.751 145.282C266.678 146.677 265.565 147.688 264.493 148.07C264.42 148.096 264.348 148.108 264.277 148.108Z" fill="#AD6253"/>
</g>
<defs>
<clipPath id="clip0_520_14683">
<rect width="500" height="500" fill="white"/>
</clipPath>
</defs>
</svg>
