<svg width="500" height="500" viewBox="0 0 500 500" fill="none" xmlns="http://www.w3.org/2000/svg">
<path d="M394.863 155.263L384.379 174.728L391.622 178.629L402.106 159.164L394.863 155.263Z" fill="#20614C"/>
<path d="M396.821 156.318L386.337 175.783L393.58 179.684L404.064 160.219L396.821 156.318Z" fill="#488974"/>
<path d="M396.46 162.194C395.974 163.096 396.311 164.222 397.214 164.708C398.117 165.194 399.242 164.857 399.728 163.954C400.214 163.051 399.876 161.926 398.974 161.44C398.072 160.954 396.946 161.292 396.46 162.194Z" fill="white"/>
<path d="M393.301 158.191C393.392 158.181 393.564 159.036 393.685 160.101C393.806 161.166 393.83 162.038 393.739 162.049C393.648 162.059 393.476 161.204 393.355 160.139C393.234 159.074 393.21 158.202 393.301 158.191Z" fill="#488974"/>
<path d="M392.142 160.345C392.233 160.335 392.405 161.19 392.526 162.255C392.647 163.32 392.671 164.192 392.581 164.202C392.49 164.212 392.318 163.357 392.197 162.292C392.076 161.227 392.051 160.355 392.142 160.345Z" fill="#488974"/>
<path d="M390.981 162.498C391.072 162.488 391.244 163.343 391.365 164.408C391.486 165.474 391.51 166.345 391.419 166.356C391.328 166.366 391.156 165.511 391.035 164.446C390.915 163.38 390.891 162.508 390.981 162.498Z" fill="#488974"/>
<path d="M389.823 164.652C389.914 164.642 390.086 165.497 390.206 166.562C390.327 167.627 390.351 168.499 390.261 168.509C390.171 168.519 389.998 167.664 389.877 166.599C389.756 165.534 389.732 164.662 389.823 164.652Z" fill="#488974"/>
<path d="M388.663 166.805C388.754 166.795 388.926 167.65 389.046 168.715C389.167 169.78 389.191 170.652 389.101 170.663C389.01 170.673 388.838 169.818 388.717 168.753C388.596 167.687 388.572 166.815 388.663 166.805Z" fill="#488974"/>
<path d="M387.502 168.958C387.593 168.948 387.765 169.803 387.886 170.868C388.007 171.933 388.031 172.805 387.94 172.815C387.849 172.825 387.677 171.97 387.556 170.905C387.435 169.841 387.411 168.969 387.502 168.958Z" fill="#488974"/>
<path d="M386.342 171.112C386.433 171.102 386.605 171.957 386.726 173.022C386.847 174.088 386.871 174.959 386.78 174.97C386.689 174.98 386.517 174.125 386.396 173.06C386.275 171.994 386.251 171.122 386.342 171.112Z" fill="#488974"/>
<path d="M394.344 156.303C394.435 156.293 394.607 157.148 394.728 158.213C394.849 159.278 394.873 160.15 394.782 160.16C394.691 160.17 394.519 159.315 394.398 158.25C394.277 157.185 394.253 156.313 394.344 156.303Z" fill="#488974"/>
<path d="M395.636 155.671C395.727 155.661 395.859 156.163 395.93 156.794C396.002 157.425 395.986 157.944 395.895 157.954C395.804 157.964 395.672 157.462 395.601 156.831C395.53 156.201 395.545 155.682 395.636 155.671Z" fill="#488974"/>
<path d="M381.546 171.224L390.418 153.812C390.418 153.812 386.989 151.005 386.38 143.962C385.977 139.301 388.776 136.099 389.156 134.353C389.389 133.286 387.108 132.297 386.093 131.894C385.131 131.512 383.364 131.21 381.964 132.303C379.369 134.33 377.579 141.559 377.579 141.559C377.579 141.559 377.594 143.235 375.783 142.26L369.325 138.781C368.488 138.33 367.515 138.161 366.586 138.365C365.77 138.544 364.905 139.018 364.411 140.139C363.281 142.701 363.983 144.497 363.704 145.014C363.425 145.531 362.226 146.054 361.943 147.82C361.659 149.586 362.052 149.631 361.669 150.342C361.286 151.053 360.44 152.934 360.301 154.277C360.162 155.62 360.4 156.416 360.4 156.416C360.4 156.416 358.853 158.637 358.867 160.346C358.886 162.586 362.532 166.03 364.726 166.171C365.752 166.237 370.089 167.391 372.144 167.914C374.198 168.436 380.253 169.443 381.546 171.224Z" fill="#20614C"/>
<path d="M383.754 172.665L393.123 155.269C393.123 155.269 389.693 152.462 389.085 145.418C388.682 140.757 389.163 137.426 389.543 135.68C389.776 134.613 389.228 133.511 388.212 133.107C387.25 132.725 385.97 132.494 384.571 133.587C381.976 135.614 380.285 143.015 380.285 143.015C380.285 143.015 380.3 144.692 378.489 143.716L372.031 140.237C371.194 139.786 370.221 139.618 369.292 139.821C368.476 140 367.611 140.474 367.117 141.595C365.988 144.157 366.689 145.953 366.41 146.47C366.131 146.987 364.932 147.51 364.649 149.276C364.365 151.042 364.758 151.087 364.375 151.798C363.992 152.509 363.146 154.39 363.006 155.733C362.867 157.076 363.105 157.872 363.105 157.872C363.105 157.872 361.657 160.096 361.572 161.802C361.487 163.508 363.82 165.683 364.726 166.17C365.631 166.658 372.795 168.847 374.849 169.37C376.903 169.893 382.461 170.884 383.754 172.665Z" fill="#488974"/>
<path d="M378.849 137.76C378.94 137.739 379.267 138.834 379.672 140.18C380.075 141.527 380.405 142.621 380.317 142.654C380.233 142.686 379.761 141.634 379.355 140.275C378.946 138.918 378.761 137.78 378.849 137.76Z" fill="#488974"/>
<path d="M379.753 135.247C379.843 135.228 380.143 136.216 380.606 137.405C381.073 138.596 381.379 139.603 381.287 139.634C381.206 139.661 380.767 138.723 380.297 137.522C379.825 136.315 379.663 135.264 379.753 135.247Z" fill="#488974"/>
<path d="M381.059 133.245C381.158 133.223 381.382 134.035 381.824 134.962C382.288 135.899 382.514 136.742 382.424 136.769C382.338 136.795 381.988 136.04 381.524 135.101C381.064 134.133 380.978 133.257 381.059 133.245Z" fill="#488974"/>
<path d="M382.714 131.878C382.799 131.845 383.093 132.398 383.37 133.114C383.647 133.83 383.802 134.436 383.717 134.469C383.632 134.502 383.338 133.949 383.061 133.233C382.784 132.518 382.629 131.911 382.714 131.878Z" fill="#488974"/>
<path d="M384.58 131.553C384.659 131.506 384.898 131.794 385.113 132.196C385.329 132.598 385.437 132.956 385.354 132.995C385.272 133.035 385.033 132.747 384.821 132.352C384.61 131.957 384.502 131.599 384.58 131.553Z" fill="#488974"/>
<path d="M377.7 141.098C377.785 141.065 378.092 141.653 378.384 142.411C378.676 143.169 378.844 143.81 378.759 143.843C378.674 143.876 378.368 143.288 378.075 142.53C377.783 141.772 377.615 141.131 377.7 141.098Z" fill="#488974"/>
<path d="M363.923 141.502C364.004 141.46 364.629 142.51 365.319 143.847C366.009 145.184 366.502 146.302 366.42 146.344C366.339 146.386 365.714 145.336 365.024 143.999C364.335 142.661 363.842 141.544 363.923 141.502Z" fill="#488974"/>
<path d="M365.612 138.607C365.694 138.565 366.091 139.179 366.501 139.977C366.911 140.775 367.177 141.456 367.095 141.498C367.014 141.54 366.616 140.927 366.206 140.128C365.797 139.33 365.531 138.649 365.612 138.607Z" fill="#488974"/>
<path d="M362.636 146.255C362.71 146.206 363.271 146.926 363.785 147.921C364.302 148.915 364.567 149.788 364.484 149.821C364.397 149.856 363.999 149.051 363.491 148.074C362.985 147.095 362.558 146.306 362.636 146.255Z" fill="#488974"/>
<path d="M361.774 150.115C361.857 150.077 362.299 150.855 362.76 151.854C363.222 152.853 363.529 153.693 363.446 153.732C363.363 153.77 362.921 152.992 362.459 151.993C361.998 150.994 361.691 150.153 361.774 150.115Z" fill="#488974"/>
<path d="M360.393 154.486C360.481 154.453 360.912 155.395 361.472 156.538C362.029 157.683 362.507 158.602 362.427 158.651C362.352 158.698 361.74 157.844 361.174 156.683C360.607 155.524 360.31 154.516 360.393 154.486Z" fill="#488974"/>
<path d="M359.426 158.268C359.51 158.237 360.017 159.332 360.675 160.667C361.324 162.008 361.876 163.08 361.799 163.127C361.72 163.176 361.031 162.164 360.377 160.812C359.714 159.465 359.339 158.299 359.426 158.268Z" fill="#488974"/>
<path d="M128.571 47.0373L118.15 51.3696L129.793 79.3745L140.214 75.0422L128.571 47.0373Z" fill="#E0E0E0"/>
<path d="M125.756 48.2072L115.335 52.5396L126.978 80.5444L137.398 76.2121L125.756 48.2072Z" fill="#EBEBEB"/>
<path d="M131.448 70.7259C130.908 69.4269 129.418 68.8129 128.119 69.3519C126.82 69.8919 126.206 71.3819 126.745 72.6809C127.285 73.9799 128.775 74.5939 130.074 74.0549C131.373 73.5149 131.988 72.0239 131.448 70.7259Z" fill="white"/>
<path d="M138.443 70.829C138.375 70.935 137.316 70.377 136.078 69.584C134.839 68.791 133.89 68.062 133.958 67.957C134.026 67.851 135.084 68.409 136.323 69.202C137.561 69.995 138.51 70.723 138.443 70.829Z" fill="#EBEBEB"/>
<path d="M137.153 67.7311C137.085 67.8371 136.027 67.2791 134.788 66.4861C133.549 65.6931 132.6 64.9641 132.668 64.8591C132.736 64.7531 133.794 65.3111 135.033 66.1041C136.272 66.8971 137.221 67.6251 137.153 67.7311Z" fill="#EBEBEB"/>
<path d="M135.865 64.633C135.797 64.739 134.738 64.181 133.5 63.388C132.261 62.595 131.312 61.866 131.38 61.76C131.448 61.654 132.506 62.212 133.745 63.005C134.984 63.799 135.933 64.527 135.865 64.633Z" fill="#EBEBEB"/>
<path d="M134.577 61.5351C134.509 61.6411 133.45 61.0831 132.212 60.2901C130.973 59.4971 130.024 58.7681 130.092 58.6621C130.16 58.5561 131.218 59.1141 132.457 59.9071C133.696 60.7001 134.645 61.4291 134.577 61.5351Z" fill="#EBEBEB"/>
<path d="M133.289 58.437C133.221 58.543 132.163 57.985 130.924 57.192C129.685 56.399 128.736 55.67 128.804 55.565C128.872 55.46 129.93 56.017 131.169 56.81C132.407 57.602 133.356 58.331 133.289 58.437Z" fill="#EBEBEB"/>
<path d="M132.001 55.3381C131.933 55.4441 130.874 54.8861 129.636 54.0931C128.397 53.3001 127.448 52.5711 127.516 52.4651C127.584 52.3591 128.642 52.9171 129.881 53.7101C131.119 54.5041 132.068 55.2331 132.001 55.3381Z" fill="#EBEBEB"/>
<path d="M130.714 52.2399C130.646 52.3459 129.587 51.7879 128.349 50.9949C127.11 50.2019 126.161 49.4729 126.229 49.3669C126.297 49.2609 127.355 49.8179 128.594 50.6119C129.832 51.4059 130.781 52.1349 130.714 52.2399Z" fill="#EBEBEB"/>
<path d="M139.55 73.5729C139.482 73.6789 138.423 73.1209 137.185 72.3279C135.946 71.5349 134.997 70.8059 135.065 70.7009C135.133 70.5949 136.191 71.1529 137.43 71.9459C138.669 72.7389 139.618 73.4679 139.55 73.5729Z" fill="#EBEBEB"/>
<path d="M139.103 75.495C139.035 75.601 138.386 75.306 137.653 74.836C136.92 74.366 136.38 73.9 136.448 73.795C136.516 73.689 137.165 73.984 137.898 74.454C138.631 74.923 139.17 75.389 139.103 75.495Z" fill="#EBEBEB"/>
<path d="M134.745 47.039L145.599 71.55C145.599 71.55 151.554 70.329 159.578 75.777C164.888 79.382 165.873 85.131 167.402 87.048C168.337 88.219 171.362 86.648 172.67 85.917C173.91 85.224 175.761 83.604 175.808 81.169C175.896 76.653 169.752 68.492 169.752 68.492C169.752 68.492 167.955 67.057 170.56 65.974L179.852 62.111C181.057 61.61 182.077 60.721 182.665 59.556C183.181 58.533 183.424 57.202 182.659 55.706C180.91 52.287 178.392 51.479 178.082 50.734C177.773 49.99 178.254 48.262 176.62 46.431C174.986 44.601 174.598 44.98 174.173 43.957C173.747 42.934 172.478 40.406 171.169 39.095C169.86 37.784 168.806 37.349 168.806 37.349C168.806 37.349 167.781 33.78 165.95 32.317C163.55 30.399 156.728 31.299 154.68 33.511C153.722 34.546 148.739 38.164 146.405 39.898C144.071 41.631 137.759 47.204 134.745 47.039Z" fill="#E0E0E0"/>
<path d="M131.301 48.1411L141.707 73.1681C141.707 73.1681 147.662 71.9471 155.686 77.3951C160.996 81.0001 164.125 84.3941 165.655 86.3111C166.59 87.4821 168.237 87.8531 169.545 87.1211C170.784 86.4281 172.138 85.2661 172.186 82.8301C172.274 78.3141 165.861 70.1091 165.861 70.1091C165.861 70.1091 164.064 68.6741 166.669 67.5911L175.961 63.7281C177.166 63.2271 178.186 62.3381 178.774 61.1731C179.29 60.1501 179.533 58.8191 178.768 57.3231C177.019 53.9041 174.5 53.0961 174.191 52.3511C173.882 51.6071 174.363 49.8791 172.729 48.0481C171.095 46.2181 170.707 46.5971 170.282 45.5741C169.857 44.5511 168.587 42.0231 167.278 40.7121C165.969 39.4011 164.915 38.9661 164.915 38.9661C164.915 38.9661 163.801 35.5011 162.059 33.9341C160.316 32.3671 155.983 32.9691 154.681 33.5101C153.379 34.0511 144.849 39.7811 142.514 41.5151C140.179 43.2491 134.316 48.3061 131.301 48.1411Z" fill="#EBEBEB"/>
<path d="M172.696 73.1269C172.64 73.2419 171.191 72.6429 169.408 71.9089C167.625 71.1719 166.176 70.5759 166.217 70.4549C166.256 70.3389 167.783 70.7459 169.582 71.4889C171.38 72.2289 172.751 73.0169 172.696 73.1269Z" fill="#EBEBEB"/>
<path d="M174.588 76.266C174.53 76.379 173.22 75.842 171.553 75.307C169.881 74.773 168.545 74.228 168.591 74.102C168.632 73.992 170.01 74.337 171.696 74.875C173.388 75.419 174.647 76.156 174.588 76.266Z" fill="#EBEBEB"/>
<path d="M175.588 79.389C175.526 79.513 174.467 79.0491 173.098 78.7171C171.699 78.4001 170.606 77.911 170.656 77.792C170.703 77.678 171.809 77.958 173.21 78.277C174.639 78.625 175.645 79.292 175.588 79.389Z" fill="#EBEBEB"/>
<path d="M175.612 82.3319C175.573 82.4509 174.73 82.2849 173.729 81.9609C172.727 81.6359 171.947 81.2769 171.986 81.1569C172.025 81.0379 172.868 81.2039 173.869 81.5289C174.87 81.8529 175.65 82.2129 175.612 82.3319Z" fill="#EBEBEB"/>
<path d="M174.342 84.601C174.324 84.725 173.811 84.731 173.197 84.613C172.583 84.495 172.108 84.3 172.137 84.178C172.166 84.056 172.679 84.051 173.282 84.166C173.886 84.282 174.36 84.477 174.342 84.601Z" fill="#EBEBEB"/>
<path d="M170.137 69.018C170.098 69.137 169.208 68.955 168.148 68.61C167.088 68.265 166.261 67.889 166.3 67.77C166.339 67.651 167.229 67.834 168.289 68.178C169.348 68.522 170.175 68.898 170.137 69.018Z" fill="#EBEBEB"/>
<path d="M181.631 54.0041C181.605 54.1271 179.947 53.883 177.928 53.46C175.908 53.037 174.292 52.5941 174.318 52.4721C174.344 52.3491 176.002 52.593 178.022 53.016C180.04 53.438 181.657 53.8811 181.631 54.0041Z" fill="#EBEBEB"/>
<path d="M183.249 58.307C183.223 58.43 182.226 58.323 181.022 58.068C179.818 57.813 178.863 57.507 178.889 57.384C178.915 57.261 179.912 57.368 181.116 57.623C182.32 57.878 183.275 58.185 183.249 58.307Z" fill="#EBEBEB"/>
<path d="M177.684 48.521C177.672 48.643 176.421 48.616 174.917 48.302C173.411 47.991 172.253 47.518 172.291 47.402C172.329 47.279 173.53 47.552 175.01 47.857C176.488 48.166 177.698 48.393 177.684 48.521Z" fill="#EBEBEB"/>
<path d="M174.323 44.264C174.292 44.386 173.081 44.182 171.619 43.809C170.156 43.436 168.996 43.035 169.027 42.914C169.058 42.792 170.268 42.996 171.731 43.369C173.194 43.741 174.354 44.142 174.323 44.264Z" fill="#EBEBEB"/>
<path d="M170.866 39.01C170.825 39.132 169.449 38.776 167.748 38.382C166.047 37.984 164.655 37.697 164.672 37.569C164.687 37.448 166.126 37.536 167.851 37.939C169.576 38.339 170.906 38.895 170.866 39.01Z" fill="#EBEBEB"/>
<path d="M167.678 34.7079C167.638 34.8249 166.035 34.4159 164.044 33.9599C162.056 33.4899 160.436 33.1499 160.453 33.0279C160.469 32.9009 162.142 33.0439 164.147 33.5179C166.155 33.9769 167.72 34.5869 167.678 34.7079Z" fill="#EBEBEB"/>
<path d="M79.4705 345.269C73.3465 342.109 66.1345 341.698 59.3355 342.822C55.6825 343.426 51.8745 344.519 49.3885 347.262C46.9025 350.006 46.4325 354.834 49.2855 357.192C50.9845 358.595 53.3535 358.808 55.5575 358.783C60.8795 358.721 66.7855 357.784 71.0385 360.986C73.4645 362.813 75.0795 365.851 77.9805 366.749C80.8185 367.628 84.0205 365.953 85.5255 363.392C87.0305 360.831 87.0805 357.629 86.3785 354.743C86.3785 354.743 85.6395 348.452 79.4705 345.269Z" fill="#EBEBEB"/>
<path d="M93.5017 318.183C89.7567 323.531 82.4777 321.761 79.1037 318.496C75.7287 315.231 74.3027 310.5 73.0037 305.987C70.0367 295.677 67.0457 284.862 69.2517 274.363C69.9117 271.224 71.0847 268.094 73.2907 265.765C75.4957 263.437 78.8877 262.051 81.9887 262.87C85.6587 263.839 87.9397 267.434 89.5877 270.853C94.4337 280.903 96.9997 292.046 97.0367 303.204C97.0557 308.416 96.4417 313.88 93.5017 318.183Z" fill="#EBEBEB"/>
<path d="M103.785 325.857C99.7193 321.031 98.9473 313.993 100.756 307.947C102.566 301.901 106.653 296.759 111.364 292.56C116.887 287.637 123.38 283.807 130.359 281.352C133.106 280.386 136.003 279.624 138.902 279.901C141.801 280.177 144.719 281.66 146.071 284.238C148.07 288.051 146.153 292.675 144.08 296.448C140.428 303.095 136.252 309.454 131.604 315.447C127.865 320.268 123.581 325.024 117.882 327.203C112.183 329.382 106.263 329.125 103.242 325.173" fill="#EBEBEB"/>
<path d="M93.7557 398.866C93.6857 398.87 93.5717 398.004 93.4167 396.436C93.2447 394.667 93.0287 392.446 92.7707 389.803C92.4617 387.012 92.0537 383.691 91.2787 380.074C90.5057 376.466 89.2967 372.556 87.7427 368.591C86.1337 364.649 84.1717 361.067 81.8787 358.201C79.6017 355.323 76.9547 353.24 74.4657 352.038C71.9857 350.813 69.7607 350.315 68.2227 350.094C66.6717 349.935 65.8037 349.813 65.8027 349.744C65.8017 349.675 66.6717 349.664 68.2657 349.706C69.8437 349.811 72.1607 350.211 74.7757 351.4C77.3987 352.563 80.2077 354.679 82.5957 357.617C85.0027 360.542 87.0367 364.204 88.6737 368.216C90.2547 372.251 91.4457 376.201 92.1847 379.887C92.9207 383.567 93.2577 386.925 93.4787 389.739C93.6897 392.556 93.7687 394.836 93.8077 396.413C93.8417 397.988 93.8237 398.862 93.7557 398.866Z" fill="#E0E0E0"/>
<path d="M93.2972 393.763C93.2622 393.761 93.2412 393.373 93.2322 392.635C93.2342 391.788 93.2372 390.72 93.2412 389.41C93.2492 386.612 93.2472 382.561 93.0972 377.56C92.8492 367.557 91.9882 356.793 90.3252 341.616C88.7502 327.345 86.6352 310.737 84.4042 299.939C83.9252 297.483 83.4442 295.273 82.9902 293.338C82.5572 291.398 82.1882 289.726 81.8322 288.373C81.5262 287.099 81.2772 286.062 81.0782 285.238C80.9162 284.518 80.8482 284.135 80.8812 284.125C80.9142 284.116 81.0482 284.48 81.2732 285.182C81.5192 285.994 81.8292 287.016 82.2092 288.272C82.6242 289.613 83.0502 291.274 83.5362 293.206C84.0422 295.133 84.5742 297.338 85.0982 299.79C87.3062 309.574 89.6432 323.249 91.3222 338.462C92.9892 353.67 93.7402 367.518 93.8062 377.546C93.8662 382.56 93.7592 386.618 93.6312 389.419C93.5512 390.729 93.4862 391.795 93.4342 392.642C93.3782 393.379 93.3322 393.764 93.2972 393.763Z" fill="#E0E0E0"/>
<path d="M93.2313 367.054C93.1613 367.052 93.1733 365.855 93.2553 363.685C93.3793 361.52 93.6773 358.391 94.2873 354.558C94.9333 350.734 95.8373 346.194 97.2553 341.26C97.8703 339.005 99.3153 333.6 102.816 325.525C107.428 314.583 113.695 305.638 119.146 300.097C120.425 298.627 121.849 297.566 122.988 296.526C123.577 296.028 124.098 295.531 124.629 295.137C125.163 294.769 125.659 294.427 126.119 294.11C127.913 292.883 128.918 292.236 128.955 292.294C129.116 292.513 124.937 294.973 119.659 300.587C114.403 306.19 108.311 315.074 103.737 325.923C101.186 331.808 99.4073 337.057 98.1453 341.513C96.6873 346.399 95.7183 350.893 94.9863 354.678C94.2913 358.472 93.8883 361.57 93.6453 363.715C93.4433 365.865 93.2993 367.056 93.2313 367.054Z" fill="#E0E0E0"/>
<path d="M119.047 414.168L116.37 450.833H69.2678L66.5908 414.168H119.047Z" fill="#E0E0E0"/>
<path d="M123.596 399.716H60.9707V414.168H123.596V399.716Z" fill="#E0E0E0"/>
<path d="M123.596 449.43V453.436H120.654H62.0059V449.43H123.596Z" fill="#EBEBEB"/>
<path d="M117.768 460.486L120.653 453.436H64.249L67.614 460.486H117.768Z" fill="#E0E0E0"/>
<path d="M67.4659 426.151C67.4549 426.16 67.5299 426.274 67.6859 426.488C67.8729 426.736 68.1039 427.043 68.3899 427.422C69.0589 428.278 69.9779 429.454 71.1339 430.933L71.2559 431.089L71.3739 430.926C73.0989 428.541 75.4029 425.354 78.1149 421.602H77.7269C79.7319 424.441 81.9659 427.604 84.3639 431L84.5719 431.295L84.8049 431.018C87.2539 428.104 89.9149 424.939 92.6759 421.653L92.2219 421.647C92.3589 421.819 92.5059 422.005 92.6549 422.191C95.0959 425.251 97.4589 428.213 99.6929 431.015L99.9279 431.309L100.145 431.003C102.534 427.622 104.767 424.463 106.785 421.608L106.399 421.626C109.671 425.354 112.447 428.517 114.577 430.943L114.722 431.109L114.833 430.923C115.911 429.112 116.77 427.668 117.394 426.621C117.662 426.154 117.878 425.776 118.051 425.475C118.196 425.213 118.264 425.074 118.252 425.067C118.239 425.059 118.146 425.183 117.978 425.43C117.787 425.72 117.547 426.083 117.251 426.532C116.597 427.56 115.695 428.977 114.563 430.755L114.819 430.734C112.723 428.278 109.992 425.077 106.772 421.303L106.569 421.065L106.385 421.321C104.348 424.164 102.096 427.309 99.6849 430.674L100.136 430.662C97.9069 427.857 95.5499 424.89 93.1149 421.825C92.9669 421.638 92.8189 421.453 92.6819 421.281L92.4569 421L92.2269 421.275C89.4729 424.567 86.8199 427.738 84.3779 430.658L84.8189 430.675C82.3969 427.296 80.1409 424.15 78.1159 421.325L77.9189 421.051L77.7269 421.325C75.0719 425.117 72.8169 428.339 71.1279 430.75L71.3679 430.743C70.1649 429.301 69.2089 428.155 68.5139 427.321C68.2039 426.962 67.9529 426.671 67.7489 426.436C67.5729 426.24 67.4769 426.142 67.4659 426.151Z" fill="#F5F5F5"/>
<path d="M65.9355 413.926C65.9355 414.088 77.7375 414.219 92.2935 414.219C106.855 414.219 118.655 414.088 118.655 413.926C118.655 413.764 106.855 413.633 92.2935 413.633C77.7375 413.633 65.9355 413.764 65.9355 413.926Z" fill="#F5F5F5"/>
<path d="M63.5557 453.831C63.5557 453.993 76.3827 454.124 92.2017 454.124C108.027 454.124 120.851 453.993 120.851 453.831C120.851 453.669 108.027 453.538 92.2017 453.538C76.3827 453.538 63.5557 453.669 63.5557 453.831Z" fill="#F5F5F5"/>
<path d="M342.46 274.368C360.083 274.368 374.369 260.082 374.369 242.459C374.369 224.836 360.083 210.55 342.46 210.55C324.837 210.55 310.551 224.836 310.551 242.459C310.551 260.082 324.837 274.368 342.46 274.368Z" fill="#EBEBEB"/>
<path d="M371.889 237.006C372.433 236.977 373.029 237.814 373.471 239.463C373.918 241.107 374.113 243.57 373.725 246.595C373.345 249.615 372.282 253.173 370.28 256.754C368.292 260.329 365.291 263.889 361.353 266.695C357.384 269.459 353.02 271.085 348.984 271.753C344.937 272.432 341.229 272.234 338.258 271.575C335.28 270.921 333.026 269.907 331.629 268.933C330.226 267.961 329.638 267.118 329.849 266.616C330.312 265.516 333.713 266.133 338.779 265.866C343.8 265.654 350.717 264.252 356.685 260.067C362.633 255.858 366.284 249.819 368.174 245.163C370.132 240.482 370.697 237.071 371.889 237.006Z" fill="#E0E0E0"/>
<path d="M343.922 250.196C347.24 249.898 350.579 248.591 352.72 246.255C353.996 244.862 355.169 242.75 355.022 240.867C354.875 238.984 353.449 237.149 351.571 236.945C350.238 236.801 348.953 237.447 347.821 238.166C346.69 238.885 345.58 239.715 344.273 240.011C342.4 240.435 340.481 239.692 338.712 238.946C336.943 238.199 335.052 237.416 333.163 237.759C332.107 237.95 330.69 238.371 330.124 239.833C330.124 239.833 329.17 241.913 331.088 244.693C332.809 247.188 337.365 250.786 343.922 250.196Z" fill="white"/>
<path d="M329.422 232.044C328.895 230.981 327.673 230.376 326.522 230.519C326.159 230.535 325.826 230.655 325.535 230.852C325.525 230.858 325.515 230.862 325.506 230.868L325.519 230.864C324.643 231.47 324.148 232.756 324.352 233.86C324.633 235.384 326.451 236.403 327.908 235.874C329.364 235.346 330.111 233.433 329.422 232.044Z" fill="white"/>
<path d="M359.782 232.144C359.255 231.081 358.033 230.476 356.882 230.619C356.519 230.635 356.186 230.755 355.895 230.952C355.885 230.958 355.875 230.962 355.866 230.968L355.879 230.964C355.003 231.57 354.508 232.856 354.712 233.96C354.993 235.484 356.811 236.503 358.267 235.974C359.723 235.445 360.47 233.532 359.782 232.144Z" fill="white"/>
<path d="M347.642 91.785C360.809 91.785 371.483 81.111 371.483 67.944C371.483 54.777 360.809 44.103 347.642 44.103C334.475 44.103 323.801 54.777 323.801 67.944C323.801 81.111 334.475 91.785 347.642 91.785Z" fill="#EBEBEB"/>
<path d="M369.628 63.8699C370.034 63.8479 370.48 64.4739 370.81 65.7049C371.144 66.9329 371.29 68.7739 371 71.0339C370.716 73.2899 369.922 75.9489 368.426 78.6239C366.94 81.2949 364.699 83.9549 361.757 86.0509C358.791 88.1159 355.531 89.3309 352.515 89.8299C349.492 90.3369 346.722 90.1889 344.502 89.6969C342.277 89.2079 340.593 88.4509 339.549 87.7229C338.501 86.9969 338.061 86.3669 338.218 85.9919C338.564 85.1699 341.105 85.6309 344.89 85.4309C348.641 85.2729 353.81 84.2249 358.269 81.0989C362.713 77.9549 365.44 73.4419 366.852 69.9639C368.316 66.4669 368.738 63.9179 369.628 63.8699Z" fill="#E0E0E0"/>
<path d="M346.548 63.857C344.069 64.08 341.574 65.056 339.975 66.802C339.022 67.843 338.146 69.421 338.255 70.828C338.365 72.235 339.43 73.606 340.834 73.758C341.83 73.866 342.79 73.383 343.635 72.846C344.48 72.308 345.309 71.688 346.286 71.467C347.685 71.151 349.119 71.705 350.441 72.263C351.763 72.821 353.175 73.406 354.587 73.15C355.376 73.007 356.435 72.693 356.858 71.6C356.858 71.6 357.571 70.046 356.138 67.969C354.852 66.105 351.447 63.417 346.548 63.857Z" fill="white"/>
<path d="M337.901 60.1631C337.507 59.3691 336.595 58.9171 335.734 59.0241C335.463 59.0361 335.214 59.1251 334.997 59.2731C334.99 59.2771 334.982 59.2801 334.975 59.2851L334.985 59.2821C334.331 59.7351 333.961 60.6961 334.113 61.5201C334.323 62.6591 335.681 63.4201 336.77 63.0251C337.857 62.6301 338.415 61.2001 337.901 60.1631Z" fill="white"/>
<path d="M360.583 60.2371C360.189 59.4431 359.276 58.9911 358.416 59.0981C358.145 59.1101 357.896 59.2001 357.679 59.3471C357.672 59.3511 357.664 59.3541 357.657 59.3591L357.666 59.3561C357.012 59.8091 356.642 60.7701 356.794 61.5941C357.004 62.7321 358.362 63.4941 359.45 63.0991C360.54 62.7041 361.098 61.2741 360.583 60.2371Z" fill="white"/>
<path d="M55.7 245.251C67.4322 245.251 76.943 235.74 76.943 224.008C76.943 212.276 67.4322 202.765 55.7 202.765C43.9678 202.765 34.457 212.276 34.457 224.008C34.457 235.74 43.9678 245.251 55.7 245.251Z" fill="#EBEBEB"/>
<path d="M75.291 220.377C75.653 220.357 76.05 220.915 76.344 222.012C76.641 223.107 76.771 224.746 76.513 226.76C76.26 228.77 75.553 231.139 74.22 233.523C72.896 235.903 70.899 238.273 68.277 240.141C65.635 241.981 62.729 243.064 60.042 243.508C57.348 243.96 54.879 243.828 52.901 243.389C50.918 242.954 49.418 242.279 48.488 241.63C47.554 240.983 47.163 240.422 47.303 240.087C47.611 239.355 49.875 239.765 53.248 239.588C56.59 239.447 61.195 238.513 65.168 235.728C69.128 232.926 71.558 228.906 72.817 225.806C74.122 222.691 74.498 220.421 75.291 220.377Z" fill="#E0E0E0"/>
<path d="M56.673 229.158C58.882 228.959 61.105 228.09 62.53 226.534C63.38 225.607 64.16 224.201 64.062 222.947C63.964 221.693 63.015 220.472 61.764 220.336C60.877 220.24 60.021 220.67 59.268 221.149C58.515 221.628 57.776 222.181 56.906 222.377C55.659 222.659 54.381 222.165 53.204 221.668C52.026 221.171 50.768 220.65 49.51 220.878C48.807 221.005 47.864 221.285 47.487 222.259C47.487 222.259 46.852 223.643 48.129 225.495C49.275 227.156 52.308 229.551 56.673 229.158Z" fill="white"/>
<path d="M47.0207 217.074C46.6697 216.367 45.8567 215.963 45.0897 216.059C44.8477 216.069 44.6267 216.149 44.4327 216.281C44.4267 216.285 44.4197 216.288 44.4137 216.291L44.4227 216.288C43.8397 216.692 43.5097 217.548 43.6457 218.282C43.8327 219.296 45.0427 219.975 46.0127 219.623C46.9817 219.273 47.4787 217.999 47.0207 217.074Z" fill="white"/>
<path d="M67.2307 217.14C66.8797 216.432 66.0667 216.029 65.2997 216.125C65.0577 216.135 64.8367 216.215 64.6427 216.347C64.6367 216.351 64.6297 216.354 64.6237 216.357L64.6327 216.354C64.0497 216.758 63.7197 217.614 63.8557 218.348C64.0427 219.362 65.2527 220.041 66.2227 219.689C67.1917 219.339 67.6887 218.064 67.2307 217.14Z" fill="white"/>
<path d="M400.522 392.141L364.916 392.329L365.116 430.099L400.722 429.911L400.522 392.141Z" fill="#EBEBEB"/>
<path d="M435.996 391.911L400.39 392.104L400.594 429.874L436.2 429.681L435.996 391.911Z" fill="#F5F5F5"/>
<path d="M364.984 402.737C388.646 402.933 412.367 402.794 436.027 402.41C436.514 402.403 436.511 401.656 436.023 401.654C412.361 401.523 388.64 401.639 364.982 402.089C364.564 402.097 364.567 402.734 364.984 402.737Z" fill="#E0E0E0"/>
<path d="M407.442 429.245L342.752 429.594L342.918 460.374L407.608 460.025L407.442 429.245Z" fill="#EBEBEB"/>
<path d="M471.828 428.897L407.138 429.246L407.304 460.026L471.994 459.677L471.828 428.897Z" fill="#F5F5F5"/>
<path d="M342.775 438.163C385.75 438.649 428.875 438.213 471.848 437.526C472.335 437.518 472.332 436.771 471.844 436.769C428.866 436.542 385.739 436.567 342.772 437.514C342.355 437.523 342.357 438.158 342.775 438.163Z" fill="#E0E0E0"/>
<path d="M338.671 261.501L287.878 245.207L227.09 244.982C227.09 244.982 180.177 259.61 174.483 262.634L171.863 389.066L169.826 461.162L335.505 460.277V372.953L338.671 261.501Z" fill="#F8FB61"/>
<path d="M174.483 262.634C174.483 262.634 155.552 278.21 145.696 304.269C138.941 322.13 123.58 361.76 123.58 361.76L171.707 378.824L182.592 301.972L174.483 262.634Z" fill="#F8FB61"/>
<path d="M332.776 259.61C332.776 259.61 345.312 260.675 357.598 280.373C366.264 294.266 387.372 355.078 387.372 355.078L331.818 374.491L318.408 364.165L332.776 259.61Z" fill="#F8FB61"/>
<path d="M171.864 293.901C172.008 293.901 172.124 315.206 172.124 341.481C172.124 367.765 172.007 389.066 171.864 389.066C171.72 389.066 171.604 367.765 171.604 341.481C171.603 315.206 171.72 293.901 171.864 293.901Z" fill="#263238"/>
<path d="M169.476 298.461C169.458 298.516 168.476 298.27 166.994 297.588C165.513 296.911 163.557 295.741 161.697 294.075C159.841 292.402 158.469 290.582 157.638 289.182C156.803 287.78 156.453 286.831 156.506 286.807C156.655 286.708 158.364 290.421 162.045 293.688C165.684 296.998 169.558 298.302 169.476 298.461Z" fill="white"/>
<path d="M333.222 302.68C333.226 302.688 333.1 302.757 332.851 302.884C332.579 303.019 332.21 303.202 331.739 303.436C330.731 303.923 329.287 304.621 327.438 305.515C326.5 305.964 325.46 306.462 324.323 307.006C323.17 307.519 321.886 308.004 320.523 308.563C317.779 309.637 314.71 311.015 311.157 312.099C309.395 312.684 307.55 313.297 305.629 313.936C303.702 314.562 301.645 315.031 299.543 315.617C298.489 315.898 297.416 316.184 296.327 316.475C295.781 316.615 295.236 316.778 294.677 316.903C294.116 317.018 293.551 317.133 292.981 317.25C290.703 317.716 288.358 318.195 285.955 318.686C276.286 320.356 265.525 321.496 254.19 321.554C242.851 321.493 232.088 320.349 222.418 318.675C220.014 318.183 217.669 317.703 215.391 317.236C214.822 317.119 214.256 317.003 213.695 316.888C213.136 316.762 212.591 316.6 212.045 316.46C210.956 316.169 209.883 315.883 208.829 315.601C206.727 315.015 204.669 314.545 202.743 313.918C200.821 313.279 198.977 312.665 197.215 312.079C193.662 310.994 190.594 309.614 187.851 308.54C186.488 307.98 185.204 307.495 184.052 306.981C182.916 306.436 181.876 305.938 180.938 305.489C179.09 304.595 177.646 303.897 176.639 303.409C176.168 303.175 175.799 302.992 175.527 302.857C175.278 302.73 175.152 302.661 175.156 302.653C175.16 302.645 175.294 302.698 175.551 302.809C175.829 302.933 176.205 303.101 176.685 303.315C177.701 303.781 179.158 304.449 181.023 305.305C181.965 305.741 183.01 306.225 184.151 306.754C185.308 307.254 186.595 307.724 187.961 308.27C190.71 309.317 193.782 310.67 197.334 311.73C199.095 312.304 200.939 312.906 202.859 313.533C204.784 314.148 206.84 314.607 208.938 315.183C209.991 315.459 211.061 315.741 212.149 316.027C212.694 316.165 213.239 316.325 213.796 316.448C214.356 316.561 214.92 316.674 215.489 316.789C217.763 317.247 220.102 317.719 222.501 318.203C232.15 319.846 242.882 320.972 254.188 321.033C265.491 320.976 276.221 319.853 285.868 318.214C288.267 317.731 290.607 317.26 292.88 316.803C293.448 316.689 294.013 316.575 294.573 316.463C295.131 316.34 295.675 316.18 296.22 316.042C297.308 315.757 298.379 315.476 299.432 315.2C301.531 314.625 303.587 314.166 305.511 313.552C307.432 312.926 309.276 312.325 311.037 311.751C314.59 310.692 317.662 309.34 320.412 308.294C321.778 307.748 323.066 307.278 324.223 306.779C325.365 306.251 326.41 305.767 327.352 305.331C329.217 304.476 330.674 303.808 331.691 303.343C332.172 303.129 332.548 302.961 332.826 302.837C333.084 302.725 333.218 302.672 333.222 302.68Z" fill="white"/>
<path d="M357.514 285.167C357.538 285.194 357.31 285.442 356.876 285.868C356.444 286.297 355.794 286.89 354.971 287.602C353.326 289.025 350.954 290.884 348.179 292.712C345.4 294.537 342.754 295.979 340.796 296.926C339.817 297.4 339.014 297.762 338.45 297.989C337.887 298.219 337.569 298.33 337.554 298.298C337.521 298.226 338.722 297.626 340.629 296.599C342.536 295.573 345.134 294.091 347.894 292.278C350.651 290.462 353.04 288.664 354.738 287.319C356.434 285.974 357.461 285.108 357.514 285.167Z" fill="white"/>
<path d="M171.056 309.754C171.047 309.789 170.718 309.729 170.128 309.59C169.537 309.459 168.696 309.205 167.677 308.835C165.639 308.102 162.912 306.786 160.239 304.816C157.571 302.838 155.511 300.617 154.213 298.884C153.561 298.018 153.072 297.29 152.772 296.763C152.466 296.24 152.312 295.944 152.343 295.925C152.419 295.877 153.139 297.001 154.502 298.656C155.86 300.311 157.925 302.452 160.549 304.398C163.179 306.335 165.831 307.681 167.812 308.492C169.793 309.308 171.08 309.666 171.056 309.754Z" fill="white"/>
<path d="M330.357 320.049C330.361 320.057 330.236 320.123 329.988 320.244C329.717 320.373 329.35 320.547 328.881 320.769C327.877 321.232 326.44 321.895 324.601 322.744C323.667 323.171 322.632 323.644 321.501 324.16C320.354 324.645 319.077 325.096 317.721 325.621C314.992 326.624 311.938 327.928 308.407 328.915C306.656 329.453 304.822 330.017 302.912 330.605C300.997 331.179 298.955 331.59 296.867 332.117C295.82 332.369 294.755 332.625 293.673 332.885C293.131 333.01 292.589 333.157 292.035 333.267C291.479 333.366 290.918 333.465 290.353 333.565C288.093 333.965 285.768 334.376 283.383 334.797C273.799 336.181 263.149 336.989 251.966 336.676C240.783 336.242 230.208 334.726 220.737 332.706C218.386 332.126 216.093 331.561 213.864 331.012C213.307 330.874 212.754 330.738 212.206 330.603C211.66 330.457 211.129 330.274 210.597 330.113C209.535 329.781 208.489 329.455 207.461 329.134C205.413 328.469 203.403 327.923 201.53 327.222C199.663 326.509 197.871 325.824 196.16 325.17C192.703 323.95 189.743 322.445 187.087 321.262C185.769 320.647 184.525 320.113 183.413 319.552C182.319 318.961 181.318 318.42 180.415 317.932C178.637 316.963 177.247 316.205 176.277 315.676C175.824 315.423 175.47 315.225 175.208 315.078C174.969 314.941 174.848 314.867 174.853 314.859C174.857 314.851 174.987 314.91 175.235 315.032C175.503 315.167 175.866 315.35 176.329 315.584C177.309 316.092 178.713 316.82 180.51 317.752C181.418 318.227 182.424 318.753 183.524 319.329C184.641 319.875 185.889 320.396 187.21 320.997C189.873 322.153 192.837 323.63 196.295 324.826C198.006 325.468 199.798 326.141 201.664 326.842C203.535 327.531 205.544 328.066 207.589 328.721C208.616 329.037 209.66 329.358 210.72 329.685C211.252 329.843 211.782 330.024 212.327 330.168C212.875 330.301 213.427 330.435 213.983 330.57C216.207 331.111 218.495 331.668 220.842 332.239C230.293 334.227 240.837 335.725 251.985 336.157C263.134 336.468 273.752 335.677 283.313 334.324C285.692 333.911 288.012 333.508 290.267 333.117C290.831 333.019 291.39 332.922 291.946 332.826C292.499 332.719 293.04 332.574 293.581 332.452C294.661 332.197 295.724 331.946 296.769 331.699C298.853 331.182 300.893 330.782 302.806 330.22C304.715 329.645 306.548 329.093 308.298 328.566C311.828 327.604 314.884 326.327 317.618 325.352C318.976 324.84 320.257 324.404 321.408 323.933C322.544 323.432 323.583 322.974 324.521 322.56C326.376 321.75 327.826 321.117 328.838 320.676C329.316 320.473 329.69 320.315 329.967 320.198C330.22 320.091 330.353 320.041 330.357 320.049Z" fill="white"/>
<path d="M363.171 291.843C363.195 291.869 362.885 292.199 362.303 292.773C361.723 293.348 360.86 294.157 359.777 295.138C357.611 297.099 354.533 299.717 350.991 302.428C347.446 305.138 344.114 307.424 341.654 309.001C340.425 309.79 339.418 310.411 338.711 310.82C338.005 311.232 337.606 311.445 337.587 311.414C337.568 311.383 337.93 311.112 338.602 310.649C339.362 310.128 340.315 309.473 341.45 308.694C343.852 307.042 347.14 304.715 350.675 302.014C354.206 299.311 357.312 296.747 359.535 294.86C360.584 293.969 361.465 293.219 362.167 292.623C362.79 292.095 363.147 291.816 363.171 291.843Z" fill="white"/>
<path d="M245.397 402.632C245.398 402.65 245.146 402.677 244.666 402.713C244.134 402.746 243.436 402.79 242.564 402.844C241.651 402.905 240.533 402.946 239.234 402.971C237.935 403.006 236.456 403.043 234.82 403.026C231.548 403.052 227.654 402.906 223.335 402.678C219.018 402.403 214.279 401.99 209.323 401.386C204.369 400.76 199.671 400.002 195.417 399.214C191.172 398.379 187.36 397.569 184.194 396.744C182.604 396.361 181.178 395.964 179.927 395.612C178.673 395.271 177.599 394.957 176.729 394.675C175.897 394.409 175.23 394.196 174.723 394.034C174.266 393.882 174.029 393.794 174.034 393.777C174.039 393.76 174.287 393.814 174.753 393.934C175.267 394.072 175.942 394.254 176.785 394.481C177.663 394.733 178.743 395.017 180.002 395.331C181.258 395.656 182.687 396.027 184.28 396.386C187.451 397.163 191.264 397.934 195.504 398.742C199.754 399.502 204.442 400.245 209.386 400.869C214.331 401.471 219.058 401.898 223.364 402.199C227.672 402.453 231.557 402.637 234.822 402.658C236.454 402.699 237.931 402.688 239.229 402.68C240.527 402.683 241.644 402.671 242.557 402.642C243.43 402.628 244.129 402.617 244.661 402.608C245.142 402.606 245.396 402.614 245.397 402.632Z" fill="white"/>
<path d="M232.746 413.883C232.746 413.901 232.531 413.92 232.122 413.94C231.657 413.956 231.062 413.977 230.328 414.003C229.549 414.034 228.595 414.043 227.488 414.023C226.381 414.013 225.119 414.008 223.727 413.938C220.939 413.858 217.628 413.603 213.958 413.259C210.292 412.88 206.27 412.37 202.068 411.719C193.662 410.395 186.123 408.823 180.684 407.621C177.964 407.021 175.769 406.511 174.254 406.144C173.542 405.966 172.965 405.822 172.514 405.71C172.117 405.605 171.911 405.542 171.915 405.524C171.919 405.506 172.133 405.536 172.537 405.607C172.994 405.695 173.578 405.807 174.298 405.946C175.889 406.27 178.081 406.715 180.76 407.26C186.216 408.37 193.758 409.882 202.148 411.204C206.343 411.853 210.352 412.376 214.007 412.781C217.665 413.15 220.965 413.443 223.744 413.569C225.132 413.662 226.39 413.693 227.494 413.73C228.598 413.777 229.55 413.798 230.328 413.798C231.061 413.812 231.655 413.824 232.121 413.833C232.53 413.849 232.745 413.865 232.746 413.883Z" fill="white"/>
<path d="M335.505 391.675C335.507 391.684 335.433 391.709 335.287 391.749C335.11 391.794 334.896 391.848 334.636 391.915C334.017 392.06 333.178 392.256 332.12 392.503C329.934 393.011 326.755 393.678 322.816 394.441C314.938 395.97 303.983 397.75 291.799 399.016C279.609 400.271 268.521 400.77 260.496 400.885C256.484 400.945 253.236 400.942 250.993 400.892C249.907 400.867 249.045 400.846 248.41 400.831C248.141 400.819 247.921 400.81 247.739 400.802C247.588 400.793 247.51 400.783 247.51 400.774C247.51 400.765 247.588 400.756 247.739 400.748C247.922 400.742 248.142 400.734 248.411 400.725C249.046 400.716 249.908 400.703 250.994 400.688C253.236 400.676 256.481 400.622 260.489 400.515C268.504 400.306 279.573 399.749 291.746 398.496C303.913 397.232 314.861 395.512 322.75 394.077C326.695 393.362 329.882 392.75 332.08 392.303C333.146 392.096 333.992 391.932 334.616 391.811C334.881 391.765 335.098 391.727 335.278 391.696C335.425 391.674 335.503 391.666 335.505 391.675Z" fill="white"/>
<path d="M335.505 405.525C335.507 405.534 335.422 405.558 335.256 405.595C335.059 405.636 334.816 405.687 334.516 405.75C333.823 405.883 332.869 406.065 331.661 406.296C329.179 406.757 325.582 407.397 321.124 408.109C316.67 408.845 311.348 409.608 305.429 410.387C299.505 411.123 292.978 411.837 286.108 412.368C279.233 412.872 272.668 413.13 266.695 413.183C260.722 413.149 255.34 413.019 250.839 412.605C249.713 412.511 248.64 412.445 247.628 412.339C246.619 412.218 245.667 412.104 244.774 411.998C243.886 411.89 243.057 411.79 242.292 411.697C241.531 411.591 240.841 411.459 240.217 411.358C239.005 411.146 238.048 410.979 237.353 410.857C237.052 410.799 236.808 410.752 236.611 410.714C236.444 410.679 236.36 410.657 236.361 410.648C236.363 410.639 236.45 410.644 236.62 410.662C236.819 410.687 237.066 410.717 237.371 410.754C238.069 410.852 239.03 410.987 240.247 411.158C240.872 411.244 241.563 411.361 242.324 411.452C243.09 411.531 243.918 411.617 244.807 411.71C245.699 411.804 246.651 411.904 247.659 412.011C248.67 412.104 249.742 412.158 250.866 412.24C255.36 412.606 260.732 412.698 266.692 412.705C272.654 412.626 279.205 412.354 286.069 411.851C292.929 411.32 299.449 410.622 305.37 409.913C311.286 409.16 316.609 408.437 321.068 407.747C325.53 407.081 329.135 406.497 331.627 406.098C332.842 405.908 333.801 405.758 334.499 405.649C334.803 405.607 335.049 405.573 335.248 405.545C335.416 405.522 335.504 405.516 335.505 405.525Z" fill="white"/>
<path d="M304.591 352.699C304.597 352.706 304.517 352.782 304.355 352.924C304.17 353.082 303.931 353.287 303.63 353.545C302.959 354.104 302.015 354.891 300.812 355.893C298.332 357.947 294.79 360.882 290.424 364.499C281.662 371.777 269.619 381.905 256.485 393.285C243.35 404.674 231.614 415.158 223.166 422.798C218.966 426.607 215.558 429.696 213.173 431.859C212.01 432.908 211.097 433.73 210.449 434.315C210.151 434.576 209.914 434.784 209.732 434.944C209.568 435.084 209.482 435.152 209.475 435.145C209.468 435.138 209.544 435.057 209.695 434.905C209.869 434.735 210.094 434.515 210.377 434.238C211.01 433.636 211.9 432.789 213.035 431.71C215.349 429.52 218.724 426.381 222.918 422.526C231.304 414.815 243.005 404.284 256.144 392.892C269.281 381.508 281.366 371.422 290.19 364.215C294.601 360.611 298.189 357.715 300.685 355.736C301.915 354.766 302.88 354.004 303.565 353.463C303.88 353.222 304.129 353.03 304.322 352.882C304.495 352.754 304.586 352.692 304.591 352.699Z" fill="#263238"/>
<g opacity="0.3">
<path d="M255.147 394.41L220.724 424.775C250.37 411.342 275.693 390.899 292.163 362.826L255.147 394.41Z" fill="black"/>
</g>
<g opacity="0.3">
<path d="M335.505 372.953C342.948 357.864 343.116 328.283 335.602 311.973C336.05 330.314 336.009 354.655 335.505 372.953Z" fill="black"/>
</g>
<path d="M335.505 297.371C335.649 297.371 335.765 333.842 335.765 378.82C335.765 423.814 335.648 460.277 335.505 460.277C335.361 460.277 335.245 423.814 335.245 378.82C335.245 333.841 335.361 297.371 335.505 297.371Z" fill="#263238"/>
<path d="M323.278 171.174C325.74 165.768 328.245 160.198 328.598 154.242C328.952 148.287 326.655 141.775 321.57 138.954C316.871 136.347 311.001 137.388 305.994 135.479C299.818 133.124 296.027 126.758 293.403 120.528C290.779 114.298 294.67 112.135 290.108 107.243C284.055 100.752 280.045 99.7469 272.113 103.452C266.559 99.3259 247.119 91.6419 241.467 91.3409C233.084 90.8949 223.521 91.3479 217.53 97.2279C212.881 101.79 209.864 107.657 204.21 110.891C196.434 115.34 186.743 111.19 177.785 111.316C175.958 111.342 173.821 111.759 173.031 113.407C172.347 114.832 173 116.507 173.65 117.946C175.847 122.811 178.043 127.675 180.24 132.539C176.448 134.195 171.89 133.981 168.269 131.978C168.457 141.412 172.087 150.74 178.325 157.819C176.762 156.658 174.345 157.766 173.515 159.526C172.684 161.286 173.001 163.359 173.466 165.249C176.323 176.846 184.395 187.052 195.023 192.504C205.65 197.955 218.649 198.557 229.735 194.113L278.985 198.94C280.263 202.818 283.484 205.948 287.313 207.033C292.931 203.068 293.865 200.792 293.865 200.792C297.208 203.398 294.566 202.064 297.208 203.398C303.259 206.453 312.384 203.194 313.915 196.412C314.556 193.575 315.41 190.86 317.365 188.964C319.366 187.025 322.17 186.324 324.661 185.138C328.587 183.27 331.891 180.035 333.905 176.087C329.912 176.034 325.971 174.212 323.278 171.174Z" fill="#263238"/>
<path d="M248.182 99.3259L245.703 99.4509C220.764 100.709 200.941 120.895 200.19 145.855C199.49 169.096 199.015 194.791 199.795 207.203C201.409 232.887 227.315 235.588 227.315 235.588C227.33 235.856 227.23 239.709 227.09 244.982C226.638 261.943 240.264 275.943 257.231 275.943C273.706 275.943 287.13 262.72 287.379 246.247L288.845 149.236C289.799 122.434 274.999 99.5389 248.182 99.3259Z" fill="#FFBE9D"/>
<path d="M227.314 235.588C227.314 235.588 243.561 235.721 260.277 224.008C260.277 224.008 253.061 243.191 227.3 242.17L227.314 235.588Z" fill="#EB996E"/>
<path d="M243.78 157.347C244.278 157.877 247.291 155.561 251.589 155.542C255.882 155.459 259.046 157.702 259.509 157.16C259.737 156.919 259.228 155.959 257.85 154.945C256.493 153.934 254.182 152.959 251.506 152.99C248.829 153.025 246.583 154.049 245.294 155.093C243.978 156.141 243.535 157.11 243.78 157.347Z" fill="#263238"/>
<path d="M247.617 165.356C247.645 167.193 249.223 168.683 251.142 168.69C253.056 168.696 254.59 167.216 254.562 165.379C254.535 163.543 252.956 162.05 251.041 162.043C249.123 162.037 247.59 163.52 247.617 165.356Z" fill="#263238"/>
<path d="M232.349 186.981C232.357 186.756 229.88 186.455 225.876 186.147C224.862 186.094 223.898 185.942 223.693 185.262C223.418 184.545 223.786 183.437 224.215 182.239C225.041 179.751 225.903 177.143 226.81 174.409C230.4 163.266 232.945 154.125 232.495 153.985C232.044 153.844 228.77 162.762 225.179 173.904C224.318 176.65 223.494 179.269 222.711 181.773C222.388 182.938 221.797 184.272 222.388 185.758C222.697 186.497 223.465 187.007 224.12 187.148C224.777 187.313 225.345 187.295 225.845 187.3C229.862 187.313 232.346 187.206 232.349 186.981Z" fill="#263238"/>
<path d="M244.774 140.479C245.167 141.441 248.622 140.801 252.734 141.105C256.852 141.322 260.211 142.393 260.708 141.488C260.929 141.055 260.308 140.163 258.928 139.282C257.559 138.403 255.406 137.609 252.938 137.451C250.471 137.297 248.245 137.814 246.788 138.514C245.319 139.214 244.603 140.021 244.774 140.479Z" fill="#263238"/>
<path d="M205.002 148.281C205.435 149.068 208.806 148.281 212.87 148.247C216.936 148.14 220.293 148.809 220.741 148.007C220.938 147.624 220.284 146.913 218.882 146.264C217.493 145.616 215.334 145.096 212.897 145.136C210.46 145.181 208.293 145.776 206.892 146.473C205.478 147.171 204.812 147.905 205.002 148.281Z" fill="#263238"/>
<path d="M287.705 168.371C288.134 168.159 305.1 162.258 305.425 179.856C305.75 197.455 288.015 194.151 287.975 193.646C287.935 193.142 287.705 168.371 287.705 168.371Z" fill="#FFBE9D"/>
<path d="M293.227 186.88C293.304 186.822 293.538 187.089 294.06 187.317C294.57 187.539 295.442 187.682 296.353 187.322C298.199 186.605 299.71 183.624 299.737 180.451C299.752 178.849 299.388 177.33 298.798 176.078C298.236 174.8 297.388 173.917 296.448 173.767C295.513 173.569 294.86 174.141 294.654 174.64C294.427 175.136 294.546 175.486 294.453 175.518C294.405 175.563 294.07 175.23 294.199 174.5C294.265 174.149 294.464 173.73 294.871 173.385C295.287 173.034 295.905 172.847 296.558 172.906C297.917 172.975 299.161 174.201 299.811 175.575C300.535 176.955 300.982 178.661 300.965 180.461C300.918 184.009 299.163 187.361 296.633 188.143C295.401 188.489 294.362 188.135 293.821 187.729C293.267 187.305 293.167 186.912 293.227 186.88Z" fill="#EB996E"/>
<path d="M311.724 140.432C308.2 134.148 307.512 126.73 305.666 119.766C303.82 112.802 300.126 105.547 293.396 102.976L293.242 103.039C287.205 100.453 279.696 100.248 274.599 104.364C273.565 95.1979 265.718 87.7819 256.85 85.2409C247.984 82.6999 233.646 83.7739 225.014 87.0249C218.341 89.5379 211.825 94.8479 203.874 102.685C200.524 105.987 197.425 109.551 194.658 113.355L186.363 137.131C185.512 137.725 184.764 138.453 184.133 139.273C180.954 143.409 186.598 148.815 190.587 145.452C190.611 145.432 190.634 145.412 190.658 145.392C191.426 146.768 191.995 148.157 192.596 149.544L192.595 149.576L192.725 149.838C193.103 150.702 193.495 151.565 193.974 152.422L193.98 152.364L199.376 178.967C199.917 171.757 199.957 146.638 200.498 139.429C211.647 139.2 221.825 134.931 229.483 126.825C233.523 122.547 236.746 117.146 242.077 114.656C248.951 111.445 256.999 114.076 264.108 116.725L263.81 116.445C267.5 118.252 270.837 120.777 273.579 123.836C271.647 138.009 272.801 152.596 276.959 166.283C277.586 168.345 279.324 172.603 281.317 173.425C285.232 175.04 286.385 171.044 288.809 168.961C290.593 167.428 293.193 167.284 296.03 167.355C297.795 163.008 299.679 155.657 301.267 149.219C303.635 149.996 306.171 150.25 308.636 149.878C307.92 148.049 307.204 146.22 306.488 144.391C307.458 145.036 308.466 145.696 309.614 145.891C310.763 146.086 312.098 145.686 312.639 144.654C313.336 143.32 312.461 141.746 311.724 140.432Z" fill="#263238"/>
<path d="M266.464 107.127C266.412 107.192 267.523 107.829 268.983 109.537C270.429 111.237 272.029 114.175 272.727 118.14C273.086 120.111 273.29 122.311 273.236 124.672C273.193 127.034 272.947 129.558 272.706 132.219C272.473 134.88 272.219 137.691 272.324 140.624C272.377 142.088 272.519 143.58 272.802 145.074C273.092 146.542 273.44 148.137 274.515 149.417C275.37 150.46 276.829 150.948 278.107 150.715C279.393 150.517 280.549 149.86 281.405 148.949C283.099 147.06 283.565 144.627 284.023 142.484L283.483 142.537C284.319 144.491 285.178 146.423 286.482 147.979C287.763 149.544 289.561 150.601 291.41 150.808C292.33 150.912 293.263 150.785 294.064 150.404C294.88 150.029 295.483 149.372 295.9 148.675C296.3 147.963 296.518 147.177 296.495 146.414C296.469 145.652 296.188 144.923 295.716 144.401L295.439 144.637C297.366 146.934 299.426 148.191 300.855 148.894C301.576 149.246 302.155 149.46 302.547 149.595C302.942 149.722 303.15 149.776 303.155 149.76C303.161 149.743 302.963 149.657 302.582 149.501C302.204 149.336 301.642 149.094 300.944 148.719C299.559 147.97 297.566 146.683 295.721 144.406L295.444 144.643C296.286 145.577 296.3 147.183 295.528 148.457C295.14 149.085 294.587 149.669 293.869 149.986C293.154 150.316 292.305 150.427 291.464 150.322C289.767 150.114 288.09 149.124 286.892 147.636C285.663 146.15 284.831 144.269 284.006 142.311L283.656 141.48L283.466 142.364C283.007 144.504 282.517 146.839 280.973 148.541C280.207 149.357 279.148 149.951 278.021 150.12C276.893 150.312 275.715 149.915 274.968 149.02C274.029 147.911 273.669 146.401 273.388 144.956C273.11 143.499 272.967 142.038 272.911 140.598C272.799 137.715 273.039 134.922 273.256 132.263C273.481 129.602 273.711 127.066 273.733 124.674C273.766 122.282 273.535 120.053 273.143 118.055C272.381 114.038 270.686 111.062 269.159 109.381C267.618 107.695 266.464 107.127 266.464 107.127Z" fill="#455A64"/>
<path d="M186.573 130.293C186.567 130.301 186.635 130.362 186.775 130.473C186.946 130.603 187.152 130.761 187.405 130.955C187.68 131.171 188.031 131.424 188.475 131.676C188.912 131.94 189.41 132.26 190.017 132.532C192.373 133.717 196.167 134.927 200.949 134.754C205.685 134.594 211.4 133.046 216.554 129.387C221.76 125.819 226.378 120.493 230.194 114.362C232.129 111.299 233.721 108.15 235.463 105.248C237.194 102.344 239.093 99.6668 241.369 97.5698C243.618 95.4618 246.209 93.9238 248.859 93.2518C250.18 92.8908 251.505 92.8328 252.766 92.8908C254.029 92.9858 255.222 93.2688 256.318 93.6568C258.512 94.4478 260.267 95.7098 261.592 96.9958C262.921 98.2938 263.802 99.6528 264.401 100.815C265.514 103.198 265.545 104.713 265.638 104.69C265.648 104.689 265.643 104.598 265.623 104.42C265.595 104.207 265.561 103.948 265.519 103.632C265.41 102.942 265.136 101.941 264.611 100.714C264.034 99.5158 263.164 98.1078 261.828 96.7568C260.495 95.4178 258.715 94.0988 256.464 93.2578C255.339 92.8458 254.11 92.5398 252.8 92.4288C251.495 92.3538 250.105 92.4068 248.737 92.7688C245.985 93.4448 243.305 95.0178 240.993 97.1638C238.653 99.2988 236.709 102.023 234.959 104.945C233.196 107.868 231.603 111.009 229.686 114.043C225.898 120.128 221.347 125.395 216.239 128.932C211.179 132.56 205.598 134.114 200.931 134.329C196.228 134.554 192.478 133.428 190.118 132.321C187.74 131.197 186.621 130.221 186.573 130.293Z" fill="#455A64"/>
<path d="M184.492 118.972C184.47 119.007 184.792 119.24 185.397 119.633C185.995 120.037 186.915 120.539 188.089 121.077C189.26 121.626 190.716 122.145 192.369 122.59C194.029 123.005 195.891 123.327 197.866 123.445C199.843 123.542 201.729 123.425 203.425 123.193C205.117 122.931 206.62 122.572 207.844 122.155C209.069 121.747 210.039 121.349 210.677 121.012C211.321 120.687 211.667 120.491 211.649 120.453C211.602 120.351 210.169 121.047 207.721 121.749C206.5 122.109 205.014 122.418 203.351 122.645C201.683 122.842 199.836 122.94 197.899 122.846C195.964 122.729 194.139 122.431 192.503 122.054C190.875 121.647 189.431 121.178 188.257 120.687C185.899 119.724 184.55 118.876 184.492 118.972Z" fill="#455A64"/>
<path d="M204.588 158.083C205.086 158.613 208.099 156.297 212.398 156.278C216.69 156.195 219.855 158.439 220.318 157.896C220.546 157.654 220.037 156.695 218.659 155.681C217.302 154.67 214.991 153.695 212.314 153.726C209.637 153.761 207.391 154.786 206.102 155.829C204.786 156.878 204.344 157.847 204.588 158.083Z" fill="#263238"/>
<path d="M210.659 166.028C210.687 167.865 212.265 169.355 214.184 169.362C216.098 169.368 217.631 167.888 217.604 166.051C217.577 164.215 215.998 162.722 214.083 162.715C212.164 162.708 210.631 164.191 210.659 166.028Z" fill="#263238"/>
<path d="M229.475 195.449C231.548 194.706 237.656 193.773 239.844 193.531L242.402 192.901C243.56 194.488 243.546 198.74 242.479 200.403C241.376 202.121 239.397 203.156 237.374 203.432C235.932 203.629 234.347 203.435 233.246 202.483C233.246 202.483 230.082 200.982 229.475 195.449Z" fill="#EB996E"/>
<path d="M235.862 203.243C235.834 203.082 237.572 203.404 239.67 202.01C240.69 201.325 241.701 200.189 242.274 198.663C242.852 197.152 243.045 195.286 242.591 193.471C242.566 193.374 242.541 193.278 242.518 193.189L242.972 193.478C239.161 194.067 235.718 194.554 233.224 194.866C230.73 195.178 229.185 195.316 229.168 195.206C229.151 195.096 230.665 194.759 233.137 194.301C235.608 193.843 239.037 193.265 242.847 192.671L243.211 192.614L243.301 192.96C243.327 193.058 243.354 193.165 243.382 193.272C243.882 195.276 243.644 197.302 242.972 198.942C242.305 200.599 241.13 201.821 239.98 202.497C238.824 203.187 237.725 203.394 236.991 203.404C236.249 203.415 235.855 203.288 235.862 203.243Z" fill="#263238"/>
<path d="M236.902 203.529C236.349 203.529 235.872 203.449 235.772 203.336L235.734 203.293L235.737 203.253L235.729 203.21L235.767 203.15C235.824 203.077 235.921 203.069 236.179 203.051C236.75 203.009 238.088 202.91 239.6 201.906C240.26 201.463 241.47 200.446 242.156 198.619C242.756 197.05 242.881 195.302 242.51 193.675C239.002 194.214 235.726 194.678 233.239 194.989C229.088 195.509 229.068 195.384 229.043 195.224C229.018 195.065 228.999 194.94 233.112 194.177C235.691 193.7 239.141 193.121 242.826 192.547L243.302 192.473L243.503 193.24C243.976 195.14 243.829 197.181 243.087 198.989C242.475 200.509 241.365 201.827 240.043 202.605C238.725 203.391 237.565 203.521 236.991 203.529C236.962 203.529 236.932 203.529 236.902 203.529ZM236.562 203.268C236.686 203.276 236.827 203.281 236.989 203.278C237.538 203.271 238.648 203.146 239.917 202.388C241.193 201.638 242.265 200.364 242.857 198.893C243.578 197.133 243.722 195.147 243.262 193.3L243.119 192.754L242.866 192.793C239.183 193.366 235.736 193.945 233.159 194.422C231.328 194.761 230.354 194.972 229.836 195.1C230.368 195.066 231.36 194.971 233.208 194.74C235.687 194.43 238.953 193.967 242.451 193.43L242.317 192.912L243.319 193.549L242.99 193.6C242.912 193.612 242.835 193.624 242.758 193.636C243.134 195.307 243.005 197.099 242.39 198.707C241.864 200.109 240.922 201.318 239.74 202.113C238.437 202.979 237.261 203.195 236.562 203.268Z" fill="#263238"/>
<path d="M121.736 206.739C121.736 206.739 91.2368 217.729 76.3018 213.41C61.3668 209.091 50.8708 203.045 43.3848 185.351C37.3268 171.033 38.5358 153.445 45.7918 139.695C52.1418 127.661 63.4788 120.877 75.4148 114.346C90.2378 106.235 110.359 99.5589 127.243 98.9129C144.127 98.2669 154.962 103.226 167.439 114.621C179.916 126.015 186.564 144.199 182.163 160.512C177.498 177.8 161.941 190.078 145.639 197.486C145.639 197.486 141.045 213.523 153.98 222.391C153.98 222.391 132.894 227.617 121.736 206.739Z" fill="#FAFAFA"/>
<path d="M121.736 206.739C121.736 206.739 121.856 206.916 122.087 207.283C122.323 207.662 122.665 208.21 123.114 208.93C123.341 209.297 123.594 209.706 123.874 210.158C124.167 210.602 124.553 211.035 124.935 211.535C125.325 212.029 125.746 212.561 126.196 213.13C126.659 213.689 127.247 214.2 127.819 214.79C130.143 217.085 133.466 219.577 137.959 221.13C140.174 221.974 142.697 222.452 145.386 222.708C148.076 222.922 150.992 222.867 153.945 222.248L153.898 222.51C150.5 220.186 147.482 216.627 145.97 212.149C145.176 209.93 144.78 207.511 144.693 205.029C144.609 202.544 144.832 199.988 145.461 197.433L145.481 197.353L145.563 197.315C150.144 195.214 154.795 192.68 159.333 189.58C163.879 186.498 168.266 182.768 172.151 178.316C172.658 177.778 173.104 177.185 173.566 176.601C174.019 176.01 174.509 175.444 174.936 174.827C175.782 173.588 176.678 172.366 177.415 171.029C178.233 169.74 178.879 168.344 179.57 166.96C179.906 166.263 180.163 165.528 180.465 164.81L180.904 163.724C181.039 163.357 181.143 162.979 181.264 162.606C182.314 159.642 182.857 156.478 183.138 153.27C183.427 150.054 183.246 146.762 182.744 143.492C181.78 136.931 179.227 130.476 175.524 124.62C173.631 121.713 171.436 118.962 168.95 116.445C166.456 113.941 163.703 111.617 160.836 109.432C155.106 105.074 148.452 101.573 141.119 100.16C133.812 98.6998 126.135 98.8998 118.571 99.9908C110.932 101.087 103.518 103.027 96.4057 105.458C89.2947 107.898 82.4667 110.841 76.0587 114.291C69.6617 117.765 63.4117 121.318 57.9677 125.716C52.5167 130.077 47.9997 135.419 45.1797 141.478C43.7347 144.484 42.5907 147.586 41.7177 150.718C40.8757 153.86 40.3157 157.028 40.0027 160.174C39.6717 163.32 39.6757 166.449 39.8907 169.506C39.9707 171.039 40.2017 172.544 40.3957 174.04C40.6807 175.521 40.9207 177 41.3177 178.431C44.4347 189.817 50.5547 199.846 58.9477 205.557C63.1037 208.426 67.5547 210.379 71.8647 211.835C72.9417 212.206 74.0087 212.557 75.0717 212.868C76.1237 213.226 77.1857 213.444 78.2307 213.663C79.2657 213.941 80.3247 213.983 81.3537 214.095C82.3827 214.233 83.4047 214.225 84.4087 214.234C88.4217 214.263 92.1577 213.868 95.5567 213.327C98.9657 212.824 102.045 212.156 104.809 211.541C110.326 210.252 114.547 208.997 117.398 208.121C120.142 207.248 121.408 206.844 121.736 206.739C121.736 206.739 121.377 206.888 120.652 207.143C119.93 207.396 118.854 207.766 117.432 208.222C114.589 209.131 110.375 210.418 104.858 211.74C102.094 212.372 99.0117 213.056 95.5977 213.574C92.1927 214.131 88.4467 214.542 84.4087 214.527C83.3987 214.522 82.3707 214.532 81.3307 214.397C80.2907 214.287 79.2237 214.248 78.1727 213.97C77.1117 213.751 76.0327 213.532 74.9807 213.178C73.9147 212.869 72.8427 212.52 71.7597 212.151C67.4287 210.701 62.9417 208.748 58.7387 205.862C56.6387 204.419 54.6727 202.689 52.8147 200.779C50.9797 198.842 49.3377 196.659 47.8127 194.338C46.3677 191.969 44.9707 189.496 43.8307 186.845C43.2037 185.546 42.7067 184.173 42.1727 182.803C41.7287 181.402 41.2307 180.001 40.9007 178.54C40.4977 177.097 40.2537 175.606 39.9637 174.112C39.7657 172.604 39.5307 171.086 39.4477 169.541C39.2267 166.459 39.2187 163.305 39.5477 160.133C39.8597 156.962 40.4197 153.767 41.2657 150.598C42.1417 147.438 43.2927 144.308 44.7487 141.273C47.5917 135.148 52.1657 129.729 57.6557 125.333C63.1417 120.896 69.4127 117.327 75.8177 113.846C82.2527 110.377 89.1027 107.422 96.2397 104.971C103.378 102.53 110.819 100.581 118.499 99.4788C126.105 98.3828 133.834 98.1778 141.224 99.6558C148.64 101.087 155.379 104.637 161.145 109.028C164.036 111.234 166.785 113.556 169.309 116.092C171.819 118.636 174.034 121.417 175.943 124.354C179.678 130.27 182.251 136.789 183.219 143.422C183.723 146.728 183.902 150.057 183.606 153.31C183.319 156.554 182.764 159.759 181.699 162.753C181.576 163.13 181.47 163.513 181.333 163.883L180.889 164.98C180.583 165.705 180.321 166.448 179.981 167.151C179.281 168.549 178.626 169.958 177.799 171.258C177.052 172.606 176.147 173.838 175.291 175.087C174.859 175.709 174.364 176.279 173.907 176.874C173.44 177.462 172.989 178.058 172.478 178.6C168.556 183.081 164.134 186.825 159.56 189.914C154.993 193.021 150.318 195.556 145.715 197.654L145.816 197.537C145.198 200.026 144.966 202.572 145.044 205.02C145.123 207.47 145.508 209.857 146.284 212.044C147.761 216.456 150.714 219.963 154.062 222.271L154.344 222.465L154.015 222.533C151.002 223.154 148.081 223.194 145.364 222.969C142.654 222.7 140.113 222.207 137.883 221.345C133.362 219.758 130.029 217.227 127.71 214.902C127.14 214.305 126.553 213.786 126.093 213.221C125.646 212.645 125.229 212.107 124.842 211.608C124.464 211.104 124.08 210.661 123.795 210.218C123.525 209.766 123.28 209.357 123.061 208.991C122.628 208.261 122.298 207.705 122.07 207.321C121.846 206.941 121.736 206.739 121.736 206.739Z" fill="#263238"/>
<path d="M138.921 123.977C138.984 124.106 122.536 132.298 102.188 142.272C81.8329 152.249 65.2849 160.23 65.2219 160.101C65.1589 159.972 81.6029 151.782 101.959 141.804C122.307 131.831 138.857 123.848 138.921 123.977Z" fill="#263238"/>
<path d="M145.777 138.359C145.84 138.488 129.392 146.68 109.044 156.654C88.6893 166.631 72.1413 174.612 72.0783 174.483C72.0153 174.354 88.4593 166.164 108.815 156.186C129.163 146.212 145.714 138.23 145.777 138.359Z" fill="#263238"/>
<path d="M152.022 152.242C152.03 152.258 151.795 152.394 151.341 152.637C150.841 152.898 150.176 153.244 149.343 153.678C147.553 154.594 145.047 155.877 141.971 157.452C135.746 160.638 127.178 165.099 117.719 170.038C108.257 174.979 99.6571 179.391 93.3881 182.493C90.2541 184.045 87.7091 185.285 85.9401 186.119C85.0891 186.516 84.4101 186.833 83.8991 187.072C83.4301 187.285 83.1801 187.388 83.1721 187.372C83.1641 187.356 83.3991 187.22 83.8531 186.977C84.3531 186.717 85.0181 186.37 85.8511 185.937C87.6401 185.021 90.1471 183.738 93.2231 182.164C99.4481 178.978 108.017 174.517 117.479 169.575C126.938 164.635 135.537 160.224 141.806 157.122C144.941 155.57 147.485 154.33 149.255 153.495C150.106 153.098 150.785 152.781 151.296 152.542C151.764 152.33 152.015 152.226 152.022 152.242Z" fill="#263238"/>
<path d="M147.993 263.557L152.361 357.542L160.044 365.808L169.825 377.685C169.825 377.685 160.044 417.16 145.721 420.653C131.398 424.146 115.885 418.857 111.343 406.281C106.802 393.705 109.118 371.701 110.516 357.602C111.913 343.503 118.542 266.473 118.542 266.473L135.241 259.609L147.993 263.557Z" fill="#FFBE9D"/>
<path d="M147.87 264.587C147.87 264.587 149.005 256.36 147.87 250.969C146.735 245.579 139.359 234.23 139.359 234.23C139.359 234.23 140.494 223.449 139.359 221.747C138.224 220.045 135.671 213.803 130.848 220.045C130.848 220.045 127.443 212.669 125.174 212.101C122.905 211.533 121.77 212.101 121.77 212.101L127.728 204.157C127.728 204.157 128.067 202.576 127.747 200.91C127.444 199.33 126.038 198.199 124.429 198.199C123.442 198.199 122.505 198.63 121.862 199.379L107.3 216.358C107.3 216.358 98.2206 232.813 98.5046 234.799C98.7886 236.785 103.895 243.31 103.895 243.31C103.895 243.31 116.945 261.183 118.08 264.588C119.215 267.993 118.647 271.964 118.647 271.964L147.87 264.587Z" fill="#FFBE9D"/>
<path d="M111.489 231.089C111.423 231.075 111.595 229.837 111.99 227.852C112.398 225.876 113.026 223.118 114.333 220.284C115.641 217.447 117.508 215.224 119.13 213.978C119.936 213.347 120.651 212.924 121.166 212.68C121.68 212.434 121.981 212.338 121.994 212.367C122.04 212.454 120.877 212.955 119.364 214.262C117.844 215.548 116.083 217.734 114.805 220.504C113.526 223.275 112.846 225.986 112.349 227.934C111.864 229.89 111.564 231.105 111.489 231.089Z" fill="#EB996E"/>
<path d="M124.332 231.639C124.269 231.625 124.354 230.896 124.664 229.753C124.973 228.611 125.536 227.064 126.388 225.466C127.243 223.869 128.216 222.541 128.993 221.649C129.77 220.756 130.329 220.28 130.376 220.325C130.498 220.433 128.51 222.568 126.847 225.711C125.159 228.84 124.49 231.681 124.332 231.639Z" fill="#EB996E"/>
<path d="M138.927 233.75C138.8 233.817 138.648 233.779 138.588 233.664C138.528 233.55 138.582 233.403 138.709 233.336C138.836 233.269 138.988 233.307 139.048 233.422C139.109 233.536 139.054 233.683 138.927 233.75Z" fill="#EB996E"/>
<path d="M138.771 238.334C138.628 238.317 138.718 236.607 138.972 234.516C139.088 233.556 139.219 232.683 139.339 232.031L139.69 232.171C139.173 232.788 138.819 233.148 138.757 233.102C138.694 233.056 138.936 232.612 139.376 231.938L139.772 231.332L139.727 232.078C139.687 232.74 139.605 233.619 139.489 234.579C139.235 236.669 138.914 238.351 138.771 238.334Z" fill="#EB996E"/>
<path d="M149.3 294.428C149.309 294.427 149.324 294.507 149.345 294.665C149.366 294.853 149.393 295.083 149.424 295.364C149.486 296.023 149.57 296.923 149.677 298.059C149.856 300.402 150.083 303.796 150.313 307.991C150.776 316.381 151.281 327.977 151.759 340.787C152.238 353.601 152.604 365.203 152.837 373.601C152.939 377.766 153.022 381.153 153.08 383.548C153.096 384.688 153.108 385.591 153.118 386.253C153.117 386.536 153.115 386.767 153.114 386.957C153.11 387.116 153.104 387.197 153.095 387.197C153.086 387.197 153.075 387.116 153.061 386.958C153.048 386.769 153.032 386.538 153.013 386.256C152.98 385.595 152.935 384.693 152.878 383.554C152.78 381.161 152.641 377.776 152.47 373.613C152.154 365.178 151.719 353.6 151.24 340.806C150.736 328.019 150.279 316.443 149.946 308.009C149.749 303.848 149.589 300.465 149.476 298.072C149.411 296.934 149.359 296.033 149.321 295.372C149.31 295.089 149.3 294.858 149.293 294.668C149.289 294.511 149.291 294.429 149.3 294.428Z" fill="#EB996E"/>
<path d="M425.459 289.458C425.459 289.458 403.061 375.484 399.313 385.439C391.902 405.127 386.843 414.491 378.456 419.404C369.287 424.775 352.891 421.715 349.02 412.95C345.477 404.927 336.084 371.517 336.084 371.517L364.846 361.144L399.155 289.255L425.459 289.458Z" fill="#FFBE9D"/>
<path d="M476.665 249.054C478.072 250.072 447.85 276.525 447.85 276.525L425.459 289.458L418.08 316.935L394.684 302.489C394.684 302.489 403.154 275.087 407.09 273.2C413.954 269.908 415.275 258.876 417.731 259.285C420.187 259.694 421.257 259.649 420.439 263.741C419.621 267.834 419.293 269.644 419.293 269.644L445.152 262.149C445.152 262.149 459.476 248.234 463.978 249.053C466.576 249.525 466.883 249.871 466.883 249.871C466.883 249.871 471.232 245.121 476.665 249.054Z" fill="#FFBE9D"/>
<path d="M445.15 262.15C445.16 262.184 444.726 262.35 443.933 262.62C443.037 262.912 441.908 263.281 440.562 263.721C437.601 264.646 433.703 265.864 429.393 267.21C425.08 268.547 421.179 269.755 418.217 270.673C416.865 271.095 415.731 271.448 414.833 271.729C414.035 271.981 413.587 272.104 413.575 272.071C413.562 272.037 413.986 271.849 414.765 271.538C415.546 271.233 416.685 270.812 418.101 270.324C420.933 269.342 424.872 268.065 429.239 266.713C433.606 265.363 437.573 264.189 440.454 263.369C441.894 262.959 443.064 262.637 443.876 262.426C444.687 262.215 445.14 262.116 445.15 262.15Z" fill="#EB996E"/>
<path d="M449.554 269.399C449.528 269.374 449.763 269.08 450.211 268.569C450.658 268.058 451.318 267.331 452.141 266.44C453.787 264.659 456.087 262.222 458.651 259.554C461.179 256.949 463.465 254.593 465.242 252.762C466.032 251.869 466.473 250.991 466.539 250.339C466.623 249.686 466.433 249.329 466.489 249.314C466.506 249.307 466.551 249.39 466.624 249.559C466.682 249.731 466.759 250 466.74 250.354C466.733 251.069 466.304 252.045 465.523 252.997C463.904 254.838 461.584 257.231 459.025 259.914C456.461 262.582 454.119 264.978 452.405 266.694C451.548 267.552 450.848 268.24 450.355 268.708C449.865 269.177 449.58 269.424 449.554 269.399Z" fill="#EB996E"/>
<path d="M370.589 349.109C370.721 349.167 366.963 358.012 362.197 368.862C357.429 379.716 353.459 388.466 353.327 388.408C353.195 388.35 356.952 379.507 361.72 368.653C366.486 357.802 370.457 349.051 370.589 349.109Z" fill="#EB996E"/>
<path d="M470.107 460.276C470.107 460.42 371.554 460.536 250.011 460.536C128.426 460.536 29.8936 460.419 29.8936 460.276C29.8936 460.132 128.426 460.016 250.011 460.016C371.554 460.016 470.107 460.133 470.107 460.276Z" fill="#263238"/>
<path d="M392.621 198.195L392.262 238.151L407.129 238.285L407.488 198.329L392.621 198.195Z" fill="#FFFF00"/>
<g opacity="0.3">
<path d="M392.621 198.195L392.262 238.151L407.129 238.285L407.488 198.329L392.621 198.195Z" fill="black"/>
</g>
<path d="M388.604 198.158L388.244 238.114L403.111 238.248L403.471 198.292L388.604 198.158Z" fill="#FFFF00"/>
<path d="M398.918 207.945C398.901 209.798 397.386 211.286 395.533 211.269C393.68 211.252 392.192 209.737 392.209 207.884C392.226 206.031 393.741 204.543 395.594 204.56C397.446 204.577 398.934 206.093 398.918 207.945Z" fill="#484848"/>
<path d="M407.405 204.359C407.517 204.438 406.7 205.784 405.58 207.365C404.46 208.947 403.462 210.164 403.35 210.085C403.238 210.006 404.055 208.66 405.175 207.078C406.295 205.497 407.294 204.28 407.405 204.359Z" fill="#FFFF00"/>
<path d="M407.365 208.779C407.477 208.858 406.66 210.204 405.54 211.785C404.42 213.366 403.422 214.584 403.31 214.505C403.198 214.426 404.015 213.08 405.135 211.499C406.255 209.918 407.254 208.7 407.365 208.779Z" fill="#FFFF00"/>
<path d="M407.326 213.199C407.438 213.278 406.621 214.624 405.501 216.205C404.381 217.787 403.383 219.004 403.271 218.925C403.159 218.846 403.976 217.5 405.096 215.918C406.216 214.338 407.214 213.12 407.326 213.199Z" fill="#FFFF00"/>
<path d="M407.286 217.619C407.398 217.698 406.581 219.044 405.461 220.625C404.341 222.206 403.343 223.424 403.231 223.345C403.119 223.266 403.936 221.92 405.056 220.339C406.176 218.758 407.174 217.54 407.286 217.619Z" fill="#FFFF00"/>
<path d="M407.246 222.04C407.358 222.119 406.541 223.465 405.421 225.046C404.301 226.628 403.303 227.845 403.191 227.766C403.079 227.687 403.896 226.341 405.016 224.759C406.136 223.178 407.134 221.96 407.246 222.04Z" fill="#FFFF00"/>
<path d="M407.206 226.46C407.318 226.539 406.501 227.885 405.381 229.466C404.261 231.047 403.263 232.265 403.151 232.186C403.039 232.107 403.856 230.761 404.976 229.18C406.096 227.598 407.094 226.381 407.206 226.46Z" fill="#FFFF00"/>
<path d="M407.166 230.88C407.278 230.959 406.461 232.305 405.341 233.886C404.221 235.468 403.223 236.685 403.111 236.606C402.999 236.527 403.816 235.181 404.936 233.599C406.056 232.019 407.054 230.801 407.166 230.88Z" fill="#FFFF00"/>
<path d="M407.4 200.46C407.512 200.539 406.695 201.885 405.575 203.466C404.455 205.047 403.457 206.265 403.345 206.186C403.233 206.107 404.05 204.761 405.17 203.179C406.29 201.599 407.288 200.381 407.4 200.46Z" fill="#FFFF00"/>
<path d="M405.904 198.335C406.016 198.414 405.569 199.237 404.907 200.173C404.244 201.109 403.616 201.803 403.505 201.724C403.393 201.645 403.84 200.822 404.503 199.886C405.164 198.95 405.792 198.255 405.904 198.335Z" fill="#FFFF00"/>
<path d="M414.662 235.236L415.786 199.938C415.786 199.938 423.661 198.482 430.763 187.86C435.462 180.831 433.82 173.323 434.74 170.227C435.302 168.334 439.773 168.756 441.732 169.002C443.588 169.235 446.65 170.296 447.913 173.247C450.255 178.717 446.791 191.722 446.791 191.722C446.791 191.722 445.307 194.364 449.024 194.397L462.28 194.516C463.999 194.532 465.685 195.112 466.979 196.244C468.116 197.238 469.071 198.743 468.877 200.948C468.433 205.988 465.758 208.221 465.748 209.283C465.739 210.345 467.182 212.217 466.093 215.26C465.003 218.303 464.342 218.032 464.329 219.492C464.316 220.952 464.017 224.666 463.067 226.915C462.117 229.164 461.046 230.215 461.046 230.215C461.046 230.215 461.56 235.08 460.049 237.773C458.067 241.303 449.293 243.579 445.697 241.892C444.015 241.102 436.141 239.151 432.433 238.188C428.725 237.224 418.262 233.543 414.662 235.236Z" fill="#FFFF00"/>
<g opacity="0.3">
<path d="M414.662 235.236L415.786 199.938C415.786 199.938 423.661 198.482 430.763 187.86C435.462 180.831 433.82 173.323 434.74 170.227C435.302 168.334 439.773 168.756 441.732 169.002C443.588 169.235 446.65 170.296 447.913 173.247C450.255 178.717 446.791 191.722 446.791 191.722C446.791 191.722 445.307 194.364 449.024 194.397L462.28 194.516C463.999 194.532 465.685 195.112 466.979 196.244C468.116 197.238 469.071 198.743 468.877 200.948C468.433 205.988 465.758 208.221 465.748 209.283C465.739 210.345 467.182 212.217 466.093 215.26C465.003 218.303 464.342 218.032 464.329 219.492C464.316 220.952 464.017 224.666 463.067 226.915C462.117 229.164 461.046 230.215 461.046 230.215C461.046 230.215 461.56 235.08 460.049 237.773C458.067 241.303 449.293 243.579 445.697 241.892C444.015 241.102 436.141 239.151 432.433 238.188C428.725 237.224 418.262 233.543 414.662 235.236Z" fill="black"/>
</g>
<path d="M409.912 235.594L410.234 199.887C410.234 199.887 418.11 198.431 425.211 187.809C429.91 180.78 432.052 175.087 432.971 171.991C433.533 170.098 435.36 168.831 437.319 169.077C439.175 169.31 441.404 170.059 442.667 173.009C445.009 178.479 441.239 191.671 441.239 191.671C441.239 191.671 439.755 194.313 443.472 194.346L456.729 194.465C458.448 194.481 460.134 195.061 461.428 196.193C462.565 197.187 463.52 198.691 463.326 200.897C462.882 205.938 460.207 208.17 460.198 209.232C460.188 210.294 461.632 212.165 460.542 215.209C459.453 218.252 458.791 217.981 458.778 219.441C458.765 220.901 458.466 224.615 457.516 226.864C456.567 229.112 455.495 230.165 455.495 230.165C455.495 230.165 455.85 234.947 454.498 237.723C453.145 240.498 447.557 241.908 445.699 241.892C443.841 241.875 430.591 239.101 426.882 238.138C423.172 237.174 413.511 233.901 409.912 235.594Z" fill="#FFFF00"/>
<path d="M448.091 184.604C448.191 184.693 446.891 186.316 445.062 188.109C443.236 189.905 441.588 191.175 441.502 191.073C441.41 190.967 442.901 189.538 444.715 187.755C446.53 185.975 447.986 184.51 448.091 184.604Z" fill="#FFFF00"/>
<path d="M448.848 179.835C448.953 179.921 447.767 181.425 445.972 182.925C444.182 184.416 442.683 185.537 442.597 185.445C442.497 185.336 443.872 184.028 445.65 182.548C447.422 181.067 448.743 179.745 448.848 179.835Z" fill="#FFFF00"/>
<path d="M448.524 175.526C448.62 175.599 447.707 176.892 446.141 178.019C444.588 179.101 443.387 180.012 443.293 179.916C443.194 179.816 444.296 178.699 445.847 177.619C447.36 176.533 448.408 175.424 448.524 175.526Z" fill="#FFFF00"/>
<path d="M447.096 171.922C447.184 172.027 446.395 172.835 445.333 173.726C444.271 174.618 443.339 175.255 443.251 175.15C443.163 175.045 443.952 174.237 445.014 173.346C446.076 172.455 447.008 171.817 447.096 171.922Z" fill="#FFFF00"/>
<path d="M444.423 169.779C444.492 169.897 443.997 170.351 443.316 170.791C442.635 171.232 442.019 171.498 441.94 171.387C441.861 171.275 442.356 170.822 443.047 170.375C443.737 169.928 444.353 169.661 444.423 169.779Z" fill="#FFFF00"/>
<path d="M446.999 190.888C447.087 190.993 446.248 191.844 445.125 192.789C444.002 193.734 443.02 194.416 442.932 194.311C442.844 194.206 443.683 193.355 444.806 192.409C445.929 191.464 446.911 190.783 446.999 190.888Z" fill="#FFFF00"/>
<path d="M468.463 203.531C468.539 203.645 466.772 204.966 464.516 206.482C462.259 207.998 460.368 209.135 460.292 209.021C460.216 208.907 461.983 207.586 464.24 206.07C466.496 204.555 468.387 203.418 468.463 203.531Z" fill="#FFFF00"/>
<path d="M468.31 197.477C468.387 197.591 467.359 198.418 466.015 199.325C464.671 200.232 463.519 200.875 463.442 200.761C463.365 200.648 464.393 199.82 465.737 198.913C467.082 198.006 468.233 197.363 468.31 197.477Z" fill="#FFFF00"/>
<path d="M466.359 212.179C466.426 212.303 465.048 213.16 463.393 214.271C461.734 215.378 460.417 216.324 460.327 216.215C460.242 216.113 461.435 214.981 463.117 213.859C464.795 212.732 466.297 212.061 466.359 212.179Z" fill="#FFFF00"/>
<path d="M464.36 219.04C464.441 219.15 463.209 220.196 461.608 221.374C460.006 222.553 458.643 223.419 458.562 223.309C458.481 223.199 459.713 222.154 461.314 220.975C462.915 219.796 464.279 218.93 464.36 219.04Z" fill="#FFFF00"/>
<path d="M462.739 227.165C462.826 227.265 461.464 228.583 459.557 229.922C457.652 231.266 455.953 232.104 455.889 231.988C455.818 231.865 457.389 230.845 459.272 229.516C461.157 228.193 462.647 227.057 462.739 227.165Z" fill="#FFFF00"/>
<path d="M460.975 233.996C461.067 234.101 459.445 235.601 457.223 237.155C455.011 238.724 453.052 239.746 452.984 239.623C452.918 239.506 454.74 238.308 456.937 236.749C459.145 235.206 460.888 233.894 460.975 233.996Z" fill="#FFFF00"/>
<path d="M450.443 109.437L445.328 135.111L454.881 137.014L459.997 111.341L450.443 109.437Z" fill="#E74D4D"/>
<path d="M453.023 109.951L447.907 135.624L457.46 137.528L462.576 111.854L453.023 109.951Z" fill="#B95353"/>
<path d="M452.016 129.97C452.253 128.779 453.411 128.007 454.601 128.244C455.791 128.481 456.564 129.639 456.327 130.829C456.09 132.019 454.932 132.792 453.742 132.555C452.552 132.318 451.779 131.16 452.016 129.97Z" fill="white"/>
<path d="M446.114 131.241C446.052 131.176 446.742 130.41 447.656 129.529C448.57 128.648 449.362 127.986 449.424 128.051C449.486 128.116 448.796 128.882 447.882 129.763C446.968 130.644 446.176 131.306 446.114 131.241Z" fill="#B95353"/>
<path d="M446.681 128.401C446.619 128.336 447.309 127.57 448.223 126.689C449.137 125.808 449.928 125.146 449.991 125.211C450.053 125.276 449.363 126.042 448.449 126.923C447.535 127.803 446.743 128.465 446.681 128.401Z" fill="#B95353"/>
<path d="M447.246 125.56C447.184 125.495 447.874 124.729 448.788 123.848C449.702 122.967 450.494 122.305 450.556 122.37C450.618 122.435 449.928 123.201 449.014 124.082C448.1 124.963 447.308 125.625 447.246 125.56Z" fill="#B95353"/>
<path d="M447.812 122.72C447.75 122.655 448.44 121.889 449.354 121.008C450.268 120.127 451.059 119.465 451.122 119.53C451.184 119.595 450.494 120.361 449.58 121.242C448.666 122.123 447.874 122.785 447.812 122.72Z" fill="#B95353"/>
<path d="M448.378 119.88C448.316 119.815 449.006 119.049 449.92 118.168C450.834 117.287 451.625 116.625 451.688 116.69C451.75 116.755 451.06 117.521 450.146 118.402C449.232 119.282 448.44 119.944 448.378 119.88Z" fill="#B95353"/>
<path d="M448.944 117.039C448.882 116.974 449.572 116.208 450.486 115.327C451.4 114.446 452.192 113.784 452.254 113.849C452.316 113.914 451.626 114.68 450.712 115.561C449.798 116.442 449.006 117.104 448.944 117.039Z" fill="#B95353"/>
<path d="M449.511 114.199C449.449 114.134 450.139 113.368 451.053 112.487C451.967 111.606 452.758 110.944 452.821 111.009C452.883 111.074 452.193 111.84 451.279 112.721C450.364 113.602 449.573 114.263 449.511 114.199Z" fill="#B95353"/>
<path d="M445.642 133.751C445.58 133.686 446.27 132.92 447.184 132.039C448.098 131.158 448.889 130.496 448.952 130.561C449.014 130.626 448.324 131.392 447.41 132.273C446.496 133.154 445.704 133.816 445.642 133.751Z" fill="#B95353"/>
<path d="M446.344 135.302C446.282 135.237 446.67 134.762 447.211 134.241C447.752 133.72 448.241 133.349 448.303 133.414C448.365 133.479 447.977 133.954 447.436 134.475C446.896 134.997 446.407 135.367 446.344 135.302Z" fill="#B95353"/>
<path d="M445.217 110.479L440.179 133.063C440.179 133.063 434.932 133.038 429.062 139.007C425.178 142.957 425.317 147.99 424.347 149.871C423.754 151.021 420.928 150.202 419.697 149.805C418.531 149.428 416.69 148.371 416.237 146.317C415.398 142.51 419.217 134.562 419.217 134.562C419.217 134.562 420.495 133.043 418.107 132.567L409.589 130.87C408.484 130.65 407.47 130.07 406.776 129.184C406.166 128.405 405.735 127.32 406.129 125.924C407.031 122.734 409.025 121.624 409.162 120.941C409.298 120.259 408.598 118.877 409.671 117.052C410.744 115.226 411.137 115.482 411.324 114.543C411.511 113.605 412.157 111.25 413.043 109.919C413.929 108.588 414.747 108.042 414.747 108.042C414.747 108.042 415.011 104.847 416.313 103.299C418.02 101.269 423.946 100.876 426.054 102.402C427.04 103.116 431.87 105.334 434.139 106.407C436.408 107.48 442.693 111.129 445.217 110.479Z" fill="#E74D4D"/>
<path d="M448.319 110.829L443.747 133.774C443.747 133.774 438.5 133.748 432.63 139.718C428.746 143.668 426.672 147.071 425.702 148.952C425.109 150.102 423.778 150.694 422.547 150.296C421.381 149.919 420.038 149.164 419.585 147.111C418.746 143.304 422.785 135.273 422.785 135.273C422.785 135.273 424.063 133.754 421.675 133.278L413.157 131.581C412.052 131.361 411.038 130.781 410.344 129.895C409.734 129.116 409.303 128.031 409.697 126.635C410.599 123.445 412.594 122.335 412.73 121.652C412.866 120.97 412.166 119.589 413.239 117.763C414.312 115.937 414.705 116.193 414.892 115.254C415.079 114.316 415.725 111.962 416.611 110.63C417.497 109.299 418.315 108.752 418.315 108.752C418.315 108.752 418.671 105.63 419.881 104.009C421.091 102.388 424.86 102.163 426.054 102.401C427.248 102.639 435.438 106.044 437.707 107.117C439.976 108.191 445.795 111.479 448.319 110.829Z" fill="#B95353"/>
<path d="M417.511 138.984C417.457 138.915 418.493 138.028 419.889 137.098C421.284 136.165 422.5 135.549 422.543 135.625C422.589 135.705 421.455 136.442 420.069 137.368C418.683 138.292 417.566 139.058 417.511 138.984Z" fill="#B95353"/>
<path d="M416.441 141.961C416.384 141.893 417.331 141.069 418.67 140.324C420.005 139.583 421.106 139.044 421.15 139.115C421.201 139.197 420.156 139.871 418.831 140.607C417.509 141.342 416.497 142.032 416.441 141.961Z" fill="#B95353"/>
<path d="M416.123 144.775C416.07 144.717 416.816 143.996 417.962 143.462C419.094 142.955 419.978 142.516 420.027 142.589C420.079 142.666 419.232 143.25 418.102 143.755C416.995 144.269 416.184 144.854 416.123 144.775Z" fill="#B95353"/>
<path d="M416.601 147.269C416.557 147.191 417.164 146.767 417.956 146.323C418.749 145.879 419.427 145.582 419.47 145.661C419.514 145.739 418.907 146.163 418.114 146.607C417.323 147.051 416.645 147.348 416.601 147.269Z" fill="#B95353"/>
<path d="M418.06 148.975C418.03 148.89 418.404 148.659 418.896 148.459C419.388 148.258 419.817 148.162 419.855 148.244C419.893 148.326 419.518 148.557 419.019 148.76C418.519 148.963 418.09 149.059 418.06 148.975Z" fill="#B95353"/>
<path d="M418.981 135.073C418.937 134.995 419.581 134.549 420.42 134.078C421.259 133.607 421.974 133.288 422.018 133.366C422.062 133.444 421.418 133.89 420.579 134.361C419.741 134.833 419.025 135.151 418.981 135.073Z" fill="#B95353"/>
<path d="M406.711 124.311C406.676 124.229 407.975 123.594 409.612 122.894C411.25 122.194 412.606 121.693 412.642 121.776C412.677 121.858 411.378 122.493 409.74 123.193C408.102 123.893 406.746 124.393 406.711 124.311Z" fill="#B95353"/>
<path d="M406.07 128.227C406.034 128.145 406.797 127.738 407.773 127.318C408.749 126.898 409.569 126.625 409.605 126.708C409.64 126.79 408.878 127.197 407.902 127.617C406.925 128.036 406.105 128.309 406.07 128.227Z" fill="#B95353"/>
<path d="M409.123 119.002C409.095 118.914 410.087 118.531 411.288 118.018C412.491 117.509 413.455 117.06 413.499 117.142C413.542 117.218 412.635 117.801 411.415 118.317C410.197 118.837 409.148 119.085 409.123 119.002Z" fill="#B95353"/>
<path d="M411.247 114.829C411.208 114.748 412.129 114.226 413.304 113.663C414.479 113.1 415.463 112.709 415.501 112.79C415.54 112.871 414.619 113.393 413.444 113.956C412.27 114.519 411.286 114.91 411.247 114.829Z" fill="#B95353"/>
<path d="M413.284 109.798C413.24 109.723 414.278 109.041 415.669 108.412C417.059 107.779 418.255 107.448 418.283 107.53C418.313 107.618 417.178 108.082 415.803 108.708C414.428 109.33 413.33 109.878 413.284 109.798Z" fill="#B95353"/>
<path d="M415.254 105.617C415.208 105.538 416.435 104.771 418.055 104.042C419.671 103.302 421.056 102.884 421.085 102.971C421.113 103.054 419.794 103.603 418.189 104.338C416.58 105.061 415.298 105.693 415.254 105.617Z" fill="#B95353"/>
</svg>
