<svg width="500" height="500" viewBox="0 0 500 500" fill="none" xmlns="http://www.w3.org/2000/svg">
<path d="M259.787 49.04C254.158 46.382 247.9 46.082 243.921 46.688C240.194 47.255 234.799 48.677 230.261 52.232C227.443 54.44 225.344 57.19 224.024 60.406C222.46 64.215 221.984 68.706 222.607 73.755C222.701 74.512 223.088 75.184 223.697 75.646C224.31 76.11 225.065 76.302 225.825 76.187L235.597 74.7C236.976 74.49 238.004 73.281 237.99 71.888C237.957 68.758 238.991 63.322 246.284 62.083C251.843 61.142 254.752 64.823 255.747 66.451C257.365 69.099 257.574 72.5 256.306 75.548C254.358 80.231 249.674 81.615 247.056 82.023C244.045 82.492 241.966 85.311 242.422 88.306L244.022 98.821C244.256 100.357 245.695 101.416 247.23 101.182L256.751 99.733C258.287 99.499 259.346 98.06 259.112 96.525L258.776 94.316C258.768 94.263 258.794 94.212 258.842 94.187C260.884 93.102 264.786 90.638 267.982 86.321C272.062 80.811 273.561 74.271 272.437 66.885C270.83 56.314 264.671 51.346 259.787 49.04Z" fill="#488974"/>
<path d="M252.868 103.033L252.035 103.16C248.053 103.766 245.307 107.498 245.913 111.48C246.519 115.462 250.251 118.208 254.233 117.602L255.066 117.475C259.048 116.869 261.794 113.137 261.188 109.155C260.582 105.173 256.85 102.427 252.868 103.033Z" fill="#488974"/>
<path d="M63.6709 218.782C60.8429 215.245 56.8499 213.048 54.0559 212.171C51.4399 211.35 47.4599 210.554 43.3579 211.426C40.8099 211.968 38.5599 213.094 36.6689 214.773C34.4289 216.762 32.6819 219.544 31.4749 223.042C31.2939 223.567 31.3319 224.129 31.5829 224.626C31.8349 225.125 32.2669 225.492 32.8009 225.66L39.6609 227.814C40.6289 228.118 41.6879 227.657 42.1239 226.742C43.1029 224.686 45.5169 221.465 50.6789 222.988C54.6119 224.151 55.3359 227.487 55.4649 228.868C55.6749 231.116 54.7239 233.405 52.9209 234.991C50.1509 237.428 46.6479 236.834 44.8059 236.264C42.6879 235.608 40.4289 236.785 39.7689 238.888L37.4519 246.27C37.1139 247.348 37.7149 248.5 38.7929 248.839L45.4769 250.937C46.5549 251.275 47.7069 250.674 48.0459 249.596L48.5329 248.045C48.5449 248.008 48.5779 247.983 48.6179 247.982C50.2989 247.926 53.6369 247.563 57.1059 245.765C61.5339 243.469 64.6039 239.675 66.2319 234.49C68.5599 227.066 66.1239 221.851 63.6709 218.782Z" fill="#EBEBEB"/>
<path d="M41.8838 251.849L41.2988 251.665C38.5028 250.787 35.5148 252.348 34.6378 255.143C33.7608 257.939 35.3208 260.927 38.1158 261.804L38.7008 261.988C41.4958 262.865 44.4848 261.305 45.3618 258.51C46.2398 255.715 44.6788 252.727 41.8838 251.849Z" fill="#EBEBEB"/>
<path d="M360.048 458.38C384.386 457.323 415.261 449.551 434.142 433.669C408.081 434.344 381.727 443.133 360.048 458.38Z" fill="#EBEBEB"/>
<path d="M376.98 429.596C401.318 428.539 432.192 420.767 451.074 404.886C425.014 405.56 398.659 414.349 376.98 429.596Z" fill="#EBEBEB"/>
<path d="M395.183 402.178C419.521 401.121 450.395 393.349 469.277 377.468C443.217 378.142 416.862 386.931 395.183 402.178Z" fill="#EBEBEB"/>
<path d="M415.494 373.896C439.705 369.861 469.549 358.424 486.296 340.493C460.31 344.363 435.126 356.244 415.494 373.896Z" fill="#EBEBEB"/>
<path d="M433.35 353.028C454.847 340.725 478.805 319.735 487.724 297.579C464.469 310.369 445.129 330.091 433.35 353.028Z" fill="#EBEBEB"/>
<path d="M424.694 362.893C431.314 338.748 433.37 306.289 423.655 283.268C416.115 308.992 416.484 337.313 424.694 362.893Z" fill="#EBEBEB"/>
<path d="M407.471 385.964C412.163 360.354 411.328 326.459 399.072 303.292C393.565 330.614 396.552 360.019 407.471 385.964Z" fill="#EBEBEB"/>
<path d="M386.947 414.259C391.639 388.649 390.804 354.754 378.548 331.587C373.041 358.91 376.028 388.315 386.947 414.259Z" fill="#EBEBEB"/>
<path d="M365.069 450.109C369.761 424.499 368.926 390.604 356.67 367.437C351.163 394.76 354.15 424.165 365.069 450.109Z" fill="#EBEBEB"/>
<path d="M356.731 463.349C353.206 469.859 350.444 475.175 348.616 478.889C347.731 480.692 347.03 482.12 346.515 483.168C346.304 483.619 346.131 483.988 345.99 484.291C345.876 484.546 345.825 484.681 345.839 484.688C345.853 484.695 345.933 484.575 346.074 484.334C346.238 484.043 346.437 483.687 346.681 483.253C347.233 482.225 347.985 480.824 348.935 479.055C350.86 475.394 353.708 470.128 357.303 463.664C360.879 457.19 365.299 449.572 370.329 441.187C375.403 432.828 381.127 423.725 387.369 414.323C399.881 395.542 412.123 379.167 421.263 367.539C425.832 361.724 429.58 357.054 432.207 353.858C433.469 352.295 434.468 351.058 435.201 350.15C435.507 349.756 435.757 349.435 435.962 349.171C436.129 348.947 436.209 348.827 436.197 348.817C436.185 348.807 436.081 348.906 435.89 349.11C435.666 349.358 435.393 349.66 435.059 350.031C434.293 350.912 433.25 352.112 431.932 353.629C429.218 356.755 425.391 361.365 420.752 367.134C411.473 378.669 399.13 395.006 386.601 413.813" fill="#E0E0E0"/>
<path d="M314.727 294.99C323.61 273.06 329.197 242.647 322.782 219.558C312.865 242.855 310 269.685 314.727 294.99Z" fill="#488974"/>
<path d="M296.125 268.419C305.008 246.489 310.595 216.076 304.18 192.987C294.263 216.285 291.398 243.115 296.125 268.419Z" fill="#488974"/>
<path d="M279.243 241.277C288.126 219.347 293.713 188.934 287.298 165.845C277.381 189.143 274.516 215.973 279.243 241.277Z" fill="#488974"/>
<path d="M262.448 211.923C268.649 188.905 270.582 157.923 261.495 135.893C254.432 160.415 254.771 187.457 262.448 211.923Z" fill="#488974"/>
<path d="M251.213 187.73C249.015 163.774 240.132 134.14 224.155 117.322C226.074 143.029 235.698 168.072 251.213 187.73Z" fill="#488974"/>
<path d="M256.437 199.356C237.775 183.768 209.925 168.858 185.667 168.156C205.353 185.194 230.525 196.292 256.437 199.356Z" fill="#488974"/>
<path d="M269.874 223.88C249.14 209.404 218.855 196.47 193.443 197.953C215.361 213.84 242.547 223.062 269.874 223.88Z" fill="#488974"/>
<path d="M286.595 253.426C265.861 238.95 235.576 226.016 210.164 227.499C232.083 243.387 259.268 252.609 286.595 253.426Z" fill="#488974"/>
<path d="M309.445 287.217C288.71 272.741 258.426 259.807 233.014 261.29C254.932 277.178 282.118 286.4 309.445 287.217Z" fill="#488974"/>
<path d="M317.779 299.925C322.108 305.665 325.691 310.25 328.236 313.363C329.472 314.873 330.451 316.068 331.169 316.945C331.483 317.314 331.739 317.615 331.949 317.862C332.129 318.066 332.227 318.165 332.239 318.155C332.251 318.145 332.177 318.027 332.021 317.805C331.83 317.543 331.596 317.223 331.311 316.832C330.626 315.93 329.691 314.7 328.511 313.147C326.053 309.97 322.549 305.329 318.288 299.546C314.011 293.775 309.063 286.797 303.683 278.97C298.344 271.115 292.61 262.387 286.821 253.078C275.274 234.448 265.744 217.026 259.157 204.26C255.862 197.877 253.248 192.683 251.484 189.072C250.612 187.327 249.922 185.945 249.416 184.931C249.192 184.502 249.008 184.151 248.858 183.864C248.728 183.626 248.654 183.507 248.64 183.513C248.626 183.52 248.672 183.651 248.775 183.903C248.904 184.201 249.061 184.564 249.253 185.008C249.722 186.04 250.362 187.446 251.17 189.222C252.838 192.881 255.367 198.121 258.592 204.547C265.04 217.398 274.496 234.893 286.059 253.549" fill="#E0E0E0"/>
<path d="M484.156 209.136C480.06 204.267 474.374 201.32 470.419 200.186C466.715 199.124 461.097 198.145 455.365 199.513C451.805 200.363 448.683 202.023 446.086 204.448C443.009 207.32 440.652 211.289 439.079 216.245C438.843 216.988 438.916 217.777 439.286 218.466C439.657 219.159 440.277 219.659 441.033 219.876L450.745 222.661C452.115 223.054 453.586 222.369 454.167 221.069C455.471 218.147 458.749 213.537 466.053 215.496C471.619 216.992 472.752 221.652 472.982 223.588C473.356 226.738 472.1 229.987 469.623 232.278C465.817 235.798 460.876 235.087 458.269 234.35C455.271 233.502 452.138 235.235 451.285 238.212L448.288 248.663C447.85 250.189 448.736 251.787 450.262 252.225L459.724 254.938C461.25 255.376 462.848 254.49 463.285 252.964L463.915 250.768C463.93 250.715 463.976 250.679 464.032 250.676C466.391 250.538 471.067 249.913 475.877 247.265C482.017 243.885 486.197 238.449 488.302 231.108C491.314 220.601 487.71 213.36 484.156 209.136Z" fill="#EBEBEB"/>
<path d="M454.71 256.346L453.882 256.109C449.925 254.974 445.782 257.27 444.647 261.228C443.512 265.185 445.808 269.328 449.766 270.463L450.594 270.7C454.551 271.835 458.694 269.539 459.829 265.581C460.964 261.624 458.667 257.481 454.71 256.346Z" fill="#EBEBEB"/>
<path d="M163.679 294.647C158.962 291.118 153.217 289.656 149.413 289.465C145.85 289.286 140.579 289.584 135.699 292.022C132.668 293.536 130.202 295.689 128.37 298.421C126.2 301.657 124.908 305.731 124.531 310.53C124.474 311.25 124.706 311.946 125.184 312.489C125.664 313.035 126.329 313.356 127.055 313.393L136.396 313.863C137.714 313.929 138.897 313.003 139.147 311.708C139.709 308.799 141.695 303.955 148.692 304.186C154.024 304.365 156.025 308.328 156.639 310.026C157.638 312.788 157.189 315.98 155.437 318.567C152.745 322.54 148.141 322.938 145.636 322.821C142.755 322.687 140.295 324.907 140.151 327.77L139.645 337.822C139.571 339.29 140.705 340.544 142.173 340.618L151.275 341.076C152.743 341.15 153.997 340.016 154.071 338.548L154.177 336.436C154.179 336.385 154.213 336.343 154.263 336.328C156.361 335.708 160.445 334.162 164.225 330.764C169.05 326.427 171.677 320.647 172.032 313.586C172.541 303.48 167.77 297.709 163.679 294.647Z" fill="#EBEBEB"/>
<path d="M147.05 343.399L146.254 343.359C142.448 343.168 139.195 346.108 139.004 349.915C138.812 353.721 141.753 356.974 145.56 357.166L146.356 357.206C150.162 357.397 153.415 354.457 153.607 350.65C153.798 346.843 150.857 343.591 147.05 343.399Z" fill="#EBEBEB"/>
<path d="M115.109 472.678H123.75C128.835 454.558 131.282 434.394 127.952 417.537C120.152 434.436 115.782 453.472 115.109 472.678Z" fill="#EBEBEB"/>
<path d="M113.472 388.591C102.848 411.607 98.5647 438.584 101.368 464.563C101.464 464.767 101.562 464.972 101.659 465.176C111.266 443.22 118.207 412.563 113.472 388.591Z" fill="#EBEBEB"/>
<path d="M90.675 356.202C82.888 379.932 81.4469 406.46 86.5199 431.181C86.8329 431.931 87.154 432.698 87.48 433.471C94.511 410.29 97.945 379.103 90.675 356.202Z" fill="#EBEBEB"/>
<path d="M75.8188 404.75C75.7348 404.485 75.6988 404.347 75.7128 404.341C75.7268 404.335 75.7898 404.462 75.8998 404.715C76.0258 405.02 76.1808 405.392 76.3688 405.847C76.5208 406.232 76.6988 406.685 76.8898 407.17C77.2338 407.724 77.5638 408.288 77.9158 408.835C77.2068 384.078 70.4728 353.069 56.2578 334.791C56.5878 360.272 63.7188 385.554 76.3338 406.268C76.2928 406.153 76.2468 406.024 76.2088 405.917C76.0528 405.448 75.9248 405.065 75.8188 404.75Z" fill="#EBEBEB"/>
<path d="M81.78 421.015C81.707 420.828 81.636 420.644 81.565 420.459C64.723 403.498 39.476 386.839 16.752 384.634C34.375 403.26 57.489 416.182 81.78 421.015Z" fill="#EBEBEB"/>
<path d="M93.5682 447.148C93.4752 447.068 93.3772 446.988 93.2832 446.908C93.3152 446.98 93.3482 447.053 93.3802 447.125C93.4432 447.132 93.5062 447.142 93.5682 447.148Z" fill="#EBEBEB"/>
<path d="M22.4248 415.741C42.0608 433.186 66.9378 444.274 92.4798 447.019C92.2968 446.6 92.1218 446.193 91.9418 445.778C73.1098 430.132 45.9748 415.798 22.4248 415.741Z" fill="#EBEBEB"/>
<path d="M36.6143 447.148C49.4753 458.574 64.5893 467.259 80.6603 472.678H100.424C82.0653 458.892 57.8783 447.2 36.6143 447.148Z" fill="#EBEBEB"/>
<path d="M83.9599 426.579C86.1899 432.212 88.8699 438.703 91.9409 445.778C92.1209 446.193 92.2959 446.6 92.4789 447.019C95.9509 454.974 99.9179 463.649 104.305 472.679H105.266C104.031 470.147 102.828 467.644 101.658 465.177C101.561 464.973 101.464 464.768 101.367 464.564C98.4929 458.487 95.8229 452.636 93.3799 447.127C93.3479 447.055 93.3149 446.981 93.2829 446.91C91.1719 442.144 89.2349 437.645 87.4789 433.472C87.1529 432.698 86.8319 431.932 86.5189 431.182C85.8179 429.502 85.1469 427.875 84.5119 426.32C81.7479 419.555 79.5639 414.053 78.0949 410.233C77.6279 409.048 77.2309 408.039 76.8889 407.171C76.6979 406.686 76.5199 406.233 76.3679 405.848C76.1789 405.393 76.0249 405.022 75.8989 404.716C75.7889 404.463 75.7259 404.336 75.7119 404.342C75.6979 404.348 75.7339 404.486 75.8179 404.751C75.9229 405.066 76.0519 405.448 76.2089 405.917C76.2469 406.024 76.2929 406.153 76.3339 406.268C76.7069 407.321 77.1889 408.677 77.7889 410.367C78.7229 412.993 80.0009 416.412 81.5649 420.459C81.6359 420.644 81.7069 420.828 81.7799 421.015C82.4569 422.762 83.1809 424.611 83.9599 426.579Z" fill="#E0E0E0"/>
<path d="M470.385 472.286C470.385 472.437 371.707 472.559 250.01 472.559C128.271 472.559 29.6143 472.437 29.6143 472.286C29.6143 472.135 128.271 472.013 250.01 472.013C371.707 472.013 470.385 472.135 470.385 472.286Z" fill="#263238"/>
<path d="M81.5799 152.176C98.1662 145.751 106.404 127.097 99.9792 110.511C93.5546 93.9247 74.9006 85.6871 58.3143 92.1117C41.7281 98.5363 33.4904 117.19 39.915 133.777C46.3397 150.363 64.9937 158.601 81.5799 152.176Z" fill="#61BAFB"/>
<path d="M102.15 122.145C102.15 122.145 102.127 121.968 102.103 121.624C102.08 121.266 102.048 120.757 102.006 120.095C101.986 119.758 101.964 119.382 101.939 118.969C101.896 118.557 101.808 118.11 101.735 117.624C101.658 117.138 101.575 116.615 101.486 116.057C101.419 115.494 101.21 114.922 101.066 114.301C100.499 111.813 99.3361 108.873 97.5001 105.757C95.6491 102.654 92.9791 99.412 89.3431 96.66C88.8861 96.32 88.4241 95.976 87.9571 95.627C87.4701 95.308 86.9571 95.015 86.4501 94.703C85.9321 94.409 85.4421 94.051 84.8871 93.799C84.3381 93.536 83.7831 93.27 83.2231 93.001C82.9421 92.868 82.6601 92.734 82.3771 92.6C82.0821 92.493 81.7861 92.385 81.4881 92.276C80.8931 92.059 80.2911 91.84 79.6851 91.619C79.0721 91.417 78.4311 91.286 77.7971 91.114C77.1561 90.969 76.5261 90.743 75.8581 90.675C74.5331 90.487 73.1951 90.214 71.8081 90.206C71.1171 90.182 70.4211 90.115 69.7201 90.126C69.0191 90.162 68.3121 90.199 67.6001 90.235C67.2451 90.26 66.8861 90.257 66.5301 90.304L65.4621 90.468C64.7491 90.586 64.0241 90.67 63.3081 90.818C61.8951 91.202 60.4311 91.489 59.0391 92.071C57.6031 92.531 56.2521 93.24 54.8631 93.906C54.1871 94.273 53.5391 94.7 52.8691 95.097C52.5421 95.307 52.1921 95.485 51.8801 95.722L50.9381 96.428C49.6371 97.321 48.4991 98.438 47.3071 99.514C46.7671 100.108 46.2251 100.706 45.6801 101.306L45.2711 101.757L44.9031 102.244L44.1701 103.225L43.4341 104.21L42.7891 105.263L42.1451 106.323L41.8221 106.855L41.5481 107.415C41.1871 108.164 40.8251 108.917 40.4611 109.672C40.1731 110.459 39.8831 111.249 39.5931 112.042C38.5491 115.255 37.9871 118.667 37.9411 122.139C37.9871 125.613 38.5471 129.026 39.5911 132.24C39.8821 133.033 40.1711 133.824 40.4591 134.611C40.8231 135.367 41.1851 136.119 41.5461 136.869L41.8191 137.429L42.1421 137.961L42.7861 139.021L43.4301 140.075L44.1661 141.06L44.8991 142.041L45.2661 142.528L45.6751 142.979C46.2201 143.579 46.7631 144.177 47.3021 144.772C48.4941 145.848 49.6321 146.966 50.9341 147.859L51.8771 148.565C52.1891 148.802 52.5391 148.981 52.8671 149.19C53.5361 149.587 54.1851 150.014 54.8611 150.381C56.2501 151.047 57.6001 151.757 59.0371 152.216C60.4291 152.798 61.8931 153.084 63.3071 153.469C64.0241 153.617 64.7491 153.701 65.4621 153.819L66.5301 153.983C66.8861 154.03 67.2451 154.028 67.6001 154.052C68.3121 154.089 69.0181 154.125 69.7201 154.162C70.4211 154.173 71.1171 154.105 71.8081 154.082C73.1961 154.074 74.5341 153.801 75.8591 153.613C76.5271 153.545 77.1571 153.319 77.7981 153.174C78.4321 153.001 79.0731 152.871 79.6861 152.669C80.2931 152.448 80.8941 152.229 81.4891 152.012C81.7871 151.903 82.0831 151.796 82.3781 151.688C82.6611 151.554 82.9441 151.42 83.2241 151.287C83.7841 151.018 84.3391 150.752 84.8881 150.489C85.4431 150.237 85.9341 149.879 86.4511 149.585C86.9581 149.272 87.4721 148.98 87.9581 148.661C88.4251 148.313 88.8871 147.968 89.3441 147.628C92.9811 144.876 95.6501 141.634 97.5011 138.53C99.3361 135.414 100.5 132.474 101.066 129.986C101.211 129.365 101.42 128.794 101.486 128.23C101.575 127.671 101.658 127.149 101.735 126.663C101.807 126.177 101.895 125.73 101.939 125.318C101.963 124.905 101.986 124.53 102.006 124.193C102.048 123.531 102.081 123.023 102.103 122.664C102.127 122.322 102.15 122.145 102.15 122.145C102.15 122.145 102.155 122.322 102.145 122.667C102.132 123.026 102.113 123.536 102.088 124.2C102.074 124.539 102.058 124.915 102.041 125.33C102.004 125.744 101.922 126.193 101.856 126.682C101.784 127.171 101.707 127.697 101.625 128.259C101.564 128.826 101.36 129.402 101.221 130.027C100.675 132.533 99.5271 135.499 97.6981 138.648C95.8531 141.784 93.1781 145.066 89.5201 147.858C89.0601 148.203 88.5961 148.552 88.1251 148.905C87.6351 149.229 87.1181 149.526 86.6081 149.844C86.0871 150.143 85.5921 150.506 85.0331 150.762C84.4801 151.03 83.9211 151.3 83.3561 151.574C83.0731 151.709 82.7891 151.845 82.5031 151.982C82.2061 152.092 81.9071 152.202 81.6061 152.312C81.0051 152.533 80.3991 152.756 79.7861 152.981C79.1681 153.188 78.5211 153.322 77.8801 153.498C77.2331 153.646 76.5971 153.876 75.9221 153.947C74.5841 154.141 73.2311 154.42 71.8291 154.431C71.1311 154.457 70.4271 154.526 69.7181 154.517C69.0091 154.482 68.2941 154.447 67.5751 154.411C67.2161 154.387 66.8521 154.39 66.4931 154.343L65.4131 154.179C64.6921 154.061 63.9581 153.978 63.2331 153.829C61.8021 153.444 60.3201 153.155 58.9111 152.569C57.4571 152.106 56.0881 151.391 54.6831 150.718C53.9981 150.348 53.3411 149.917 52.6631 149.516C52.3311 149.304 51.9771 149.123 51.6611 148.884L50.7061 148.171C49.3881 147.268 48.2341 146.139 47.0271 145.05C46.4801 144.449 45.9301 143.844 45.3781 143.237L44.9631 142.781L44.5901 142.289L43.8471 141.297L43.1011 140.3L42.4481 139.234L41.7961 138.161L41.4691 137.623L41.1921 137.056C40.8261 136.297 40.4591 135.535 40.0901 134.77C39.7981 133.973 39.5041 133.172 39.2091 132.369C38.1511 129.115 37.5821 125.657 37.5371 122.14C37.5831 118.624 38.1531 115.168 39.2111 111.915C39.5061 111.112 39.7991 110.312 40.0921 109.515C40.4611 108.75 40.8281 107.989 41.1941 107.23L41.4721 106.664L41.7991 106.126L42.4511 105.053L43.1051 103.987L43.8511 102.99L44.5941 101.998L44.9671 101.506L45.3811 101.05C45.9331 100.443 46.4831 99.839 47.0301 99.238C48.2371 98.149 49.3911 97.021 50.7091 96.118L51.6641 95.405C51.9801 95.166 52.3341 94.985 52.6661 94.773C53.3441 94.372 54.0011 93.941 54.6851 93.571C56.0911 92.898 57.4591 92.184 58.9131 91.72C60.3231 91.135 61.8041 90.846 63.2351 90.461C63.9601 90.312 64.6941 90.229 65.4151 90.111L66.4951 89.948C66.8551 89.901 67.2181 89.904 67.5771 89.88C68.2971 89.845 69.0111 89.809 69.7201 89.774C70.4291 89.765 71.1321 89.834 71.8301 89.86C73.2321 89.872 74.5851 90.15 75.9221 90.344C76.5971 90.415 77.2331 90.644 77.8801 90.793C78.5201 90.969 79.1671 91.103 79.7861 91.309C80.3981 91.534 81.0051 91.757 81.6061 91.978C81.9061 92.089 82.2051 92.199 82.5031 92.308C82.7891 92.445 83.0731 92.58 83.3571 92.716C83.9221 92.989 84.4811 93.26 85.0341 93.528C85.5941 93.784 86.0881 94.147 86.6091 94.446C87.1201 94.763 87.6361 95.06 88.1261 95.384C88.5961 95.737 89.0621 96.086 89.5211 96.431C93.1791 99.222 95.8541 102.504 97.6991 105.641C99.5291 108.791 100.677 111.757 101.223 114.263C101.362 114.888 101.566 115.464 101.627 116.031C101.709 116.593 101.786 117.119 101.858 117.608C101.924 118.097 102.006 118.546 102.043 118.96C102.06 119.375 102.076 119.752 102.09 120.091C102.115 120.755 102.134 121.265 102.147 121.624C102.155 121.968 102.15 122.145 102.15 122.145Z" fill="#263238"/>
<path d="M58.4865 116.625H64.6055C64.6055 116.625 64.6055 111.487 69.9445 111.395C72.7175 111.347 74.1545 113.164 74.7395 114.555C75.4175 116.171 75.2125 118.012 74.3035 119.511C73.2655 121.222 70.9915 122.777 66.8675 122.051V131.03H72.9175V127.766C72.9175 127.766 81.4025 125.572 81.4025 116.221C81.4025 107.274 73.3785 105.195 69.9445 105.195C67.3185 105.195 58.3705 105.83 58.4865 116.625Z" fill="#F8FB61"/>
<path d="M72.9906 133.36H66.8506V139.095H72.9906V133.36Z" fill="#F8FB61"/>
<path d="M103.61 152.279C103.61 154.994 101.409 157.196 98.6934 157.196C95.9774 157.196 93.7764 154.995 93.7764 152.279C93.7764 149.564 95.9774 147.362 98.6934 147.362C101.409 147.362 103.61 149.564 103.61 152.279Z" fill="#61BAFB"/>
<path d="M103.61 152.279C103.567 152.281 103.582 151.841 103.38 151.098C103.179 150.369 102.68 149.303 101.581 148.485C100.519 147.664 98.7722 147.207 97.0822 147.837C96.2502 148.139 95.4572 148.707 94.8942 149.49C94.3152 150.263 93.9902 151.255 93.9802 152.278C93.9902 153.301 94.3152 154.293 94.8942 155.067C95.4572 155.851 96.2502 156.419 97.0822 156.721C98.7722 157.351 100.519 156.893 101.581 156.073C102.68 155.255 103.179 154.189 103.379 153.46C103.582 152.717 103.567 152.277 103.61 152.279C103.624 152.279 103.632 152.387 103.635 152.595C103.642 152.802 103.618 153.111 103.533 153.499C103.373 154.263 102.897 155.403 101.756 156.302C100.654 157.202 98.7882 157.734 96.9552 157.074C96.0532 156.758 95.1892 156.15 94.5732 155.304C93.9412 154.469 93.5822 153.39 93.5732 152.279C93.5822 151.169 93.9412 150.09 94.5732 149.256C95.1882 148.41 96.0522 147.802 96.9542 147.486C98.7862 146.826 100.652 147.358 101.755 148.257C102.897 149.155 103.373 150.296 103.533 151.06C103.618 151.447 103.642 151.756 103.635 151.964C103.632 152.171 103.624 152.279 103.61 152.279Z" fill="#263238"/>
<path d="M451.857 126.078C465.074 112.861 465.074 91.4313 451.857 78.2141C438.64 64.9969 417.21 64.9969 403.993 78.2141C390.776 91.4313 390.776 112.861 403.993 126.078C417.21 139.295 438.64 139.295 451.857 126.078Z" fill="#61BAFB"/>
<path d="M461.774 102.144C461.774 102.144 461.75 101.958 461.725 101.596C461.701 101.22 461.667 100.685 461.623 99.989C461.602 99.635 461.579 99.24 461.553 98.806C461.507 98.373 461.415 97.903 461.339 97.392C461.258 96.881 461.171 96.332 461.077 95.745C461.007 95.153 460.787 94.552 460.635 93.9C460.04 91.286 458.817 88.196 456.888 84.921C454.943 81.66 452.137 78.253 448.315 75.361C447.835 75.004 447.35 74.642 446.858 74.276C446.346 73.941 445.807 73.633 445.274 73.305C444.73 72.996 444.215 72.619 443.631 72.355C443.054 72.078 442.471 71.799 441.882 71.516C441.587 71.376 441.291 71.236 440.993 71.094C440.683 70.981 440.372 70.868 440.059 70.754C439.433 70.526 438.802 70.296 438.164 70.064C437.52 69.851 436.847 69.714 436.18 69.533C435.507 69.38 434.844 69.143 434.142 69.072C432.75 68.875 431.343 68.588 429.885 68.58C429.159 68.555 428.428 68.484 427.691 68.496C426.954 68.534 426.212 68.572 425.464 68.611C425.091 68.637 424.713 68.634 424.34 68.684L423.218 68.857C422.469 68.981 421.707 69.069 420.954 69.225C419.469 69.629 417.93 69.931 416.467 70.542C414.957 71.025 413.538 71.771 412.079 72.471C411.368 72.856 410.687 73.305 409.984 73.722C409.64 73.942 409.272 74.13 408.944 74.379L407.954 75.121C406.586 76.06 405.39 77.234 404.138 78.364C403.571 78.989 403.001 79.617 402.428 80.247L401.998 80.72L401.612 81.231L400.842 82.262L400.068 83.297L399.391 84.404L398.715 85.518L398.376 86.077L398.089 86.665C397.71 87.453 397.329 88.243 396.947 89.037C396.644 89.864 396.34 90.695 396.034 91.528C394.937 94.904 394.347 98.49 394.298 102.139C394.346 105.789 394.935 109.377 396.031 112.754C396.336 113.588 396.64 114.418 396.943 115.246C397.325 116.04 397.706 116.831 398.085 117.619L398.372 118.208L398.712 118.767L399.388 119.881L400.065 120.988L400.839 122.023L401.609 123.054L401.995 123.566L402.425 124.04C402.998 124.671 403.568 125.299 404.135 125.924C405.388 127.055 406.584 128.229 407.951 129.168L408.942 129.91C409.27 130.159 409.637 130.347 409.982 130.567C410.686 130.984 411.367 131.433 412.077 131.819C413.536 132.519 414.956 133.265 416.466 133.748C417.929 134.359 419.468 134.661 420.953 135.065C421.706 135.221 422.468 135.309 423.217 135.433L424.339 135.606C424.713 135.655 425.09 135.653 425.464 135.679C426.212 135.718 426.955 135.756 427.692 135.794C428.429 135.805 429.161 135.734 429.886 135.709C431.344 135.701 432.751 135.414 434.143 135.216C434.845 135.144 435.507 134.907 436.181 134.754C436.847 134.573 437.521 134.436 438.165 134.223C438.803 133.991 439.435 133.761 440.06 133.533C440.373 133.419 440.684 133.306 440.994 133.193C441.292 133.052 441.588 132.911 441.883 132.771C442.472 132.488 443.055 132.209 443.632 131.932C444.215 131.667 444.731 131.291 445.275 130.982C445.808 130.654 446.347 130.347 446.859 130.011C447.35 129.645 447.836 129.283 448.316 128.926C452.138 126.034 454.943 122.626 456.888 119.366C458.817 116.091 460.039 113.002 460.635 110.388C460.787 109.736 461.007 109.135 461.077 108.543C461.17 107.956 461.257 107.407 461.338 106.896C461.414 106.385 461.507 105.916 461.552 105.483C461.578 105.049 461.601 104.654 461.622 104.3C461.666 103.604 461.7 103.07 461.724 102.694C461.75 102.33 461.774 102.144 461.774 102.144C461.774 102.144 461.779 102.33 461.768 102.692C461.754 103.069 461.734 103.605 461.708 104.303C461.693 104.659 461.677 105.055 461.658 105.491C461.619 105.926 461.533 106.398 461.464 106.912C461.389 107.426 461.308 107.978 461.221 108.569C461.157 109.165 460.943 109.77 460.796 110.427C460.222 113.06 459.016 116.177 457.093 119.487C455.154 122.783 452.343 126.232 448.499 129.166C448.016 129.528 447.527 129.895 447.033 130.266C446.518 130.607 445.975 130.919 445.438 131.252C444.89 131.566 444.371 131.947 443.783 132.217C443.201 132.498 442.614 132.783 442.02 133.07C441.722 133.212 441.424 133.355 441.123 133.499C440.81 133.614 440.496 133.73 440.181 133.846C439.549 134.078 438.912 134.312 438.269 134.549C437.619 134.766 436.939 134.907 436.266 135.092C435.586 135.248 434.917 135.489 434.208 135.564C432.802 135.768 431.38 136.061 429.907 136.073C429.173 136.1 428.434 136.173 427.689 136.163C426.944 136.126 426.193 136.089 425.437 136.052C425.06 136.027 424.678 136.029 424.3 135.98L423.165 135.808C422.407 135.684 421.636 135.596 420.874 135.44C419.37 135.035 417.813 134.731 416.332 134.116C414.804 133.629 413.366 132.878 411.888 132.171C411.168 131.782 410.478 131.329 409.766 130.908C409.417 130.685 409.045 130.495 408.713 130.244L407.709 129.495C406.324 128.546 405.111 127.36 403.843 126.215C403.268 125.583 402.69 124.948 402.11 124.31L401.674 123.831L401.282 123.313L400.501 122.27L399.717 121.222L399.03 120.102L398.344 118.974L398 118.408L397.709 117.812C397.325 117.014 396.939 116.214 396.551 115.41C396.244 114.572 395.935 113.731 395.626 112.887C394.514 109.467 393.916 105.834 393.869 102.138C393.917 98.444 394.516 94.811 395.629 91.393C395.939 90.549 396.247 89.708 396.555 88.871C396.942 88.067 397.328 87.267 397.713 86.469L398.005 85.874L398.349 85.309L399.034 84.181L399.721 83.061L400.505 82.013L401.286 80.97L401.678 80.453L402.113 79.974C402.693 79.336 403.271 78.701 403.846 78.069C405.114 76.925 406.327 75.739 407.712 74.79L408.715 74.041C409.047 73.79 409.419 73.6 409.768 73.377C410.48 72.955 411.17 72.503 411.89 72.114C413.367 71.407 414.805 70.656 416.333 70.169C417.814 69.554 419.371 69.25 420.875 68.845C421.637 68.689 422.408 68.601 423.165 68.477L424.3 68.305C424.678 68.256 425.06 68.259 425.437 68.234C426.193 68.197 426.944 68.16 427.689 68.123C428.434 68.113 429.173 68.186 429.907 68.213C431.38 68.225 432.802 68.518 434.208 68.722C434.917 68.797 435.586 69.037 436.266 69.194C436.939 69.379 437.619 69.52 438.268 69.737C438.912 69.974 439.549 70.208 440.18 70.44C440.496 70.556 440.81 70.672 441.122 70.787C441.423 70.931 441.721 71.073 442.019 71.215C442.613 71.502 443.2 71.787 443.782 72.068C444.37 72.337 444.889 72.718 445.437 73.033C445.974 73.366 446.517 73.679 447.032 74.019C447.526 74.39 448.015 74.757 448.498 75.12C452.342 78.054 455.154 81.502 457.093 84.798C459.016 88.108 460.223 91.225 460.796 93.859C460.943 94.516 461.157 95.121 461.221 95.717C461.308 96.307 461.389 96.86 461.464 97.374C461.534 97.888 461.619 98.36 461.658 98.795C461.676 99.231 461.693 99.627 461.708 99.983C461.734 100.681 461.754 101.217 461.768 101.594C461.779 101.959 461.774 102.144 461.774 102.144Z" fill="#263238"/>
<path d="M415.888 96.343H422.318C422.318 96.343 422.318 90.944 427.929 90.847C430.843 90.797 432.354 92.706 432.968 94.168C433.681 95.866 433.465 97.801 432.51 99.376C431.419 101.174 429.029 102.809 424.696 102.045V111.481H431.054V108.051C431.054 108.051 439.971 105.746 439.971 95.919C439.971 86.516 431.539 84.333 427.93 84.333C425.169 84.332 415.766 84.999 415.888 96.343Z" fill="#F8FB61"/>
<path d="M431.13 113.93H424.677V119.957H431.13V113.93Z" fill="#F8FB61"/>
<path d="M396.437 131.308C396.437 134.162 394.124 136.475 391.27 136.475C388.416 136.475 386.103 134.162 386.103 131.308C386.103 128.454 388.416 126.141 391.27 126.141C394.124 126.141 396.437 128.454 396.437 131.308Z" fill="#61BAFB"/>
<path d="M396.437 131.308C396.391 131.31 396.408 130.848 396.195 130.067C395.984 129.301 395.46 128.181 394.305 127.321C393.189 126.459 391.353 125.978 389.578 126.64C388.704 126.957 387.87 127.554 387.279 128.378C386.67 129.191 386.328 130.233 386.318 131.307C386.328 132.382 386.67 133.424 387.279 134.237C387.871 135.061 388.704 135.658 389.579 135.975C391.354 136.638 393.191 136.156 394.307 135.294C395.462 134.434 395.986 133.315 396.197 132.548C396.408 131.768 396.391 131.306 396.437 131.308C396.452 131.308 396.46 131.421 396.463 131.64C396.47 131.858 396.445 132.183 396.356 132.59C396.188 133.393 395.688 134.591 394.488 135.535C393.329 136.48 391.369 137.04 389.443 136.346C388.495 136.014 387.587 135.375 386.94 134.486C386.276 133.608 385.899 132.474 385.889 131.308C385.899 130.142 386.276 129.008 386.94 128.131C387.587 127.242 388.494 126.603 389.442 126.271C391.368 125.577 393.328 126.136 394.487 127.082C395.687 128.026 396.188 129.225 396.355 130.027C396.444 130.434 396.469 130.759 396.462 130.977C396.46 131.195 396.452 131.308 396.437 131.308Z" fill="#263238"/>
<path d="M208.317 379.867C197.524 352.828 189.425 334.048 189.425 334.048L90.7308 349.049C90.7308 349.049 72.9918 394.524 74.5268 415.159C76.0618 435.794 83.2848 472.13 83.2848 472.13H202.713C202.713 472.13 219.11 406.906 208.317 379.867Z" fill="#263238"/>
<path d="M172.698 154.347C173.472 146.546 174.642 138.702 177.497 131.401C180.352 124.1 185.029 117.317 191.636 113.096L193.333 114.674C194.504 111.321 197.622 108.73 201.133 108.192C204.644 107.654 208.394 109.193 210.516 112.041C214.302 111.021 218.643 112.567 220.932 115.75C223.221 118.933 223.304 123.541 221.132 126.805C224.678 127.255 227.81 130.046 228.662 133.518C229.514 136.99 228.032 140.914 225.097 142.955C229.006 146.333 230.563 152.182 228.852 157.057C227.14 161.932 222.268 165.523 217.105 165.715C218.257 170.203 215.919 175.34 211.778 177.419C207.637 179.498 202.121 178.304 199.21 174.698C199.572 179.367 195.838 183.787 191.289 184.898C186.74 186.009 181.783 184.171 178.464 180.868C175.144 177.565 173.322 172.985 172.616 168.356C171.908 163.728 172.235 159.007 172.698 154.347Z" fill="#263238"/>
<path d="M193.7 119.782C198.239 121.252 199.168 124.928 200.111 127.991C202.141 134.584 199.858 144.342 196.168 150.17C192.478 155.999 188.432 158.962 181.604 159.948C181.382 149.481 181.16 139.015 180.938 128.548L193.7 119.782Z" fill="#F8FB61"/>
<path d="M196.263 137.808C199.363 133.782 198.924 127.459 195.298 123.9C197.285 121.403 196.572 117.552 194.552 115.082C192.532 112.612 189.532 111.194 186.635 109.855C185.045 102.55 176.844 97.412 169.578 99.167C165.792 93.602 157.726 92.728 151.265 94.612C149.686 95.072 148.11 95.666 146.465 95.66C145.259 95.655 144.081 95.325 142.885 95.164C136.311 94.28 129.786 98.908 127.222 105.026C126.812 106.004 126.476 107.035 125.826 107.873C124.973 108.973 123.68 109.619 122.578 110.469C120.195 112.306 118.682 115.226 118.556 118.232C118.449 120.785 119.262 123.495 118.186 125.813C117.647 126.975 116.673 127.914 116.254 129.124C115.038 132.631 118.926 136.217 118.206 139.859C118.059 140.602 117.724 141.294 117.518 142.023C117.097 143.513 117.24 145.156 117.913 146.551C118.432 147.628 119.269 148.614 119.339 149.807C119.393 150.713 118.99 151.575 118.808 152.463C118.364 154.637 123.055 163.02 124.932 164.201L181.065 164.703C185.313 163.838 188.773 159.988 189.182 155.672C189.25 154.954 189.261 154.175 189.705 153.608C190.084 153.124 190.696 152.903 191.237 152.612C194.851 150.671 195.288 145.709 194.907 141.624C194.853 141.052 194.794 140.466 194.938 139.91C195.148 139.102 195.754 138.469 196.263 137.808Z" fill="#263238"/>
<path d="M180.182 137.888C180.348 127.954 174.118 116.538 164.249 111.68C158.028 108.617 153.175 108.598 149.905 108.216C142.578 107.362 136.666 110.992 136.666 110.992C133.572 111.719 122.234 122.101 121.645 133.366C120.991 145.881 120.686 161.187 122.268 170.503C125.449 189.235 139.856 191.47 139.856 191.47C139.858 191.441 138.515 222.609 138.515 222.609L166.204 245.302L174.664 208.044L180.182 137.888Z" fill="#FFBF9D"/>
<path d="M139.856 191.47C139.856 191.47 152.572 192.152 164.998 184.501C164.998 184.501 158.45 197.799 139.65 196.244L139.856 191.47Z" fill="#FF9A6C"/>
<path d="M177.35 155.704C177.338 154.306 178.918 150.994 180.296 150.764C183.975 150.15 190.621 150.375 190.783 159.733C191.004 172.526 178.446 169.669 178.086 169.743C176.046 170.161 177.39 160.529 177.35 155.704Z" fill="#FFBF9D"/>
<path d="M181.534 165.009C181.59 164.967 181.76 165.161 182.139 165.327C182.51 165.488 183.144 165.594 183.806 165.333C185.149 164.814 186.25 162.648 186.272 160.341C186.284 159.176 186.022 158.071 185.593 157.16C185.186 156.231 184.57 155.588 183.887 155.479C183.208 155.334 182.733 155.75 182.582 156.112C182.417 156.473 182.503 156.728 182.435 156.75C182.4 156.783 182.157 156.541 182.251 156.011C182.299 155.756 182.444 155.451 182.741 155.2C183.043 154.945 183.492 154.81 183.967 154.853C184.955 154.905 185.858 155.797 186.329 156.796C186.854 157.8 187.177 159.04 187.163 160.349C187.126 162.928 185.848 165.363 184.007 165.93C183.112 166.18 182.356 165.922 181.963 165.627C181.562 165.318 181.491 165.033 181.534 165.009Z" fill="#FF9A6C"/>
<path d="M118.901 131.471C119.308 126.824 121.159 122.418 123.401 118.328C124.953 115.497 126.738 112.734 129.18 110.623C131.221 108.859 133.651 107.612 136.089 106.456C142.498 103.416 149.647 100.837 156.567 102.396C160.282 103.233 163.626 105.207 166.88 107.186C169.373 108.703 171.877 110.256 173.966 112.295C175.798 114.084 177.271 116.209 178.571 118.415C181.669 123.674 183.856 129.553 184.275 135.643C184.694 141.732 189.301 147.116 185.73 152.067C185.454 152.45 179.095 153.767 178.656 153.942C177.623 154.353 176.486 153.232 176.494 152.12C176.502 151.008 177.268 150.049 178.092 149.302C176.509 149.249 175.423 147.486 175.523 145.905C175.623 144.324 176.558 142.932 177.498 141.657C177.62 141.49 177.748 141.314 177.773 141.109C177.839 140.569 177.228 140.237 176.761 139.961C174.482 138.612 174.228 134.861 176.305 133.218C173.253 132.511 171.276 128.841 172.363 125.903C172.535 125.439 172.769 124.918 172.547 124.475C172.333 124.05 171.805 123.917 171.349 123.781C167.973 122.78 165.703 118.965 166.436 115.52C164.66 115.613 162.855 115.704 161.127 115.284C159.399 114.865 157.728 113.854 156.938 112.261C155.805 114.301 153.581 115.692 151.251 115.816C148.921 115.941 146.561 114.796 145.217 112.889C142.237 113.174 139.189 112.702 136.435 111.53C135.759 114.306 133.569 116.664 130.85 117.543C130.322 117.714 129.715 117.88 129.461 118.373C129.299 118.687 129.325 119.06 129.344 119.413C129.438 121.199 128.221 121.96 127.236 123.453C126.251 124.946 124.534 127.17 122.814 126.677C123.005 129.719 121.378 131.934 118.809 133.576L118.901 131.471Z" fill="#263238"/>
<path d="M116.254 129.124C116.254 129.124 116.377 128.595 116.931 127.745C117.198 127.317 117.577 126.818 117.933 126.18C118.281 125.541 118.557 124.731 118.629 123.783C118.723 122.838 118.636 121.778 118.545 120.619C118.454 119.464 118.356 118.175 118.612 116.82C118.855 115.471 119.388 114.069 120.258 112.775C120.693 112.129 121.212 111.511 121.816 110.95C122.416 110.383 123.12 109.905 123.824 109.429C124.523 108.947 125.231 108.432 125.753 107.735C126.278 107.038 126.598 106.183 126.944 105.316C127.639 103.568 128.653 101.855 130.008 100.343C131.354 98.8309 132.994 97.4589 134.932 96.4859C135.884 95.9649 136.933 95.6129 138.002 95.3009C139.088 95.0559 140.212 94.8629 141.361 94.8909C141.934 94.8829 142.51 94.9579 143.086 95.0129C143.659 95.0969 144.224 95.2129 144.791 95.3079C145.923 95.5229 147.068 95.5459 148.21 95.2819C149.353 95.0459 150.473 94.6239 151.653 94.3189C152.825 93.9849 154.042 93.7869 155.274 93.6469C156.508 93.5099 157.764 93.5089 159.023 93.5799C160.283 93.6739 161.543 93.8959 162.782 94.2389C165.235 94.9649 167.626 96.3179 169.259 98.4339C169.42 98.6439 169.58 98.8529 169.739 99.0599L169.534 98.9809C173.397 98.0559 177.443 99.0649 180.569 101.113C183.716 103.154 186.058 106.32 186.817 109.817L186.714 109.69C188.267 110.409 189.803 111.132 191.219 112.02C192.632 112.904 193.93 113.963 194.908 115.264C195.877 116.571 196.47 118.11 196.61 119.666C196.757 121.216 196.375 122.82 195.424 124.002L195.411 123.788C197.253 125.604 198.195 128.03 198.412 130.332C198.631 132.645 198.165 134.902 197.135 136.701C196.901 137.164 196.582 137.566 196.296 137.974C195.987 138.365 195.672 138.73 195.425 139.123C195.176 139.516 195.013 139.938 194.98 140.381C194.94 140.824 194.991 141.268 195.027 141.709C195.176 143.473 195.152 145.111 194.932 146.566C194.709 148.018 194.3 149.292 193.704 150.272C193.122 151.261 192.389 151.939 191.731 152.365C191.074 152.806 190.491 152.98 190.169 153.22C189.834 153.44 189.717 153.621 189.706 153.61C189.706 153.61 189.808 153.418 190.141 153.18C190.462 152.922 191.044 152.731 191.678 152.285C192.316 151.853 193.023 151.178 193.581 150.201C194.153 149.233 194.543 147.975 194.749 146.54C194.953 145.101 194.965 143.479 194.804 141.729C194.766 141.292 194.708 140.836 194.747 140.361C194.778 139.884 194.959 139.407 195.218 138.995C195.477 138.579 195.796 138.205 196.097 137.819C196.374 137.418 196.682 137.026 196.906 136.574C197.899 134.819 198.343 132.614 198.12 130.36C197.899 128.116 196.97 125.763 195.186 124.016L195.083 123.915L195.173 123.802C196.06 122.69 196.42 121.179 196.276 119.695C196.138 118.207 195.562 116.723 194.629 115.471C193.684 114.22 192.419 113.187 191.028 112.323C189.634 111.454 188.112 110.739 186.559 110.023L186.476 109.985L186.456 109.895C185.716 106.506 183.434 103.422 180.36 101.431C177.308 99.4339 173.363 98.4579 169.624 99.3549L169.502 99.3839L169.419 99.2759C169.266 99.0769 169.111 98.8749 168.955 98.6719C167.38 96.6309 165.068 95.3169 162.673 94.6069C161.463 94.2709 160.23 94.0529 158.994 93.9599C157.758 93.8889 156.524 93.8889 155.31 94.0229C154.099 94.1589 152.901 94.3529 151.748 94.6799C150.589 94.9759 149.461 95.4009 148.283 95.6429C147.695 95.7659 147.096 95.8429 146.494 95.8439C145.892 95.8439 145.302 95.7639 144.728 95.6659C144.153 95.5679 143.591 95.4519 143.031 95.3689C142.47 95.3149 141.913 95.2399 141.356 95.2469C140.24 95.2169 139.146 95.4029 138.086 95.6379C137.043 95.9399 136.017 96.2799 135.085 96.7879C133.186 97.7339 131.573 99.0759 130.246 100.555C128.91 102.037 127.91 103.71 127.219 105.428C126.87 106.287 126.54 107.168 125.98 107.907C125.419 108.647 124.682 109.174 123.977 109.655C123.264 110.132 122.578 110.593 121.991 111.141C121.4 111.684 120.889 112.284 120.461 112.913C119.602 114.172 119.071 115.541 118.824 116.86C118.564 118.183 118.647 119.449 118.728 120.607C118.808 121.766 118.885 122.838 118.778 123.799C118.694 124.761 118.398 125.592 118.033 126.237C117.66 126.88 117.272 127.369 116.996 127.789C116.712 128.204 116.529 128.54 116.418 128.772C116.306 129.001 116.264 129.127 116.254 129.124Z" fill="#455A64"/>
<path d="M163.549 96.404C163.53 96.433 163.21 96.213 162.585 95.913C161.962 95.618 161.015 95.251 159.789 95.122C158.573 94.986 157.066 95.1 155.589 95.768C154.122 96.431 152.698 97.634 151.789 99.265C151.528 99.733 151.305 100.231 151.165 100.718C151.031 101.202 151.014 101.716 151.269 102.065L151.585 102.498L151.067 102.356C149.645 101.966 148.187 102.248 147.115 102.858C146.024 103.466 145.338 104.404 144.964 105.243C144.585 106.091 144.499 106.846 144.481 107.355C144.467 107.868 144.51 108.149 144.481 108.153C144.47 108.155 144.45 108.087 144.421 107.953C144.391 107.82 144.363 107.619 144.351 107.356C144.328 106.835 144.378 106.048 144.743 105.149C145.101 104.261 145.802 103.246 146.953 102.577C148.082 101.909 149.63 101.585 151.168 101.995L150.966 102.286C150.607 101.788 150.653 101.146 150.797 100.619C150.952 100.079 151.179 99.575 151.454 99.078C152.407 97.368 153.904 96.12 155.446 95.445C157.002 94.764 158.574 94.678 159.824 94.853C161.086 95.022 162.043 95.44 162.656 95.781C162.963 95.954 163.192 96.104 163.338 96.219C163.484 96.33 163.557 96.393 163.549 96.404Z" fill="#455A64"/>
<path d="M184.425 110.928C184.44 110.945 184.29 111.115 183.982 111.389C183.672 111.66 183.201 112.039 182.542 112.406C181.886 112.766 181.026 113.124 179.996 113.192C178.984 113.261 177.778 113.039 176.812 112.256L177.095 112.211C176.974 112.383 176.85 112.56 176.724 112.739C176.589 112.911 176.437 113.075 176.291 113.246C175.357 114.227 174.218 114.902 173.11 115.26C172.003 115.631 170.94 115.729 170.064 115.667C169.185 115.606 168.5 115.396 168.044 115.224C167.596 115.029 167.363 114.893 167.374 114.872C167.4 114.792 168.369 115.334 170.077 115.395C170.923 115.42 171.94 115.298 172.993 114.925C174.048 114.564 175.125 113.911 176.009 112.983C176.146 112.821 176.29 112.666 176.418 112.504C176.538 112.335 176.656 112.169 176.77 112.007L176.895 111.831L177.054 111.961C177.917 112.669 179.025 112.897 179.977 112.852C180.94 112.81 181.773 112.499 182.424 112.179C183.723 111.51 184.383 110.872 184.425 110.928Z" fill="#455A64"/>
<path d="M191.28 122.74C191.293 122.743 191.283 122.823 191.251 122.976C191.208 123.124 191.136 123.347 190.971 123.597C190.66 124.101 189.966 124.716 188.92 124.984C187.869 125.267 186.564 125.065 185.262 124.616C184.609 124.388 183.931 124.16 183.236 123.836C182.561 123.511 181.824 123.041 181.456 122.24C181.428 122.17 181.4 122.099 181.375 122.035L181.677 122.124C180.453 123.097 179.189 123.945 177.9 124.433C176.619 124.94 175.329 125.028 174.31 124.832C173.283 124.647 172.525 124.217 172.088 123.843C171.865 123.659 171.713 123.493 171.621 123.373C171.529 123.253 171.486 123.187 171.496 123.178C171.523 123.154 171.725 123.399 172.179 123.725C172.627 124.051 173.368 124.422 174.354 124.565C175.337 124.717 176.547 124.608 177.772 124.103C179.003 123.616 180.226 122.786 181.438 121.821L181.64 121.66L181.74 121.911C181.761 121.965 181.784 122.023 181.808 122.082C182.108 122.746 182.754 123.182 183.4 123.496C184.054 123.808 184.739 124.048 185.376 124.281C186.646 124.739 187.875 124.949 188.855 124.72C189.841 124.502 190.516 123.962 190.846 123.512C191.19 123.059 191.241 122.727 191.28 122.74Z" fill="#455A64"/>
<path d="M149.969 148.72C149.885 149.968 150.872 151.068 152.173 151.18C153.472 151.292 154.596 150.374 154.681 149.126C154.765 147.878 153.778 146.777 152.479 146.665C151.177 146.552 150.053 147.473 149.969 148.72Z" fill="#263238"/>
<path d="M127.039 148.092C126.954 149.34 127.942 150.44 129.243 150.552C130.542 150.664 131.666 149.746 131.75 148.497C131.834 147.249 130.847 146.147 129.548 146.036C128.247 145.924 127.123 146.844 127.039 148.092Z" fill="#263238"/>
<path d="M126.105 140.242C126.388 140.56 128.223 139.291 130.769 139.38C133.313 139.432 135.14 140.802 135.425 140.499C135.566 140.365 135.284 139.799 134.49 139.18C133.708 138.565 132.36 137.947 130.774 137.902C129.188 137.86 127.835 138.401 127.049 138.974C126.248 139.549 125.965 140.098 126.105 140.242Z" fill="#263238"/>
<path d="M151.423 141.512C151.738 141.799 153.435 140.349 155.975 140.176C158.51 139.966 160.468 141.141 160.722 140.811C160.847 140.663 160.513 140.129 159.656 139.595C158.815 139.062 157.412 138.587 155.829 138.706C154.247 138.827 152.957 139.504 152.234 140.155C151.497 140.809 151.27 141.385 151.423 141.512Z" fill="#263238"/>
<path d="M141.929 160.623C141.946 160.479 140.372 160.155 137.818 159.744C137.17 159.656 136.559 159.507 136.464 159.06C136.326 158.585 136.62 157.893 136.96 157.147C137.622 155.594 138.314 153.965 139.042 152.259C141.938 145.297 144.057 139.564 143.776 139.45C143.495 139.336 140.918 144.886 138.022 151.848C137.324 153.565 136.656 155.202 136.021 156.768C135.751 157.499 135.301 158.324 135.602 159.309C135.762 159.801 136.227 160.168 136.64 160.294C137.053 160.434 137.418 160.453 137.739 160.483C140.314 160.705 141.915 160.768 141.929 160.623Z" fill="#263238"/>
<path d="M145.872 164.408C146.826 164.542 147.779 165.035 148.336 165.833C148.892 166.631 149.294 168.499 148.742 169.225C148.27 169.845 146.168 169.842 144.722 169.66C144.052 169.576 143.493 169.111 143.271 168.474L142.7 166.831C142.375 165.896 142.861 164.846 143.807 164.549C144.448 164.348 145.164 164.309 145.872 164.408Z" fill="#FF9A6C"/>
<path d="M150.264 132.216C150.643 132.848 153.077 132.039 156.078 131.821C159.077 131.543 161.609 131.94 161.879 131.255C161.996 130.929 161.459 130.37 160.374 129.898C159.298 129.426 157.664 129.096 155.865 129.243C154.066 129.393 152.509 129.987 151.525 130.63C150.534 131.274 150.096 131.914 150.264 132.216Z" fill="#263238"/>
<path d="M126.733 136.061C127.267 136.625 129.282 135.971 131.724 135.876C134.162 135.708 136.246 136.143 136.705 135.525C136.906 135.226 136.564 134.655 135.646 134.132C134.74 133.611 133.238 133.205 131.561 133.294C129.884 133.385 128.444 133.949 127.61 134.564C126.764 135.182 126.496 135.785 126.733 136.061Z" fill="#263238"/>
<path d="M214.466 241.789L190.445 328.917L198.871 353.891C167.151 367.871 121.299 372.315 85.1553 354.8C85.1553 354.8 97.4323 318.775 97.8503 311.762C98.2683 304.749 95.2503 263.785 98.5913 250.047C101.932 236.309 111.497 206.864 111.497 206.864L139.632 202.397C152.532 209.326 160.792 210.357 174.665 202.328L200.873 208.044L214.466 241.789Z" fill="#455A64"/>
<path d="M111.924 206.817C111.924 206.817 96.8151 208.417 90.7311 220.844C84.7211 233.121 68.0381 287.456 67.1301 296.532C66.2221 305.609 73.5861 317.827 80.0061 319.516L99.4731 300.109L115.624 301.547L136.889 202.327L111.924 206.817Z" fill="#455A64"/>
<g opacity="0.3">
<path d="M100.516 240.193C95.8183 252.38 94.4903 265.846 96.7173 278.715C93.1713 277.391 89.6263 276.066 86.0803 274.742C88.9783 278.745 92.7853 282.085 97.1323 284.437C94.2643 283.608 91.3253 282.77 88.3453 282.965C85.3663 283.16 82.2873 284.595 80.9473 287.263C84.4243 286.628 87.9633 285.99 91.4743 286.4C94.9853 286.81 98.5273 288.431 100.417 291.418C97.7953 280.1 96.7863 268.411 97.4293 256.811" fill="black"/>
</g>
<g opacity="0.3">
<path d="M96.1032 314.917L175.392 322.773C169.677 322.652 165.279 327.489 160.331 330.351C151.169 335.65 139.759 334.168 129.303 332.524C120.64 331.161 111.977 329.799 103.314 328.437C101.128 328.093 98.7992 327.682 97.1882 326.165C94.3002 323.446 95.0902 318.751 96.1032 314.917Z" fill="black"/>
</g>
<path d="M156.658 308.399L169.935 295.58C171.224 294.336 172.987 293.716 174.77 293.885C178.56 294.243 184.982 294.91 186.302 295.424C188.201 296.162 189.994 297.217 190.522 298.167C191.05 299.116 192.843 304.813 192.948 305.657C192.999 306.067 192.876 307.25 192.736 308.358C192.57 309.667 191.13 310.44 189.981 309.79C189.465 309.498 188.995 309.113 188.728 308.611C187.884 307.028 187.99 306.395 187.99 306.395C187.99 306.395 188.412 312.092 183.77 312.197C183.77 312.197 185.908 317.05 179.933 319.055C179.933 319.055 180.154 322.22 175.157 322.642C170.16 323.064 165.624 322.642 165.624 322.642C165.624 322.642 156.49 329.203 150.054 329.625C143.619 330.047 129.21 327.234 129.21 327.234L127.471 300.695L156.658 308.399Z" fill="#FFBF9D"/>
<path d="M174.647 300.266C174.631 300.311 175.442 300.654 176.774 301.157C178.107 301.655 179.963 302.32 182.069 302.88C183.111 303.177 184.163 303.344 185.037 303.583C185.925 303.821 186.46 304.486 186.846 305.067C187.232 305.655 187.538 306.155 187.804 306.459C188.065 306.768 188.25 306.898 188.263 306.883C188.283 306.862 188.134 306.7 187.914 306.375C187.687 306.053 187.424 305.549 187.057 304.931C186.869 304.625 186.645 304.29 186.333 303.982C186.026 303.669 185.599 303.418 185.136 303.271C184.201 302.996 183.205 302.833 182.158 302.536C180.069 301.981 178.208 301.356 176.855 300.919C175.506 300.478 174.664 300.219 174.647 300.266Z" fill="#FF9A6C"/>
<path d="M172.938 308.402C172.921 308.447 173.485 308.71 174.416 309.084C175.347 309.459 176.647 309.941 178.099 310.427C179.552 310.913 180.88 311.309 181.849 311.571C182.818 311.832 183.426 311.962 183.44 311.915C183.454 311.867 182.871 311.652 181.923 311.33C180.846 310.97 179.595 310.552 178.212 310.089C176.83 309.626 175.579 309.207 174.503 308.847C173.55 308.535 172.956 308.355 172.938 308.402Z" fill="#FF9A6C"/>
<path d="M169.657 315.968C169.646 316.077 171.969 316.314 174.732 317.067C177.5 317.805 179.627 318.768 179.672 318.668C179.691 318.627 179.183 318.333 178.317 317.948C177.452 317.563 176.222 317.101 174.824 316.723C173.426 316.347 172.131 316.128 171.189 316.026C170.247 315.924 169.66 315.923 169.657 315.968Z" fill="#FF9A6C"/>
<path d="M138.905 328.917L80.0049 319.515C80.0049 319.515 87.0829 289.972 97.4089 289.972C98.9219 289.972 151.24 306.969 151.24 306.969L138.905 328.917Z" fill="#455A64"/>
<path d="M149.21 316.054C149.247 316.088 149.763 315.594 150.591 314.79C151.501 313.897 152.597 312.819 153.809 311.629C155.059 310.386 156.174 309.242 156.957 308.39C157.741 307.539 158.193 306.983 158.158 306.95C158.121 306.916 157.605 307.41 156.777 308.214C155.867 309.108 154.771 310.185 153.558 311.376C152.308 312.619 151.193 313.762 150.411 314.614C149.628 315.465 149.175 316.022 149.21 316.054Z" fill="#FF9A6C"/>
<path d="M151.241 306.969C151.233 306.997 150.975 306.948 150.492 306.829C149.916 306.676 149.224 306.491 148.393 306.27C146.449 305.711 143.859 304.966 140.718 304.062C134.248 302.163 125.328 299.483 115.491 296.473C110.044 294.791 104.884 293.198 100.303 291.784L100.184 291.747L100.095 291.627C98.29 289.199 95.63 287.72 93.23 286.988C90.79 286.243 88.507 286.154 86.664 286.32C84.811 286.471 83.3829 286.878 82.4209 287.168C81.4619 287.476 80.965 287.697 80.945 287.658C80.925 287.622 81.3919 287.325 82.3389 286.939C83.2889 286.572 84.7219 286.086 86.6159 285.865C88.4979 285.629 90.858 285.656 93.41 286.38C95.94 287.115 98.707 288.545 100.735 291.21L100.527 291.054C105.115 292.445 110.283 294.012 115.738 295.666C125.575 298.676 134.467 301.446 140.892 303.492C144 304.501 146.564 305.332 148.488 305.957C149.301 306.239 149.978 306.473 150.541 306.668C151.009 306.837 151.25 306.941 151.241 306.969Z" fill="#263238"/>
<path d="M135.636 212.538C136.128 210.9 138.895 195.765 140.02 192.245C141.607 187.28 154.508 178.401 154.508 178.401C154.508 178.401 152.485 173.74 146.992 176.163C140.489 179.031 137.274 183.859 135.636 182.876C133.998 181.893 123.783 171.495 120.997 171.823C118.212 172.151 117.6 175.008 118.583 176.155C119.566 177.302 120.669 179.195 120.669 179.195C120.669 179.195 114.771 177.42 115.918 183.878C115.918 183.878 109.201 179.687 109.856 188.533C109.856 188.533 105.433 186.731 104.45 189.844C103.467 192.957 106.382 196.561 107.857 199.019C109.332 201.476 114.116 215.73 114.116 215.73L114.172 228.297L137.659 223.47L135.636 212.538Z" fill="#FFBF9D"/>
<path d="M135.636 212.538C135.654 212.539 135.716 212.784 135.821 213.259C135.931 213.784 136.077 214.481 136.262 215.366C136.637 217.271 137.171 219.978 137.852 223.433L137.889 223.621L137.698 223.661C131.898 224.886 123.877 226.58 114.237 228.615L113.848 228.697L113.845 228.297C113.816 224.427 113.784 220.194 113.75 215.73L113.769 215.844C112.093 211.01 110.351 205.811 108.163 200.558C107.093 198.028 104.864 195.823 104.06 192.753C103.863 191.993 103.772 191.173 103.904 190.353C104.027 189.567 104.399 188.659 105.176 188.164C105.931 187.664 106.826 187.555 107.634 187.612C108.458 187.672 109.231 187.851 110.013 188.145L109.438 188.563C109.405 187.699 109.371 186.821 109.495 185.915C109.656 185.032 109.855 184.047 110.618 183.301C111.357 182.522 112.52 182.355 113.457 182.522C114.424 182.681 115.298 183.025 116.141 183.517L115.501 183.949C115.344 182.762 115.141 181.315 115.94 180.014C116.438 179.196 117.368 178.728 118.232 178.607C119.115 178.48 119.948 178.57 120.789 178.788L120.302 179.405C119.713 178.42 119.081 177.436 118.379 176.568C117.925 176.114 117.686 175.328 117.724 174.69C117.758 174.027 117.982 173.388 118.363 172.853C118.741 172.317 119.286 171.903 119.885 171.669C120.186 171.56 120.492 171.471 120.804 171.429C121.105 171.387 121.528 171.434 121.821 171.516C123.027 171.907 123.949 172.581 124.885 173.232C128.549 175.908 131.689 178.98 134.856 181.752C135.234 182.061 135.7 182.498 135.976 182.576C136.26 182.669 136.731 182.449 137.138 182.206C137.975 181.686 138.773 181.017 139.579 180.393C141.183 179.12 142.838 177.929 144.575 176.953C146.302 176.042 148.123 175.031 150.175 175.116C152.234 175.159 154.002 176.529 154.823 178.259L154.943 178.511L154.702 178.682C149.675 182.255 145.156 185.773 141.959 189.558C141.163 190.511 140.543 191.514 140.189 192.583C139.86 193.686 139.605 194.784 139.36 195.833C138.898 197.936 138.473 199.869 138.089 201.618C137.353 205.068 136.772 207.789 136.362 209.709C136.155 210.639 135.988 211.348 135.861 211.823C135.742 212.303 135.636 212.538 135.636 212.538C135.614 212.539 135.672 212.288 135.761 211.804C135.861 211.272 135.994 210.566 136.162 209.672C136.528 207.743 137.047 205.009 137.704 201.543C138.064 199.786 138.461 197.844 138.893 195.731C139.127 194.673 139.367 193.575 139.693 192.436C140.057 191.28 140.725 190.187 141.525 189.212C144.769 185.299 149.261 181.756 154.312 178.115L154.191 178.538C153.468 177.061 151.916 175.854 150.149 175.843C148.375 175.763 146.641 176.701 144.947 177.612C143.26 178.57 141.653 179.735 140.063 181.007C139.257 181.634 138.475 182.303 137.546 182.886C137.075 183.138 136.546 183.509 135.779 183.348C135.057 183.082 134.787 182.694 134.338 182.362C131.135 179.574 127.996 176.524 124.406 173.912C123.514 173.284 122.563 172.628 121.596 172.324C121.352 172.27 121.186 172.238 120.932 172.261C120.677 172.295 120.437 172.368 120.2 172.451C119.735 172.634 119.333 172.945 119.049 173.348C118.484 174.141 118.342 175.336 119.033 176.036C119.791 176.973 120.422 177.959 121.036 178.983L121.57 179.873L120.549 179.6C119.181 179.234 117.38 179.274 116.656 180.473C116.059 181.395 116.176 182.708 116.336 183.805L116.465 184.689L115.696 184.238C114.977 183.816 114.141 183.488 113.336 183.361C112.526 183.226 111.72 183.365 111.212 183.904C110.173 185.027 110.202 186.919 110.275 188.504L110.304 189.143L109.7 188.923C108.376 188.44 106.722 188.155 105.646 188.853C105.111 189.191 104.837 189.811 104.721 190.492C104.611 191.167 104.682 191.871 104.858 192.554C105.214 193.927 105.937 195.208 106.697 196.436C107.444 197.655 108.349 198.868 108.896 200.242C111.097 205.575 112.806 210.754 114.464 215.616L114.483 215.671V215.73C114.489 220.194 114.495 224.427 114.5 228.297L114.108 227.979C123.769 226.048 131.808 224.441 137.621 223.279L137.467 223.507C136.863 220.022 136.39 217.291 136.058 215.37C135.915 214.483 135.803 213.784 135.718 213.258C135.646 212.779 135.619 212.537 135.636 212.538Z" fill="#FF9A6C"/>
<path d="M120.691 179.359C120.628 179.439 121.954 180.572 123.542 182.019C125.133 183.463 126.386 184.675 126.46 184.605C126.53 184.54 125.383 183.21 123.781 181.756C122.183 180.298 120.749 179.283 120.691 179.359Z" fill="#FF9A6C"/>
<path d="M115.439 183.525C115.355 183.56 115.858 184.831 116.886 186.149C117.907 187.473 119.013 188.277 119.068 188.204C119.137 188.124 118.161 187.22 117.168 185.931C116.166 184.648 115.533 183.478 115.439 183.525Z" fill="#FF9A6C"/>
<path d="M109.948 188.21C109.868 188.267 110.421 189.17 111.182 190.225C111.944 191.28 112.625 192.089 112.705 192.031C112.785 191.974 112.232 191.072 111.471 190.016C110.709 188.961 110.028 188.152 109.948 188.21Z" fill="#FF9A6C"/>
<path d="M200.872 208.044L175.612 233.248L149.697 265.806L139.391 222.418L113.057 227.83C113.057 227.83 114.915 276.841 123.019 299.054C124.561 303.282 129.124 306.425 131.159 307.392C143.89 313.438 156.319 304.083 156.319 304.083C156.319 304.083 209.432 268.436 215.189 244.572C217.908 233.303 216.818 219.905 212.186 214.39C208.114 209.54 200.872 208.044 200.872 208.044Z" fill="#455A64"/>
<path d="M215.189 244.572C215.189 244.572 215.129 244.835 214.987 245.344C214.82 245.844 214.687 246.629 214.276 247.576C213.608 249.529 212.232 252.264 210.106 255.549C207.966 258.827 205.018 262.62 201.269 266.724C197.507 270.815 192.999 275.268 187.759 279.901C182.539 284.556 176.604 289.408 170.071 294.401C166.802 296.895 163.38 299.42 159.803 301.949C158.904 302.575 157.999 303.206 157.087 303.841C156.185 304.463 155.242 305.12 154.258 305.674C152.284 306.79 150.174 307.729 147.952 308.424C143.533 309.854 138.535 310.143 133.841 308.69C133.243 308.551 132.696 308.258 132.119 308.048C131.551 307.815 130.967 307.61 130.426 307.293C129.337 306.692 128.325 305.967 127.36 305.176C125.462 303.575 123.728 301.618 122.8 299.193C121.117 294.427 119.915 289.435 118.849 284.346C117.882 279.238 116.984 274.038 116.314 268.744C114.457 254.623 113.4 240.868 112.806 227.84L112.796 227.627L113.006 227.584C122.197 225.701 131.002 223.897 139.343 222.188L139.566 222.142L139.618 222.363C143.512 238.847 146.976 253.514 149.87 265.763L149.566 265.683C158.461 256.115 165.6 248.436 170.528 243.134C172.988 240.504 174.893 238.467 176.196 237.074C176.839 236.395 177.331 235.875 177.673 235.513C178.008 235.164 178.188 234.994 178.188 234.994C178.188 234.994 178.033 235.187 177.71 235.548C177.376 235.918 176.896 236.449 176.269 237.143C174.982 238.55 173.1 240.609 170.67 243.267C165.77 248.594 158.671 256.311 149.826 265.925L149.6 266.171L149.522 265.846C146.598 253.604 143.097 238.946 139.161 222.472L139.435 222.647C131.096 224.366 122.294 226.182 113.105 228.076L113.305 227.821C113.91 240.827 114.974 254.578 116.828 268.675C117.498 273.961 118.392 279.149 119.355 284.244C120.415 289.317 121.612 294.292 123.276 299.016C124.152 301.316 125.828 303.225 127.681 304.789C128.621 305.562 129.615 306.274 130.666 306.855C131.181 307.159 131.751 307.359 132.307 307.587C132.87 307.792 133.405 308.08 133.988 308.216C138.567 309.638 143.455 309.368 147.807 307.967C149.994 307.286 152.077 306.363 154.023 305.267C155.003 304.716 155.897 304.096 156.823 303.459C157.734 302.827 158.639 302.199 159.537 301.575C163.113 299.056 166.537 296.541 169.807 294.058C176.343 289.086 182.284 284.256 187.512 279.626C192.76 275.018 197.277 270.591 201.051 266.528C204.812 262.452 207.775 258.688 209.933 255.438C212.077 252.181 213.477 249.472 214.174 247.539C214.6 246.601 214.749 245.824 214.932 245.33C215.095 244.827 215.189 244.572 215.189 244.572Z" fill="#263238"/>
<path d="M154.488 285.731C154.395 285.71 154.704 284.456 154.865 282.4C154.965 281.373 154.949 280.144 154.877 278.787C154.767 277.432 154.539 275.951 154.152 274.431C153.375 271.383 152.065 268.821 151.007 267.054C149.933 265.29 149.137 264.277 149.209 264.22C149.237 264.197 149.459 264.431 149.838 264.875C150.226 265.312 150.731 265.991 151.318 266.857C152.469 268.595 153.861 271.185 154.656 274.3C155.053 275.853 155.271 277.37 155.356 278.756C155.403 280.143 155.38 281.396 155.232 282.434C155.107 283.473 154.941 284.307 154.779 284.868C154.624 285.434 154.523 285.74 154.488 285.731Z" fill="#263238"/>
<path d="M150.893 167.708C150.846 167.847 150.303 167.786 149.473 167.617C148.642 167.453 147.528 167.199 146.288 167.103C145.047 166.999 143.938 167.089 143.175 167.289C142.395 167.471 142.067 167.787 141.94 167.735C141.879 167.706 141.878 167.534 142.036 167.3C142.191 167.069 142.496 166.812 142.91 166.602C143.737 166.172 145.016 165.948 146.371 166.064C147.733 166.17 148.905 166.565 149.696 166.914C150.491 167.27 150.939 167.574 150.893 167.708Z" fill="#263238"/>
<g opacity="0.3">
<path d="M191.018 328.363C191.018 328.363 179.455 326.945 173.235 325.983C169.835 325.457 164.659 324.911 163.68 323.961C162.463 322.781 162.471 320.816 162.342 319.125C160.137 290.279 170.054 259.073 200.708 240.463L208.527 242.519L208.021 261.311L191.018 328.363Z" fill="black"/>
</g>
<path d="M371.736 103.542C375.659 103.893 379.602 100.922 380.345 97.054C381.089 93.186 378.529 88.965 374.756 87.836C377.129 85.284 377.638 81.18 375.963 78.124C374.288 75.068 370.554 73.292 367.126 73.92C366.899 70.487 364.765 67.2419 361.702 65.6729C358.64 64.1039 354.759 64.269 351.84 66.092C347.962 62.927 341.834 62.954 337.984 66.152C334.629 65.616 331.03 67.483 329.535 70.535C328.04 73.586 328.773 77.575 331.253 79.897" fill="#263238"/>
<path d="M336.45 74.1229L338.216 74.0819C355.983 73.6679 371.091 86.9639 372.931 104.641C374.643 121.082 376.324 139.268 376.421 148.107C376.621 166.41 358.387 169.682 358.387 169.682L360.447 191.629L316.008 191.289L310.221 111.655C308.14 92.6929 317.439 75.6789 336.45 74.1229Z" fill="#FFBF9D"/>
<path d="M358.411 169.677C358.411 169.677 345.652 170.627 333.182 163.194C333.182 163.194 340.617 176.533 358.836 174.459L358.411 169.677Z" fill="#FF9A6C"/>
<path d="M367.343 124.499C367.425 125.878 366.323 127.083 364.885 127.194C363.45 127.304 362.218 126.28 362.137 124.901C362.056 123.522 363.156 122.316 364.592 122.204C366.03 122.093 367.262 123.12 367.343 124.499Z" fill="#263238"/>
<path d="M369.206 113.685C368.89 114.034 366.877 112.614 364.065 112.687C361.255 112.719 359.225 114.214 358.913 113.877C358.759 113.728 359.075 113.105 359.958 112.43C360.827 111.758 362.321 111.089 364.073 111.056C365.825 111.025 367.313 111.635 368.175 112.275C369.055 112.919 369.362 113.528 369.206 113.685Z" fill="#263238"/>
<path d="M343.13 124.499C343.211 125.878 342.11 127.083 340.672 127.193C339.237 127.304 338.005 126.279 337.924 124.9C337.843 123.522 338.944 122.315 340.38 122.204C341.817 122.092 343.049 123.12 343.13 124.499Z" fill="#263238"/>
<path d="M341.58 114.853C341.264 115.201 339.247 113.783 336.438 113.856C333.629 113.889 331.599 115.383 331.286 115.046C331.133 114.897 331.445 114.274 332.332 113.599C333.201 112.927 334.694 112.259 336.446 112.225C338.197 112.193 339.686 112.804 340.549 113.444C341.426 114.088 341.735 114.697 341.58 114.853Z" fill="#263238"/>
<path d="M352.271 135.468C352.254 135.308 353.995 134.965 356.818 134.537C357.534 134.447 358.211 134.288 358.32 133.795C358.477 133.272 358.158 132.505 357.791 131.678C357.076 129.957 356.327 128.152 355.541 126.26C352.41 118.544 350.127 112.194 350.439 112.07C350.751 111.947 353.541 118.101 356.671 125.816C357.426 127.719 358.147 129.533 358.833 131.268C359.124 132.078 359.613 132.993 359.271 134.077C359.09 134.618 358.572 135.02 358.115 135.155C357.658 135.306 357.254 135.323 356.9 135.352C354.054 135.573 352.286 135.627 352.271 135.468Z" fill="#263238"/>
<path d="M342.176 109.047C341.822 109.769 339.394 109.052 336.425 109.025C333.457 108.931 330.97 109.549 330.682 108.814C330.557 108.464 331.069 107.811 332.125 107.215C333.172 106.62 334.775 106.141 336.555 106.175C338.334 106.213 339.891 106.755 340.882 107.393C341.88 108.03 342.333 108.703 342.176 109.047Z" fill="#263238"/>
<path d="M369.073 102.087C368.495 102.739 366.16 102.13 363.368 102.165C360.576 102.117 358.224 102.714 357.665 102.059C357.419 101.74 357.776 101.092 358.794 100.463C359.797 99.8369 361.488 99.3039 363.407 99.3089C365.325 99.3149 367.001 99.8549 367.987 100.486C368.988 101.12 369.327 101.77 369.073 102.087Z" fill="#263238"/>
<path d="M370.977 96.2909C370.977 96.2909 365.884 84.9449 360.296 82.3989C353.532 79.3179 350.823 86.7269 344.408 85.0939C337.992 83.4609 331.534 80.5039 325.134 85.5829C318.129 91.1429 321.558 94.8489 321.307 102.977C320.288 135.933 314.495 145.381 312.423 129.918C312.196 128.224 307.451 126.983 306.585 119.823C305.462 110.538 304.841 99.2479 306.764 92.5959C308.385 86.9889 311.469 83.0689 317.061 78.6959C325.889 71.7939 338.225 71.3619 346.625 72.0099C355.024 72.6589 371.405 81.9249 370.977 96.2909Z" fill="#263238"/>
<path d="M313.577 129.393C313.396 126.571 310.911 124.399 308.103 124.732C304.698 125.136 300.946 127.162 301.336 134.208C302.027 146.708 314.434 143.435 314.436 143.076C314.437 142.832 313.913 134.622 313.577 129.393Z" fill="#FFBF9D"/>
<path d="M311.456 138.524C311.399 138.487 311.246 138.689 310.888 138.878C310.539 139.062 309.928 139.209 309.262 139.001C307.914 138.59 306.686 136.555 306.502 134.305C306.407 133.17 306.586 132.073 306.94 131.154C307.271 130.218 307.826 129.547 308.485 129.392C309.138 129.202 309.631 129.574 309.803 129.917C309.99 130.257 309.925 130.511 309.992 130.529C310.029 130.559 310.249 130.304 310.12 129.794C310.055 129.549 309.892 129.262 309.585 129.038C309.272 128.811 308.823 128.711 308.363 128.787C307.403 128.907 306.584 129.842 306.196 130.85C305.755 131.866 305.527 133.1 305.634 134.375C305.853 136.889 307.273 139.176 309.109 139.597C310.001 139.778 310.72 139.472 311.083 139.157C311.45 138.827 311.5 138.544 311.456 138.524Z" fill="#FF9A6C"/>
<path d="M313.257 105.151C314.907 106.222 316.65 107.325 318.612 107.474C320.574 107.622 322.786 106.446 323.071 104.499C323.199 103.624 322.963 102.619 323.519 101.933C324.183 101.114 325.45 101.336 326.5 101.423C330.146 101.724 334.302 97.6079 335.145 94.0479C336.105 95.4149 338.147 95.7879 339.529 94.8499C340.912 93.9129 341.411 93.3839 342.481 92.0999C343.55 90.8169 345.066 89.6559 346.725 89.8519C347.653 89.9619 348.531 90.4919 349.46 90.3879C351.1 90.2039 351.857 88.2619 352.067 86.6249C352.278 84.9889 352.427 83.0819 353.797 82.1629C355.067 81.3109 356.749 81.7479 358.267 81.9349C359.784 82.1219 361.728 81.7219 362.081 80.2339C362.266 79.4539 361.914 78.6449 361.469 77.9779C359.45 74.9569 355.17 73.6939 351.834 75.1339C350.514 71.0289 346.573 67.9019 342.275 67.5499C337.977 67.1969 333.58 69.6399 331.609 73.4759C328.909 71.1389 325.044 70.2219 321.582 71.0969C318.12 71.9719 315.155 74.6149 313.889 77.9549C310.828 77.2259 307.387 78.4829 305.517 81.0149C303.648 83.5469 303.458 87.2049 305.056 89.9169C302.837 91.2539 300.964 93.5329 300.978 96.1239C300.992 98.7139 303.574 101.235 306.057 100.496C305.094 102.535 305.98 105.252 307.959 106.333C309.939 107.414 312.703 106.69 313.898 104.777" fill="#263238"/>
<path d="M352.85 78.7948C352.86 78.7958 352.861 78.8728 352.853 79.0238C352.84 79.1738 352.836 79.4018 352.789 79.6938C352.688 80.2738 352.475 81.1348 351.937 82.1248C351.395 83.1008 350.545 84.2328 349.232 85.1468C347.946 86.0708 346.169 86.7918 344.142 86.7268L344.347 86.4448C344.76 87.5058 344.684 88.7918 344.177 89.9038C343.698 91.0348 342.927 92.0448 342.108 93.0298C341.688 93.5038 341.327 94.0578 340.741 94.4978C340.172 94.9208 339.484 95.1738 338.776 95.2798C337.37 95.4928 335.767 95.0938 334.716 93.9308L335.18 93.7868C334.92 96.2808 333.563 98.8018 331.352 100.371C330.183 101.258 328.724 101.818 327.275 101.813C325.826 101.833 324.471 101.439 323.206 101.019L323.537 100.864C322.901 102.435 321.899 103.785 320.666 104.794C319.457 105.801 317.83 106.412 316.336 106.083C313.369 105.527 311.353 103.117 310.904 100.814L311.191 100.939C309.745 101.772 308.174 101.885 306.907 101.671C305.623 101.467 304.606 100.935 303.879 100.404C303.148 99.8618 302.71 99.2988 302.445 98.9078C302.201 98.5008 302.099 98.2748 302.113 98.2678C302.175 98.2148 302.55 99.2088 304.001 100.232C304.725 100.72 305.718 101.204 306.953 101.371C308.172 101.55 309.659 101.407 310.994 100.611L311.225 100.473L311.281 100.737C311.728 102.885 313.667 105.132 316.418 105.616C317.771 105.9 319.202 105.354 320.348 104.401C321.499 103.45 322.454 102.149 323.045 100.673L323.138 100.439L323.376 100.517C324.621 100.927 325.929 101.295 327.268 101.273C328.608 101.27 329.917 100.772 331.032 99.9318C333.121 98.4468 334.394 96.0878 334.653 93.7268L334.718 93.1328L335.118 93.5818C336.005 94.5768 337.439 94.9608 338.704 94.7718C339.338 94.6808 339.949 94.4578 340.446 94.0938C340.931 93.7438 341.308 93.1958 341.734 92.7178C342.552 91.7488 343.303 90.7768 343.759 89.7248C344.242 88.6848 344.313 87.5538 343.958 86.5928L343.849 86.2968L344.164 86.3108C346.074 86.3948 347.786 85.7398 349.043 84.8728C350.327 84.0178 351.177 82.9418 351.735 82.0098C352.828 80.0918 352.76 78.7678 352.85 78.7948Z" fill="#455A64"/>
<path d="M262.871 189.666C262.871 189.666 215.849 206.227 202.247 213.068C191.621 218.412 184.888 237.801 201.24 245.882C213.433 251.908 279.439 240.392 279.439 240.392L262.871 189.666Z" fill="#FFBF9D"/>
<path d="M406.42 354.3L286.946 349.779L282.62 390.449L277.834 472.029L338.821 472.286C338.846 471.94 346.427 426.428 346.427 426.428L349.873 425.526L349.553 472.286H406.714C409.715 433.591 411.43 401.091 411.535 398.033C412.367 373.86 406.42 354.3 406.42 354.3Z" fill="#263238"/>
<path d="M342.126 401.081C342.104 401.136 342.743 401.475 343.941 402.005C345.143 402.51 346.909 403.284 349.28 403.623C350.463 403.787 351.801 403.793 353.195 403.485C354.579 403.179 356.044 402.522 357.204 401.347C358.364 400.17 359.075 398.561 359.501 396.904C359.931 395.232 360.145 393.504 360.422 391.745C361.48 384.692 362.126 378.264 362.464 373.605C362.634 371.276 362.731 369.388 362.773 368.082C362.812 366.776 362.801 366.052 362.74 366.048C362.677 366.044 362.571 366.76 362.423 368.056C362.262 369.542 362.064 371.377 361.829 373.547C361.329 378.182 360.585 384.578 359.53 391.612C358.991 395.089 358.673 398.621 356.605 400.77C354.539 402.88 351.553 403.219 349.352 402.99C347.079 402.748 345.297 402.081 344.066 401.678C342.838 401.251 342.151 401.021 342.126 401.081Z" fill="#455A64"/>
<path d="M353.518 367.661C353.53 367.622 353.233 367.451 352.634 367.44C352.041 367.421 351.15 367.639 350.29 368.305C349.467 368.966 348.612 370.128 348.64 371.662C348.636 373.217 349.912 374.693 351.515 375.194C353.105 375.739 355.007 375.304 355.924 374.048C356.854 372.828 356.852 371.385 356.578 370.365C356.279 369.32 355.689 368.617 355.2 368.282C354.709 367.937 354.37 367.899 354.356 367.938C354.245 368.059 355.582 368.601 355.959 370.512C356.127 371.413 356.03 372.624 355.278 373.528C354.558 374.451 353.112 374.775 351.795 374.34C350.476 373.911 349.502 372.795 349.467 371.625C349.396 370.452 350.034 369.419 350.702 368.791C352.137 367.471 353.535 367.825 353.518 367.661Z" fill="#455A64"/>
<path d="M286.946 388.002C286.944 388.064 287.461 388.119 288.402 388.166C289.342 388.229 290.709 388.195 292.388 388.043C295.744 387.751 300.37 386.738 305.053 384.538C309.729 382.32 313.453 379.392 315.811 376.987C316.996 375.787 317.89 374.753 318.439 373.987C319.001 373.231 319.286 372.797 319.237 372.759C319.113 372.659 317.815 374.279 315.371 376.527C312.937 378.778 309.242 381.554 304.669 383.724C300.089 385.875 295.598 386.963 292.313 387.412C289.023 387.87 286.947 387.841 286.946 388.002Z" fill="#455A64"/>
<path d="M408.828 347.669C406.484 342.333 406.919 341.842 406.919 341.842L400.276 283.714L393.896 227.167L388.722 185.312L358.835 178.912C358.835 178.912 355.394 188.446 340.947 188.735C324.303 189.067 314.765 174.185 314.765 174.185L266.976 184.445L284.948 307.707L287.103 340.908C287.103 340.908 283.535 346.28 283.535 352.043C283.535 357.806 283.301 361.647 283.301 361.647C327.659 373.833 371.678 384.386 412.181 372.589C412.181 372.591 411.171 353.005 408.828 347.669Z" fill="#455A64"/>
<path d="M377.818 183.13C377.818 183.13 395.044 185.054 401.156 191.542C407.268 198.03 426.806 230.13 426.806 230.13L398.428 268.954L385.281 251.014L377.818 183.13Z" fill="#455A64"/>
<path d="M390.951 203.22C391.19 203.197 393.904 224.534 397.012 250.872C400.122 277.219 402.449 298.59 402.21 298.613C401.972 298.636 399.258 277.303 396.148 250.956C393.039 224.618 390.712 203.243 390.951 203.22Z" fill="#263238"/>
<path d="M266.976 184.445L228.712 201.429L242.557 240.163L279.439 246.008L266.976 184.445Z" fill="#455A64"/>
<path d="M272.243 210.121C272.498 210.094 274.323 225.206 276.32 243.871C278.317 262.542 279.729 277.695 279.474 277.723C279.219 277.75 277.394 262.641 275.397 243.97C273.4 225.305 271.988 210.148 272.243 210.121Z" fill="#263238"/>
<g opacity="0.3">
<path d="M281.677 406.517C302.452 399.047 313.963 384.329 323.255 368.718C332.546 353.108 333.875 331.125 327.927 313.96C327.927 313.96 284.992 355.494 284.687 356.409C284.382 357.325 281.677 406.517 281.677 406.517Z" fill="black"/>
</g>
<g opacity="0.3">
<path d="M340.117 188.197C339.603 192.414 341.959 196.48 344.849 199.594C347.74 202.708 351.239 205.245 353.873 208.579C356.88 212.384 358.601 217.02 360.275 221.571C363.771 231.075 367.267 240.578 370.763 250.082C373.774 258.267 376.825 266.532 381.599 273.83C386.373 281.128 393.095 287.48 401.398 290.149L395.094 236.607L361.84 183.128L340.117 188.197Z" fill="black"/>
</g>
<path d="M374.573 188.663C374.573 187.99 375.107 163.19 373.444 160.496C371.781 157.803 370.45 155.277 370.118 152.752C370.118 152.752 371.025 151.279 369.372 150.356C367.719 149.433 365.097 151.683 365.04 155.663C364.983 159.643 365.439 166.451 365.439 166.451C365.439 166.451 347.144 156.067 342.128 155.778C337.112 155.49 329.589 154.567 329.19 156.99C328.791 159.413 329.133 159.99 331.755 160.913C334.377 161.836 338.537 162.471 342.641 163.855C346.745 165.24 348.625 166.18 348.625 166.18C348.625 166.18 339.278 163.428 337.226 166.18C335.174 168.931 335.459 171.412 336.77 172.739C336.77 172.739 333.977 173.893 334.262 176.95C334.547 180.008 335.915 180.758 335.915 180.758C335.915 180.758 333.179 182.835 334.49 185.489C335.801 188.143 338.879 186.47 341.785 189.47C344.692 192.47 351.93 199.508 354.723 201.066C357.516 202.624 363.899 203.258 363.899 203.258L374.573 188.663Z" fill="#FFBF9D"/>
<path d="M374.573 188.663C374.579 188.665 374.524 188.75 374.41 188.916C374.284 189.095 374.114 189.338 373.892 189.653C373.417 190.316 372.73 191.275 371.842 192.516C370.019 195.034 367.368 198.697 364.009 203.338L363.964 203.401L363.887 203.393C362.624 203.26 361.308 203.074 359.941 202.817C358.576 202.557 357.154 202.24 355.731 201.702C355.015 201.446 354.321 201.049 353.689 200.589C353.044 200.139 352.426 199.639 351.798 199.128C350.553 198.096 349.309 196.985 348.046 195.822C346.783 194.657 345.503 193.438 344.206 192.168C343.562 191.528 342.91 190.88 342.249 190.224C341.597 189.545 340.958 188.896 340.141 188.448C339.339 187.981 338.416 187.754 337.469 187.544C336.547 187.333 335.434 187.113 334.739 186.24C334.059 185.428 333.765 184.282 334.024 183.225C334.292 182.17 334.951 181.283 335.786 180.589L335.813 180.949C335.089 180.446 334.737 179.716 334.457 178.964C334.201 178.2 334.059 177.415 334.031 176.584C334.002 175.749 334.251 174.89 334.731 174.178C335.224 173.471 335.884 172.908 336.686 172.533L336.612 172.899C335.441 171.729 335.265 169.862 335.804 168.366C336.056 167.601 336.445 166.889 336.91 166.235C337.124 165.902 337.464 165.558 337.835 165.367C338.207 165.161 338.605 165.029 339.006 164.931C340.622 164.591 342.261 164.731 343.873 164.938C345.49 165.164 347.092 165.507 348.693 165.955L348.521 166.393C346.118 165.289 343.518 164.358 340.875 163.553C338.216 162.759 335.439 162.24 332.669 161.457C331.677 161.143 330.689 160.858 329.765 160.266C329.304 159.968 328.924 159.435 328.854 158.868C328.769 158.313 328.838 157.789 328.906 157.28C328.944 157.047 328.967 156.735 329.137 156.464C329.299 156.204 329.528 156.015 329.763 155.868C330.245 155.59 330.758 155.453 331.264 155.354C332.281 155.167 333.295 155.133 334.298 155.128C336.305 155.13 338.279 155.283 340.23 155.418C341.207 155.498 342.163 155.508 343.164 155.701C343.646 155.809 344.112 155.956 344.584 156.081L345.955 156.558C349.555 157.926 352.924 159.584 356.179 161.233C359.429 162.894 362.552 164.577 365.547 166.265L365.226 166.466C365.002 162.537 364.769 158.777 364.87 155.138C365.007 153.325 365.696 151.458 367.211 150.407C367.592 150.161 368.036 149.989 368.503 149.972C368.969 149.945 369.447 150.137 369.79 150.407C370.148 150.673 370.449 151.076 370.524 151.539C370.601 152.003 370.493 152.448 370.274 152.848L370.299 152.729C370.694 155.499 372.077 157.886 373.368 160.056C373.527 160.313 373.718 160.619 373.804 160.937C373.911 161.248 373.967 161.558 374.031 161.866C374.143 162.483 374.223 163.092 374.284 163.692C374.41 164.893 374.483 166.058 374.543 167.185C374.76 171.692 374.757 175.583 374.756 178.765C374.746 181.947 374.702 184.422 374.664 186.101C374.641 186.926 374.623 187.563 374.61 188.012C374.594 188.441 374.573 188.663 374.573 188.663C374.573 188.663 374.557 188.444 374.556 188.011C374.556 187.562 374.557 186.925 374.558 186.1C374.557 184.402 374.555 181.933 374.552 178.766C374.522 175.586 374.495 171.697 374.252 167.202C374.186 166.079 374.106 164.918 373.975 163.727C373.911 163.132 373.829 162.529 373.716 161.927C373.588 161.31 373.467 160.756 373.086 160.228C371.781 158.052 370.361 155.65 369.937 152.778L369.929 152.721L369.963 152.659C370.131 152.352 370.226 151.955 370.16 151.604C370.099 151.248 369.872 150.936 369.564 150.707C368.952 150.193 368.091 150.275 367.419 150.729C366.064 151.668 365.387 153.437 365.268 155.168C365.18 158.739 365.42 162.53 365.654 166.439L365.677 166.833L365.333 166.64C362.343 164.964 359.218 163.288 355.973 161.636C352.725 159.996 349.356 158.346 345.793 156.997L344.443 156.529C343.985 156.409 343.528 156.264 343.067 156.162C342.163 155.984 341.167 155.967 340.196 155.89C338.245 155.757 336.277 155.605 334.298 155.605C333.311 155.61 332.315 155.647 331.353 155.824C330.428 156.012 329.351 156.341 329.378 157.349C329.311 157.839 329.253 158.338 329.325 158.792C329.39 159.248 329.645 159.608 330.037 159.874C330.836 160.391 331.843 160.698 332.803 160.998C335.53 161.77 338.327 162.295 341.008 163.095C343.69 163.915 346.265 164.836 348.731 165.971L348.559 166.409C346.992 165.969 345.395 165.626 343.808 165.403C342.226 165.195 340.611 165.066 339.109 165.383C338.37 165.561 337.668 165.863 337.285 166.502C336.84 167.125 336.473 167.799 336.238 168.509C335.735 169.907 335.912 171.561 336.931 172.583L337.157 172.809L336.857 172.949C336.166 173.271 335.531 173.802 335.099 174.429C334.67 175.066 334.447 175.821 334.471 176.579C334.493 177.337 334.632 178.118 334.868 178.821C335.106 179.51 335.499 180.21 336.019 180.571L336.271 180.746L336.045 180.932C335.293 181.552 334.664 182.399 334.435 183.324C334.202 184.243 334.465 185.263 335.057 185.973C335.634 186.717 336.622 186.932 337.557 187.145C338.505 187.358 339.483 187.599 340.336 188.098C341.199 188.572 341.897 189.288 342.527 189.949C343.184 190.606 343.832 191.255 344.473 191.896C345.763 193.168 347.036 194.389 348.291 195.556C349.547 196.722 350.783 197.834 352.015 198.865C353.263 199.867 354.452 200.902 355.846 201.405C357.231 201.937 358.642 202.261 359.995 202.527C361.35 202.79 362.663 202.984 363.913 203.124L363.792 203.178C367.187 198.582 369.867 194.954 371.71 192.46C372.626 191.233 373.333 190.285 373.823 189.629C374.059 189.319 374.24 189.08 374.374 188.904C374.5 188.743 374.573 188.663 374.573 188.663Z" fill="#FF9A6C"/>
<path d="M433.867 246.562C432.039 243.068 427.91 235.796 425.92 231.344L412.842 236.097C412.842 236.097 375.795 186.053 374.612 186.053C373.429 186.053 357.339 200.971 357.339 200.971C358.049 201.681 391.405 278.129 404.182 286.41C416.959 294.691 426.481 299.95 433.342 288.12C440.203 276.29 441.911 261.941 433.867 246.562Z" fill="#FFBF9D"/>
<path d="M429.592 258.558C429.562 258.573 429.345 258.226 428.978 257.588C428.616 256.947 428.076 256.028 427.393 254.905C426.032 252.655 424.017 249.629 421.572 246.447C419.126 243.264 416.752 240.508 415.025 238.519C414.212 237.582 413.527 236.793 412.979 236.163C412.499 235.603 412.246 235.283 412.27 235.26C412.294 235.238 412.594 235.515 413.116 236.037C413.639 236.557 414.378 237.327 415.277 238.294C417.071 240.228 419.494 242.959 421.952 246.157C424.409 249.354 426.392 252.43 427.685 254.734C428.334 255.885 428.83 256.832 429.142 257.502C429.46 258.168 429.621 258.543 429.592 258.558Z" fill="#FF9A6C"/>
<path d="M354.232 147.118C353.9 147.363 352.521 145.942 350.331 145.177C348.161 144.356 346.192 144.558 346.095 144.157C346.052 143.975 346.524 143.659 347.399 143.492C348.266 143.322 349.536 143.361 350.823 143.827C352.108 144.296 353.105 145.083 353.661 145.77C354.223 146.461 354.381 147.006 354.232 147.118Z" fill="#263238"/>
<path d="M387.674 347.326C387.682 347.341 387.524 347.432 387.217 347.594C386.905 347.745 386.461 348.012 385.848 348.258C384.633 348.777 382.796 349.382 380.446 349.712C378.099 350.039 375.252 350.075 372.148 349.671C369.042 349.277 365.684 348.495 362.237 347.457C355.35 345.352 349.254 343.044 344.892 341.259C342.711 340.366 340.963 339.602 339.763 339.057C339.205 338.797 338.75 338.584 338.388 338.415C338.076 338.263 337.916 338.176 337.922 338.16C337.929 338.145 338.102 338.203 338.426 338.326C338.797 338.473 339.264 338.658 339.836 338.885C341.12 339.395 342.875 340.092 345.017 340.943C349.404 342.644 355.51 344.898 362.375 346.996C365.807 348.03 369.134 348.818 372.206 349.232C375.276 349.655 378.083 349.654 380.404 349.375C382.728 349.092 384.555 348.546 385.781 348.084C386.995 347.602 387.654 347.286 387.674 347.326Z" fill="#263238"/>
<path d="M297.188 251.916C280.487 240.667 260.623 236.649 247.603 236.641C235.409 236.633 217.463 238.544 201.215 247.695C191.124 253.378 183.07 261.147 177.278 270.784C170.417 282.2 166.698 296.328 166.225 312.776C166.154 315.244 167.064 317.58 168.787 319.355C170.519 321.139 172.842 322.122 175.328 322.124L207.301 322.145C211.812 322.148 215.692 318.785 216.327 314.321C217.751 304.296 223.713 287.418 247.64 287.021C265.875 286.728 273.379 299.921 275.764 305.611C279.644 314.87 278.651 325.847 273.107 334.974C264.59 348.996 248.937 351.133 240.365 351.158C230.507 351.188 222.482 359.185 222.475 368.985L222.452 403.39C222.449 408.415 226.534 412.505 231.558 412.508L262.71 412.529C267.734 412.532 271.825 408.447 271.828 403.423L271.833 396.194C271.833 396.021 271.941 395.871 272.109 395.812C279.167 393.341 292.85 387.367 305.178 375.126C320.916 359.499 328.905 339.321 328.921 315.154C328.944 280.569 311.677 261.675 297.188 251.916Z" fill="#F8FB61"/>
<path d="M248.68 421.181L245.955 421.179C232.927 421.17 222.321 431.762 222.312 444.791C222.303 457.82 232.895 468.425 245.924 468.434L248.649 468.436C261.677 468.445 272.283 457.853 272.292 444.824C272.3 431.796 261.708 421.19 248.68 421.181Z" fill="#F8FB61"/>
<g opacity="0.3">
<path d="M327.72 293.059C327.302 289.537 326.383 286.165 325.085 282.927C318.848 267.365 304.212 256.76 287.554 254.866L207.168 245.724C215.909 254.658 227.322 256.437 239.421 259.573C251.52 262.709 264.546 267.411 276.77 270.013C280.693 270.848 284.746 271.89 287.797 274.493C290.774 277.032 292.435 280.745 294.003 284.329C296.327 289.642 298.652 294.954 300.976 300.267C303.63 306.333 307.16 313.183 314.305 313.574C317.188 313.732 320.017 312.652 322.209 310.773C327.382 306.336 328.475 299.426 327.72 293.059Z" fill="black"/>
</g>
<path d="M326.574 271.526C325.952 270.432 313.735 255.493 307.661 249.702C303.739 245.962 297.829 243.383 294.124 242.019C294.124 242.019 232.956 219.93 228.71 217.774L201.239 245.882C210.803 248.542 275.736 264.175 291.755 267.691C294.557 270.959 297.376 273.639 297.376 273.639L302.032 284.578C302.032 284.578 302.569 288.56 302.233 292.831C301.898 297.101 305.361 295.436 305.361 295.436C305.361 295.436 305.198 298.09 305.423 301.915C305.425 301.953 305.428 301.991 305.431 302.029C305.658 304.889 309.768 305.243 310.642 302.51L313.798 292.648C313.798 292.648 313.385 301.623 313.217 306.618C313.186 307.524 313.345 308.269 313.624 308.882C314.832 311.53 318.774 311.037 319.445 308.204L323.142 292.602L321.946 283.047L325.047 291.778C325.047 291.778 325.904 296.445 325.731 303.001C325.662 305.623 326.546 306.739 327.632 307.134C329.45 307.795 331.371 306.347 331.529 304.418L332.711 289.961C332.711 289.961 327.196 272.621 326.574 271.526Z" fill="#FFBF9D"/>
<path d="M224.764 216.682C224.79 216.569 226.528 216.847 229.263 217.606C232 218.356 235.709 219.633 239.721 221.226C243.735 222.821 247.32 224.36 249.918 225.463C252.514 226.572 254.118 227.267 254.073 227.392C254.031 227.508 252.343 227.029 249.678 226.074C247.011 225.124 243.381 223.679 239.379 222.089C235.378 220.501 231.735 219.137 229.067 218.232C226.405 217.319 224.732 216.818 224.764 216.682Z" fill="#FF9A6C"/>
</svg>
